G04 #@! TF.FileFunction,Copper,L1,Top,Signal*
%FSLAX46Y46*%
G04 Gerber Fmt 4.6, Leading zero omitted, Abs format (unit mm)*
G04 Created by KiCad (PCBNEW 4.0.2+e4-6225~38~ubuntu15.10.1-stable) date Sun 11 Sep 2016 22:59:17 SAST*
%MOMM*%
G01*
G04 APERTURE LIST*
%ADD10C,0.100000*%
%ADD11R,1.550000X1.300000*%
%ADD12R,1.300000X1.550000*%
%ADD13R,1.727200X2.032000*%
%ADD14O,1.727200X2.032000*%
%ADD15R,1.198880X1.198880*%
%ADD16O,0.950000X1.250000*%
%ADD17O,1.550000X1.000000*%
%ADD18R,2.032000X2.032000*%
%ADD19O,2.032000X2.032000*%
%ADD20R,1.300000X1.500000*%
%ADD21R,1.500000X1.300000*%
%ADD22C,0.600000*%
%ADD23C,0.350000*%
%ADD24C,0.750000*%
%ADD25C,0.250000*%
%ADD26C,0.254000*%
G04 APERTURE END LIST*
D10*
D11*
X127254100Y-95832100D03*
X135204100Y-95832100D03*
X127254100Y-100332100D03*
X135204100Y-100332100D03*
D12*
X120279600Y-110756600D03*
X120279600Y-102806600D03*
X124779600Y-110756600D03*
X124779600Y-102806600D03*
D11*
X135191400Y-117718400D03*
X127241400Y-117718400D03*
X135191400Y-113218400D03*
X127241400Y-113218400D03*
D12*
X142153200Y-102806600D03*
X142153200Y-110756600D03*
X137653200Y-102806600D03*
X137653200Y-110756600D03*
D11*
X64097000Y-112862800D03*
X72047000Y-112862800D03*
X64097000Y-117362800D03*
X72047000Y-117362800D03*
D12*
X74508800Y-110401000D03*
X74508800Y-102451000D03*
X79008800Y-110401000D03*
X79008800Y-102451000D03*
D11*
X72047000Y-99989200D03*
X64097000Y-99989200D03*
X72047000Y-95489200D03*
X64097000Y-95489200D03*
D12*
X61635200Y-102451000D03*
X61635200Y-110401000D03*
X57135200Y-102451000D03*
X57135200Y-110401000D03*
D13*
X75387200Y-91084400D03*
D14*
X77927200Y-91084400D03*
X80467200Y-91084400D03*
X83007200Y-91084400D03*
D15*
X79197200Y-96451420D03*
X79197200Y-94353380D03*
X73660000Y-124493020D03*
X73660000Y-122394980D03*
X71374000Y-124493020D03*
X71374000Y-122394980D03*
X69088000Y-124493020D03*
X69088000Y-122394980D03*
X66802000Y-124493020D03*
X66802000Y-122394980D03*
X75946000Y-124493020D03*
X75946000Y-122394980D03*
D16*
X55613740Y-84441300D03*
X55613740Y-79441300D03*
D17*
X52913740Y-85441300D03*
X52913740Y-78441300D03*
D13*
X93472000Y-94361000D03*
D14*
X96012000Y-94361000D03*
X98552000Y-94361000D03*
X101092000Y-94361000D03*
D15*
X142341600Y-90152220D03*
X142341600Y-88054180D03*
D18*
X72948800Y-82702400D03*
D19*
X72948800Y-80162400D03*
D18*
X111048800Y-120904000D03*
D19*
X111048800Y-118364000D03*
D20*
X142240000Y-98581200D03*
X142240000Y-95881200D03*
X82702400Y-96549200D03*
X82702400Y-93849200D03*
D21*
X79295000Y-124460000D03*
X81995000Y-124460000D03*
X61294000Y-122301000D03*
X58594000Y-122301000D03*
X61294000Y-124841000D03*
X58594000Y-124841000D03*
X61294000Y-127381000D03*
X58594000Y-127381000D03*
X73707000Y-127254000D03*
X76407000Y-127254000D03*
D20*
X138582400Y-95830400D03*
X138582400Y-98530400D03*
D21*
X120290600Y-99034600D03*
X122990600Y-99034600D03*
D20*
X123596400Y-117682000D03*
X123596400Y-114982000D03*
D21*
X142116800Y-114096800D03*
X139416800Y-114096800D03*
D20*
X60502800Y-114728000D03*
X60502800Y-117428000D03*
X75336400Y-98174800D03*
X75336400Y-95474800D03*
D21*
X59820800Y-99212400D03*
X57120800Y-99212400D03*
D13*
X135128000Y-124968000D03*
D14*
X132588000Y-124968000D03*
X130048000Y-124968000D03*
D22*
X74549000Y-115443000D03*
X61214000Y-96520000D03*
X96393000Y-119126000D03*
X86741000Y-127635000D03*
X86360000Y-121285000D03*
X89281000Y-96901000D03*
X104775000Y-97409000D03*
X98171000Y-97409000D03*
X67868800Y-106578400D03*
X142392400Y-84683600D03*
X131165600Y-106934000D03*
X66802000Y-119761000D03*
X75946000Y-119253000D03*
X69088000Y-119634000D03*
X71374000Y-119380000D03*
X73787000Y-119253000D03*
X99949000Y-82677000D03*
X90678000Y-93472000D03*
X56515000Y-124968000D03*
X66294000Y-89154000D03*
X81991200Y-109728000D03*
X91338400Y-84836000D03*
X110286800Y-102057200D03*
X137820400Y-88798400D03*
X96901000Y-100076000D03*
X127203200Y-90373200D03*
X120243600Y-92659200D03*
X117094000Y-92456000D03*
X140055600Y-100584000D03*
X86309200Y-105308400D03*
X85242400Y-102463600D03*
X72034400Y-90068400D03*
X57099200Y-94081600D03*
X96266000Y-92202000D03*
X113919000Y-101600000D03*
X108077000Y-110490000D03*
D23*
X74549000Y-115443000D02*
X72047000Y-112941000D01*
X72047000Y-112941000D02*
X72047000Y-112862800D01*
D24*
X74508800Y-102451000D02*
X71996200Y-102451000D01*
X71996200Y-102451000D02*
X67868800Y-106578400D01*
X74508800Y-110401000D02*
X74508800Y-102451000D01*
X74508800Y-110401000D02*
X72047000Y-112862800D01*
X64097000Y-99989200D02*
X64097000Y-99403000D01*
X64097000Y-99403000D02*
X61214000Y-96520000D01*
X99060000Y-121793000D02*
X99568000Y-121793000D01*
X96393000Y-119126000D02*
X99060000Y-121793000D01*
X86741000Y-121666000D02*
X86741000Y-127635000D01*
X86360000Y-121285000D02*
X86741000Y-121666000D01*
X89789000Y-97409000D02*
X98171000Y-97409000D01*
X89281000Y-96901000D02*
X89789000Y-97409000D01*
X98171000Y-97409000D02*
X104775000Y-97409000D01*
X64097000Y-102806600D02*
X67868800Y-106578400D01*
X64097000Y-102806600D02*
X64097000Y-99989200D01*
X142341600Y-88054180D02*
X142341600Y-84734400D01*
X142341600Y-84734400D02*
X142392400Y-84683600D01*
X135204100Y-100332100D02*
X135204100Y-102895500D01*
X135204100Y-102895500D02*
X131165600Y-106934000D01*
X61635200Y-102451000D02*
X61635200Y-110401000D01*
X64097000Y-99989200D02*
X61635200Y-102451000D01*
X72047000Y-99989200D02*
X64097000Y-99989200D01*
X74508800Y-102451000D02*
X72047000Y-99989200D01*
X64097000Y-112862800D02*
X72047000Y-112862800D01*
X61635200Y-110401000D02*
X64097000Y-112862800D01*
X137653200Y-110756600D02*
X135191400Y-113218400D01*
X137653200Y-102806600D02*
X137653200Y-110756600D01*
X135204100Y-100332100D02*
X135204100Y-100357500D01*
X135204100Y-100357500D02*
X137653200Y-102806600D01*
X127241400Y-113218400D02*
X135191400Y-113218400D01*
X124779600Y-110756600D02*
X127241400Y-113218400D01*
X127254100Y-100332100D02*
X135204100Y-100332100D01*
X124779600Y-102806600D02*
X127254100Y-100332100D01*
X124779600Y-110756600D02*
X124779600Y-102806600D01*
D23*
X66802000Y-119761000D02*
X66802000Y-122394980D01*
X75946000Y-119253000D02*
X75946000Y-122394980D01*
X69088000Y-119634000D02*
X69088000Y-122394980D01*
X71374000Y-119380000D02*
X71374000Y-122394980D01*
X73660000Y-119380000D02*
X73660000Y-122394980D01*
X73787000Y-119253000D02*
X73660000Y-119380000D01*
X91313000Y-82677000D02*
X99949000Y-82677000D01*
X89408000Y-84582000D02*
X91313000Y-82677000D01*
X89408000Y-92202000D02*
X89408000Y-84582000D01*
X90678000Y-93472000D02*
X89408000Y-92202000D01*
X91338400Y-84836000D02*
X91338400Y-84886800D01*
D25*
X79197200Y-98120200D02*
X79197200Y-96451420D01*
X80264000Y-99187000D02*
X79197200Y-98120200D01*
X96012000Y-99187000D02*
X80264000Y-99187000D01*
X96901000Y-100076000D02*
X96012000Y-99187000D01*
D24*
X61294000Y-127381000D02*
X69596000Y-127381000D01*
X71374000Y-125603000D02*
X71374000Y-124493020D01*
X69596000Y-127381000D02*
X71374000Y-125603000D01*
X61294000Y-124841000D02*
X64643000Y-124841000D01*
X67470020Y-126111000D02*
X69088000Y-124493020D01*
X65913000Y-126111000D02*
X67470020Y-126111000D01*
X64643000Y-124841000D02*
X65913000Y-126111000D01*
X61294000Y-122301000D02*
X64008000Y-122301000D01*
X66200020Y-124493020D02*
X66802000Y-124493020D01*
X64008000Y-122301000D02*
X66200020Y-124493020D01*
X66768980Y-124460000D02*
X66802000Y-124493020D01*
X142341600Y-90152220D02*
X142341600Y-95779600D01*
X142341600Y-95779600D02*
X142240000Y-95881200D01*
X75946000Y-124493020D02*
X79261980Y-124493020D01*
X79261980Y-124493020D02*
X79295000Y-124460000D01*
X73707000Y-127254000D02*
X73707000Y-124540020D01*
X73707000Y-124540020D02*
X73660000Y-124493020D01*
X79197200Y-94353380D02*
X82198220Y-94353380D01*
X82198220Y-94353380D02*
X82702400Y-93849200D01*
D23*
X127254100Y-90424100D02*
X127254100Y-95832100D01*
X127203200Y-90373200D02*
X127254100Y-90424100D01*
D24*
X135204100Y-95832100D02*
X127254100Y-95832100D01*
X138582400Y-95830400D02*
X135205800Y-95830400D01*
X135205800Y-95830400D02*
X135204100Y-95832100D01*
X138393600Y-95641600D02*
X138531600Y-95779600D01*
D23*
X120290600Y-92706200D02*
X120290600Y-99034600D01*
X120243600Y-92659200D02*
X120290600Y-92706200D01*
D24*
X120279600Y-102806600D02*
X120279600Y-110756600D01*
X120290600Y-99034600D02*
X120290600Y-102795600D01*
X120290600Y-102795600D02*
X120279600Y-102806600D01*
D23*
X121492000Y-117682000D02*
X123596400Y-117682000D01*
X117221000Y-113411000D02*
X121492000Y-117682000D01*
X117221000Y-92583000D02*
X117221000Y-113411000D01*
X117094000Y-92456000D02*
X117221000Y-92583000D01*
D24*
X127241400Y-117718400D02*
X135191400Y-117718400D01*
X123596400Y-117682000D02*
X127205000Y-117682000D01*
X127205000Y-117682000D02*
X127241400Y-117718400D01*
D23*
X140055600Y-100584000D02*
X142153200Y-102681600D01*
X142153200Y-102681600D02*
X142153200Y-102806600D01*
D24*
X142153200Y-110756600D02*
X142153200Y-102806600D01*
X142116800Y-114096800D02*
X142116800Y-110793000D01*
X142116800Y-110793000D02*
X142153200Y-110756600D01*
D23*
X72047000Y-117362800D02*
X84008400Y-117362800D01*
X86309200Y-115062000D02*
X86309200Y-105308400D01*
X84008400Y-117362800D02*
X86309200Y-115062000D01*
D24*
X64097000Y-117362800D02*
X60568000Y-117362800D01*
X60568000Y-117362800D02*
X60502800Y-117428000D01*
X72047000Y-117362800D02*
X64097000Y-117362800D01*
D23*
X85229800Y-102451000D02*
X79008800Y-102451000D01*
X85242400Y-102463600D02*
X85229800Y-102451000D01*
D24*
X79008800Y-102451000D02*
X79008800Y-110401000D01*
X79008800Y-110401000D02*
X79008800Y-113422000D01*
X79008800Y-113422000D02*
X79074000Y-113487200D01*
D23*
X72047000Y-90081000D02*
X72047000Y-95489200D01*
X72034400Y-90068400D02*
X72047000Y-90081000D01*
D24*
X72047000Y-95489200D02*
X64097000Y-95489200D01*
X72047000Y-95489200D02*
X75322000Y-95489200D01*
X75322000Y-95489200D02*
X75336400Y-95474800D01*
D23*
X57120800Y-94103200D02*
X57120800Y-99212400D01*
X57099200Y-94081600D02*
X57120800Y-94103200D01*
D24*
X57135200Y-102451000D02*
X57135200Y-110401000D01*
X57135200Y-102451000D02*
X57135200Y-99226800D01*
X57135200Y-99226800D02*
X57120800Y-99212400D01*
D23*
X104521000Y-92202000D02*
X96266000Y-92202000D01*
X113919000Y-101600000D02*
X104521000Y-92202000D01*
X100330000Y-96139000D02*
X98552000Y-94361000D01*
X105664000Y-96139000D02*
X100330000Y-96139000D01*
X107823000Y-98298000D02*
X105664000Y-96139000D01*
X107823000Y-110236000D02*
X107823000Y-98298000D01*
X108077000Y-110490000D02*
X107823000Y-110236000D01*
D26*
G36*
X147193000Y-131953000D02*
X47879000Y-131953000D01*
X47879000Y-127666750D01*
X57209000Y-127666750D01*
X57209000Y-128157310D01*
X57305673Y-128390699D01*
X57484302Y-128569327D01*
X57717691Y-128666000D01*
X58308250Y-128666000D01*
X58467000Y-128507250D01*
X58467000Y-127508000D01*
X57367750Y-127508000D01*
X57209000Y-127666750D01*
X47879000Y-127666750D01*
X47879000Y-125126750D01*
X57209000Y-125126750D01*
X57209000Y-125617310D01*
X57305673Y-125850699D01*
X57484302Y-126029327D01*
X57681478Y-126111000D01*
X57484302Y-126192673D01*
X57305673Y-126371301D01*
X57209000Y-126604690D01*
X57209000Y-127095250D01*
X57367750Y-127254000D01*
X58467000Y-127254000D01*
X58467000Y-126254750D01*
X58323250Y-126111000D01*
X58467000Y-125967250D01*
X58467000Y-124968000D01*
X57367750Y-124968000D01*
X57209000Y-125126750D01*
X47879000Y-125126750D01*
X47879000Y-122586750D01*
X57209000Y-122586750D01*
X57209000Y-123077310D01*
X57305673Y-123310699D01*
X57484302Y-123489327D01*
X57681478Y-123571000D01*
X57484302Y-123652673D01*
X57305673Y-123831301D01*
X57209000Y-124064690D01*
X57209000Y-124555250D01*
X57367750Y-124714000D01*
X58467000Y-124714000D01*
X58467000Y-123714750D01*
X58323250Y-123571000D01*
X58467000Y-123427250D01*
X58467000Y-122428000D01*
X57367750Y-122428000D01*
X57209000Y-122586750D01*
X47879000Y-122586750D01*
X47879000Y-121524690D01*
X57209000Y-121524690D01*
X57209000Y-122015250D01*
X57367750Y-122174000D01*
X58467000Y-122174000D01*
X58467000Y-121174750D01*
X58721000Y-121174750D01*
X58721000Y-122174000D01*
X58741000Y-122174000D01*
X58741000Y-122428000D01*
X58721000Y-122428000D01*
X58721000Y-123427250D01*
X58864750Y-123571000D01*
X58721000Y-123714750D01*
X58721000Y-124714000D01*
X58741000Y-124714000D01*
X58741000Y-124968000D01*
X58721000Y-124968000D01*
X58721000Y-125967250D01*
X58864750Y-126111000D01*
X58721000Y-126254750D01*
X58721000Y-127254000D01*
X58741000Y-127254000D01*
X58741000Y-127508000D01*
X58721000Y-127508000D01*
X58721000Y-128507250D01*
X58879750Y-128666000D01*
X59470309Y-128666000D01*
X59703698Y-128569327D01*
X59882327Y-128390699D01*
X59938654Y-128254713D01*
X59940838Y-128266317D01*
X60079910Y-128482441D01*
X60292110Y-128627431D01*
X60544000Y-128678440D01*
X62044000Y-128678440D01*
X62279317Y-128634162D01*
X62495441Y-128495090D01*
X62566563Y-128391000D01*
X69596000Y-128391000D01*
X69982510Y-128314118D01*
X70310178Y-128095178D01*
X72088178Y-126317178D01*
X72307118Y-125989510D01*
X72384000Y-125603000D01*
X72384000Y-125582856D01*
X72424881Y-125556550D01*
X72517440Y-125421085D01*
X72596470Y-125543901D01*
X72697000Y-125612590D01*
X72697000Y-126016721D01*
X72505559Y-126139910D01*
X72360569Y-126352110D01*
X72309560Y-126604000D01*
X72309560Y-127904000D01*
X72353838Y-128139317D01*
X72492910Y-128355441D01*
X72705110Y-128500431D01*
X72957000Y-128551440D01*
X74457000Y-128551440D01*
X74692317Y-128507162D01*
X74908441Y-128368090D01*
X75053431Y-128155890D01*
X75060191Y-128122510D01*
X75118673Y-128263699D01*
X75297302Y-128442327D01*
X75530691Y-128539000D01*
X76121250Y-128539000D01*
X76280000Y-128380250D01*
X76280000Y-127381000D01*
X76534000Y-127381000D01*
X76534000Y-128380250D01*
X76692750Y-128539000D01*
X77283309Y-128539000D01*
X77516698Y-128442327D01*
X77695327Y-128263699D01*
X77792000Y-128030310D01*
X77792000Y-127539750D01*
X77633250Y-127381000D01*
X76534000Y-127381000D01*
X76280000Y-127381000D01*
X76260000Y-127381000D01*
X76260000Y-127127000D01*
X76280000Y-127127000D01*
X76280000Y-126127750D01*
X76534000Y-126127750D01*
X76534000Y-127127000D01*
X77633250Y-127127000D01*
X77792000Y-126968250D01*
X77792000Y-126477690D01*
X77695327Y-126244301D01*
X77516698Y-126065673D01*
X77283309Y-125969000D01*
X76692750Y-125969000D01*
X76534000Y-126127750D01*
X76280000Y-126127750D01*
X76121250Y-125969000D01*
X75530691Y-125969000D01*
X75297302Y-126065673D01*
X75118673Y-126244301D01*
X75062346Y-126380287D01*
X75060162Y-126368683D01*
X74921090Y-126152559D01*
X74717000Y-126013110D01*
X74717000Y-125547595D01*
X74803440Y-125421085D01*
X74882470Y-125543901D01*
X75094670Y-125688891D01*
X75346560Y-125739900D01*
X76545440Y-125739900D01*
X76780757Y-125695622D01*
X76996881Y-125556550D01*
X77033456Y-125503020D01*
X78043317Y-125503020D01*
X78080910Y-125561441D01*
X78293110Y-125706431D01*
X78545000Y-125757440D01*
X80045000Y-125757440D01*
X80280317Y-125713162D01*
X80496441Y-125574090D01*
X80641431Y-125361890D01*
X80648191Y-125328510D01*
X80706673Y-125469699D01*
X80885302Y-125648327D01*
X81118691Y-125745000D01*
X81709250Y-125745000D01*
X81868000Y-125586250D01*
X81868000Y-124587000D01*
X82122000Y-124587000D01*
X82122000Y-125586250D01*
X82280750Y-125745000D01*
X82871309Y-125745000D01*
X83104698Y-125648327D01*
X83283327Y-125469699D01*
X83380000Y-125236310D01*
X83380000Y-124745750D01*
X83221250Y-124587000D01*
X82122000Y-124587000D01*
X81868000Y-124587000D01*
X81848000Y-124587000D01*
X81848000Y-124333000D01*
X81868000Y-124333000D01*
X81868000Y-123333750D01*
X82122000Y-123333750D01*
X82122000Y-124333000D01*
X83221250Y-124333000D01*
X83380000Y-124174250D01*
X83380000Y-123683690D01*
X83283327Y-123450301D01*
X83104698Y-123271673D01*
X82871309Y-123175000D01*
X82280750Y-123175000D01*
X82122000Y-123333750D01*
X81868000Y-123333750D01*
X81709250Y-123175000D01*
X81118691Y-123175000D01*
X80885302Y-123271673D01*
X80706673Y-123450301D01*
X80650346Y-123586287D01*
X80648162Y-123574683D01*
X80509090Y-123358559D01*
X80296890Y-123213569D01*
X80045000Y-123162560D01*
X78545000Y-123162560D01*
X78309683Y-123206838D01*
X78093559Y-123345910D01*
X77999876Y-123483020D01*
X77035836Y-123483020D01*
X77009530Y-123442139D01*
X77008533Y-123441457D01*
X77141871Y-123246310D01*
X77192880Y-122994420D01*
X77192880Y-121795540D01*
X77148602Y-121560223D01*
X77009530Y-121344099D01*
X76923036Y-121285000D01*
X85350000Y-121285000D01*
X85426882Y-121671510D01*
X85645822Y-121999178D01*
X85731000Y-122084356D01*
X85731000Y-127635000D01*
X85807882Y-128021510D01*
X86026822Y-128349178D01*
X86354490Y-128568118D01*
X86741000Y-128645000D01*
X87127510Y-128568118D01*
X87455178Y-128349178D01*
X87674118Y-128021510D01*
X87751000Y-127635000D01*
X87751000Y-124783255D01*
X128549400Y-124783255D01*
X128549400Y-125152745D01*
X128663474Y-125726234D01*
X128988330Y-126212415D01*
X129474511Y-126537271D01*
X130048000Y-126651345D01*
X130621489Y-126537271D01*
X131107670Y-126212415D01*
X131314461Y-125902931D01*
X131685964Y-126318732D01*
X132213209Y-126572709D01*
X132228974Y-126575358D01*
X132461000Y-126454217D01*
X132461000Y-125095000D01*
X132441000Y-125095000D01*
X132441000Y-124841000D01*
X132461000Y-124841000D01*
X132461000Y-123481783D01*
X132715000Y-123481783D01*
X132715000Y-124841000D01*
X132735000Y-124841000D01*
X132735000Y-125095000D01*
X132715000Y-125095000D01*
X132715000Y-126454217D01*
X132947026Y-126575358D01*
X132962791Y-126572709D01*
X133490036Y-126318732D01*
X133646907Y-126143155D01*
X133661238Y-126219317D01*
X133800310Y-126435441D01*
X134012510Y-126580431D01*
X134264400Y-126631440D01*
X135991600Y-126631440D01*
X136226917Y-126587162D01*
X136443041Y-126448090D01*
X136588031Y-126235890D01*
X136639040Y-125984000D01*
X136639040Y-123952000D01*
X136594762Y-123716683D01*
X136455690Y-123500559D01*
X136243490Y-123355569D01*
X135991600Y-123304560D01*
X134264400Y-123304560D01*
X134029083Y-123348838D01*
X133812959Y-123487910D01*
X133667969Y-123700110D01*
X133648768Y-123794927D01*
X133490036Y-123617268D01*
X132962791Y-123363291D01*
X132947026Y-123360642D01*
X132715000Y-123481783D01*
X132461000Y-123481783D01*
X132228974Y-123360642D01*
X132213209Y-123363291D01*
X131685964Y-123617268D01*
X131314461Y-124033069D01*
X131107670Y-123723585D01*
X130621489Y-123398729D01*
X130048000Y-123284655D01*
X129474511Y-123398729D01*
X128988330Y-123723585D01*
X128663474Y-124209766D01*
X128549400Y-124783255D01*
X87751000Y-124783255D01*
X87751000Y-121666000D01*
X87674118Y-121279490D01*
X87455178Y-120951822D01*
X87074178Y-120570822D01*
X86746510Y-120351882D01*
X86360000Y-120275000D01*
X85973490Y-120351882D01*
X85645822Y-120570822D01*
X85426882Y-120898490D01*
X85350000Y-121285000D01*
X76923036Y-121285000D01*
X76797330Y-121199109D01*
X76756000Y-121190739D01*
X76756000Y-119740441D01*
X76880838Y-119439799D01*
X76881111Y-119126000D01*
X95383000Y-119126000D01*
X95459882Y-119512510D01*
X95678822Y-119840178D01*
X98345822Y-122507178D01*
X98673490Y-122726118D01*
X99060000Y-122803001D01*
X99060005Y-122803000D01*
X99568000Y-122803000D01*
X99954510Y-122726118D01*
X100282178Y-122507178D01*
X100501118Y-122179510D01*
X100578000Y-121793000D01*
X100501118Y-121406490D01*
X100282178Y-121078822D01*
X99954510Y-120859882D01*
X99568000Y-120783000D01*
X99478356Y-120783000D01*
X97107178Y-118411822D01*
X97035608Y-118364000D01*
X109365455Y-118364000D01*
X109491130Y-118995810D01*
X109718299Y-119335792D01*
X109581359Y-119423910D01*
X109436369Y-119636110D01*
X109385360Y-119888000D01*
X109385360Y-121920000D01*
X109429638Y-122155317D01*
X109568710Y-122371441D01*
X109780910Y-122516431D01*
X110032800Y-122567440D01*
X112064800Y-122567440D01*
X112300117Y-122523162D01*
X112516241Y-122384090D01*
X112661231Y-122171890D01*
X112712240Y-121920000D01*
X112712240Y-119888000D01*
X112667962Y-119652683D01*
X112528890Y-119436559D01*
X112379963Y-119334802D01*
X112606470Y-118995810D01*
X112732145Y-118364000D01*
X112606470Y-117732190D01*
X112248578Y-117196567D01*
X111712955Y-116838675D01*
X111081145Y-116713000D01*
X111016455Y-116713000D01*
X110384645Y-116838675D01*
X109849022Y-117196567D01*
X109491130Y-117732190D01*
X109365455Y-118364000D01*
X97035608Y-118364000D01*
X96779510Y-118192882D01*
X96393000Y-118116000D01*
X96006490Y-118192882D01*
X95678822Y-118411822D01*
X95459882Y-118739490D01*
X95383000Y-119126000D01*
X76881111Y-119126000D01*
X76881162Y-119067833D01*
X76739117Y-118724057D01*
X76476327Y-118460808D01*
X76132799Y-118318162D01*
X75760833Y-118317838D01*
X75417057Y-118459883D01*
X75153808Y-118722673D01*
X75011162Y-119066201D01*
X75010838Y-119438167D01*
X75136000Y-119741083D01*
X75136000Y-121187720D01*
X75111243Y-121192378D01*
X74895119Y-121331450D01*
X74802560Y-121466915D01*
X74723530Y-121344099D01*
X74511330Y-121199109D01*
X74470000Y-121190739D01*
X74470000Y-119892329D01*
X74579192Y-119783327D01*
X74721838Y-119439799D01*
X74722162Y-119067833D01*
X74580117Y-118724057D01*
X74317327Y-118460808D01*
X73973799Y-118318162D01*
X73601833Y-118317838D01*
X73295684Y-118444336D01*
X73418431Y-118264690D01*
X73437039Y-118172800D01*
X84008400Y-118172800D01*
X84318374Y-118111142D01*
X84581156Y-117935556D01*
X86881957Y-115634756D01*
X87057543Y-115371973D01*
X87119200Y-115062000D01*
X87119200Y-105795841D01*
X87244038Y-105495199D01*
X87244362Y-105123233D01*
X87102317Y-104779457D01*
X86839527Y-104516208D01*
X86495999Y-104373562D01*
X86124033Y-104373238D01*
X85780257Y-104515283D01*
X85517008Y-104778073D01*
X85374362Y-105121601D01*
X85374038Y-105493567D01*
X85499200Y-105796483D01*
X85499200Y-114726487D01*
X83672888Y-116552800D01*
X73439334Y-116552800D01*
X73425162Y-116477483D01*
X73286090Y-116261359D01*
X73073890Y-116116369D01*
X72822000Y-116065360D01*
X71272000Y-116065360D01*
X71036683Y-116109638D01*
X70820559Y-116248710D01*
X70749437Y-116352800D01*
X65394931Y-116352800D01*
X65336090Y-116261359D01*
X65123890Y-116116369D01*
X64872000Y-116065360D01*
X63322000Y-116065360D01*
X63086683Y-116109638D01*
X62870559Y-116248710D01*
X62799437Y-116352800D01*
X61698124Y-116352800D01*
X61616890Y-116226559D01*
X61404690Y-116081569D01*
X61371310Y-116074809D01*
X61512499Y-116016327D01*
X61691127Y-115837698D01*
X61787800Y-115604309D01*
X61787800Y-115013750D01*
X61629050Y-114855000D01*
X60629800Y-114855000D01*
X60629800Y-114875000D01*
X60375800Y-114875000D01*
X60375800Y-114855000D01*
X59376550Y-114855000D01*
X59217800Y-115013750D01*
X59217800Y-115604309D01*
X59314473Y-115837698D01*
X59493101Y-116016327D01*
X59629087Y-116072654D01*
X59617483Y-116074838D01*
X59401359Y-116213910D01*
X59256369Y-116426110D01*
X59205360Y-116678000D01*
X59205360Y-118178000D01*
X59249638Y-118413317D01*
X59388710Y-118629441D01*
X59600910Y-118774431D01*
X59852800Y-118825440D01*
X61152800Y-118825440D01*
X61388117Y-118781162D01*
X61604241Y-118642090D01*
X61749231Y-118429890D01*
X61760792Y-118372800D01*
X62799069Y-118372800D01*
X62857910Y-118464241D01*
X63070110Y-118609231D01*
X63322000Y-118660240D01*
X64872000Y-118660240D01*
X65107317Y-118615962D01*
X65323441Y-118476890D01*
X65394563Y-118372800D01*
X70749069Y-118372800D01*
X70807910Y-118464241D01*
X70933761Y-118550231D01*
X70845057Y-118586883D01*
X70581808Y-118849673D01*
X70439162Y-119193201D01*
X70438838Y-119565167D01*
X70564000Y-119868083D01*
X70564000Y-121187720D01*
X70539243Y-121192378D01*
X70323119Y-121331450D01*
X70230560Y-121466915D01*
X70151530Y-121344099D01*
X69939330Y-121199109D01*
X69898000Y-121190739D01*
X69898000Y-120121441D01*
X70022838Y-119820799D01*
X70023162Y-119448833D01*
X69881117Y-119105057D01*
X69618327Y-118841808D01*
X69274799Y-118699162D01*
X68902833Y-118698838D01*
X68559057Y-118840883D01*
X68295808Y-119103673D01*
X68153162Y-119447201D01*
X68152838Y-119819167D01*
X68278000Y-120122083D01*
X68278000Y-121187720D01*
X68253243Y-121192378D01*
X68037119Y-121331450D01*
X67944560Y-121466915D01*
X67865530Y-121344099D01*
X67653330Y-121199109D01*
X67612000Y-121190739D01*
X67612000Y-120248441D01*
X67736838Y-119947799D01*
X67737162Y-119575833D01*
X67595117Y-119232057D01*
X67332327Y-118968808D01*
X66988799Y-118826162D01*
X66616833Y-118825838D01*
X66273057Y-118967883D01*
X66009808Y-119230673D01*
X65867162Y-119574201D01*
X65866838Y-119946167D01*
X65992000Y-120249083D01*
X65992000Y-121187720D01*
X65967243Y-121192378D01*
X65751119Y-121331450D01*
X65606129Y-121543650D01*
X65555120Y-121795540D01*
X65555120Y-122419764D01*
X64722178Y-121586822D01*
X64394510Y-121367882D01*
X64008000Y-121291000D01*
X62566931Y-121291000D01*
X62508090Y-121199559D01*
X62295890Y-121054569D01*
X62044000Y-121003560D01*
X60544000Y-121003560D01*
X60308683Y-121047838D01*
X60092559Y-121186910D01*
X59947569Y-121399110D01*
X59940809Y-121432490D01*
X59882327Y-121291301D01*
X59703698Y-121112673D01*
X59470309Y-121016000D01*
X58879750Y-121016000D01*
X58721000Y-121174750D01*
X58467000Y-121174750D01*
X58308250Y-121016000D01*
X57717691Y-121016000D01*
X57484302Y-121112673D01*
X57305673Y-121291301D01*
X57209000Y-121524690D01*
X47879000Y-121524690D01*
X47879000Y-113851691D01*
X59217800Y-113851691D01*
X59217800Y-114442250D01*
X59376550Y-114601000D01*
X60375800Y-114601000D01*
X60375800Y-113501750D01*
X60629800Y-113501750D01*
X60629800Y-114601000D01*
X61629050Y-114601000D01*
X61787800Y-114442250D01*
X61787800Y-113851691D01*
X61691127Y-113618302D01*
X61512499Y-113439673D01*
X61279110Y-113343000D01*
X60788550Y-113343000D01*
X60629800Y-113501750D01*
X60375800Y-113501750D01*
X60217050Y-113343000D01*
X59726490Y-113343000D01*
X59493101Y-113439673D01*
X59314473Y-113618302D01*
X59217800Y-113851691D01*
X47879000Y-113851691D01*
X47879000Y-98562400D01*
X55723360Y-98562400D01*
X55723360Y-99862400D01*
X55767638Y-100097717D01*
X55906710Y-100313841D01*
X56118910Y-100458831D01*
X56125200Y-100460105D01*
X56125200Y-101153069D01*
X56033759Y-101211910D01*
X55888769Y-101424110D01*
X55837760Y-101676000D01*
X55837760Y-103226000D01*
X55882038Y-103461317D01*
X56021110Y-103677441D01*
X56125200Y-103748563D01*
X56125200Y-109103069D01*
X56033759Y-109161910D01*
X55888769Y-109374110D01*
X55837760Y-109626000D01*
X55837760Y-111176000D01*
X55882038Y-111411317D01*
X56021110Y-111627441D01*
X56233310Y-111772431D01*
X56485200Y-111823440D01*
X57785200Y-111823440D01*
X58020517Y-111779162D01*
X58236641Y-111640090D01*
X58381631Y-111427890D01*
X58432640Y-111176000D01*
X58432640Y-109626000D01*
X58388362Y-109390683D01*
X58249290Y-109174559D01*
X58145200Y-109103437D01*
X58145200Y-103748931D01*
X58236641Y-103690090D01*
X58381631Y-103477890D01*
X58432640Y-103226000D01*
X58432640Y-101676000D01*
X58388362Y-101440683D01*
X58249290Y-101224559D01*
X58145200Y-101153437D01*
X58145200Y-100440413D01*
X58322241Y-100326490D01*
X58467231Y-100114290D01*
X58473991Y-100080910D01*
X58532473Y-100222099D01*
X58711102Y-100400727D01*
X58944491Y-100497400D01*
X59535050Y-100497400D01*
X59693800Y-100338650D01*
X59693800Y-99339400D01*
X59947800Y-99339400D01*
X59947800Y-100338650D01*
X60106550Y-100497400D01*
X60697109Y-100497400D01*
X60930498Y-100400727D01*
X61109127Y-100222099D01*
X61205800Y-99988710D01*
X61205800Y-99498150D01*
X61047050Y-99339400D01*
X59947800Y-99339400D01*
X59693800Y-99339400D01*
X59673800Y-99339400D01*
X59673800Y-99085400D01*
X59693800Y-99085400D01*
X59693800Y-98086150D01*
X59947800Y-98086150D01*
X59947800Y-99085400D01*
X61047050Y-99085400D01*
X61205800Y-98926650D01*
X61205800Y-98436090D01*
X61109127Y-98202701D01*
X60930498Y-98024073D01*
X60697109Y-97927400D01*
X60106550Y-97927400D01*
X59947800Y-98086150D01*
X59693800Y-98086150D01*
X59535050Y-97927400D01*
X58944491Y-97927400D01*
X58711102Y-98024073D01*
X58532473Y-98202701D01*
X58476146Y-98338687D01*
X58473962Y-98327083D01*
X58334890Y-98110959D01*
X58122690Y-97965969D01*
X57930800Y-97927110D01*
X57930800Y-96520000D01*
X60204000Y-96520000D01*
X60280882Y-96906510D01*
X60499822Y-97234178D01*
X62674560Y-99408916D01*
X62674560Y-99983284D01*
X61629284Y-101028560D01*
X60985200Y-101028560D01*
X60749883Y-101072838D01*
X60533759Y-101211910D01*
X60388769Y-101424110D01*
X60337760Y-101676000D01*
X60337760Y-103226000D01*
X60382038Y-103461317D01*
X60521110Y-103677441D01*
X60625200Y-103748563D01*
X60625200Y-109103069D01*
X60533759Y-109161910D01*
X60388769Y-109374110D01*
X60337760Y-109626000D01*
X60337760Y-111176000D01*
X60382038Y-111411317D01*
X60521110Y-111627441D01*
X60733310Y-111772431D01*
X60985200Y-111823440D01*
X61629284Y-111823440D01*
X62674560Y-112868716D01*
X62674560Y-113512800D01*
X62718838Y-113748117D01*
X62857910Y-113964241D01*
X63070110Y-114109231D01*
X63322000Y-114160240D01*
X64872000Y-114160240D01*
X65107317Y-114115962D01*
X65323441Y-113976890D01*
X65394563Y-113872800D01*
X70749069Y-113872800D01*
X70807910Y-113964241D01*
X71020110Y-114109231D01*
X71272000Y-114160240D01*
X72120728Y-114160240D01*
X73631571Y-115671084D01*
X73755883Y-115971943D01*
X74018673Y-116235192D01*
X74362201Y-116377838D01*
X74734167Y-116378162D01*
X75077943Y-116236117D01*
X75341192Y-115973327D01*
X75483838Y-115629799D01*
X75484162Y-115257833D01*
X75342117Y-114914057D01*
X75079327Y-114650808D01*
X74776629Y-114525116D01*
X73469440Y-113217928D01*
X73469440Y-112868716D01*
X74514716Y-111823440D01*
X75158800Y-111823440D01*
X75394117Y-111779162D01*
X75610241Y-111640090D01*
X75755231Y-111427890D01*
X75806240Y-111176000D01*
X75806240Y-109626000D01*
X75761962Y-109390683D01*
X75622890Y-109174559D01*
X75518800Y-109103437D01*
X75518800Y-103748931D01*
X75610241Y-103690090D01*
X75755231Y-103477890D01*
X75806240Y-103226000D01*
X75806240Y-101676000D01*
X77711360Y-101676000D01*
X77711360Y-103226000D01*
X77755638Y-103461317D01*
X77894710Y-103677441D01*
X77998800Y-103748563D01*
X77998800Y-109103069D01*
X77907359Y-109161910D01*
X77762369Y-109374110D01*
X77711360Y-109626000D01*
X77711360Y-111176000D01*
X77755638Y-111411317D01*
X77894710Y-111627441D01*
X77998800Y-111698563D01*
X77998800Y-113422000D01*
X78075682Y-113808510D01*
X78294622Y-114136178D01*
X78359822Y-114201378D01*
X78687490Y-114420318D01*
X79074000Y-114497200D01*
X79460510Y-114420318D01*
X79788178Y-114201378D01*
X80007118Y-113873710D01*
X80084000Y-113487200D01*
X80018800Y-113159419D01*
X80018800Y-111698931D01*
X80110241Y-111640090D01*
X80255231Y-111427890D01*
X80306240Y-111176000D01*
X80306240Y-109626000D01*
X80261962Y-109390683D01*
X80122890Y-109174559D01*
X80018800Y-109103437D01*
X80018800Y-103748931D01*
X80110241Y-103690090D01*
X80255231Y-103477890D01*
X80299152Y-103261000D01*
X84724615Y-103261000D01*
X85055601Y-103398438D01*
X85427567Y-103398762D01*
X85771343Y-103256717D01*
X86034592Y-102993927D01*
X86177238Y-102650399D01*
X86177562Y-102278433D01*
X86035517Y-101934657D01*
X85772727Y-101671408D01*
X85429199Y-101528762D01*
X85057233Y-101528438D01*
X84784811Y-101641000D01*
X80299654Y-101641000D01*
X80261962Y-101440683D01*
X80122890Y-101224559D01*
X79910690Y-101079569D01*
X79658800Y-101028560D01*
X78358800Y-101028560D01*
X78123483Y-101072838D01*
X77907359Y-101211910D01*
X77762369Y-101424110D01*
X77711360Y-101676000D01*
X75806240Y-101676000D01*
X75761962Y-101440683D01*
X75622890Y-101224559D01*
X75410690Y-101079569D01*
X75158800Y-101028560D01*
X74514716Y-101028560D01*
X73469440Y-99983284D01*
X73469440Y-99339200D01*
X73425162Y-99103883D01*
X73286090Y-98887759D01*
X73073890Y-98742769D01*
X72822000Y-98691760D01*
X71272000Y-98691760D01*
X71036683Y-98736038D01*
X70820559Y-98875110D01*
X70749437Y-98979200D01*
X65394931Y-98979200D01*
X65336090Y-98887759D01*
X65123890Y-98742769D01*
X64872000Y-98691760D01*
X64813141Y-98691760D01*
X64811178Y-98688822D01*
X64582906Y-98460550D01*
X74051400Y-98460550D01*
X74051400Y-99051109D01*
X74148073Y-99284498D01*
X74326701Y-99463127D01*
X74560090Y-99559800D01*
X75050650Y-99559800D01*
X75209400Y-99401050D01*
X75209400Y-98301800D01*
X75463400Y-98301800D01*
X75463400Y-99401050D01*
X75622150Y-99559800D01*
X76112710Y-99559800D01*
X76346099Y-99463127D01*
X76524727Y-99284498D01*
X76621400Y-99051109D01*
X76621400Y-98460550D01*
X76462650Y-98301800D01*
X75463400Y-98301800D01*
X75209400Y-98301800D01*
X74210150Y-98301800D01*
X74051400Y-98460550D01*
X64582906Y-98460550D01*
X61928178Y-95805822D01*
X61600510Y-95586882D01*
X61214000Y-95510000D01*
X60827490Y-95586882D01*
X60499822Y-95805822D01*
X60280882Y-96133490D01*
X60204000Y-96520000D01*
X57930800Y-96520000D01*
X57930800Y-94839200D01*
X62674560Y-94839200D01*
X62674560Y-96139200D01*
X62718838Y-96374517D01*
X62857910Y-96590641D01*
X63070110Y-96735631D01*
X63322000Y-96786640D01*
X64872000Y-96786640D01*
X65107317Y-96742362D01*
X65323441Y-96603290D01*
X65394563Y-96499200D01*
X70749069Y-96499200D01*
X70807910Y-96590641D01*
X71020110Y-96735631D01*
X71272000Y-96786640D01*
X72822000Y-96786640D01*
X73057317Y-96742362D01*
X73273441Y-96603290D01*
X73344563Y-96499200D01*
X74108387Y-96499200D01*
X74222310Y-96676241D01*
X74434510Y-96821231D01*
X74467890Y-96827991D01*
X74326701Y-96886473D01*
X74148073Y-97065102D01*
X74051400Y-97298491D01*
X74051400Y-97889050D01*
X74210150Y-98047800D01*
X75209400Y-98047800D01*
X75209400Y-98027800D01*
X75463400Y-98027800D01*
X75463400Y-98047800D01*
X76462650Y-98047800D01*
X76621400Y-97889050D01*
X76621400Y-97298491D01*
X76524727Y-97065102D01*
X76346099Y-96886473D01*
X76210113Y-96830146D01*
X76221717Y-96827962D01*
X76437841Y-96688890D01*
X76582831Y-96476690D01*
X76633840Y-96224800D01*
X76633840Y-94724800D01*
X76589562Y-94489483D01*
X76450490Y-94273359D01*
X76238290Y-94128369D01*
X75986400Y-94077360D01*
X74686400Y-94077360D01*
X74451083Y-94121638D01*
X74234959Y-94260710D01*
X74089969Y-94472910D01*
X74088695Y-94479200D01*
X73344931Y-94479200D01*
X73286090Y-94387759D01*
X73073890Y-94242769D01*
X72857000Y-94198848D01*
X72857000Y-90525497D01*
X72969238Y-90255199D01*
X72969400Y-90068400D01*
X73876160Y-90068400D01*
X73876160Y-92100400D01*
X73920438Y-92335717D01*
X74059510Y-92551841D01*
X74271710Y-92696831D01*
X74523600Y-92747840D01*
X76250800Y-92747840D01*
X76486117Y-92703562D01*
X76702241Y-92564490D01*
X76847231Y-92352290D01*
X76855600Y-92310961D01*
X76867530Y-92328815D01*
X77353711Y-92653671D01*
X77927200Y-92767745D01*
X78500689Y-92653671D01*
X78986870Y-92328815D01*
X79197200Y-92014034D01*
X79407530Y-92328815D01*
X79893711Y-92653671D01*
X80467200Y-92767745D01*
X81040689Y-92653671D01*
X81526870Y-92328815D01*
X81737200Y-92014034D01*
X81947530Y-92328815D01*
X82131530Y-92451760D01*
X82052400Y-92451760D01*
X81817083Y-92496038D01*
X81600959Y-92635110D01*
X81455969Y-92847310D01*
X81404960Y-93099200D01*
X81404960Y-93343380D01*
X80287036Y-93343380D01*
X80260730Y-93302499D01*
X80048530Y-93157509D01*
X79796640Y-93106500D01*
X78597760Y-93106500D01*
X78362443Y-93150778D01*
X78146319Y-93289850D01*
X78001329Y-93502050D01*
X77950320Y-93753940D01*
X77950320Y-94952820D01*
X77994598Y-95188137D01*
X78133670Y-95404261D01*
X78134667Y-95404943D01*
X78001329Y-95600090D01*
X77950320Y-95851980D01*
X77950320Y-97050860D01*
X77994598Y-97286177D01*
X78133670Y-97502301D01*
X78345870Y-97647291D01*
X78437200Y-97665786D01*
X78437200Y-98120200D01*
X78495052Y-98411039D01*
X78659799Y-98657601D01*
X79726599Y-99724401D01*
X79973161Y-99889148D01*
X80264000Y-99947000D01*
X95697198Y-99947000D01*
X95965878Y-100215680D01*
X95965838Y-100261167D01*
X96107883Y-100604943D01*
X96370673Y-100868192D01*
X96714201Y-101010838D01*
X97086167Y-101011162D01*
X97429943Y-100869117D01*
X97693192Y-100606327D01*
X97835838Y-100262799D01*
X97836162Y-99890833D01*
X97694117Y-99547057D01*
X97431327Y-99283808D01*
X97087799Y-99141162D01*
X97040923Y-99141121D01*
X96549401Y-98649599D01*
X96302839Y-98484852D01*
X96012000Y-98427000D01*
X80578802Y-98427000D01*
X79957200Y-97805398D01*
X79957200Y-97668089D01*
X80031957Y-97654022D01*
X80248081Y-97514950D01*
X80393071Y-97302750D01*
X80444080Y-97050860D01*
X80444080Y-96834950D01*
X81417400Y-96834950D01*
X81417400Y-97425509D01*
X81514073Y-97658898D01*
X81692701Y-97837527D01*
X81926090Y-97934200D01*
X82416650Y-97934200D01*
X82575400Y-97775450D01*
X82575400Y-96676200D01*
X82829400Y-96676200D01*
X82829400Y-97775450D01*
X82988150Y-97934200D01*
X83478710Y-97934200D01*
X83712099Y-97837527D01*
X83890727Y-97658898D01*
X83987400Y-97425509D01*
X83987400Y-96901000D01*
X88271000Y-96901000D01*
X88347882Y-97287510D01*
X88566822Y-97615178D01*
X89074822Y-98123178D01*
X89402489Y-98342118D01*
X89789000Y-98419000D01*
X104775000Y-98419000D01*
X105161510Y-98342118D01*
X105489178Y-98123178D01*
X105708118Y-97795510D01*
X105785000Y-97409000D01*
X105784134Y-97404646D01*
X107013000Y-98633513D01*
X107013000Y-110236000D01*
X107074658Y-110545974D01*
X107141863Y-110646553D01*
X107141838Y-110675167D01*
X107283883Y-111018943D01*
X107546673Y-111282192D01*
X107890201Y-111424838D01*
X108262167Y-111425162D01*
X108605943Y-111283117D01*
X108869192Y-111020327D01*
X109011838Y-110676799D01*
X109012162Y-110304833D01*
X108870117Y-109961057D01*
X108633000Y-109723526D01*
X108633000Y-98298000D01*
X108571342Y-97988026D01*
X108465325Y-97829361D01*
X108395756Y-97725243D01*
X106236756Y-95566244D01*
X106121452Y-95489200D01*
X105973974Y-95390658D01*
X105664000Y-95329000D01*
X102336365Y-95329000D01*
X102476526Y-95119234D01*
X102590600Y-94545745D01*
X102590600Y-94176255D01*
X102476526Y-93602766D01*
X102151670Y-93116585D01*
X101995148Y-93012000D01*
X104185488Y-93012000D01*
X113001571Y-101828084D01*
X113125883Y-102128943D01*
X113388673Y-102392192D01*
X113732201Y-102534838D01*
X114104167Y-102535162D01*
X114447943Y-102393117D01*
X114711192Y-102130327D01*
X114853838Y-101786799D01*
X114854162Y-101414833D01*
X114712117Y-101071057D01*
X114449327Y-100807808D01*
X114146629Y-100682116D01*
X106105680Y-92641167D01*
X116158838Y-92641167D01*
X116300883Y-92984943D01*
X116411000Y-93095252D01*
X116411000Y-113411000D01*
X116472658Y-113720974D01*
X116614048Y-113932578D01*
X116648244Y-113983756D01*
X120919243Y-118254756D01*
X121014137Y-118318162D01*
X121182026Y-118430342D01*
X121492000Y-118492000D01*
X122310250Y-118492000D01*
X122343238Y-118667317D01*
X122482310Y-118883441D01*
X122694510Y-119028431D01*
X122946400Y-119079440D01*
X124246400Y-119079440D01*
X124481717Y-119035162D01*
X124697841Y-118896090D01*
X124837290Y-118692000D01*
X125920047Y-118692000D01*
X126002310Y-118819841D01*
X126214510Y-118964831D01*
X126466400Y-119015840D01*
X128016400Y-119015840D01*
X128251717Y-118971562D01*
X128467841Y-118832490D01*
X128538963Y-118728400D01*
X133893469Y-118728400D01*
X133952310Y-118819841D01*
X134164510Y-118964831D01*
X134416400Y-119015840D01*
X135966400Y-119015840D01*
X136201717Y-118971562D01*
X136417841Y-118832490D01*
X136562831Y-118620290D01*
X136613840Y-118368400D01*
X136613840Y-117068400D01*
X136569562Y-116833083D01*
X136430490Y-116616959D01*
X136218290Y-116471969D01*
X135966400Y-116420960D01*
X134416400Y-116420960D01*
X134181083Y-116465238D01*
X133964959Y-116604310D01*
X133893837Y-116708400D01*
X128539331Y-116708400D01*
X128480490Y-116616959D01*
X128268290Y-116471969D01*
X128016400Y-116420960D01*
X126466400Y-116420960D01*
X126231083Y-116465238D01*
X126014959Y-116604310D01*
X125968708Y-116672000D01*
X124833679Y-116672000D01*
X124710490Y-116480559D01*
X124498290Y-116335569D01*
X124464910Y-116328809D01*
X124606099Y-116270327D01*
X124784727Y-116091698D01*
X124881400Y-115858309D01*
X124881400Y-115267750D01*
X124722650Y-115109000D01*
X123723400Y-115109000D01*
X123723400Y-115129000D01*
X123469400Y-115129000D01*
X123469400Y-115109000D01*
X122470150Y-115109000D01*
X122311400Y-115267750D01*
X122311400Y-115858309D01*
X122408073Y-116091698D01*
X122586701Y-116270327D01*
X122722687Y-116326654D01*
X122711083Y-116328838D01*
X122494959Y-116467910D01*
X122349969Y-116680110D01*
X122311110Y-116872000D01*
X121827513Y-116872000D01*
X119061204Y-114105691D01*
X122311400Y-114105691D01*
X122311400Y-114696250D01*
X122470150Y-114855000D01*
X123469400Y-114855000D01*
X123469400Y-113755750D01*
X123723400Y-113755750D01*
X123723400Y-114855000D01*
X124722650Y-114855000D01*
X124881400Y-114696250D01*
X124881400Y-114105691D01*
X124784727Y-113872302D01*
X124606099Y-113693673D01*
X124372710Y-113597000D01*
X123882150Y-113597000D01*
X123723400Y-113755750D01*
X123469400Y-113755750D01*
X123310650Y-113597000D01*
X122820090Y-113597000D01*
X122586701Y-113693673D01*
X122408073Y-113872302D01*
X122311400Y-114105691D01*
X119061204Y-114105691D01*
X118031000Y-113075488D01*
X118031000Y-98384600D01*
X118893160Y-98384600D01*
X118893160Y-99684600D01*
X118937438Y-99919917D01*
X119076510Y-100136041D01*
X119280600Y-100275490D01*
X119280600Y-101501591D01*
X119178159Y-101567510D01*
X119033169Y-101779710D01*
X118982160Y-102031600D01*
X118982160Y-103581600D01*
X119026438Y-103816917D01*
X119165510Y-104033041D01*
X119269600Y-104104163D01*
X119269600Y-109458669D01*
X119178159Y-109517510D01*
X119033169Y-109729710D01*
X118982160Y-109981600D01*
X118982160Y-111531600D01*
X119026438Y-111766917D01*
X119165510Y-111983041D01*
X119377710Y-112128031D01*
X119629600Y-112179040D01*
X120929600Y-112179040D01*
X121164917Y-112134762D01*
X121381041Y-111995690D01*
X121526031Y-111783490D01*
X121577040Y-111531600D01*
X121577040Y-109981600D01*
X121532762Y-109746283D01*
X121393690Y-109530159D01*
X121289600Y-109459037D01*
X121289600Y-104104531D01*
X121381041Y-104045690D01*
X121526031Y-103833490D01*
X121577040Y-103581600D01*
X121577040Y-102031600D01*
X123482160Y-102031600D01*
X123482160Y-103581600D01*
X123526438Y-103816917D01*
X123665510Y-104033041D01*
X123769600Y-104104163D01*
X123769600Y-109458669D01*
X123678159Y-109517510D01*
X123533169Y-109729710D01*
X123482160Y-109981600D01*
X123482160Y-111531600D01*
X123526438Y-111766917D01*
X123665510Y-111983041D01*
X123877710Y-112128031D01*
X124129600Y-112179040D01*
X124773684Y-112179040D01*
X125818960Y-113224316D01*
X125818960Y-113868400D01*
X125863238Y-114103717D01*
X126002310Y-114319841D01*
X126214510Y-114464831D01*
X126466400Y-114515840D01*
X128016400Y-114515840D01*
X128251717Y-114471562D01*
X128467841Y-114332490D01*
X128538963Y-114228400D01*
X133893469Y-114228400D01*
X133952310Y-114319841D01*
X134164510Y-114464831D01*
X134416400Y-114515840D01*
X135966400Y-114515840D01*
X136201717Y-114471562D01*
X136340045Y-114382550D01*
X138031800Y-114382550D01*
X138031800Y-114873110D01*
X138128473Y-115106499D01*
X138307102Y-115285127D01*
X138540491Y-115381800D01*
X139131050Y-115381800D01*
X139289800Y-115223050D01*
X139289800Y-114223800D01*
X138190550Y-114223800D01*
X138031800Y-114382550D01*
X136340045Y-114382550D01*
X136417841Y-114332490D01*
X136562831Y-114120290D01*
X136613840Y-113868400D01*
X136613840Y-113320490D01*
X138031800Y-113320490D01*
X138031800Y-113811050D01*
X138190550Y-113969800D01*
X139289800Y-113969800D01*
X139289800Y-112970550D01*
X139131050Y-112811800D01*
X138540491Y-112811800D01*
X138307102Y-112908473D01*
X138128473Y-113087101D01*
X138031800Y-113320490D01*
X136613840Y-113320490D01*
X136613840Y-113224316D01*
X137659116Y-112179040D01*
X138303200Y-112179040D01*
X138538517Y-112134762D01*
X138754641Y-111995690D01*
X138899631Y-111783490D01*
X138950640Y-111531600D01*
X138950640Y-109981600D01*
X138906362Y-109746283D01*
X138767290Y-109530159D01*
X138663200Y-109459037D01*
X138663200Y-104104531D01*
X138754641Y-104045690D01*
X138899631Y-103833490D01*
X138950640Y-103581600D01*
X138950640Y-102031600D01*
X138906362Y-101796283D01*
X138767290Y-101580159D01*
X138555090Y-101435169D01*
X138303200Y-101384160D01*
X137659116Y-101384160D01*
X136626540Y-100351584D01*
X136626540Y-99682100D01*
X136582262Y-99446783D01*
X136443190Y-99230659D01*
X136230990Y-99085669D01*
X135979100Y-99034660D01*
X134429100Y-99034660D01*
X134193783Y-99078938D01*
X133977659Y-99218010D01*
X133906537Y-99322100D01*
X128552031Y-99322100D01*
X128493190Y-99230659D01*
X128280990Y-99085669D01*
X128029100Y-99034660D01*
X126479100Y-99034660D01*
X126243783Y-99078938D01*
X126027659Y-99218010D01*
X125882669Y-99430210D01*
X125831660Y-99682100D01*
X125831660Y-100326184D01*
X124773684Y-101384160D01*
X124129600Y-101384160D01*
X123894283Y-101428438D01*
X123678159Y-101567510D01*
X123533169Y-101779710D01*
X123482160Y-102031600D01*
X121577040Y-102031600D01*
X121532762Y-101796283D01*
X121393690Y-101580159D01*
X121300600Y-101516553D01*
X121300600Y-100271879D01*
X121492041Y-100148690D01*
X121637031Y-99936490D01*
X121643791Y-99903110D01*
X121702273Y-100044299D01*
X121880902Y-100222927D01*
X122114291Y-100319600D01*
X122704850Y-100319600D01*
X122863600Y-100160850D01*
X122863600Y-99161600D01*
X123117600Y-99161600D01*
X123117600Y-100160850D01*
X123276350Y-100319600D01*
X123866909Y-100319600D01*
X124100298Y-100222927D01*
X124278927Y-100044299D01*
X124375600Y-99810910D01*
X124375600Y-99320350D01*
X124216850Y-99161600D01*
X123117600Y-99161600D01*
X122863600Y-99161600D01*
X122843600Y-99161600D01*
X122843600Y-98907600D01*
X122863600Y-98907600D01*
X122863600Y-97908350D01*
X123117600Y-97908350D01*
X123117600Y-98907600D01*
X124216850Y-98907600D01*
X124308300Y-98816150D01*
X137297400Y-98816150D01*
X137297400Y-99406709D01*
X137394073Y-99640098D01*
X137572701Y-99818727D01*
X137806090Y-99915400D01*
X138296650Y-99915400D01*
X138455400Y-99756650D01*
X138455400Y-98657400D01*
X138709400Y-98657400D01*
X138709400Y-99756650D01*
X138868150Y-99915400D01*
X139358710Y-99915400D01*
X139432570Y-99884806D01*
X139263408Y-100053673D01*
X139120762Y-100397201D01*
X139120438Y-100769167D01*
X139262483Y-101112943D01*
X139525273Y-101376192D01*
X139827972Y-101501884D01*
X140855760Y-102529673D01*
X140855760Y-103581600D01*
X140900038Y-103816917D01*
X141039110Y-104033041D01*
X141143200Y-104104163D01*
X141143200Y-109458669D01*
X141051759Y-109517510D01*
X140906769Y-109729710D01*
X140855760Y-109981600D01*
X140855760Y-111531600D01*
X140900038Y-111766917D01*
X141039110Y-111983041D01*
X141106800Y-112029292D01*
X141106800Y-112859521D01*
X140915359Y-112982710D01*
X140770369Y-113194910D01*
X140763609Y-113228290D01*
X140705127Y-113087101D01*
X140526498Y-112908473D01*
X140293109Y-112811800D01*
X139702550Y-112811800D01*
X139543800Y-112970550D01*
X139543800Y-113969800D01*
X139563800Y-113969800D01*
X139563800Y-114223800D01*
X139543800Y-114223800D01*
X139543800Y-115223050D01*
X139702550Y-115381800D01*
X140293109Y-115381800D01*
X140526498Y-115285127D01*
X140705127Y-115106499D01*
X140761454Y-114970513D01*
X140763638Y-114982117D01*
X140902710Y-115198241D01*
X141114910Y-115343231D01*
X141366800Y-115394240D01*
X142866800Y-115394240D01*
X143102117Y-115349962D01*
X143318241Y-115210890D01*
X143463231Y-114998690D01*
X143514240Y-114746800D01*
X143514240Y-113446800D01*
X143469962Y-113211483D01*
X143330890Y-112995359D01*
X143126800Y-112855910D01*
X143126800Y-112077953D01*
X143254641Y-111995690D01*
X143399631Y-111783490D01*
X143450640Y-111531600D01*
X143450640Y-109981600D01*
X143406362Y-109746283D01*
X143267290Y-109530159D01*
X143163200Y-109459037D01*
X143163200Y-104104531D01*
X143254641Y-104045690D01*
X143399631Y-103833490D01*
X143450640Y-103581600D01*
X143450640Y-102031600D01*
X143406362Y-101796283D01*
X143267290Y-101580159D01*
X143055090Y-101435169D01*
X142803200Y-101384160D01*
X142001273Y-101384160D01*
X140973030Y-100355918D01*
X140848717Y-100055057D01*
X140585927Y-99791808D01*
X140242399Y-99649162D01*
X139870433Y-99648838D01*
X139685628Y-99725198D01*
X139770727Y-99640098D01*
X139867400Y-99406709D01*
X139867400Y-98866950D01*
X140955000Y-98866950D01*
X140955000Y-99457509D01*
X141051673Y-99690898D01*
X141230301Y-99869527D01*
X141463690Y-99966200D01*
X141954250Y-99966200D01*
X142113000Y-99807450D01*
X142113000Y-98708200D01*
X142367000Y-98708200D01*
X142367000Y-99807450D01*
X142525750Y-99966200D01*
X143016310Y-99966200D01*
X143249699Y-99869527D01*
X143428327Y-99690898D01*
X143525000Y-99457509D01*
X143525000Y-98866950D01*
X143366250Y-98708200D01*
X142367000Y-98708200D01*
X142113000Y-98708200D01*
X141113750Y-98708200D01*
X140955000Y-98866950D01*
X139867400Y-98866950D01*
X139867400Y-98816150D01*
X139708650Y-98657400D01*
X138709400Y-98657400D01*
X138455400Y-98657400D01*
X137456150Y-98657400D01*
X137297400Y-98816150D01*
X124308300Y-98816150D01*
X124375600Y-98748850D01*
X124375600Y-98258290D01*
X124278927Y-98024901D01*
X124100298Y-97846273D01*
X123866909Y-97749600D01*
X123276350Y-97749600D01*
X123117600Y-97908350D01*
X122863600Y-97908350D01*
X122704850Y-97749600D01*
X122114291Y-97749600D01*
X121880902Y-97846273D01*
X121702273Y-98024901D01*
X121645946Y-98160887D01*
X121643762Y-98149283D01*
X121504690Y-97933159D01*
X121292490Y-97788169D01*
X121100600Y-97749310D01*
X121100600Y-95182100D01*
X125831660Y-95182100D01*
X125831660Y-96482100D01*
X125875938Y-96717417D01*
X126015010Y-96933541D01*
X126227210Y-97078531D01*
X126479100Y-97129540D01*
X128029100Y-97129540D01*
X128264417Y-97085262D01*
X128480541Y-96946190D01*
X128551663Y-96842100D01*
X133906169Y-96842100D01*
X133965010Y-96933541D01*
X134177210Y-97078531D01*
X134429100Y-97129540D01*
X135979100Y-97129540D01*
X136214417Y-97085262D01*
X136430541Y-96946190D01*
X136502824Y-96840400D01*
X137345121Y-96840400D01*
X137468310Y-97031841D01*
X137680510Y-97176831D01*
X137713890Y-97183591D01*
X137572701Y-97242073D01*
X137394073Y-97420702D01*
X137297400Y-97654091D01*
X137297400Y-98244650D01*
X137456150Y-98403400D01*
X138455400Y-98403400D01*
X138455400Y-98383400D01*
X138709400Y-98383400D01*
X138709400Y-98403400D01*
X139708650Y-98403400D01*
X139867400Y-98244650D01*
X139867400Y-97654091D01*
X139770727Y-97420702D01*
X139592099Y-97242073D01*
X139456113Y-97185746D01*
X139467717Y-97183562D01*
X139683841Y-97044490D01*
X139828831Y-96832290D01*
X139879840Y-96580400D01*
X139879840Y-95131200D01*
X140942560Y-95131200D01*
X140942560Y-96631200D01*
X140986838Y-96866517D01*
X141125910Y-97082641D01*
X141338110Y-97227631D01*
X141371490Y-97234391D01*
X141230301Y-97292873D01*
X141051673Y-97471502D01*
X140955000Y-97704891D01*
X140955000Y-98295450D01*
X141113750Y-98454200D01*
X142113000Y-98454200D01*
X142113000Y-98434200D01*
X142367000Y-98434200D01*
X142367000Y-98454200D01*
X143366250Y-98454200D01*
X143525000Y-98295450D01*
X143525000Y-97704891D01*
X143428327Y-97471502D01*
X143249699Y-97292873D01*
X143113713Y-97236546D01*
X143125317Y-97234362D01*
X143341441Y-97095290D01*
X143486431Y-96883090D01*
X143537440Y-96631200D01*
X143537440Y-95131200D01*
X143493162Y-94895883D01*
X143354090Y-94679759D01*
X143351600Y-94678058D01*
X143351600Y-91242056D01*
X143392481Y-91215750D01*
X143537471Y-91003550D01*
X143588480Y-90751660D01*
X143588480Y-89552780D01*
X143544202Y-89317463D01*
X143405130Y-89101339D01*
X143404133Y-89100657D01*
X143537471Y-88905510D01*
X143588480Y-88653620D01*
X143588480Y-87454740D01*
X143544202Y-87219423D01*
X143405130Y-87003299D01*
X143351600Y-86966724D01*
X143351600Y-84938988D01*
X143402400Y-84683600D01*
X143325518Y-84297090D01*
X143106578Y-83969422D01*
X142778910Y-83750482D01*
X142392400Y-83673600D01*
X142005890Y-83750482D01*
X141678222Y-83969422D01*
X141627422Y-84020222D01*
X141408482Y-84347890D01*
X141331600Y-84734400D01*
X141331600Y-86964344D01*
X141290719Y-86990650D01*
X141145729Y-87202850D01*
X141094720Y-87454740D01*
X141094720Y-88653620D01*
X141138998Y-88888937D01*
X141278070Y-89105061D01*
X141279067Y-89105743D01*
X141145729Y-89300890D01*
X141094720Y-89552780D01*
X141094720Y-90751660D01*
X141138998Y-90986977D01*
X141278070Y-91203101D01*
X141331600Y-91239676D01*
X141331600Y-94542892D01*
X141138559Y-94667110D01*
X140993569Y-94879310D01*
X140942560Y-95131200D01*
X139879840Y-95131200D01*
X139879840Y-95080400D01*
X139835562Y-94845083D01*
X139696490Y-94628959D01*
X139484290Y-94483969D01*
X139232400Y-94432960D01*
X137932400Y-94432960D01*
X137697083Y-94477238D01*
X137480959Y-94616310D01*
X137341510Y-94820400D01*
X136500937Y-94820400D01*
X136443190Y-94730659D01*
X136230990Y-94585669D01*
X135979100Y-94534660D01*
X134429100Y-94534660D01*
X134193783Y-94578938D01*
X133977659Y-94718010D01*
X133906537Y-94822100D01*
X128552031Y-94822100D01*
X128493190Y-94730659D01*
X128280990Y-94585669D01*
X128064100Y-94541748D01*
X128064100Y-90738061D01*
X128138038Y-90559999D01*
X128138362Y-90188033D01*
X127996317Y-89844257D01*
X127733527Y-89581008D01*
X127389999Y-89438362D01*
X127018033Y-89438038D01*
X126674257Y-89580083D01*
X126411008Y-89842873D01*
X126268362Y-90186401D01*
X126268038Y-90558367D01*
X126410083Y-90902143D01*
X126444100Y-90936219D01*
X126444100Y-94541246D01*
X126243783Y-94578938D01*
X126027659Y-94718010D01*
X125882669Y-94930210D01*
X125831660Y-95182100D01*
X121100600Y-95182100D01*
X121100600Y-93033453D01*
X121178438Y-92845999D01*
X121178762Y-92474033D01*
X121036717Y-92130257D01*
X120773927Y-91867008D01*
X120430399Y-91724362D01*
X120058433Y-91724038D01*
X119714657Y-91866083D01*
X119451408Y-92128873D01*
X119308762Y-92472401D01*
X119308438Y-92844367D01*
X119450483Y-93188143D01*
X119480600Y-93218313D01*
X119480600Y-97748450D01*
X119305283Y-97781438D01*
X119089159Y-97920510D01*
X118944169Y-98132710D01*
X118893160Y-98384600D01*
X118031000Y-98384600D01*
X118031000Y-92583000D01*
X118028899Y-92572439D01*
X118029162Y-92270833D01*
X117887117Y-91927057D01*
X117624327Y-91663808D01*
X117280799Y-91521162D01*
X116908833Y-91520838D01*
X116565057Y-91662883D01*
X116301808Y-91925673D01*
X116159162Y-92269201D01*
X116158838Y-92641167D01*
X106105680Y-92641167D01*
X105093756Y-91629244D01*
X104932000Y-91521162D01*
X104830974Y-91453658D01*
X104521000Y-91392000D01*
X96753441Y-91392000D01*
X96452799Y-91267162D01*
X96080833Y-91266838D01*
X95737057Y-91408883D01*
X95473808Y-91671673D01*
X95331162Y-92015201D01*
X95330838Y-92387167D01*
X95472883Y-92730943D01*
X95517816Y-92775954D01*
X95438511Y-92791729D01*
X94952330Y-93116585D01*
X94937500Y-93138780D01*
X94873927Y-92985302D01*
X94695299Y-92806673D01*
X94461910Y-92710000D01*
X93757750Y-92710000D01*
X93599000Y-92868750D01*
X93599000Y-94234000D01*
X93619000Y-94234000D01*
X93619000Y-94488000D01*
X93599000Y-94488000D01*
X93599000Y-95853250D01*
X93757750Y-96012000D01*
X94461910Y-96012000D01*
X94695299Y-95915327D01*
X94873927Y-95736698D01*
X94937500Y-95583220D01*
X94952330Y-95605415D01*
X95438511Y-95930271D01*
X96012000Y-96044345D01*
X96585489Y-95930271D01*
X97071670Y-95605415D01*
X97282000Y-95290634D01*
X97492330Y-95605415D01*
X97978511Y-95930271D01*
X98552000Y-96044345D01*
X99000600Y-95955113D01*
X99444487Y-96399000D01*
X90207356Y-96399000D01*
X89995178Y-96186822D01*
X89667510Y-95967882D01*
X89281000Y-95891000D01*
X88894490Y-95967882D01*
X88566822Y-96186822D01*
X88347882Y-96514490D01*
X88271000Y-96901000D01*
X83987400Y-96901000D01*
X83987400Y-96834950D01*
X83828650Y-96676200D01*
X82829400Y-96676200D01*
X82575400Y-96676200D01*
X81576150Y-96676200D01*
X81417400Y-96834950D01*
X80444080Y-96834950D01*
X80444080Y-95851980D01*
X80399802Y-95616663D01*
X80260730Y-95400539D01*
X80259733Y-95399857D01*
X80284656Y-95363380D01*
X81590195Y-95363380D01*
X81514073Y-95439502D01*
X81417400Y-95672891D01*
X81417400Y-96263450D01*
X81576150Y-96422200D01*
X82575400Y-96422200D01*
X82575400Y-96402200D01*
X82829400Y-96402200D01*
X82829400Y-96422200D01*
X83828650Y-96422200D01*
X83987400Y-96263450D01*
X83987400Y-95672891D01*
X83890727Y-95439502D01*
X83712099Y-95260873D01*
X83576113Y-95204546D01*
X83587717Y-95202362D01*
X83803841Y-95063290D01*
X83948831Y-94851090D01*
X83990210Y-94646750D01*
X91973400Y-94646750D01*
X91973400Y-95503309D01*
X92070073Y-95736698D01*
X92248701Y-95915327D01*
X92482090Y-96012000D01*
X93186250Y-96012000D01*
X93345000Y-95853250D01*
X93345000Y-94488000D01*
X92132150Y-94488000D01*
X91973400Y-94646750D01*
X83990210Y-94646750D01*
X83999840Y-94599200D01*
X83999840Y-93099200D01*
X83955562Y-92863883D01*
X83816490Y-92647759D01*
X83704281Y-92571090D01*
X84066870Y-92328815D01*
X84391726Y-91842634D01*
X84505800Y-91269145D01*
X84505800Y-90899655D01*
X84391726Y-90326166D01*
X84066870Y-89839985D01*
X83580689Y-89515129D01*
X83007200Y-89401055D01*
X82433711Y-89515129D01*
X81947530Y-89839985D01*
X81737200Y-90154766D01*
X81526870Y-89839985D01*
X81040689Y-89515129D01*
X80467200Y-89401055D01*
X79893711Y-89515129D01*
X79407530Y-89839985D01*
X79197200Y-90154766D01*
X78986870Y-89839985D01*
X78500689Y-89515129D01*
X77927200Y-89401055D01*
X77353711Y-89515129D01*
X76867530Y-89839985D01*
X76857957Y-89854313D01*
X76853962Y-89833083D01*
X76714890Y-89616959D01*
X76502690Y-89471969D01*
X76250800Y-89420960D01*
X74523600Y-89420960D01*
X74288283Y-89465238D01*
X74072159Y-89604310D01*
X73927169Y-89816510D01*
X73876160Y-90068400D01*
X72969400Y-90068400D01*
X72969562Y-89883233D01*
X72827517Y-89539457D01*
X72564727Y-89276208D01*
X72221199Y-89133562D01*
X71849233Y-89133238D01*
X71505457Y-89275283D01*
X71242208Y-89538073D01*
X71099562Y-89881601D01*
X71099238Y-90253567D01*
X71237000Y-90586977D01*
X71237000Y-94198346D01*
X71036683Y-94236038D01*
X70820559Y-94375110D01*
X70749437Y-94479200D01*
X65394931Y-94479200D01*
X65336090Y-94387759D01*
X65123890Y-94242769D01*
X64872000Y-94191760D01*
X63322000Y-94191760D01*
X63086683Y-94236038D01*
X62870559Y-94375110D01*
X62725569Y-94587310D01*
X62674560Y-94839200D01*
X57930800Y-94839200D01*
X57930800Y-94517022D01*
X58034038Y-94268399D01*
X58034362Y-93896433D01*
X57892317Y-93552657D01*
X57629527Y-93289408D01*
X57285999Y-93146762D01*
X56914033Y-93146438D01*
X56570257Y-93288483D01*
X56307008Y-93551273D01*
X56164362Y-93894801D01*
X56164038Y-94266767D01*
X56306083Y-94610543D01*
X56310800Y-94615268D01*
X56310800Y-97926250D01*
X56135483Y-97959238D01*
X55919359Y-98098310D01*
X55774369Y-98310510D01*
X55723360Y-98562400D01*
X47879000Y-98562400D01*
X47879000Y-85441300D01*
X51476116Y-85441300D01*
X51562513Y-85875646D01*
X51808550Y-86243866D01*
X52176770Y-86489903D01*
X52611116Y-86576300D01*
X53216364Y-86576300D01*
X53650710Y-86489903D01*
X54018930Y-86243866D01*
X54264967Y-85875646D01*
X54351364Y-85441300D01*
X54264967Y-85006954D01*
X54018930Y-84638734D01*
X53650710Y-84392697D01*
X53216364Y-84306300D01*
X52611116Y-84306300D01*
X52176770Y-84392697D01*
X51808550Y-84638734D01*
X51562513Y-85006954D01*
X51476116Y-85441300D01*
X47879000Y-85441300D01*
X47879000Y-84266615D01*
X54503740Y-84266615D01*
X54503740Y-84615985D01*
X54588234Y-85040764D01*
X54828851Y-85400874D01*
X55188961Y-85641491D01*
X55613740Y-85725985D01*
X56038519Y-85641491D01*
X56398629Y-85400874D01*
X56639246Y-85040764D01*
X56723740Y-84615985D01*
X56723740Y-84582000D01*
X88598000Y-84582000D01*
X88598000Y-92202000D01*
X88659658Y-92511974D01*
X88771802Y-92679808D01*
X88835244Y-92774756D01*
X89760571Y-93700083D01*
X89884883Y-94000943D01*
X90147673Y-94264192D01*
X90491201Y-94406838D01*
X90863167Y-94407162D01*
X91206943Y-94265117D01*
X91470192Y-94002327D01*
X91612838Y-93658799D01*
X91613162Y-93286833D01*
X91585007Y-93218691D01*
X91973400Y-93218691D01*
X91973400Y-94075250D01*
X92132150Y-94234000D01*
X93345000Y-94234000D01*
X93345000Y-92868750D01*
X93186250Y-92710000D01*
X92482090Y-92710000D01*
X92248701Y-92806673D01*
X92070073Y-92985302D01*
X91973400Y-93218691D01*
X91585007Y-93218691D01*
X91471117Y-92943057D01*
X91208327Y-92679808D01*
X90905629Y-92554116D01*
X90218000Y-91866488D01*
X90218000Y-84917512D01*
X91648513Y-83487000D01*
X99461559Y-83487000D01*
X99762201Y-83611838D01*
X100134167Y-83612162D01*
X100477943Y-83470117D01*
X100741192Y-83207327D01*
X100883838Y-82863799D01*
X100884162Y-82491833D01*
X100742117Y-82148057D01*
X100479327Y-81884808D01*
X100135799Y-81742162D01*
X99763833Y-81741838D01*
X99460917Y-81867000D01*
X91313000Y-81867000D01*
X91140897Y-81901234D01*
X91003027Y-81928657D01*
X90740244Y-82104243D01*
X88835244Y-84009244D01*
X88659658Y-84272026D01*
X88598000Y-84582000D01*
X56723740Y-84582000D01*
X56723740Y-84266615D01*
X56639246Y-83841836D01*
X56398629Y-83481726D01*
X56038519Y-83241109D01*
X55613740Y-83156615D01*
X55188961Y-83241109D01*
X54828851Y-83481726D01*
X54588234Y-83841836D01*
X54503740Y-84266615D01*
X47879000Y-84266615D01*
X47879000Y-81686400D01*
X71285360Y-81686400D01*
X71285360Y-83718400D01*
X71329638Y-83953717D01*
X71468710Y-84169841D01*
X71680910Y-84314831D01*
X71932800Y-84365840D01*
X73964800Y-84365840D01*
X74200117Y-84321562D01*
X74416241Y-84182490D01*
X74561231Y-83970290D01*
X74612240Y-83718400D01*
X74612240Y-81686400D01*
X74567962Y-81451083D01*
X74428890Y-81234959D01*
X74265852Y-81123560D01*
X74355185Y-81027218D01*
X74554775Y-80545344D01*
X74435636Y-80289400D01*
X73075800Y-80289400D01*
X73075800Y-80309400D01*
X72821800Y-80309400D01*
X72821800Y-80289400D01*
X71461964Y-80289400D01*
X71342825Y-80545344D01*
X71542415Y-81027218D01*
X71632897Y-81124798D01*
X71481359Y-81222310D01*
X71336369Y-81434510D01*
X71285360Y-81686400D01*
X47879000Y-81686400D01*
X47879000Y-78441300D01*
X51476116Y-78441300D01*
X51562513Y-78875646D01*
X51808550Y-79243866D01*
X52176770Y-79489903D01*
X52611116Y-79576300D01*
X53216364Y-79576300D01*
X53650710Y-79489903D01*
X53984883Y-79266615D01*
X54503740Y-79266615D01*
X54503740Y-79615985D01*
X54588234Y-80040764D01*
X54828851Y-80400874D01*
X55188961Y-80641491D01*
X55613740Y-80725985D01*
X56038519Y-80641491D01*
X56398629Y-80400874D01*
X56639246Y-80040764D01*
X56691223Y-79779456D01*
X71342825Y-79779456D01*
X71461964Y-80035400D01*
X72821800Y-80035400D01*
X72821800Y-78675033D01*
X73075800Y-78675033D01*
X73075800Y-80035400D01*
X74435636Y-80035400D01*
X74554775Y-79779456D01*
X74355185Y-79297582D01*
X73917179Y-78825212D01*
X73331746Y-78556417D01*
X73075800Y-78675033D01*
X72821800Y-78675033D01*
X72565854Y-78556417D01*
X71980421Y-78825212D01*
X71542415Y-79297582D01*
X71342825Y-79779456D01*
X56691223Y-79779456D01*
X56723740Y-79615985D01*
X56723740Y-79266615D01*
X56639246Y-78841836D01*
X56398629Y-78481726D01*
X56038519Y-78241109D01*
X55613740Y-78156615D01*
X55188961Y-78241109D01*
X54828851Y-78481726D01*
X54588234Y-78841836D01*
X54503740Y-79266615D01*
X53984883Y-79266615D01*
X54018930Y-79243866D01*
X54264967Y-78875646D01*
X54351364Y-78441300D01*
X54264967Y-78006954D01*
X54018930Y-77638734D01*
X53650710Y-77392697D01*
X53216364Y-77306300D01*
X52611116Y-77306300D01*
X52176770Y-77392697D01*
X51808550Y-77638734D01*
X51562513Y-78006954D01*
X51476116Y-78441300D01*
X47879000Y-78441300D01*
X47879000Y-74295000D01*
X147193000Y-74295000D01*
X147193000Y-131953000D01*
X147193000Y-131953000D01*
G37*
X147193000Y-131953000D02*
X47879000Y-131953000D01*
X47879000Y-127666750D01*
X57209000Y-127666750D01*
X57209000Y-128157310D01*
X57305673Y-128390699D01*
X57484302Y-128569327D01*
X57717691Y-128666000D01*
X58308250Y-128666000D01*
X58467000Y-128507250D01*
X58467000Y-127508000D01*
X57367750Y-127508000D01*
X57209000Y-127666750D01*
X47879000Y-127666750D01*
X47879000Y-125126750D01*
X57209000Y-125126750D01*
X57209000Y-125617310D01*
X57305673Y-125850699D01*
X57484302Y-126029327D01*
X57681478Y-126111000D01*
X57484302Y-126192673D01*
X57305673Y-126371301D01*
X57209000Y-126604690D01*
X57209000Y-127095250D01*
X57367750Y-127254000D01*
X58467000Y-127254000D01*
X58467000Y-126254750D01*
X58323250Y-126111000D01*
X58467000Y-125967250D01*
X58467000Y-124968000D01*
X57367750Y-124968000D01*
X57209000Y-125126750D01*
X47879000Y-125126750D01*
X47879000Y-122586750D01*
X57209000Y-122586750D01*
X57209000Y-123077310D01*
X57305673Y-123310699D01*
X57484302Y-123489327D01*
X57681478Y-123571000D01*
X57484302Y-123652673D01*
X57305673Y-123831301D01*
X57209000Y-124064690D01*
X57209000Y-124555250D01*
X57367750Y-124714000D01*
X58467000Y-124714000D01*
X58467000Y-123714750D01*
X58323250Y-123571000D01*
X58467000Y-123427250D01*
X58467000Y-122428000D01*
X57367750Y-122428000D01*
X57209000Y-122586750D01*
X47879000Y-122586750D01*
X47879000Y-121524690D01*
X57209000Y-121524690D01*
X57209000Y-122015250D01*
X57367750Y-122174000D01*
X58467000Y-122174000D01*
X58467000Y-121174750D01*
X58721000Y-121174750D01*
X58721000Y-122174000D01*
X58741000Y-122174000D01*
X58741000Y-122428000D01*
X58721000Y-122428000D01*
X58721000Y-123427250D01*
X58864750Y-123571000D01*
X58721000Y-123714750D01*
X58721000Y-124714000D01*
X58741000Y-124714000D01*
X58741000Y-124968000D01*
X58721000Y-124968000D01*
X58721000Y-125967250D01*
X58864750Y-126111000D01*
X58721000Y-126254750D01*
X58721000Y-127254000D01*
X58741000Y-127254000D01*
X58741000Y-127508000D01*
X58721000Y-127508000D01*
X58721000Y-128507250D01*
X58879750Y-128666000D01*
X59470309Y-128666000D01*
X59703698Y-128569327D01*
X59882327Y-128390699D01*
X59938654Y-128254713D01*
X59940838Y-128266317D01*
X60079910Y-128482441D01*
X60292110Y-128627431D01*
X60544000Y-128678440D01*
X62044000Y-128678440D01*
X62279317Y-128634162D01*
X62495441Y-128495090D01*
X62566563Y-128391000D01*
X69596000Y-128391000D01*
X69982510Y-128314118D01*
X70310178Y-128095178D01*
X72088178Y-126317178D01*
X72307118Y-125989510D01*
X72384000Y-125603000D01*
X72384000Y-125582856D01*
X72424881Y-125556550D01*
X72517440Y-125421085D01*
X72596470Y-125543901D01*
X72697000Y-125612590D01*
X72697000Y-126016721D01*
X72505559Y-126139910D01*
X72360569Y-126352110D01*
X72309560Y-126604000D01*
X72309560Y-127904000D01*
X72353838Y-128139317D01*
X72492910Y-128355441D01*
X72705110Y-128500431D01*
X72957000Y-128551440D01*
X74457000Y-128551440D01*
X74692317Y-128507162D01*
X74908441Y-128368090D01*
X75053431Y-128155890D01*
X75060191Y-128122510D01*
X75118673Y-128263699D01*
X75297302Y-128442327D01*
X75530691Y-128539000D01*
X76121250Y-128539000D01*
X76280000Y-128380250D01*
X76280000Y-127381000D01*
X76534000Y-127381000D01*
X76534000Y-128380250D01*
X76692750Y-128539000D01*
X77283309Y-128539000D01*
X77516698Y-128442327D01*
X77695327Y-128263699D01*
X77792000Y-128030310D01*
X77792000Y-127539750D01*
X77633250Y-127381000D01*
X76534000Y-127381000D01*
X76280000Y-127381000D01*
X76260000Y-127381000D01*
X76260000Y-127127000D01*
X76280000Y-127127000D01*
X76280000Y-126127750D01*
X76534000Y-126127750D01*
X76534000Y-127127000D01*
X77633250Y-127127000D01*
X77792000Y-126968250D01*
X77792000Y-126477690D01*
X77695327Y-126244301D01*
X77516698Y-126065673D01*
X77283309Y-125969000D01*
X76692750Y-125969000D01*
X76534000Y-126127750D01*
X76280000Y-126127750D01*
X76121250Y-125969000D01*
X75530691Y-125969000D01*
X75297302Y-126065673D01*
X75118673Y-126244301D01*
X75062346Y-126380287D01*
X75060162Y-126368683D01*
X74921090Y-126152559D01*
X74717000Y-126013110D01*
X74717000Y-125547595D01*
X74803440Y-125421085D01*
X74882470Y-125543901D01*
X75094670Y-125688891D01*
X75346560Y-125739900D01*
X76545440Y-125739900D01*
X76780757Y-125695622D01*
X76996881Y-125556550D01*
X77033456Y-125503020D01*
X78043317Y-125503020D01*
X78080910Y-125561441D01*
X78293110Y-125706431D01*
X78545000Y-125757440D01*
X80045000Y-125757440D01*
X80280317Y-125713162D01*
X80496441Y-125574090D01*
X80641431Y-125361890D01*
X80648191Y-125328510D01*
X80706673Y-125469699D01*
X80885302Y-125648327D01*
X81118691Y-125745000D01*
X81709250Y-125745000D01*
X81868000Y-125586250D01*
X81868000Y-124587000D01*
X82122000Y-124587000D01*
X82122000Y-125586250D01*
X82280750Y-125745000D01*
X82871309Y-125745000D01*
X83104698Y-125648327D01*
X83283327Y-125469699D01*
X83380000Y-125236310D01*
X83380000Y-124745750D01*
X83221250Y-124587000D01*
X82122000Y-124587000D01*
X81868000Y-124587000D01*
X81848000Y-124587000D01*
X81848000Y-124333000D01*
X81868000Y-124333000D01*
X81868000Y-123333750D01*
X82122000Y-123333750D01*
X82122000Y-124333000D01*
X83221250Y-124333000D01*
X83380000Y-124174250D01*
X83380000Y-123683690D01*
X83283327Y-123450301D01*
X83104698Y-123271673D01*
X82871309Y-123175000D01*
X82280750Y-123175000D01*
X82122000Y-123333750D01*
X81868000Y-123333750D01*
X81709250Y-123175000D01*
X81118691Y-123175000D01*
X80885302Y-123271673D01*
X80706673Y-123450301D01*
X80650346Y-123586287D01*
X80648162Y-123574683D01*
X80509090Y-123358559D01*
X80296890Y-123213569D01*
X80045000Y-123162560D01*
X78545000Y-123162560D01*
X78309683Y-123206838D01*
X78093559Y-123345910D01*
X77999876Y-123483020D01*
X77035836Y-123483020D01*
X77009530Y-123442139D01*
X77008533Y-123441457D01*
X77141871Y-123246310D01*
X77192880Y-122994420D01*
X77192880Y-121795540D01*
X77148602Y-121560223D01*
X77009530Y-121344099D01*
X76923036Y-121285000D01*
X85350000Y-121285000D01*
X85426882Y-121671510D01*
X85645822Y-121999178D01*
X85731000Y-122084356D01*
X85731000Y-127635000D01*
X85807882Y-128021510D01*
X86026822Y-128349178D01*
X86354490Y-128568118D01*
X86741000Y-128645000D01*
X87127510Y-128568118D01*
X87455178Y-128349178D01*
X87674118Y-128021510D01*
X87751000Y-127635000D01*
X87751000Y-124783255D01*
X128549400Y-124783255D01*
X128549400Y-125152745D01*
X128663474Y-125726234D01*
X128988330Y-126212415D01*
X129474511Y-126537271D01*
X130048000Y-126651345D01*
X130621489Y-126537271D01*
X131107670Y-126212415D01*
X131314461Y-125902931D01*
X131685964Y-126318732D01*
X132213209Y-126572709D01*
X132228974Y-126575358D01*
X132461000Y-126454217D01*
X132461000Y-125095000D01*
X132441000Y-125095000D01*
X132441000Y-124841000D01*
X132461000Y-124841000D01*
X132461000Y-123481783D01*
X132715000Y-123481783D01*
X132715000Y-124841000D01*
X132735000Y-124841000D01*
X132735000Y-125095000D01*
X132715000Y-125095000D01*
X132715000Y-126454217D01*
X132947026Y-126575358D01*
X132962791Y-126572709D01*
X133490036Y-126318732D01*
X133646907Y-126143155D01*
X133661238Y-126219317D01*
X133800310Y-126435441D01*
X134012510Y-126580431D01*
X134264400Y-126631440D01*
X135991600Y-126631440D01*
X136226917Y-126587162D01*
X136443041Y-126448090D01*
X136588031Y-126235890D01*
X136639040Y-125984000D01*
X136639040Y-123952000D01*
X136594762Y-123716683D01*
X136455690Y-123500559D01*
X136243490Y-123355569D01*
X135991600Y-123304560D01*
X134264400Y-123304560D01*
X134029083Y-123348838D01*
X133812959Y-123487910D01*
X133667969Y-123700110D01*
X133648768Y-123794927D01*
X133490036Y-123617268D01*
X132962791Y-123363291D01*
X132947026Y-123360642D01*
X132715000Y-123481783D01*
X132461000Y-123481783D01*
X132228974Y-123360642D01*
X132213209Y-123363291D01*
X131685964Y-123617268D01*
X131314461Y-124033069D01*
X131107670Y-123723585D01*
X130621489Y-123398729D01*
X130048000Y-123284655D01*
X129474511Y-123398729D01*
X128988330Y-123723585D01*
X128663474Y-124209766D01*
X128549400Y-124783255D01*
X87751000Y-124783255D01*
X87751000Y-121666000D01*
X87674118Y-121279490D01*
X87455178Y-120951822D01*
X87074178Y-120570822D01*
X86746510Y-120351882D01*
X86360000Y-120275000D01*
X85973490Y-120351882D01*
X85645822Y-120570822D01*
X85426882Y-120898490D01*
X85350000Y-121285000D01*
X76923036Y-121285000D01*
X76797330Y-121199109D01*
X76756000Y-121190739D01*
X76756000Y-119740441D01*
X76880838Y-119439799D01*
X76881111Y-119126000D01*
X95383000Y-119126000D01*
X95459882Y-119512510D01*
X95678822Y-119840178D01*
X98345822Y-122507178D01*
X98673490Y-122726118D01*
X99060000Y-122803001D01*
X99060005Y-122803000D01*
X99568000Y-122803000D01*
X99954510Y-122726118D01*
X100282178Y-122507178D01*
X100501118Y-122179510D01*
X100578000Y-121793000D01*
X100501118Y-121406490D01*
X100282178Y-121078822D01*
X99954510Y-120859882D01*
X99568000Y-120783000D01*
X99478356Y-120783000D01*
X97107178Y-118411822D01*
X97035608Y-118364000D01*
X109365455Y-118364000D01*
X109491130Y-118995810D01*
X109718299Y-119335792D01*
X109581359Y-119423910D01*
X109436369Y-119636110D01*
X109385360Y-119888000D01*
X109385360Y-121920000D01*
X109429638Y-122155317D01*
X109568710Y-122371441D01*
X109780910Y-122516431D01*
X110032800Y-122567440D01*
X112064800Y-122567440D01*
X112300117Y-122523162D01*
X112516241Y-122384090D01*
X112661231Y-122171890D01*
X112712240Y-121920000D01*
X112712240Y-119888000D01*
X112667962Y-119652683D01*
X112528890Y-119436559D01*
X112379963Y-119334802D01*
X112606470Y-118995810D01*
X112732145Y-118364000D01*
X112606470Y-117732190D01*
X112248578Y-117196567D01*
X111712955Y-116838675D01*
X111081145Y-116713000D01*
X111016455Y-116713000D01*
X110384645Y-116838675D01*
X109849022Y-117196567D01*
X109491130Y-117732190D01*
X109365455Y-118364000D01*
X97035608Y-118364000D01*
X96779510Y-118192882D01*
X96393000Y-118116000D01*
X96006490Y-118192882D01*
X95678822Y-118411822D01*
X95459882Y-118739490D01*
X95383000Y-119126000D01*
X76881111Y-119126000D01*
X76881162Y-119067833D01*
X76739117Y-118724057D01*
X76476327Y-118460808D01*
X76132799Y-118318162D01*
X75760833Y-118317838D01*
X75417057Y-118459883D01*
X75153808Y-118722673D01*
X75011162Y-119066201D01*
X75010838Y-119438167D01*
X75136000Y-119741083D01*
X75136000Y-121187720D01*
X75111243Y-121192378D01*
X74895119Y-121331450D01*
X74802560Y-121466915D01*
X74723530Y-121344099D01*
X74511330Y-121199109D01*
X74470000Y-121190739D01*
X74470000Y-119892329D01*
X74579192Y-119783327D01*
X74721838Y-119439799D01*
X74722162Y-119067833D01*
X74580117Y-118724057D01*
X74317327Y-118460808D01*
X73973799Y-118318162D01*
X73601833Y-118317838D01*
X73295684Y-118444336D01*
X73418431Y-118264690D01*
X73437039Y-118172800D01*
X84008400Y-118172800D01*
X84318374Y-118111142D01*
X84581156Y-117935556D01*
X86881957Y-115634756D01*
X87057543Y-115371973D01*
X87119200Y-115062000D01*
X87119200Y-105795841D01*
X87244038Y-105495199D01*
X87244362Y-105123233D01*
X87102317Y-104779457D01*
X86839527Y-104516208D01*
X86495999Y-104373562D01*
X86124033Y-104373238D01*
X85780257Y-104515283D01*
X85517008Y-104778073D01*
X85374362Y-105121601D01*
X85374038Y-105493567D01*
X85499200Y-105796483D01*
X85499200Y-114726487D01*
X83672888Y-116552800D01*
X73439334Y-116552800D01*
X73425162Y-116477483D01*
X73286090Y-116261359D01*
X73073890Y-116116369D01*
X72822000Y-116065360D01*
X71272000Y-116065360D01*
X71036683Y-116109638D01*
X70820559Y-116248710D01*
X70749437Y-116352800D01*
X65394931Y-116352800D01*
X65336090Y-116261359D01*
X65123890Y-116116369D01*
X64872000Y-116065360D01*
X63322000Y-116065360D01*
X63086683Y-116109638D01*
X62870559Y-116248710D01*
X62799437Y-116352800D01*
X61698124Y-116352800D01*
X61616890Y-116226559D01*
X61404690Y-116081569D01*
X61371310Y-116074809D01*
X61512499Y-116016327D01*
X61691127Y-115837698D01*
X61787800Y-115604309D01*
X61787800Y-115013750D01*
X61629050Y-114855000D01*
X60629800Y-114855000D01*
X60629800Y-114875000D01*
X60375800Y-114875000D01*
X60375800Y-114855000D01*
X59376550Y-114855000D01*
X59217800Y-115013750D01*
X59217800Y-115604309D01*
X59314473Y-115837698D01*
X59493101Y-116016327D01*
X59629087Y-116072654D01*
X59617483Y-116074838D01*
X59401359Y-116213910D01*
X59256369Y-116426110D01*
X59205360Y-116678000D01*
X59205360Y-118178000D01*
X59249638Y-118413317D01*
X59388710Y-118629441D01*
X59600910Y-118774431D01*
X59852800Y-118825440D01*
X61152800Y-118825440D01*
X61388117Y-118781162D01*
X61604241Y-118642090D01*
X61749231Y-118429890D01*
X61760792Y-118372800D01*
X62799069Y-118372800D01*
X62857910Y-118464241D01*
X63070110Y-118609231D01*
X63322000Y-118660240D01*
X64872000Y-118660240D01*
X65107317Y-118615962D01*
X65323441Y-118476890D01*
X65394563Y-118372800D01*
X70749069Y-118372800D01*
X70807910Y-118464241D01*
X70933761Y-118550231D01*
X70845057Y-118586883D01*
X70581808Y-118849673D01*
X70439162Y-119193201D01*
X70438838Y-119565167D01*
X70564000Y-119868083D01*
X70564000Y-121187720D01*
X70539243Y-121192378D01*
X70323119Y-121331450D01*
X70230560Y-121466915D01*
X70151530Y-121344099D01*
X69939330Y-121199109D01*
X69898000Y-121190739D01*
X69898000Y-120121441D01*
X70022838Y-119820799D01*
X70023162Y-119448833D01*
X69881117Y-119105057D01*
X69618327Y-118841808D01*
X69274799Y-118699162D01*
X68902833Y-118698838D01*
X68559057Y-118840883D01*
X68295808Y-119103673D01*
X68153162Y-119447201D01*
X68152838Y-119819167D01*
X68278000Y-120122083D01*
X68278000Y-121187720D01*
X68253243Y-121192378D01*
X68037119Y-121331450D01*
X67944560Y-121466915D01*
X67865530Y-121344099D01*
X67653330Y-121199109D01*
X67612000Y-121190739D01*
X67612000Y-120248441D01*
X67736838Y-119947799D01*
X67737162Y-119575833D01*
X67595117Y-119232057D01*
X67332327Y-118968808D01*
X66988799Y-118826162D01*
X66616833Y-118825838D01*
X66273057Y-118967883D01*
X66009808Y-119230673D01*
X65867162Y-119574201D01*
X65866838Y-119946167D01*
X65992000Y-120249083D01*
X65992000Y-121187720D01*
X65967243Y-121192378D01*
X65751119Y-121331450D01*
X65606129Y-121543650D01*
X65555120Y-121795540D01*
X65555120Y-122419764D01*
X64722178Y-121586822D01*
X64394510Y-121367882D01*
X64008000Y-121291000D01*
X62566931Y-121291000D01*
X62508090Y-121199559D01*
X62295890Y-121054569D01*
X62044000Y-121003560D01*
X60544000Y-121003560D01*
X60308683Y-121047838D01*
X60092559Y-121186910D01*
X59947569Y-121399110D01*
X59940809Y-121432490D01*
X59882327Y-121291301D01*
X59703698Y-121112673D01*
X59470309Y-121016000D01*
X58879750Y-121016000D01*
X58721000Y-121174750D01*
X58467000Y-121174750D01*
X58308250Y-121016000D01*
X57717691Y-121016000D01*
X57484302Y-121112673D01*
X57305673Y-121291301D01*
X57209000Y-121524690D01*
X47879000Y-121524690D01*
X47879000Y-113851691D01*
X59217800Y-113851691D01*
X59217800Y-114442250D01*
X59376550Y-114601000D01*
X60375800Y-114601000D01*
X60375800Y-113501750D01*
X60629800Y-113501750D01*
X60629800Y-114601000D01*
X61629050Y-114601000D01*
X61787800Y-114442250D01*
X61787800Y-113851691D01*
X61691127Y-113618302D01*
X61512499Y-113439673D01*
X61279110Y-113343000D01*
X60788550Y-113343000D01*
X60629800Y-113501750D01*
X60375800Y-113501750D01*
X60217050Y-113343000D01*
X59726490Y-113343000D01*
X59493101Y-113439673D01*
X59314473Y-113618302D01*
X59217800Y-113851691D01*
X47879000Y-113851691D01*
X47879000Y-98562400D01*
X55723360Y-98562400D01*
X55723360Y-99862400D01*
X55767638Y-100097717D01*
X55906710Y-100313841D01*
X56118910Y-100458831D01*
X56125200Y-100460105D01*
X56125200Y-101153069D01*
X56033759Y-101211910D01*
X55888769Y-101424110D01*
X55837760Y-101676000D01*
X55837760Y-103226000D01*
X55882038Y-103461317D01*
X56021110Y-103677441D01*
X56125200Y-103748563D01*
X56125200Y-109103069D01*
X56033759Y-109161910D01*
X55888769Y-109374110D01*
X55837760Y-109626000D01*
X55837760Y-111176000D01*
X55882038Y-111411317D01*
X56021110Y-111627441D01*
X56233310Y-111772431D01*
X56485200Y-111823440D01*
X57785200Y-111823440D01*
X58020517Y-111779162D01*
X58236641Y-111640090D01*
X58381631Y-111427890D01*
X58432640Y-111176000D01*
X58432640Y-109626000D01*
X58388362Y-109390683D01*
X58249290Y-109174559D01*
X58145200Y-109103437D01*
X58145200Y-103748931D01*
X58236641Y-103690090D01*
X58381631Y-103477890D01*
X58432640Y-103226000D01*
X58432640Y-101676000D01*
X58388362Y-101440683D01*
X58249290Y-101224559D01*
X58145200Y-101153437D01*
X58145200Y-100440413D01*
X58322241Y-100326490D01*
X58467231Y-100114290D01*
X58473991Y-100080910D01*
X58532473Y-100222099D01*
X58711102Y-100400727D01*
X58944491Y-100497400D01*
X59535050Y-100497400D01*
X59693800Y-100338650D01*
X59693800Y-99339400D01*
X59947800Y-99339400D01*
X59947800Y-100338650D01*
X60106550Y-100497400D01*
X60697109Y-100497400D01*
X60930498Y-100400727D01*
X61109127Y-100222099D01*
X61205800Y-99988710D01*
X61205800Y-99498150D01*
X61047050Y-99339400D01*
X59947800Y-99339400D01*
X59693800Y-99339400D01*
X59673800Y-99339400D01*
X59673800Y-99085400D01*
X59693800Y-99085400D01*
X59693800Y-98086150D01*
X59947800Y-98086150D01*
X59947800Y-99085400D01*
X61047050Y-99085400D01*
X61205800Y-98926650D01*
X61205800Y-98436090D01*
X61109127Y-98202701D01*
X60930498Y-98024073D01*
X60697109Y-97927400D01*
X60106550Y-97927400D01*
X59947800Y-98086150D01*
X59693800Y-98086150D01*
X59535050Y-97927400D01*
X58944491Y-97927400D01*
X58711102Y-98024073D01*
X58532473Y-98202701D01*
X58476146Y-98338687D01*
X58473962Y-98327083D01*
X58334890Y-98110959D01*
X58122690Y-97965969D01*
X57930800Y-97927110D01*
X57930800Y-96520000D01*
X60204000Y-96520000D01*
X60280882Y-96906510D01*
X60499822Y-97234178D01*
X62674560Y-99408916D01*
X62674560Y-99983284D01*
X61629284Y-101028560D01*
X60985200Y-101028560D01*
X60749883Y-101072838D01*
X60533759Y-101211910D01*
X60388769Y-101424110D01*
X60337760Y-101676000D01*
X60337760Y-103226000D01*
X60382038Y-103461317D01*
X60521110Y-103677441D01*
X60625200Y-103748563D01*
X60625200Y-109103069D01*
X60533759Y-109161910D01*
X60388769Y-109374110D01*
X60337760Y-109626000D01*
X60337760Y-111176000D01*
X60382038Y-111411317D01*
X60521110Y-111627441D01*
X60733310Y-111772431D01*
X60985200Y-111823440D01*
X61629284Y-111823440D01*
X62674560Y-112868716D01*
X62674560Y-113512800D01*
X62718838Y-113748117D01*
X62857910Y-113964241D01*
X63070110Y-114109231D01*
X63322000Y-114160240D01*
X64872000Y-114160240D01*
X65107317Y-114115962D01*
X65323441Y-113976890D01*
X65394563Y-113872800D01*
X70749069Y-113872800D01*
X70807910Y-113964241D01*
X71020110Y-114109231D01*
X71272000Y-114160240D01*
X72120728Y-114160240D01*
X73631571Y-115671084D01*
X73755883Y-115971943D01*
X74018673Y-116235192D01*
X74362201Y-116377838D01*
X74734167Y-116378162D01*
X75077943Y-116236117D01*
X75341192Y-115973327D01*
X75483838Y-115629799D01*
X75484162Y-115257833D01*
X75342117Y-114914057D01*
X75079327Y-114650808D01*
X74776629Y-114525116D01*
X73469440Y-113217928D01*
X73469440Y-112868716D01*
X74514716Y-111823440D01*
X75158800Y-111823440D01*
X75394117Y-111779162D01*
X75610241Y-111640090D01*
X75755231Y-111427890D01*
X75806240Y-111176000D01*
X75806240Y-109626000D01*
X75761962Y-109390683D01*
X75622890Y-109174559D01*
X75518800Y-109103437D01*
X75518800Y-103748931D01*
X75610241Y-103690090D01*
X75755231Y-103477890D01*
X75806240Y-103226000D01*
X75806240Y-101676000D01*
X77711360Y-101676000D01*
X77711360Y-103226000D01*
X77755638Y-103461317D01*
X77894710Y-103677441D01*
X77998800Y-103748563D01*
X77998800Y-109103069D01*
X77907359Y-109161910D01*
X77762369Y-109374110D01*
X77711360Y-109626000D01*
X77711360Y-111176000D01*
X77755638Y-111411317D01*
X77894710Y-111627441D01*
X77998800Y-111698563D01*
X77998800Y-113422000D01*
X78075682Y-113808510D01*
X78294622Y-114136178D01*
X78359822Y-114201378D01*
X78687490Y-114420318D01*
X79074000Y-114497200D01*
X79460510Y-114420318D01*
X79788178Y-114201378D01*
X80007118Y-113873710D01*
X80084000Y-113487200D01*
X80018800Y-113159419D01*
X80018800Y-111698931D01*
X80110241Y-111640090D01*
X80255231Y-111427890D01*
X80306240Y-111176000D01*
X80306240Y-109626000D01*
X80261962Y-109390683D01*
X80122890Y-109174559D01*
X80018800Y-109103437D01*
X80018800Y-103748931D01*
X80110241Y-103690090D01*
X80255231Y-103477890D01*
X80299152Y-103261000D01*
X84724615Y-103261000D01*
X85055601Y-103398438D01*
X85427567Y-103398762D01*
X85771343Y-103256717D01*
X86034592Y-102993927D01*
X86177238Y-102650399D01*
X86177562Y-102278433D01*
X86035517Y-101934657D01*
X85772727Y-101671408D01*
X85429199Y-101528762D01*
X85057233Y-101528438D01*
X84784811Y-101641000D01*
X80299654Y-101641000D01*
X80261962Y-101440683D01*
X80122890Y-101224559D01*
X79910690Y-101079569D01*
X79658800Y-101028560D01*
X78358800Y-101028560D01*
X78123483Y-101072838D01*
X77907359Y-101211910D01*
X77762369Y-101424110D01*
X77711360Y-101676000D01*
X75806240Y-101676000D01*
X75761962Y-101440683D01*
X75622890Y-101224559D01*
X75410690Y-101079569D01*
X75158800Y-101028560D01*
X74514716Y-101028560D01*
X73469440Y-99983284D01*
X73469440Y-99339200D01*
X73425162Y-99103883D01*
X73286090Y-98887759D01*
X73073890Y-98742769D01*
X72822000Y-98691760D01*
X71272000Y-98691760D01*
X71036683Y-98736038D01*
X70820559Y-98875110D01*
X70749437Y-98979200D01*
X65394931Y-98979200D01*
X65336090Y-98887759D01*
X65123890Y-98742769D01*
X64872000Y-98691760D01*
X64813141Y-98691760D01*
X64811178Y-98688822D01*
X64582906Y-98460550D01*
X74051400Y-98460550D01*
X74051400Y-99051109D01*
X74148073Y-99284498D01*
X74326701Y-99463127D01*
X74560090Y-99559800D01*
X75050650Y-99559800D01*
X75209400Y-99401050D01*
X75209400Y-98301800D01*
X75463400Y-98301800D01*
X75463400Y-99401050D01*
X75622150Y-99559800D01*
X76112710Y-99559800D01*
X76346099Y-99463127D01*
X76524727Y-99284498D01*
X76621400Y-99051109D01*
X76621400Y-98460550D01*
X76462650Y-98301800D01*
X75463400Y-98301800D01*
X75209400Y-98301800D01*
X74210150Y-98301800D01*
X74051400Y-98460550D01*
X64582906Y-98460550D01*
X61928178Y-95805822D01*
X61600510Y-95586882D01*
X61214000Y-95510000D01*
X60827490Y-95586882D01*
X60499822Y-95805822D01*
X60280882Y-96133490D01*
X60204000Y-96520000D01*
X57930800Y-96520000D01*
X57930800Y-94839200D01*
X62674560Y-94839200D01*
X62674560Y-96139200D01*
X62718838Y-96374517D01*
X62857910Y-96590641D01*
X63070110Y-96735631D01*
X63322000Y-96786640D01*
X64872000Y-96786640D01*
X65107317Y-96742362D01*
X65323441Y-96603290D01*
X65394563Y-96499200D01*
X70749069Y-96499200D01*
X70807910Y-96590641D01*
X71020110Y-96735631D01*
X71272000Y-96786640D01*
X72822000Y-96786640D01*
X73057317Y-96742362D01*
X73273441Y-96603290D01*
X73344563Y-96499200D01*
X74108387Y-96499200D01*
X74222310Y-96676241D01*
X74434510Y-96821231D01*
X74467890Y-96827991D01*
X74326701Y-96886473D01*
X74148073Y-97065102D01*
X74051400Y-97298491D01*
X74051400Y-97889050D01*
X74210150Y-98047800D01*
X75209400Y-98047800D01*
X75209400Y-98027800D01*
X75463400Y-98027800D01*
X75463400Y-98047800D01*
X76462650Y-98047800D01*
X76621400Y-97889050D01*
X76621400Y-97298491D01*
X76524727Y-97065102D01*
X76346099Y-96886473D01*
X76210113Y-96830146D01*
X76221717Y-96827962D01*
X76437841Y-96688890D01*
X76582831Y-96476690D01*
X76633840Y-96224800D01*
X76633840Y-94724800D01*
X76589562Y-94489483D01*
X76450490Y-94273359D01*
X76238290Y-94128369D01*
X75986400Y-94077360D01*
X74686400Y-94077360D01*
X74451083Y-94121638D01*
X74234959Y-94260710D01*
X74089969Y-94472910D01*
X74088695Y-94479200D01*
X73344931Y-94479200D01*
X73286090Y-94387759D01*
X73073890Y-94242769D01*
X72857000Y-94198848D01*
X72857000Y-90525497D01*
X72969238Y-90255199D01*
X72969400Y-90068400D01*
X73876160Y-90068400D01*
X73876160Y-92100400D01*
X73920438Y-92335717D01*
X74059510Y-92551841D01*
X74271710Y-92696831D01*
X74523600Y-92747840D01*
X76250800Y-92747840D01*
X76486117Y-92703562D01*
X76702241Y-92564490D01*
X76847231Y-92352290D01*
X76855600Y-92310961D01*
X76867530Y-92328815D01*
X77353711Y-92653671D01*
X77927200Y-92767745D01*
X78500689Y-92653671D01*
X78986870Y-92328815D01*
X79197200Y-92014034D01*
X79407530Y-92328815D01*
X79893711Y-92653671D01*
X80467200Y-92767745D01*
X81040689Y-92653671D01*
X81526870Y-92328815D01*
X81737200Y-92014034D01*
X81947530Y-92328815D01*
X82131530Y-92451760D01*
X82052400Y-92451760D01*
X81817083Y-92496038D01*
X81600959Y-92635110D01*
X81455969Y-92847310D01*
X81404960Y-93099200D01*
X81404960Y-93343380D01*
X80287036Y-93343380D01*
X80260730Y-93302499D01*
X80048530Y-93157509D01*
X79796640Y-93106500D01*
X78597760Y-93106500D01*
X78362443Y-93150778D01*
X78146319Y-93289850D01*
X78001329Y-93502050D01*
X77950320Y-93753940D01*
X77950320Y-94952820D01*
X77994598Y-95188137D01*
X78133670Y-95404261D01*
X78134667Y-95404943D01*
X78001329Y-95600090D01*
X77950320Y-95851980D01*
X77950320Y-97050860D01*
X77994598Y-97286177D01*
X78133670Y-97502301D01*
X78345870Y-97647291D01*
X78437200Y-97665786D01*
X78437200Y-98120200D01*
X78495052Y-98411039D01*
X78659799Y-98657601D01*
X79726599Y-99724401D01*
X79973161Y-99889148D01*
X80264000Y-99947000D01*
X95697198Y-99947000D01*
X95965878Y-100215680D01*
X95965838Y-100261167D01*
X96107883Y-100604943D01*
X96370673Y-100868192D01*
X96714201Y-101010838D01*
X97086167Y-101011162D01*
X97429943Y-100869117D01*
X97693192Y-100606327D01*
X97835838Y-100262799D01*
X97836162Y-99890833D01*
X97694117Y-99547057D01*
X97431327Y-99283808D01*
X97087799Y-99141162D01*
X97040923Y-99141121D01*
X96549401Y-98649599D01*
X96302839Y-98484852D01*
X96012000Y-98427000D01*
X80578802Y-98427000D01*
X79957200Y-97805398D01*
X79957200Y-97668089D01*
X80031957Y-97654022D01*
X80248081Y-97514950D01*
X80393071Y-97302750D01*
X80444080Y-97050860D01*
X80444080Y-96834950D01*
X81417400Y-96834950D01*
X81417400Y-97425509D01*
X81514073Y-97658898D01*
X81692701Y-97837527D01*
X81926090Y-97934200D01*
X82416650Y-97934200D01*
X82575400Y-97775450D01*
X82575400Y-96676200D01*
X82829400Y-96676200D01*
X82829400Y-97775450D01*
X82988150Y-97934200D01*
X83478710Y-97934200D01*
X83712099Y-97837527D01*
X83890727Y-97658898D01*
X83987400Y-97425509D01*
X83987400Y-96901000D01*
X88271000Y-96901000D01*
X88347882Y-97287510D01*
X88566822Y-97615178D01*
X89074822Y-98123178D01*
X89402489Y-98342118D01*
X89789000Y-98419000D01*
X104775000Y-98419000D01*
X105161510Y-98342118D01*
X105489178Y-98123178D01*
X105708118Y-97795510D01*
X105785000Y-97409000D01*
X105784134Y-97404646D01*
X107013000Y-98633513D01*
X107013000Y-110236000D01*
X107074658Y-110545974D01*
X107141863Y-110646553D01*
X107141838Y-110675167D01*
X107283883Y-111018943D01*
X107546673Y-111282192D01*
X107890201Y-111424838D01*
X108262167Y-111425162D01*
X108605943Y-111283117D01*
X108869192Y-111020327D01*
X109011838Y-110676799D01*
X109012162Y-110304833D01*
X108870117Y-109961057D01*
X108633000Y-109723526D01*
X108633000Y-98298000D01*
X108571342Y-97988026D01*
X108465325Y-97829361D01*
X108395756Y-97725243D01*
X106236756Y-95566244D01*
X106121452Y-95489200D01*
X105973974Y-95390658D01*
X105664000Y-95329000D01*
X102336365Y-95329000D01*
X102476526Y-95119234D01*
X102590600Y-94545745D01*
X102590600Y-94176255D01*
X102476526Y-93602766D01*
X102151670Y-93116585D01*
X101995148Y-93012000D01*
X104185488Y-93012000D01*
X113001571Y-101828084D01*
X113125883Y-102128943D01*
X113388673Y-102392192D01*
X113732201Y-102534838D01*
X114104167Y-102535162D01*
X114447943Y-102393117D01*
X114711192Y-102130327D01*
X114853838Y-101786799D01*
X114854162Y-101414833D01*
X114712117Y-101071057D01*
X114449327Y-100807808D01*
X114146629Y-100682116D01*
X106105680Y-92641167D01*
X116158838Y-92641167D01*
X116300883Y-92984943D01*
X116411000Y-93095252D01*
X116411000Y-113411000D01*
X116472658Y-113720974D01*
X116614048Y-113932578D01*
X116648244Y-113983756D01*
X120919243Y-118254756D01*
X121014137Y-118318162D01*
X121182026Y-118430342D01*
X121492000Y-118492000D01*
X122310250Y-118492000D01*
X122343238Y-118667317D01*
X122482310Y-118883441D01*
X122694510Y-119028431D01*
X122946400Y-119079440D01*
X124246400Y-119079440D01*
X124481717Y-119035162D01*
X124697841Y-118896090D01*
X124837290Y-118692000D01*
X125920047Y-118692000D01*
X126002310Y-118819841D01*
X126214510Y-118964831D01*
X126466400Y-119015840D01*
X128016400Y-119015840D01*
X128251717Y-118971562D01*
X128467841Y-118832490D01*
X128538963Y-118728400D01*
X133893469Y-118728400D01*
X133952310Y-118819841D01*
X134164510Y-118964831D01*
X134416400Y-119015840D01*
X135966400Y-119015840D01*
X136201717Y-118971562D01*
X136417841Y-118832490D01*
X136562831Y-118620290D01*
X136613840Y-118368400D01*
X136613840Y-117068400D01*
X136569562Y-116833083D01*
X136430490Y-116616959D01*
X136218290Y-116471969D01*
X135966400Y-116420960D01*
X134416400Y-116420960D01*
X134181083Y-116465238D01*
X133964959Y-116604310D01*
X133893837Y-116708400D01*
X128539331Y-116708400D01*
X128480490Y-116616959D01*
X128268290Y-116471969D01*
X128016400Y-116420960D01*
X126466400Y-116420960D01*
X126231083Y-116465238D01*
X126014959Y-116604310D01*
X125968708Y-116672000D01*
X124833679Y-116672000D01*
X124710490Y-116480559D01*
X124498290Y-116335569D01*
X124464910Y-116328809D01*
X124606099Y-116270327D01*
X124784727Y-116091698D01*
X124881400Y-115858309D01*
X124881400Y-115267750D01*
X124722650Y-115109000D01*
X123723400Y-115109000D01*
X123723400Y-115129000D01*
X123469400Y-115129000D01*
X123469400Y-115109000D01*
X122470150Y-115109000D01*
X122311400Y-115267750D01*
X122311400Y-115858309D01*
X122408073Y-116091698D01*
X122586701Y-116270327D01*
X122722687Y-116326654D01*
X122711083Y-116328838D01*
X122494959Y-116467910D01*
X122349969Y-116680110D01*
X122311110Y-116872000D01*
X121827513Y-116872000D01*
X119061204Y-114105691D01*
X122311400Y-114105691D01*
X122311400Y-114696250D01*
X122470150Y-114855000D01*
X123469400Y-114855000D01*
X123469400Y-113755750D01*
X123723400Y-113755750D01*
X123723400Y-114855000D01*
X124722650Y-114855000D01*
X124881400Y-114696250D01*
X124881400Y-114105691D01*
X124784727Y-113872302D01*
X124606099Y-113693673D01*
X124372710Y-113597000D01*
X123882150Y-113597000D01*
X123723400Y-113755750D01*
X123469400Y-113755750D01*
X123310650Y-113597000D01*
X122820090Y-113597000D01*
X122586701Y-113693673D01*
X122408073Y-113872302D01*
X122311400Y-114105691D01*
X119061204Y-114105691D01*
X118031000Y-113075488D01*
X118031000Y-98384600D01*
X118893160Y-98384600D01*
X118893160Y-99684600D01*
X118937438Y-99919917D01*
X119076510Y-100136041D01*
X119280600Y-100275490D01*
X119280600Y-101501591D01*
X119178159Y-101567510D01*
X119033169Y-101779710D01*
X118982160Y-102031600D01*
X118982160Y-103581600D01*
X119026438Y-103816917D01*
X119165510Y-104033041D01*
X119269600Y-104104163D01*
X119269600Y-109458669D01*
X119178159Y-109517510D01*
X119033169Y-109729710D01*
X118982160Y-109981600D01*
X118982160Y-111531600D01*
X119026438Y-111766917D01*
X119165510Y-111983041D01*
X119377710Y-112128031D01*
X119629600Y-112179040D01*
X120929600Y-112179040D01*
X121164917Y-112134762D01*
X121381041Y-111995690D01*
X121526031Y-111783490D01*
X121577040Y-111531600D01*
X121577040Y-109981600D01*
X121532762Y-109746283D01*
X121393690Y-109530159D01*
X121289600Y-109459037D01*
X121289600Y-104104531D01*
X121381041Y-104045690D01*
X121526031Y-103833490D01*
X121577040Y-103581600D01*
X121577040Y-102031600D01*
X123482160Y-102031600D01*
X123482160Y-103581600D01*
X123526438Y-103816917D01*
X123665510Y-104033041D01*
X123769600Y-104104163D01*
X123769600Y-109458669D01*
X123678159Y-109517510D01*
X123533169Y-109729710D01*
X123482160Y-109981600D01*
X123482160Y-111531600D01*
X123526438Y-111766917D01*
X123665510Y-111983041D01*
X123877710Y-112128031D01*
X124129600Y-112179040D01*
X124773684Y-112179040D01*
X125818960Y-113224316D01*
X125818960Y-113868400D01*
X125863238Y-114103717D01*
X126002310Y-114319841D01*
X126214510Y-114464831D01*
X126466400Y-114515840D01*
X128016400Y-114515840D01*
X128251717Y-114471562D01*
X128467841Y-114332490D01*
X128538963Y-114228400D01*
X133893469Y-114228400D01*
X133952310Y-114319841D01*
X134164510Y-114464831D01*
X134416400Y-114515840D01*
X135966400Y-114515840D01*
X136201717Y-114471562D01*
X136340045Y-114382550D01*
X138031800Y-114382550D01*
X138031800Y-114873110D01*
X138128473Y-115106499D01*
X138307102Y-115285127D01*
X138540491Y-115381800D01*
X139131050Y-115381800D01*
X139289800Y-115223050D01*
X139289800Y-114223800D01*
X138190550Y-114223800D01*
X138031800Y-114382550D01*
X136340045Y-114382550D01*
X136417841Y-114332490D01*
X136562831Y-114120290D01*
X136613840Y-113868400D01*
X136613840Y-113320490D01*
X138031800Y-113320490D01*
X138031800Y-113811050D01*
X138190550Y-113969800D01*
X139289800Y-113969800D01*
X139289800Y-112970550D01*
X139131050Y-112811800D01*
X138540491Y-112811800D01*
X138307102Y-112908473D01*
X138128473Y-113087101D01*
X138031800Y-113320490D01*
X136613840Y-113320490D01*
X136613840Y-113224316D01*
X137659116Y-112179040D01*
X138303200Y-112179040D01*
X138538517Y-112134762D01*
X138754641Y-111995690D01*
X138899631Y-111783490D01*
X138950640Y-111531600D01*
X138950640Y-109981600D01*
X138906362Y-109746283D01*
X138767290Y-109530159D01*
X138663200Y-109459037D01*
X138663200Y-104104531D01*
X138754641Y-104045690D01*
X138899631Y-103833490D01*
X138950640Y-103581600D01*
X138950640Y-102031600D01*
X138906362Y-101796283D01*
X138767290Y-101580159D01*
X138555090Y-101435169D01*
X138303200Y-101384160D01*
X137659116Y-101384160D01*
X136626540Y-100351584D01*
X136626540Y-99682100D01*
X136582262Y-99446783D01*
X136443190Y-99230659D01*
X136230990Y-99085669D01*
X135979100Y-99034660D01*
X134429100Y-99034660D01*
X134193783Y-99078938D01*
X133977659Y-99218010D01*
X133906537Y-99322100D01*
X128552031Y-99322100D01*
X128493190Y-99230659D01*
X128280990Y-99085669D01*
X128029100Y-99034660D01*
X126479100Y-99034660D01*
X126243783Y-99078938D01*
X126027659Y-99218010D01*
X125882669Y-99430210D01*
X125831660Y-99682100D01*
X125831660Y-100326184D01*
X124773684Y-101384160D01*
X124129600Y-101384160D01*
X123894283Y-101428438D01*
X123678159Y-101567510D01*
X123533169Y-101779710D01*
X123482160Y-102031600D01*
X121577040Y-102031600D01*
X121532762Y-101796283D01*
X121393690Y-101580159D01*
X121300600Y-101516553D01*
X121300600Y-100271879D01*
X121492041Y-100148690D01*
X121637031Y-99936490D01*
X121643791Y-99903110D01*
X121702273Y-100044299D01*
X121880902Y-100222927D01*
X122114291Y-100319600D01*
X122704850Y-100319600D01*
X122863600Y-100160850D01*
X122863600Y-99161600D01*
X123117600Y-99161600D01*
X123117600Y-100160850D01*
X123276350Y-100319600D01*
X123866909Y-100319600D01*
X124100298Y-100222927D01*
X124278927Y-100044299D01*
X124375600Y-99810910D01*
X124375600Y-99320350D01*
X124216850Y-99161600D01*
X123117600Y-99161600D01*
X122863600Y-99161600D01*
X122843600Y-99161600D01*
X122843600Y-98907600D01*
X122863600Y-98907600D01*
X122863600Y-97908350D01*
X123117600Y-97908350D01*
X123117600Y-98907600D01*
X124216850Y-98907600D01*
X124308300Y-98816150D01*
X137297400Y-98816150D01*
X137297400Y-99406709D01*
X137394073Y-99640098D01*
X137572701Y-99818727D01*
X137806090Y-99915400D01*
X138296650Y-99915400D01*
X138455400Y-99756650D01*
X138455400Y-98657400D01*
X138709400Y-98657400D01*
X138709400Y-99756650D01*
X138868150Y-99915400D01*
X139358710Y-99915400D01*
X139432570Y-99884806D01*
X139263408Y-100053673D01*
X139120762Y-100397201D01*
X139120438Y-100769167D01*
X139262483Y-101112943D01*
X139525273Y-101376192D01*
X139827972Y-101501884D01*
X140855760Y-102529673D01*
X140855760Y-103581600D01*
X140900038Y-103816917D01*
X141039110Y-104033041D01*
X141143200Y-104104163D01*
X141143200Y-109458669D01*
X141051759Y-109517510D01*
X140906769Y-109729710D01*
X140855760Y-109981600D01*
X140855760Y-111531600D01*
X140900038Y-111766917D01*
X141039110Y-111983041D01*
X141106800Y-112029292D01*
X141106800Y-112859521D01*
X140915359Y-112982710D01*
X140770369Y-113194910D01*
X140763609Y-113228290D01*
X140705127Y-113087101D01*
X140526498Y-112908473D01*
X140293109Y-112811800D01*
X139702550Y-112811800D01*
X139543800Y-112970550D01*
X139543800Y-113969800D01*
X139563800Y-113969800D01*
X139563800Y-114223800D01*
X139543800Y-114223800D01*
X139543800Y-115223050D01*
X139702550Y-115381800D01*
X140293109Y-115381800D01*
X140526498Y-115285127D01*
X140705127Y-115106499D01*
X140761454Y-114970513D01*
X140763638Y-114982117D01*
X140902710Y-115198241D01*
X141114910Y-115343231D01*
X141366800Y-115394240D01*
X142866800Y-115394240D01*
X143102117Y-115349962D01*
X143318241Y-115210890D01*
X143463231Y-114998690D01*
X143514240Y-114746800D01*
X143514240Y-113446800D01*
X143469962Y-113211483D01*
X143330890Y-112995359D01*
X143126800Y-112855910D01*
X143126800Y-112077953D01*
X143254641Y-111995690D01*
X143399631Y-111783490D01*
X143450640Y-111531600D01*
X143450640Y-109981600D01*
X143406362Y-109746283D01*
X143267290Y-109530159D01*
X143163200Y-109459037D01*
X143163200Y-104104531D01*
X143254641Y-104045690D01*
X143399631Y-103833490D01*
X143450640Y-103581600D01*
X143450640Y-102031600D01*
X143406362Y-101796283D01*
X143267290Y-101580159D01*
X143055090Y-101435169D01*
X142803200Y-101384160D01*
X142001273Y-101384160D01*
X140973030Y-100355918D01*
X140848717Y-100055057D01*
X140585927Y-99791808D01*
X140242399Y-99649162D01*
X139870433Y-99648838D01*
X139685628Y-99725198D01*
X139770727Y-99640098D01*
X139867400Y-99406709D01*
X139867400Y-98866950D01*
X140955000Y-98866950D01*
X140955000Y-99457509D01*
X141051673Y-99690898D01*
X141230301Y-99869527D01*
X141463690Y-99966200D01*
X141954250Y-99966200D01*
X142113000Y-99807450D01*
X142113000Y-98708200D01*
X142367000Y-98708200D01*
X142367000Y-99807450D01*
X142525750Y-99966200D01*
X143016310Y-99966200D01*
X143249699Y-99869527D01*
X143428327Y-99690898D01*
X143525000Y-99457509D01*
X143525000Y-98866950D01*
X143366250Y-98708200D01*
X142367000Y-98708200D01*
X142113000Y-98708200D01*
X141113750Y-98708200D01*
X140955000Y-98866950D01*
X139867400Y-98866950D01*
X139867400Y-98816150D01*
X139708650Y-98657400D01*
X138709400Y-98657400D01*
X138455400Y-98657400D01*
X137456150Y-98657400D01*
X137297400Y-98816150D01*
X124308300Y-98816150D01*
X124375600Y-98748850D01*
X124375600Y-98258290D01*
X124278927Y-98024901D01*
X124100298Y-97846273D01*
X123866909Y-97749600D01*
X123276350Y-97749600D01*
X123117600Y-97908350D01*
X122863600Y-97908350D01*
X122704850Y-97749600D01*
X122114291Y-97749600D01*
X121880902Y-97846273D01*
X121702273Y-98024901D01*
X121645946Y-98160887D01*
X121643762Y-98149283D01*
X121504690Y-97933159D01*
X121292490Y-97788169D01*
X121100600Y-97749310D01*
X121100600Y-95182100D01*
X125831660Y-95182100D01*
X125831660Y-96482100D01*
X125875938Y-96717417D01*
X126015010Y-96933541D01*
X126227210Y-97078531D01*
X126479100Y-97129540D01*
X128029100Y-97129540D01*
X128264417Y-97085262D01*
X128480541Y-96946190D01*
X128551663Y-96842100D01*
X133906169Y-96842100D01*
X133965010Y-96933541D01*
X134177210Y-97078531D01*
X134429100Y-97129540D01*
X135979100Y-97129540D01*
X136214417Y-97085262D01*
X136430541Y-96946190D01*
X136502824Y-96840400D01*
X137345121Y-96840400D01*
X137468310Y-97031841D01*
X137680510Y-97176831D01*
X137713890Y-97183591D01*
X137572701Y-97242073D01*
X137394073Y-97420702D01*
X137297400Y-97654091D01*
X137297400Y-98244650D01*
X137456150Y-98403400D01*
X138455400Y-98403400D01*
X138455400Y-98383400D01*
X138709400Y-98383400D01*
X138709400Y-98403400D01*
X139708650Y-98403400D01*
X139867400Y-98244650D01*
X139867400Y-97654091D01*
X139770727Y-97420702D01*
X139592099Y-97242073D01*
X139456113Y-97185746D01*
X139467717Y-97183562D01*
X139683841Y-97044490D01*
X139828831Y-96832290D01*
X139879840Y-96580400D01*
X139879840Y-95131200D01*
X140942560Y-95131200D01*
X140942560Y-96631200D01*
X140986838Y-96866517D01*
X141125910Y-97082641D01*
X141338110Y-97227631D01*
X141371490Y-97234391D01*
X141230301Y-97292873D01*
X141051673Y-97471502D01*
X140955000Y-97704891D01*
X140955000Y-98295450D01*
X141113750Y-98454200D01*
X142113000Y-98454200D01*
X142113000Y-98434200D01*
X142367000Y-98434200D01*
X142367000Y-98454200D01*
X143366250Y-98454200D01*
X143525000Y-98295450D01*
X143525000Y-97704891D01*
X143428327Y-97471502D01*
X143249699Y-97292873D01*
X143113713Y-97236546D01*
X143125317Y-97234362D01*
X143341441Y-97095290D01*
X143486431Y-96883090D01*
X143537440Y-96631200D01*
X143537440Y-95131200D01*
X143493162Y-94895883D01*
X143354090Y-94679759D01*
X143351600Y-94678058D01*
X143351600Y-91242056D01*
X143392481Y-91215750D01*
X143537471Y-91003550D01*
X143588480Y-90751660D01*
X143588480Y-89552780D01*
X143544202Y-89317463D01*
X143405130Y-89101339D01*
X143404133Y-89100657D01*
X143537471Y-88905510D01*
X143588480Y-88653620D01*
X143588480Y-87454740D01*
X143544202Y-87219423D01*
X143405130Y-87003299D01*
X143351600Y-86966724D01*
X143351600Y-84938988D01*
X143402400Y-84683600D01*
X143325518Y-84297090D01*
X143106578Y-83969422D01*
X142778910Y-83750482D01*
X142392400Y-83673600D01*
X142005890Y-83750482D01*
X141678222Y-83969422D01*
X141627422Y-84020222D01*
X141408482Y-84347890D01*
X141331600Y-84734400D01*
X141331600Y-86964344D01*
X141290719Y-86990650D01*
X141145729Y-87202850D01*
X141094720Y-87454740D01*
X141094720Y-88653620D01*
X141138998Y-88888937D01*
X141278070Y-89105061D01*
X141279067Y-89105743D01*
X141145729Y-89300890D01*
X141094720Y-89552780D01*
X141094720Y-90751660D01*
X141138998Y-90986977D01*
X141278070Y-91203101D01*
X141331600Y-91239676D01*
X141331600Y-94542892D01*
X141138559Y-94667110D01*
X140993569Y-94879310D01*
X140942560Y-95131200D01*
X139879840Y-95131200D01*
X139879840Y-95080400D01*
X139835562Y-94845083D01*
X139696490Y-94628959D01*
X139484290Y-94483969D01*
X139232400Y-94432960D01*
X137932400Y-94432960D01*
X137697083Y-94477238D01*
X137480959Y-94616310D01*
X137341510Y-94820400D01*
X136500937Y-94820400D01*
X136443190Y-94730659D01*
X136230990Y-94585669D01*
X135979100Y-94534660D01*
X134429100Y-94534660D01*
X134193783Y-94578938D01*
X133977659Y-94718010D01*
X133906537Y-94822100D01*
X128552031Y-94822100D01*
X128493190Y-94730659D01*
X128280990Y-94585669D01*
X128064100Y-94541748D01*
X128064100Y-90738061D01*
X128138038Y-90559999D01*
X128138362Y-90188033D01*
X127996317Y-89844257D01*
X127733527Y-89581008D01*
X127389999Y-89438362D01*
X127018033Y-89438038D01*
X126674257Y-89580083D01*
X126411008Y-89842873D01*
X126268362Y-90186401D01*
X126268038Y-90558367D01*
X126410083Y-90902143D01*
X126444100Y-90936219D01*
X126444100Y-94541246D01*
X126243783Y-94578938D01*
X126027659Y-94718010D01*
X125882669Y-94930210D01*
X125831660Y-95182100D01*
X121100600Y-95182100D01*
X121100600Y-93033453D01*
X121178438Y-92845999D01*
X121178762Y-92474033D01*
X121036717Y-92130257D01*
X120773927Y-91867008D01*
X120430399Y-91724362D01*
X120058433Y-91724038D01*
X119714657Y-91866083D01*
X119451408Y-92128873D01*
X119308762Y-92472401D01*
X119308438Y-92844367D01*
X119450483Y-93188143D01*
X119480600Y-93218313D01*
X119480600Y-97748450D01*
X119305283Y-97781438D01*
X119089159Y-97920510D01*
X118944169Y-98132710D01*
X118893160Y-98384600D01*
X118031000Y-98384600D01*
X118031000Y-92583000D01*
X118028899Y-92572439D01*
X118029162Y-92270833D01*
X117887117Y-91927057D01*
X117624327Y-91663808D01*
X117280799Y-91521162D01*
X116908833Y-91520838D01*
X116565057Y-91662883D01*
X116301808Y-91925673D01*
X116159162Y-92269201D01*
X116158838Y-92641167D01*
X106105680Y-92641167D01*
X105093756Y-91629244D01*
X104932000Y-91521162D01*
X104830974Y-91453658D01*
X104521000Y-91392000D01*
X96753441Y-91392000D01*
X96452799Y-91267162D01*
X96080833Y-91266838D01*
X95737057Y-91408883D01*
X95473808Y-91671673D01*
X95331162Y-92015201D01*
X95330838Y-92387167D01*
X95472883Y-92730943D01*
X95517816Y-92775954D01*
X95438511Y-92791729D01*
X94952330Y-93116585D01*
X94937500Y-93138780D01*
X94873927Y-92985302D01*
X94695299Y-92806673D01*
X94461910Y-92710000D01*
X93757750Y-92710000D01*
X93599000Y-92868750D01*
X93599000Y-94234000D01*
X93619000Y-94234000D01*
X93619000Y-94488000D01*
X93599000Y-94488000D01*
X93599000Y-95853250D01*
X93757750Y-96012000D01*
X94461910Y-96012000D01*
X94695299Y-95915327D01*
X94873927Y-95736698D01*
X94937500Y-95583220D01*
X94952330Y-95605415D01*
X95438511Y-95930271D01*
X96012000Y-96044345D01*
X96585489Y-95930271D01*
X97071670Y-95605415D01*
X97282000Y-95290634D01*
X97492330Y-95605415D01*
X97978511Y-95930271D01*
X98552000Y-96044345D01*
X99000600Y-95955113D01*
X99444487Y-96399000D01*
X90207356Y-96399000D01*
X89995178Y-96186822D01*
X89667510Y-95967882D01*
X89281000Y-95891000D01*
X88894490Y-95967882D01*
X88566822Y-96186822D01*
X88347882Y-96514490D01*
X88271000Y-96901000D01*
X83987400Y-96901000D01*
X83987400Y-96834950D01*
X83828650Y-96676200D01*
X82829400Y-96676200D01*
X82575400Y-96676200D01*
X81576150Y-96676200D01*
X81417400Y-96834950D01*
X80444080Y-96834950D01*
X80444080Y-95851980D01*
X80399802Y-95616663D01*
X80260730Y-95400539D01*
X80259733Y-95399857D01*
X80284656Y-95363380D01*
X81590195Y-95363380D01*
X81514073Y-95439502D01*
X81417400Y-95672891D01*
X81417400Y-96263450D01*
X81576150Y-96422200D01*
X82575400Y-96422200D01*
X82575400Y-96402200D01*
X82829400Y-96402200D01*
X82829400Y-96422200D01*
X83828650Y-96422200D01*
X83987400Y-96263450D01*
X83987400Y-95672891D01*
X83890727Y-95439502D01*
X83712099Y-95260873D01*
X83576113Y-95204546D01*
X83587717Y-95202362D01*
X83803841Y-95063290D01*
X83948831Y-94851090D01*
X83990210Y-94646750D01*
X91973400Y-94646750D01*
X91973400Y-95503309D01*
X92070073Y-95736698D01*
X92248701Y-95915327D01*
X92482090Y-96012000D01*
X93186250Y-96012000D01*
X93345000Y-95853250D01*
X93345000Y-94488000D01*
X92132150Y-94488000D01*
X91973400Y-94646750D01*
X83990210Y-94646750D01*
X83999840Y-94599200D01*
X83999840Y-93099200D01*
X83955562Y-92863883D01*
X83816490Y-92647759D01*
X83704281Y-92571090D01*
X84066870Y-92328815D01*
X84391726Y-91842634D01*
X84505800Y-91269145D01*
X84505800Y-90899655D01*
X84391726Y-90326166D01*
X84066870Y-89839985D01*
X83580689Y-89515129D01*
X83007200Y-89401055D01*
X82433711Y-89515129D01*
X81947530Y-89839985D01*
X81737200Y-90154766D01*
X81526870Y-89839985D01*
X81040689Y-89515129D01*
X80467200Y-89401055D01*
X79893711Y-89515129D01*
X79407530Y-89839985D01*
X79197200Y-90154766D01*
X78986870Y-89839985D01*
X78500689Y-89515129D01*
X77927200Y-89401055D01*
X77353711Y-89515129D01*
X76867530Y-89839985D01*
X76857957Y-89854313D01*
X76853962Y-89833083D01*
X76714890Y-89616959D01*
X76502690Y-89471969D01*
X76250800Y-89420960D01*
X74523600Y-89420960D01*
X74288283Y-89465238D01*
X74072159Y-89604310D01*
X73927169Y-89816510D01*
X73876160Y-90068400D01*
X72969400Y-90068400D01*
X72969562Y-89883233D01*
X72827517Y-89539457D01*
X72564727Y-89276208D01*
X72221199Y-89133562D01*
X71849233Y-89133238D01*
X71505457Y-89275283D01*
X71242208Y-89538073D01*
X71099562Y-89881601D01*
X71099238Y-90253567D01*
X71237000Y-90586977D01*
X71237000Y-94198346D01*
X71036683Y-94236038D01*
X70820559Y-94375110D01*
X70749437Y-94479200D01*
X65394931Y-94479200D01*
X65336090Y-94387759D01*
X65123890Y-94242769D01*
X64872000Y-94191760D01*
X63322000Y-94191760D01*
X63086683Y-94236038D01*
X62870559Y-94375110D01*
X62725569Y-94587310D01*
X62674560Y-94839200D01*
X57930800Y-94839200D01*
X57930800Y-94517022D01*
X58034038Y-94268399D01*
X58034362Y-93896433D01*
X57892317Y-93552657D01*
X57629527Y-93289408D01*
X57285999Y-93146762D01*
X56914033Y-93146438D01*
X56570257Y-93288483D01*
X56307008Y-93551273D01*
X56164362Y-93894801D01*
X56164038Y-94266767D01*
X56306083Y-94610543D01*
X56310800Y-94615268D01*
X56310800Y-97926250D01*
X56135483Y-97959238D01*
X55919359Y-98098310D01*
X55774369Y-98310510D01*
X55723360Y-98562400D01*
X47879000Y-98562400D01*
X47879000Y-85441300D01*
X51476116Y-85441300D01*
X51562513Y-85875646D01*
X51808550Y-86243866D01*
X52176770Y-86489903D01*
X52611116Y-86576300D01*
X53216364Y-86576300D01*
X53650710Y-86489903D01*
X54018930Y-86243866D01*
X54264967Y-85875646D01*
X54351364Y-85441300D01*
X54264967Y-85006954D01*
X54018930Y-84638734D01*
X53650710Y-84392697D01*
X53216364Y-84306300D01*
X52611116Y-84306300D01*
X52176770Y-84392697D01*
X51808550Y-84638734D01*
X51562513Y-85006954D01*
X51476116Y-85441300D01*
X47879000Y-85441300D01*
X47879000Y-84266615D01*
X54503740Y-84266615D01*
X54503740Y-84615985D01*
X54588234Y-85040764D01*
X54828851Y-85400874D01*
X55188961Y-85641491D01*
X55613740Y-85725985D01*
X56038519Y-85641491D01*
X56398629Y-85400874D01*
X56639246Y-85040764D01*
X56723740Y-84615985D01*
X56723740Y-84582000D01*
X88598000Y-84582000D01*
X88598000Y-92202000D01*
X88659658Y-92511974D01*
X88771802Y-92679808D01*
X88835244Y-92774756D01*
X89760571Y-93700083D01*
X89884883Y-94000943D01*
X90147673Y-94264192D01*
X90491201Y-94406838D01*
X90863167Y-94407162D01*
X91206943Y-94265117D01*
X91470192Y-94002327D01*
X91612838Y-93658799D01*
X91613162Y-93286833D01*
X91585007Y-93218691D01*
X91973400Y-93218691D01*
X91973400Y-94075250D01*
X92132150Y-94234000D01*
X93345000Y-94234000D01*
X93345000Y-92868750D01*
X93186250Y-92710000D01*
X92482090Y-92710000D01*
X92248701Y-92806673D01*
X92070073Y-92985302D01*
X91973400Y-93218691D01*
X91585007Y-93218691D01*
X91471117Y-92943057D01*
X91208327Y-92679808D01*
X90905629Y-92554116D01*
X90218000Y-91866488D01*
X90218000Y-84917512D01*
X91648513Y-83487000D01*
X99461559Y-83487000D01*
X99762201Y-83611838D01*
X100134167Y-83612162D01*
X100477943Y-83470117D01*
X100741192Y-83207327D01*
X100883838Y-82863799D01*
X100884162Y-82491833D01*
X100742117Y-82148057D01*
X100479327Y-81884808D01*
X100135799Y-81742162D01*
X99763833Y-81741838D01*
X99460917Y-81867000D01*
X91313000Y-81867000D01*
X91140897Y-81901234D01*
X91003027Y-81928657D01*
X90740244Y-82104243D01*
X88835244Y-84009244D01*
X88659658Y-84272026D01*
X88598000Y-84582000D01*
X56723740Y-84582000D01*
X56723740Y-84266615D01*
X56639246Y-83841836D01*
X56398629Y-83481726D01*
X56038519Y-83241109D01*
X55613740Y-83156615D01*
X55188961Y-83241109D01*
X54828851Y-83481726D01*
X54588234Y-83841836D01*
X54503740Y-84266615D01*
X47879000Y-84266615D01*
X47879000Y-81686400D01*
X71285360Y-81686400D01*
X71285360Y-83718400D01*
X71329638Y-83953717D01*
X71468710Y-84169841D01*
X71680910Y-84314831D01*
X71932800Y-84365840D01*
X73964800Y-84365840D01*
X74200117Y-84321562D01*
X74416241Y-84182490D01*
X74561231Y-83970290D01*
X74612240Y-83718400D01*
X74612240Y-81686400D01*
X74567962Y-81451083D01*
X74428890Y-81234959D01*
X74265852Y-81123560D01*
X74355185Y-81027218D01*
X74554775Y-80545344D01*
X74435636Y-80289400D01*
X73075800Y-80289400D01*
X73075800Y-80309400D01*
X72821800Y-80309400D01*
X72821800Y-80289400D01*
X71461964Y-80289400D01*
X71342825Y-80545344D01*
X71542415Y-81027218D01*
X71632897Y-81124798D01*
X71481359Y-81222310D01*
X71336369Y-81434510D01*
X71285360Y-81686400D01*
X47879000Y-81686400D01*
X47879000Y-78441300D01*
X51476116Y-78441300D01*
X51562513Y-78875646D01*
X51808550Y-79243866D01*
X52176770Y-79489903D01*
X52611116Y-79576300D01*
X53216364Y-79576300D01*
X53650710Y-79489903D01*
X53984883Y-79266615D01*
X54503740Y-79266615D01*
X54503740Y-79615985D01*
X54588234Y-80040764D01*
X54828851Y-80400874D01*
X55188961Y-80641491D01*
X55613740Y-80725985D01*
X56038519Y-80641491D01*
X56398629Y-80400874D01*
X56639246Y-80040764D01*
X56691223Y-79779456D01*
X71342825Y-79779456D01*
X71461964Y-80035400D01*
X72821800Y-80035400D01*
X72821800Y-78675033D01*
X73075800Y-78675033D01*
X73075800Y-80035400D01*
X74435636Y-80035400D01*
X74554775Y-79779456D01*
X74355185Y-79297582D01*
X73917179Y-78825212D01*
X73331746Y-78556417D01*
X73075800Y-78675033D01*
X72821800Y-78675033D01*
X72565854Y-78556417D01*
X71980421Y-78825212D01*
X71542415Y-79297582D01*
X71342825Y-79779456D01*
X56691223Y-79779456D01*
X56723740Y-79615985D01*
X56723740Y-79266615D01*
X56639246Y-78841836D01*
X56398629Y-78481726D01*
X56038519Y-78241109D01*
X55613740Y-78156615D01*
X55188961Y-78241109D01*
X54828851Y-78481726D01*
X54588234Y-78841836D01*
X54503740Y-79266615D01*
X53984883Y-79266615D01*
X54018930Y-79243866D01*
X54264967Y-78875646D01*
X54351364Y-78441300D01*
X54264967Y-78006954D01*
X54018930Y-77638734D01*
X53650710Y-77392697D01*
X53216364Y-77306300D01*
X52611116Y-77306300D01*
X52176770Y-77392697D01*
X51808550Y-77638734D01*
X51562513Y-78006954D01*
X51476116Y-78441300D01*
X47879000Y-78441300D01*
X47879000Y-74295000D01*
X147193000Y-74295000D01*
X147193000Y-131953000D01*
M02*
