G04 #@! TF.FileFunction,Copper,L2,Bot,Signal*
%FSLAX46Y46*%
G04 Gerber Fmt 4.6, Leading zero omitted, Abs format (unit mm)*
G04 Created by KiCad (PCBNEW 4.0.2+e4-6225~38~ubuntu15.10.1-stable) date Sun 11 Sep 2016 22:59:17 SAST*
%MOMM*%
G01*
G04 APERTURE LIST*
%ADD10C,0.100000*%
%ADD11R,1.500000X1.250000*%
%ADD12R,1.250000X1.500000*%
%ADD13R,1.727200X2.032000*%
%ADD14O,1.727200X2.032000*%
%ADD15R,1.350000X0.400000*%
%ADD16O,0.950000X1.250000*%
%ADD17O,1.550000X1.000000*%
%ADD18R,2.032000X2.032000*%
%ADD19O,2.032000X2.032000*%
%ADD20R,1.300000X1.500000*%
%ADD21R,1.500000X1.300000*%
%ADD22O,1.100000X2.400000*%
%ADD23R,2.400000X1.100000*%
%ADD24O,2.400000X1.100000*%
%ADD25R,2.501900X1.000760*%
%ADD26R,4.000500X1.998980*%
%ADD27R,0.450000X1.500000*%
%ADD28R,1.500000X0.450000*%
%ADD29R,1.550000X1.300000*%
%ADD30C,0.600000*%
%ADD31C,0.350000*%
%ADD32C,0.750000*%
%ADD33C,0.250000*%
%ADD34C,0.254000*%
G04 APERTURE END LIST*
D10*
D11*
X131287200Y-88798400D03*
X133787200Y-88798400D03*
D12*
X67945000Y-82784000D03*
X67945000Y-80284000D03*
D11*
X131236400Y-85496400D03*
X133736400Y-85496400D03*
D13*
X75387200Y-91084400D03*
D14*
X77927200Y-91084400D03*
X80467200Y-91084400D03*
X83007200Y-91084400D03*
D15*
X55613740Y-83241300D03*
X55613740Y-82591300D03*
X55613740Y-81941300D03*
X55613740Y-81291300D03*
X55613740Y-80641300D03*
D16*
X55613740Y-84441300D03*
X55613740Y-79441300D03*
D17*
X52913740Y-85441300D03*
X52913740Y-78441300D03*
D13*
X93472000Y-94361000D03*
D14*
X96012000Y-94361000D03*
X98552000Y-94361000D03*
X101092000Y-94361000D03*
D18*
X72948800Y-82702400D03*
D19*
X72948800Y-80162400D03*
D18*
X111048800Y-120904000D03*
D19*
X111048800Y-118364000D03*
D20*
X79248000Y-119655600D03*
X79248000Y-122355600D03*
D21*
X69041000Y-92329000D03*
X66341000Y-92329000D03*
D20*
X110185200Y-108842800D03*
X110185200Y-106142800D03*
D21*
X112856000Y-112572800D03*
X110156000Y-112572800D03*
D20*
X83515200Y-107369600D03*
X83515200Y-104669600D03*
X83870800Y-121288800D03*
X83870800Y-118588800D03*
D22*
X92296400Y-104849200D03*
X94296400Y-104849200D03*
X96296400Y-104849200D03*
X98296400Y-104849200D03*
X100296400Y-104849200D03*
X102296400Y-104849200D03*
D23*
X89306400Y-120599200D03*
D24*
X89306400Y-118599200D03*
X89306400Y-116599200D03*
X89306400Y-114599200D03*
X89306400Y-112599200D03*
X89306400Y-110599200D03*
X89306400Y-108599200D03*
X89306400Y-106599200D03*
X105306400Y-106599200D03*
X105306400Y-108599200D03*
X105306400Y-110599200D03*
X105306400Y-112599200D03*
X105306400Y-114599200D03*
X105306400Y-116599200D03*
X105306400Y-118599200D03*
X105306400Y-120599200D03*
D13*
X135128000Y-124968000D03*
D14*
X132588000Y-124968000D03*
X130048000Y-124968000D03*
D25*
X64074040Y-80413860D03*
X64074040Y-81915000D03*
X64074040Y-83416140D03*
D26*
X60121800Y-81915000D03*
D10*
G36*
X62845950Y-82415380D02*
X62096650Y-82915760D01*
X62096650Y-80914240D01*
X62845950Y-81414620D01*
X62845950Y-82415380D01*
X62845950Y-82415380D01*
G37*
D27*
X75398200Y-109724400D03*
X76048200Y-109724400D03*
X76698200Y-109724400D03*
X77348200Y-109724400D03*
X77998200Y-109724400D03*
X78648200Y-109724400D03*
X79298200Y-109724400D03*
X79948200Y-109724400D03*
X79948200Y-115624400D03*
X79298200Y-115624400D03*
X78648200Y-115624400D03*
X77998200Y-115624400D03*
X77348200Y-115624400D03*
X76698200Y-115624400D03*
X76048200Y-115624400D03*
X75398200Y-115624400D03*
D28*
X94382800Y-89397000D03*
X94382800Y-88747000D03*
X94382800Y-88097000D03*
X94382800Y-87447000D03*
X94382800Y-86797000D03*
X94382800Y-86147000D03*
X94382800Y-85497000D03*
X94382800Y-84847000D03*
X100282800Y-84847000D03*
X100282800Y-85497000D03*
X100282800Y-86147000D03*
X100282800Y-86797000D03*
X100282800Y-87447000D03*
X100282800Y-88097000D03*
X100282800Y-88747000D03*
X100282800Y-89397000D03*
D29*
X65367000Y-126710000D03*
X73317000Y-126710000D03*
X65367000Y-122210000D03*
X73317000Y-122210000D03*
X62395000Y-122210000D03*
X54445000Y-122210000D03*
X62395000Y-126710000D03*
X54445000Y-126710000D03*
D30*
X74549000Y-115443000D03*
X61214000Y-96520000D03*
X96393000Y-119126000D03*
X86741000Y-127635000D03*
X86360000Y-121285000D03*
X89281000Y-96901000D03*
X104775000Y-97409000D03*
X98171000Y-97409000D03*
X67868800Y-106578400D03*
X142392400Y-84683600D03*
X131165600Y-106934000D03*
X66802000Y-119761000D03*
X75946000Y-119253000D03*
X69088000Y-119634000D03*
X71374000Y-119380000D03*
X73787000Y-119253000D03*
X99949000Y-82677000D03*
X90678000Y-93472000D03*
X56515000Y-124968000D03*
X66294000Y-89154000D03*
X81991200Y-109728000D03*
X91338400Y-84836000D03*
X110286800Y-102057200D03*
X137820400Y-88798400D03*
X96901000Y-100076000D03*
X127203200Y-90373200D03*
X120243600Y-92659200D03*
X117094000Y-92456000D03*
X140055600Y-100584000D03*
X86309200Y-105308400D03*
X85242400Y-102463600D03*
X72034400Y-90068400D03*
X57099200Y-94081600D03*
X96266000Y-92202000D03*
X113919000Y-101600000D03*
X108077000Y-110490000D03*
D31*
X75398200Y-115624400D02*
X74730400Y-115624400D01*
X74730400Y-115624400D02*
X74549000Y-115443000D01*
X75398200Y-115624400D02*
X75398200Y-114593800D01*
X87837800Y-106599200D02*
X89306400Y-106599200D01*
X83312000Y-111125000D02*
X87837800Y-106599200D01*
X78867000Y-111125000D02*
X83312000Y-111125000D01*
X75398200Y-114593800D02*
X78867000Y-111125000D01*
D32*
X89306400Y-116599200D02*
X93866200Y-116599200D01*
X93866200Y-116599200D02*
X96393000Y-119126000D01*
X83870800Y-121288800D02*
X86356200Y-121288800D01*
X86356200Y-121288800D02*
X86360000Y-121285000D01*
X89306400Y-106599200D02*
X89306400Y-96926400D01*
X89306400Y-96926400D02*
X89281000Y-96901000D01*
X96012000Y-93624400D02*
X96012000Y-95250000D01*
X96012000Y-95250000D02*
X98171000Y-97409000D01*
D31*
X66813000Y-104092800D02*
X66813000Y-105522600D01*
X66813000Y-105522600D02*
X67868800Y-106578400D01*
X100282800Y-88747000D02*
X100282800Y-89397000D01*
D32*
X142392400Y-84683600D02*
X142392400Y-84734400D01*
X131287200Y-88798400D02*
X131287200Y-85547200D01*
X131287200Y-85547200D02*
X131236400Y-85496400D01*
D31*
X75398200Y-109724400D02*
X75398200Y-110148800D01*
X75398200Y-110148800D02*
X66802000Y-118745000D01*
X66802000Y-118745000D02*
X66802000Y-119761000D01*
X76048200Y-115624400D02*
X76048200Y-119150800D01*
X76048200Y-119150800D02*
X75946000Y-119253000D01*
X76048200Y-109724400D02*
X76048200Y-110895800D01*
X69088000Y-117856000D02*
X69088000Y-119634000D01*
X76048200Y-110895800D02*
X69088000Y-117856000D01*
X77998200Y-115624400D02*
X77998200Y-114330600D01*
X87470000Y-110599200D02*
X89306400Y-110599200D01*
X84836000Y-113233200D02*
X87470000Y-110599200D01*
X79095600Y-113233200D02*
X84836000Y-113233200D01*
X77998200Y-114330600D02*
X79095600Y-113233200D01*
X76698200Y-109724400D02*
X76698200Y-111261800D01*
X71374000Y-116586000D02*
X71374000Y-119380000D01*
X76698200Y-111261800D02*
X71374000Y-116586000D01*
X77348200Y-109724400D02*
X77348200Y-111500800D01*
X73787000Y-115062000D02*
X73787000Y-119253000D01*
X77348200Y-111500800D02*
X73787000Y-115062000D01*
X78648200Y-115624400D02*
X78648200Y-114544200D01*
X86943200Y-112599200D02*
X89306400Y-112599200D01*
X85598000Y-113944400D02*
X86943200Y-112599200D01*
X79248000Y-113944400D02*
X85598000Y-113944400D01*
X78648200Y-114544200D02*
X79248000Y-113944400D01*
X77998200Y-109724400D02*
X77998200Y-91155400D01*
X77998200Y-91155400D02*
X77927200Y-91084400D01*
X89306400Y-114599200D02*
X90251800Y-114599200D01*
X90251800Y-114599200D02*
X91440000Y-113411000D01*
X100282800Y-83010800D02*
X100282800Y-84847000D01*
X99949000Y-82677000D02*
X100282800Y-83010800D01*
X90678000Y-105410000D02*
X90678000Y-93472000D01*
X91440000Y-106172000D02*
X90678000Y-105410000D01*
X91440000Y-113411000D02*
X91440000Y-106172000D01*
X89306400Y-114599200D02*
X90505800Y-114599200D01*
X78648200Y-109724400D02*
X78648200Y-103571400D01*
X80467200Y-101752400D02*
X80467200Y-91084400D01*
X78648200Y-103571400D02*
X80467200Y-101752400D01*
X79298200Y-109724400D02*
X79298200Y-104801000D01*
X83007200Y-101092000D02*
X83007200Y-91084400D01*
X79298200Y-104801000D02*
X83007200Y-101092000D01*
D32*
X67945000Y-80284000D02*
X72827200Y-80284000D01*
X72827200Y-80284000D02*
X72948800Y-80162400D01*
X64074040Y-80413860D02*
X67815140Y-80413860D01*
X67815140Y-80413860D02*
X67945000Y-80284000D01*
D31*
X55613740Y-80641300D02*
X57534700Y-80641300D01*
X63416180Y-79756000D02*
X64074040Y-80413860D01*
X58420000Y-79756000D02*
X63416180Y-79756000D01*
X57534700Y-80641300D02*
X58420000Y-79756000D01*
X56515000Y-122210000D02*
X56515000Y-124968000D01*
X62395000Y-122210000D02*
X65367000Y-122210000D01*
X65367000Y-122210000D02*
X73317000Y-122210000D01*
X54445000Y-122210000D02*
X56515000Y-122210000D01*
X56515000Y-122210000D02*
X62395000Y-122210000D01*
D32*
X66341000Y-92329000D02*
X66341000Y-89201000D01*
X66341000Y-89201000D02*
X66294000Y-89154000D01*
D31*
X83515200Y-107369600D02*
X83515200Y-108204000D01*
X81987600Y-109724400D02*
X81991200Y-109728000D01*
X81987600Y-109724400D02*
X79948200Y-109724400D01*
X83515200Y-108204000D02*
X81991200Y-109728000D01*
X94382800Y-84847000D02*
X91349400Y-84847000D01*
X91349400Y-84847000D02*
X91338400Y-84836000D01*
D32*
X110185200Y-106142800D02*
X110185200Y-102158800D01*
X110185200Y-102158800D02*
X110286800Y-102057200D01*
X105306400Y-106599200D02*
X109728800Y-106599200D01*
X109728800Y-106599200D02*
X110185200Y-106142800D01*
X133787200Y-88798400D02*
X137820400Y-88798400D01*
X133787200Y-88798400D02*
X133787200Y-85547200D01*
X133787200Y-85547200D02*
X133736400Y-85496400D01*
D33*
X98296400Y-104849200D02*
X98296400Y-101471400D01*
X98296400Y-101471400D02*
X96901000Y-100076000D01*
D32*
X98247200Y-104800000D02*
X98296400Y-104849200D01*
D31*
X62395000Y-126710000D02*
X62395000Y-125184000D01*
X85699600Y-124206000D02*
X89306400Y-120599200D01*
X63373000Y-124206000D02*
X85699600Y-124206000D01*
X62395000Y-125184000D02*
X63373000Y-124206000D01*
X54445000Y-126710000D02*
X62395000Y-126710000D01*
X76698200Y-115624400D02*
X76698200Y-114614600D01*
X87946000Y-108599200D02*
X89306400Y-108599200D01*
X84226400Y-112318800D02*
X87946000Y-108599200D01*
X78994000Y-112318800D02*
X84226400Y-112318800D01*
X76698200Y-114614600D02*
X78994000Y-112318800D01*
D32*
X69041000Y-92329000D02*
X74142600Y-92329000D01*
X74142600Y-92329000D02*
X75387200Y-91084400D01*
D31*
X79298200Y-115624400D02*
X79298200Y-119605400D01*
X79298200Y-119605400D02*
X79248000Y-119655600D01*
D32*
X67945000Y-82784000D02*
X72867200Y-82784000D01*
X72867200Y-82784000D02*
X72948800Y-82702400D01*
X64074040Y-81915000D02*
X67076000Y-81915000D01*
X67076000Y-81915000D02*
X67945000Y-82784000D01*
X62471300Y-81915000D02*
X64074040Y-81915000D01*
X60121800Y-81915000D02*
X62471300Y-81915000D01*
D31*
X55613740Y-83241300D02*
X58795500Y-83241300D01*
X58795500Y-83241300D02*
X60121800Y-81915000D01*
D32*
X52913740Y-78441300D02*
X54613740Y-78441300D01*
X54613740Y-78441300D02*
X55613740Y-79441300D01*
X52913740Y-85441300D02*
X52913740Y-78441300D01*
X52913740Y-85441300D02*
X54613740Y-85441300D01*
X54613740Y-85441300D02*
X55613740Y-84441300D01*
D31*
X100282800Y-86147000D02*
X122977000Y-86147000D01*
X122977000Y-86147000D02*
X127203200Y-90373200D01*
X100282800Y-86797000D02*
X114381400Y-86797000D01*
X114381400Y-86797000D02*
X120243600Y-92659200D01*
X100282800Y-87447000D02*
X112085000Y-87447000D01*
X112085000Y-87447000D02*
X117094000Y-92456000D01*
X100282800Y-88097000D02*
X109991800Y-88097000D01*
X118160800Y-100584000D02*
X140055600Y-100584000D01*
X117805200Y-100228400D02*
X118160800Y-100584000D01*
X117805200Y-95910400D02*
X117805200Y-100228400D01*
X109991800Y-88097000D02*
X117805200Y-95910400D01*
X90719000Y-88097000D02*
X94382800Y-88097000D01*
X86309200Y-92506800D02*
X90719000Y-88097000D01*
X86309200Y-105308400D02*
X86309200Y-92506800D01*
X85242400Y-102463600D02*
X85242400Y-102942400D01*
X85242400Y-102942400D02*
X83515200Y-104669600D01*
X94382800Y-87447000D02*
X89438600Y-87447000D01*
X85242400Y-91643200D02*
X85242400Y-102463600D01*
X89438600Y-87447000D02*
X85242400Y-91643200D01*
X94382800Y-86797000D02*
X75305800Y-86797000D01*
X75305800Y-86797000D02*
X72034400Y-90068400D01*
X94382800Y-86147000D02*
X65033800Y-86147000D01*
X65033800Y-86147000D02*
X57099200Y-94081600D01*
X101092000Y-94361000D02*
X101092000Y-100076000D01*
X103010200Y-116599200D02*
X105306400Y-116599200D01*
X101854000Y-115443000D02*
X103010200Y-116599200D01*
X101854000Y-107569000D02*
X101854000Y-115443000D01*
X104013000Y-105410000D02*
X101854000Y-107569000D01*
X104013000Y-102997000D02*
X104013000Y-105410000D01*
X101092000Y-100076000D02*
X104013000Y-102997000D01*
D33*
X101219000Y-93751400D02*
X101092000Y-93624400D01*
D31*
X110156000Y-112572800D02*
X110185200Y-112572800D01*
X110185200Y-112572800D02*
X113919000Y-108839000D01*
X94382800Y-90318800D02*
X94382800Y-89397000D01*
X96266000Y-92202000D02*
X94382800Y-90318800D01*
X113919000Y-108839000D02*
X113919000Y-101600000D01*
X73317000Y-126710000D02*
X84618000Y-126710000D01*
X103251000Y-113792000D02*
X104443800Y-112599200D01*
X103251000Y-115189000D02*
X103251000Y-113792000D01*
X103632000Y-115570000D02*
X103251000Y-115189000D01*
X106553000Y-115570000D02*
X103632000Y-115570000D01*
X107442000Y-116459000D02*
X106553000Y-115570000D01*
X107442000Y-117221000D02*
X107442000Y-116459000D01*
X107061000Y-117602000D02*
X107442000Y-117221000D01*
X100711000Y-117602000D02*
X107061000Y-117602000D01*
X96266000Y-122047000D02*
X100711000Y-117602000D01*
X89281000Y-122047000D02*
X96266000Y-122047000D01*
X84618000Y-126710000D02*
X89281000Y-122047000D01*
X104443800Y-112599200D02*
X105306400Y-112599200D01*
X65367000Y-126710000D02*
X73317000Y-126710000D01*
D32*
X105306400Y-112599200D02*
X110129600Y-112599200D01*
X110129600Y-112599200D02*
X110156000Y-112572800D01*
X105306400Y-120599200D02*
X110744000Y-120599200D01*
X110744000Y-120599200D02*
X111048800Y-120904000D01*
X105306400Y-118599200D02*
X110813600Y-118599200D01*
X110813600Y-118599200D02*
X111048800Y-118364000D01*
D31*
X94382800Y-88747000D02*
X95859000Y-88747000D01*
X112268000Y-106760000D02*
X110185200Y-108842800D01*
X112268000Y-98298000D02*
X112268000Y-106760000D01*
X105283000Y-91313000D02*
X112268000Y-98298000D01*
X98425000Y-91313000D02*
X105283000Y-91313000D01*
X95859000Y-88747000D02*
X98425000Y-91313000D01*
D32*
X105306400Y-108599200D02*
X109941600Y-108599200D01*
X109941600Y-108599200D02*
X110185200Y-108842800D01*
X83870800Y-118588800D02*
X89296000Y-118588800D01*
X89296000Y-118588800D02*
X89306400Y-118599200D01*
X105306400Y-114599200D02*
X111094000Y-114599200D01*
X128422400Y-124968000D02*
X130048000Y-124968000D01*
X126695200Y-123240800D02*
X128422400Y-124968000D01*
X119735600Y-123240800D02*
X126695200Y-123240800D01*
X111094000Y-114599200D02*
X119735600Y-123240800D01*
D31*
X105306400Y-110599200D02*
X107967800Y-110599200D01*
X107967800Y-110599200D02*
X108077000Y-110490000D01*
D34*
G36*
X147193000Y-131953000D02*
X47879000Y-131953000D01*
X47879000Y-121560000D01*
X53022560Y-121560000D01*
X53022560Y-122860000D01*
X53066838Y-123095317D01*
X53205910Y-123311441D01*
X53418110Y-123456431D01*
X53670000Y-123507440D01*
X55220000Y-123507440D01*
X55455317Y-123463162D01*
X55671441Y-123324090D01*
X55705000Y-123274975D01*
X55705000Y-124480559D01*
X55580162Y-124781201D01*
X55579838Y-125153167D01*
X55721883Y-125496943D01*
X55984673Y-125760192D01*
X56321366Y-125900000D01*
X55837334Y-125900000D01*
X55823162Y-125824683D01*
X55684090Y-125608559D01*
X55471890Y-125463569D01*
X55220000Y-125412560D01*
X53670000Y-125412560D01*
X53434683Y-125456838D01*
X53218559Y-125595910D01*
X53073569Y-125808110D01*
X53022560Y-126060000D01*
X53022560Y-127360000D01*
X53066838Y-127595317D01*
X53205910Y-127811441D01*
X53418110Y-127956431D01*
X53670000Y-128007440D01*
X55220000Y-128007440D01*
X55455317Y-127963162D01*
X55671441Y-127824090D01*
X55816431Y-127611890D01*
X55835039Y-127520000D01*
X61002666Y-127520000D01*
X61016838Y-127595317D01*
X61155910Y-127811441D01*
X61368110Y-127956431D01*
X61620000Y-128007440D01*
X63170000Y-128007440D01*
X63405317Y-127963162D01*
X63621441Y-127824090D01*
X63766431Y-127611890D01*
X63817440Y-127360000D01*
X63817440Y-126060000D01*
X63773162Y-125824683D01*
X63634090Y-125608559D01*
X63421890Y-125463569D01*
X63288047Y-125436465D01*
X63708513Y-125016000D01*
X85166488Y-125016000D01*
X84282488Y-125900000D01*
X74709334Y-125900000D01*
X74695162Y-125824683D01*
X74556090Y-125608559D01*
X74343890Y-125463569D01*
X74092000Y-125412560D01*
X72542000Y-125412560D01*
X72306683Y-125456838D01*
X72090559Y-125595910D01*
X71945569Y-125808110D01*
X71926961Y-125900000D01*
X66759334Y-125900000D01*
X66745162Y-125824683D01*
X66606090Y-125608559D01*
X66393890Y-125463569D01*
X66142000Y-125412560D01*
X64592000Y-125412560D01*
X64356683Y-125456838D01*
X64140559Y-125595910D01*
X63995569Y-125808110D01*
X63944560Y-126060000D01*
X63944560Y-127360000D01*
X63988838Y-127595317D01*
X64127910Y-127811441D01*
X64340110Y-127956431D01*
X64592000Y-128007440D01*
X66142000Y-128007440D01*
X66377317Y-127963162D01*
X66593441Y-127824090D01*
X66738431Y-127611890D01*
X66757039Y-127520000D01*
X71924666Y-127520000D01*
X71938838Y-127595317D01*
X72077910Y-127811441D01*
X72290110Y-127956431D01*
X72542000Y-128007440D01*
X74092000Y-128007440D01*
X74327317Y-127963162D01*
X74543441Y-127824090D01*
X74688431Y-127611890D01*
X74707039Y-127520000D01*
X84618000Y-127520000D01*
X84927974Y-127458342D01*
X85190756Y-127282756D01*
X89616513Y-122857000D01*
X96266000Y-122857000D01*
X96575974Y-122795342D01*
X96838756Y-122619756D01*
X101046513Y-118412000D01*
X103472686Y-118412000D01*
X103435450Y-118599200D01*
X103525653Y-119052680D01*
X103782528Y-119437122D01*
X104025096Y-119599200D01*
X103782528Y-119761278D01*
X103525653Y-120145720D01*
X103435450Y-120599200D01*
X103525653Y-121052680D01*
X103782528Y-121437122D01*
X104166970Y-121693997D01*
X104620450Y-121784200D01*
X105992350Y-121784200D01*
X106445830Y-121693997D01*
X106572738Y-121609200D01*
X109385360Y-121609200D01*
X109385360Y-121920000D01*
X109429638Y-122155317D01*
X109568710Y-122371441D01*
X109780910Y-122516431D01*
X110032800Y-122567440D01*
X112064800Y-122567440D01*
X112300117Y-122523162D01*
X112516241Y-122384090D01*
X112661231Y-122171890D01*
X112712240Y-121920000D01*
X112712240Y-119888000D01*
X112667962Y-119652683D01*
X112528890Y-119436559D01*
X112379963Y-119334802D01*
X112606470Y-118995810D01*
X112732145Y-118364000D01*
X112606470Y-117732190D01*
X112248578Y-117196567D01*
X111712955Y-116838675D01*
X111081145Y-116713000D01*
X111016455Y-116713000D01*
X110384645Y-116838675D01*
X109849022Y-117196567D01*
X109586673Y-117589200D01*
X108151436Y-117589200D01*
X108190342Y-117530974D01*
X108252000Y-117221000D01*
X108252000Y-116459000D01*
X108199916Y-116197156D01*
X108190343Y-116149027D01*
X108014757Y-115886244D01*
X107737713Y-115609200D01*
X110675644Y-115609200D01*
X119021422Y-123954978D01*
X119349090Y-124173918D01*
X119735600Y-124250800D01*
X126276844Y-124250800D01*
X127708222Y-125682178D01*
X128035890Y-125901118D01*
X128422400Y-125978000D01*
X128831699Y-125978000D01*
X128988330Y-126212415D01*
X129474511Y-126537271D01*
X130048000Y-126651345D01*
X130621489Y-126537271D01*
X131107670Y-126212415D01*
X131318000Y-125897634D01*
X131528330Y-126212415D01*
X132014511Y-126537271D01*
X132588000Y-126651345D01*
X133161489Y-126537271D01*
X133647670Y-126212415D01*
X133662500Y-126190220D01*
X133726073Y-126343698D01*
X133904701Y-126522327D01*
X134138090Y-126619000D01*
X134842250Y-126619000D01*
X135001000Y-126460250D01*
X135001000Y-125095000D01*
X135255000Y-125095000D01*
X135255000Y-126460250D01*
X135413750Y-126619000D01*
X136117910Y-126619000D01*
X136351299Y-126522327D01*
X136529927Y-126343698D01*
X136626600Y-126110309D01*
X136626600Y-125253750D01*
X136467850Y-125095000D01*
X135255000Y-125095000D01*
X135001000Y-125095000D01*
X134981000Y-125095000D01*
X134981000Y-124841000D01*
X135001000Y-124841000D01*
X135001000Y-123475750D01*
X135255000Y-123475750D01*
X135255000Y-124841000D01*
X136467850Y-124841000D01*
X136626600Y-124682250D01*
X136626600Y-123825691D01*
X136529927Y-123592302D01*
X136351299Y-123413673D01*
X136117910Y-123317000D01*
X135413750Y-123317000D01*
X135255000Y-123475750D01*
X135001000Y-123475750D01*
X134842250Y-123317000D01*
X134138090Y-123317000D01*
X133904701Y-123413673D01*
X133726073Y-123592302D01*
X133662500Y-123745780D01*
X133647670Y-123723585D01*
X133161489Y-123398729D01*
X132588000Y-123284655D01*
X132014511Y-123398729D01*
X131528330Y-123723585D01*
X131318000Y-124038366D01*
X131107670Y-123723585D01*
X130621489Y-123398729D01*
X130048000Y-123284655D01*
X129474511Y-123398729D01*
X128988330Y-123723585D01*
X128835327Y-123952571D01*
X127409378Y-122526622D01*
X127081710Y-122307682D01*
X126695200Y-122230800D01*
X120153956Y-122230800D01*
X111808178Y-113885022D01*
X111480510Y-113666082D01*
X111384683Y-113647021D01*
X111502431Y-113474690D01*
X111509191Y-113441310D01*
X111567673Y-113582499D01*
X111746302Y-113761127D01*
X111979691Y-113857800D01*
X112570250Y-113857800D01*
X112729000Y-113699050D01*
X112729000Y-112699800D01*
X112983000Y-112699800D01*
X112983000Y-113699050D01*
X113141750Y-113857800D01*
X113732309Y-113857800D01*
X113965698Y-113761127D01*
X114144327Y-113582499D01*
X114241000Y-113349110D01*
X114241000Y-112858550D01*
X114082250Y-112699800D01*
X112983000Y-112699800D01*
X112729000Y-112699800D01*
X112709000Y-112699800D01*
X112709000Y-112445800D01*
X112729000Y-112445800D01*
X112729000Y-111446550D01*
X112983000Y-111446550D01*
X112983000Y-112445800D01*
X114082250Y-112445800D01*
X114241000Y-112287050D01*
X114241000Y-111796490D01*
X114144327Y-111563101D01*
X113965698Y-111384473D01*
X113732309Y-111287800D01*
X113141750Y-111287800D01*
X112983000Y-111446550D01*
X112729000Y-111446550D01*
X112592981Y-111310531D01*
X114491757Y-109411756D01*
X114667343Y-109148973D01*
X114729000Y-108839000D01*
X114729000Y-102087441D01*
X114853838Y-101786799D01*
X114854162Y-101414833D01*
X114712117Y-101071057D01*
X114449327Y-100807808D01*
X114105799Y-100665162D01*
X113733833Y-100664838D01*
X113390057Y-100806883D01*
X113126808Y-101069673D01*
X113078000Y-101187215D01*
X113078000Y-98298000D01*
X113043766Y-98125897D01*
X113016343Y-97988027D01*
X112840757Y-97725244D01*
X105855756Y-90740244D01*
X105792369Y-90697890D01*
X105592974Y-90564658D01*
X105283000Y-90503000D01*
X98760512Y-90503000D01*
X96431756Y-88174244D01*
X96355724Y-88123441D01*
X96168974Y-87998658D01*
X95859000Y-87937000D01*
X95780240Y-87937000D01*
X95780240Y-87872000D01*
X95760733Y-87768329D01*
X95780240Y-87672000D01*
X95780240Y-87222000D01*
X95760733Y-87118329D01*
X95780240Y-87022000D01*
X95780240Y-86572000D01*
X95760733Y-86468329D01*
X95780240Y-86372000D01*
X95780240Y-85922000D01*
X95760733Y-85818329D01*
X95780240Y-85722000D01*
X95780240Y-85272000D01*
X95760733Y-85168329D01*
X95780240Y-85072000D01*
X95780240Y-84622000D01*
X98885360Y-84622000D01*
X98885360Y-85072000D01*
X98904867Y-85175671D01*
X98885360Y-85272000D01*
X98885360Y-85722000D01*
X98904867Y-85825671D01*
X98885360Y-85922000D01*
X98885360Y-86372000D01*
X98904867Y-86475671D01*
X98885360Y-86572000D01*
X98885360Y-87022000D01*
X98904867Y-87125671D01*
X98885360Y-87222000D01*
X98885360Y-87672000D01*
X98904867Y-87775671D01*
X98885360Y-87872000D01*
X98885360Y-88322000D01*
X98898780Y-88393323D01*
X98897800Y-88395690D01*
X98897800Y-88475750D01*
X98918112Y-88496062D01*
X98929638Y-88557317D01*
X99054859Y-88751916D01*
X98994473Y-88812301D01*
X98917203Y-88998847D01*
X98897800Y-89018250D01*
X98897800Y-89125750D01*
X98917203Y-89145153D01*
X98994473Y-89331699D01*
X99172275Y-89509500D01*
X99056550Y-89509500D01*
X98897800Y-89668250D01*
X98897800Y-89748310D01*
X98994473Y-89981699D01*
X99173102Y-90160327D01*
X99406491Y-90257000D01*
X99997050Y-90257000D01*
X100155800Y-90098250D01*
X100155800Y-89509500D01*
X100094550Y-89509500D01*
X100155800Y-89448250D01*
X100155800Y-89250000D01*
X100409800Y-89250000D01*
X100409800Y-89448250D01*
X100471050Y-89509500D01*
X100409800Y-89509500D01*
X100409800Y-90098250D01*
X100568550Y-90257000D01*
X101159109Y-90257000D01*
X101392498Y-90160327D01*
X101571127Y-89981699D01*
X101667800Y-89748310D01*
X101667800Y-89668250D01*
X101509050Y-89509500D01*
X101393325Y-89509500D01*
X101571127Y-89331699D01*
X101648397Y-89145153D01*
X101667800Y-89125750D01*
X101667800Y-89018250D01*
X101648397Y-88998847D01*
X101610353Y-88907000D01*
X109656288Y-88907000D01*
X116995200Y-96245913D01*
X116995200Y-100228400D01*
X117056858Y-100538374D01*
X117172471Y-100711400D01*
X117232444Y-100801156D01*
X117588043Y-101156756D01*
X117719435Y-101244549D01*
X117850826Y-101332342D01*
X118160800Y-101394000D01*
X139568159Y-101394000D01*
X139868801Y-101518838D01*
X140240767Y-101519162D01*
X140584543Y-101377117D01*
X140847792Y-101114327D01*
X140990438Y-100770799D01*
X140990762Y-100398833D01*
X140848717Y-100055057D01*
X140585927Y-99791808D01*
X140242399Y-99649162D01*
X139870433Y-99648838D01*
X139567517Y-99774000D01*
X118615200Y-99774000D01*
X118615200Y-95910400D01*
X118553542Y-95600426D01*
X118404253Y-95377000D01*
X118377956Y-95337643D01*
X111297312Y-88257000D01*
X111749488Y-88257000D01*
X116176571Y-92684084D01*
X116300883Y-92984943D01*
X116563673Y-93248192D01*
X116907201Y-93390838D01*
X117279167Y-93391162D01*
X117622943Y-93249117D01*
X117886192Y-92986327D01*
X118028838Y-92642799D01*
X118029162Y-92270833D01*
X117887117Y-91927057D01*
X117624327Y-91663808D01*
X117321629Y-91538116D01*
X113390512Y-87607000D01*
X114045888Y-87607000D01*
X119326171Y-92887284D01*
X119450483Y-93188143D01*
X119713273Y-93451392D01*
X120056801Y-93594038D01*
X120428767Y-93594362D01*
X120772543Y-93452317D01*
X121035792Y-93189527D01*
X121178438Y-92845999D01*
X121178762Y-92474033D01*
X121036717Y-92130257D01*
X120773927Y-91867008D01*
X120471229Y-91741316D01*
X115686912Y-86957000D01*
X122641488Y-86957000D01*
X126285771Y-90601284D01*
X126410083Y-90902143D01*
X126672873Y-91165392D01*
X127016401Y-91308038D01*
X127388367Y-91308362D01*
X127732143Y-91166317D01*
X127995392Y-90903527D01*
X128138038Y-90559999D01*
X128138362Y-90188033D01*
X127996317Y-89844257D01*
X127733527Y-89581008D01*
X127430829Y-89455316D01*
X127059663Y-89084150D01*
X129902200Y-89084150D01*
X129902200Y-89549710D01*
X129998873Y-89783099D01*
X130177502Y-89961727D01*
X130410891Y-90058400D01*
X131001450Y-90058400D01*
X131160200Y-89899650D01*
X131160200Y-88925400D01*
X130060950Y-88925400D01*
X129902200Y-89084150D01*
X127059663Y-89084150D01*
X126022603Y-88047090D01*
X129902200Y-88047090D01*
X129902200Y-88512650D01*
X130060950Y-88671400D01*
X131160200Y-88671400D01*
X131160200Y-87697150D01*
X131001450Y-87538400D01*
X130410891Y-87538400D01*
X130177502Y-87635073D01*
X129998873Y-87813701D01*
X129902200Y-88047090D01*
X126022603Y-88047090D01*
X123757663Y-85782150D01*
X129851400Y-85782150D01*
X129851400Y-86247710D01*
X129948073Y-86481099D01*
X130126702Y-86659727D01*
X130360091Y-86756400D01*
X130950650Y-86756400D01*
X131109400Y-86597650D01*
X131109400Y-85623400D01*
X130010150Y-85623400D01*
X129851400Y-85782150D01*
X123757663Y-85782150D01*
X123549756Y-85574244D01*
X123473724Y-85523441D01*
X123286974Y-85398658D01*
X122977000Y-85337000D01*
X101680240Y-85337000D01*
X101680240Y-85272000D01*
X101660733Y-85168329D01*
X101680240Y-85072000D01*
X101680240Y-84745090D01*
X129851400Y-84745090D01*
X129851400Y-85210650D01*
X130010150Y-85369400D01*
X131109400Y-85369400D01*
X131109400Y-84395150D01*
X131363400Y-84395150D01*
X131363400Y-85369400D01*
X131383400Y-85369400D01*
X131383400Y-85623400D01*
X131363400Y-85623400D01*
X131363400Y-86597650D01*
X131522150Y-86756400D01*
X132112709Y-86756400D01*
X132346098Y-86659727D01*
X132487336Y-86518490D01*
X132522310Y-86572841D01*
X132734510Y-86717831D01*
X132777200Y-86726476D01*
X132777200Y-87586121D01*
X132585759Y-87709310D01*
X132539231Y-87777406D01*
X132396898Y-87635073D01*
X132163509Y-87538400D01*
X131572950Y-87538400D01*
X131414200Y-87697150D01*
X131414200Y-88671400D01*
X131434200Y-88671400D01*
X131434200Y-88925400D01*
X131414200Y-88925400D01*
X131414200Y-89899650D01*
X131572950Y-90058400D01*
X132163509Y-90058400D01*
X132396898Y-89961727D01*
X132538136Y-89820490D01*
X132573110Y-89874841D01*
X132785310Y-90019831D01*
X133037200Y-90070840D01*
X134537200Y-90070840D01*
X134772517Y-90026562D01*
X134988641Y-89887490D01*
X135042681Y-89808400D01*
X137820400Y-89808400D01*
X138206910Y-89731518D01*
X138534578Y-89512578D01*
X138753518Y-89184910D01*
X138830400Y-88798400D01*
X138753518Y-88411890D01*
X138534578Y-88084222D01*
X138206910Y-87865282D01*
X137820400Y-87788400D01*
X135044044Y-87788400D01*
X135001290Y-87721959D01*
X134797200Y-87582510D01*
X134797200Y-86675990D01*
X134937841Y-86585490D01*
X135082831Y-86373290D01*
X135133840Y-86121400D01*
X135133840Y-84871400D01*
X135089562Y-84636083D01*
X134950490Y-84419959D01*
X134738290Y-84274969D01*
X134486400Y-84223960D01*
X132986400Y-84223960D01*
X132751083Y-84268238D01*
X132534959Y-84407310D01*
X132488431Y-84475406D01*
X132346098Y-84333073D01*
X132112709Y-84236400D01*
X131522150Y-84236400D01*
X131363400Y-84395150D01*
X131109400Y-84395150D01*
X130950650Y-84236400D01*
X130360091Y-84236400D01*
X130126702Y-84333073D01*
X129948073Y-84511701D01*
X129851400Y-84745090D01*
X101680240Y-84745090D01*
X101680240Y-84622000D01*
X101635962Y-84386683D01*
X101496890Y-84170559D01*
X101284690Y-84025569D01*
X101092800Y-83986710D01*
X101092800Y-83010800D01*
X101031142Y-82700826D01*
X100891497Y-82491833D01*
X100872276Y-82463066D01*
X100742117Y-82148057D01*
X100479327Y-81884808D01*
X100135799Y-81742162D01*
X99763833Y-81741838D01*
X99420057Y-81883883D01*
X99156808Y-82146673D01*
X99014162Y-82490201D01*
X99013838Y-82862167D01*
X99155883Y-83205943D01*
X99418673Y-83469192D01*
X99472800Y-83491668D01*
X99472800Y-83985850D01*
X99297483Y-84018838D01*
X99081359Y-84157910D01*
X98936369Y-84370110D01*
X98885360Y-84622000D01*
X95780240Y-84622000D01*
X95735962Y-84386683D01*
X95596890Y-84170559D01*
X95384690Y-84025569D01*
X95132800Y-83974560D01*
X93632800Y-83974560D01*
X93397483Y-84018838D01*
X93369258Y-84037000D01*
X91852332Y-84037000D01*
X91525199Y-83901162D01*
X91153233Y-83900838D01*
X90809457Y-84042883D01*
X90546208Y-84305673D01*
X90403562Y-84649201D01*
X90403238Y-85021167D01*
X90533737Y-85337000D01*
X65033800Y-85337000D01*
X64723826Y-85398658D01*
X64618571Y-85468988D01*
X64461044Y-85574243D01*
X56871118Y-93164170D01*
X56570257Y-93288483D01*
X56307008Y-93551273D01*
X56164362Y-93894801D01*
X56164038Y-94266767D01*
X56306083Y-94610543D01*
X56568873Y-94873792D01*
X56912401Y-95016438D01*
X57284367Y-95016762D01*
X57628143Y-94874717D01*
X57891392Y-94611927D01*
X58017084Y-94309228D01*
X65369313Y-86957000D01*
X74000287Y-86957000D01*
X71806318Y-89150970D01*
X71505457Y-89275283D01*
X71242208Y-89538073D01*
X71099562Y-89881601D01*
X71099238Y-90253567D01*
X71241283Y-90597343D01*
X71504073Y-90860592D01*
X71847601Y-91003238D01*
X72219567Y-91003562D01*
X72563343Y-90861517D01*
X72826592Y-90598727D01*
X72952284Y-90296028D01*
X75641313Y-87607000D01*
X88133087Y-87607000D01*
X84669644Y-91070444D01*
X84494058Y-91333226D01*
X84432400Y-91643200D01*
X84432400Y-101976159D01*
X84307562Y-102276801D01*
X84307238Y-102648767D01*
X84331588Y-102707699D01*
X83767128Y-103272160D01*
X82865200Y-103272160D01*
X82629883Y-103316438D01*
X82413759Y-103455510D01*
X82268769Y-103667710D01*
X82217760Y-103919600D01*
X82217760Y-105419600D01*
X82262038Y-105654917D01*
X82401110Y-105871041D01*
X82613310Y-106016031D01*
X82626397Y-106018681D01*
X82413759Y-106155510D01*
X82268769Y-106367710D01*
X82217760Y-106619600D01*
X82217760Y-108119600D01*
X82255186Y-108318502D01*
X81763117Y-108810570D01*
X81511830Y-108914400D01*
X80809350Y-108914400D01*
X80776362Y-108739083D01*
X80637290Y-108522959D01*
X80425090Y-108377969D01*
X80173200Y-108326960D01*
X80108200Y-108326960D01*
X80108200Y-105136512D01*
X83579956Y-101664757D01*
X83728512Y-101442427D01*
X83755542Y-101401974D01*
X83817200Y-101092000D01*
X83817200Y-92495639D01*
X84066870Y-92328815D01*
X84391726Y-91842634D01*
X84505800Y-91269145D01*
X84505800Y-90899655D01*
X84391726Y-90326166D01*
X84066870Y-89839985D01*
X83580689Y-89515129D01*
X83007200Y-89401055D01*
X82433711Y-89515129D01*
X81947530Y-89839985D01*
X81737200Y-90154766D01*
X81526870Y-89839985D01*
X81040689Y-89515129D01*
X80467200Y-89401055D01*
X79893711Y-89515129D01*
X79407530Y-89839985D01*
X79197200Y-90154766D01*
X78986870Y-89839985D01*
X78500689Y-89515129D01*
X77927200Y-89401055D01*
X77353711Y-89515129D01*
X76867530Y-89839985D01*
X76857957Y-89854313D01*
X76853962Y-89833083D01*
X76714890Y-89616959D01*
X76502690Y-89471969D01*
X76250800Y-89420960D01*
X74523600Y-89420960D01*
X74288283Y-89465238D01*
X74072159Y-89604310D01*
X73927169Y-89816510D01*
X73876160Y-90068400D01*
X73876160Y-91167084D01*
X73724244Y-91319000D01*
X70313931Y-91319000D01*
X70255090Y-91227559D01*
X70042890Y-91082569D01*
X69791000Y-91031560D01*
X68291000Y-91031560D01*
X68055683Y-91075838D01*
X67839559Y-91214910D01*
X67694569Y-91427110D01*
X67691919Y-91440197D01*
X67555090Y-91227559D01*
X67351000Y-91088110D01*
X67351000Y-89201000D01*
X67274118Y-88814490D01*
X67055178Y-88486822D01*
X67008178Y-88439822D01*
X66680510Y-88220882D01*
X66294000Y-88144000D01*
X65907490Y-88220882D01*
X65579822Y-88439822D01*
X65360882Y-88767490D01*
X65284000Y-89154000D01*
X65331000Y-89390284D01*
X65331000Y-91091721D01*
X65139559Y-91214910D01*
X64994569Y-91427110D01*
X64943560Y-91679000D01*
X64943560Y-92979000D01*
X64987838Y-93214317D01*
X65126910Y-93430441D01*
X65339110Y-93575431D01*
X65591000Y-93626440D01*
X67091000Y-93626440D01*
X67326317Y-93582162D01*
X67542441Y-93443090D01*
X67687431Y-93230890D01*
X67690081Y-93217803D01*
X67826910Y-93430441D01*
X68039110Y-93575431D01*
X68291000Y-93626440D01*
X69791000Y-93626440D01*
X70026317Y-93582162D01*
X70242441Y-93443090D01*
X70313563Y-93339000D01*
X74142600Y-93339000D01*
X74529110Y-93262118D01*
X74856778Y-93043178D01*
X75152116Y-92747840D01*
X76250800Y-92747840D01*
X76486117Y-92703562D01*
X76702241Y-92564490D01*
X76847231Y-92352290D01*
X76855600Y-92310961D01*
X76867530Y-92328815D01*
X77188200Y-92543080D01*
X77188200Y-108326960D01*
X77123200Y-108326960D01*
X77019529Y-108346467D01*
X76923200Y-108326960D01*
X76473200Y-108326960D01*
X76369529Y-108346467D01*
X76273200Y-108326960D01*
X75823200Y-108326960D01*
X75719529Y-108346467D01*
X75623200Y-108326960D01*
X75173200Y-108326960D01*
X74937883Y-108371238D01*
X74721759Y-108510310D01*
X74576769Y-108722510D01*
X74525760Y-108974400D01*
X74525760Y-109875727D01*
X66229244Y-118172244D01*
X66053658Y-118435026D01*
X65992000Y-118745000D01*
X65992000Y-119273559D01*
X65867162Y-119574201D01*
X65866838Y-119946167D01*
X66008883Y-120289943D01*
X66271673Y-120553192D01*
X66615201Y-120695838D01*
X66987167Y-120696162D01*
X67330943Y-120554117D01*
X67594192Y-120291327D01*
X67736838Y-119947799D01*
X67737162Y-119575833D01*
X67612000Y-119272917D01*
X67612000Y-119080512D01*
X68278000Y-118414512D01*
X68278000Y-119146559D01*
X68153162Y-119447201D01*
X68152838Y-119819167D01*
X68294883Y-120162943D01*
X68557673Y-120426192D01*
X68901201Y-120568838D01*
X69273167Y-120569162D01*
X69616943Y-120427117D01*
X69880192Y-120164327D01*
X70022838Y-119820799D01*
X70023162Y-119448833D01*
X69898000Y-119145917D01*
X69898000Y-118191512D01*
X70564000Y-117525512D01*
X70564000Y-118892559D01*
X70439162Y-119193201D01*
X70438838Y-119565167D01*
X70580883Y-119908943D01*
X70843673Y-120172192D01*
X71187201Y-120314838D01*
X71559167Y-120315162D01*
X71902943Y-120173117D01*
X72166192Y-119910327D01*
X72308838Y-119566799D01*
X72309162Y-119194833D01*
X72184000Y-118891917D01*
X72184000Y-116921512D01*
X72977000Y-116128512D01*
X72977000Y-118765559D01*
X72852162Y-119066201D01*
X72851838Y-119438167D01*
X72993883Y-119781943D01*
X73256673Y-120045192D01*
X73600201Y-120187838D01*
X73972167Y-120188162D01*
X74315943Y-120046117D01*
X74579192Y-119783327D01*
X74721838Y-119439799D01*
X74722162Y-119067833D01*
X74597000Y-118764917D01*
X74597000Y-116642665D01*
X74634873Y-116734098D01*
X74813501Y-116912727D01*
X75046890Y-117009400D01*
X75126950Y-117009400D01*
X75238200Y-116898150D01*
X75238200Y-118638428D01*
X75153808Y-118722673D01*
X75011162Y-119066201D01*
X75010838Y-119438167D01*
X75152883Y-119781943D01*
X75415673Y-120045192D01*
X75759201Y-120187838D01*
X76131167Y-120188162D01*
X76474943Y-120046117D01*
X76738192Y-119783327D01*
X76880838Y-119439799D01*
X76881162Y-119067833D01*
X76858200Y-119012261D01*
X76858200Y-117021840D01*
X76923200Y-117021840D01*
X77026871Y-117002333D01*
X77123200Y-117021840D01*
X77573200Y-117021840D01*
X77676871Y-117002333D01*
X77773200Y-117021840D01*
X78223200Y-117021840D01*
X78326871Y-117002333D01*
X78423200Y-117021840D01*
X78488200Y-117021840D01*
X78488200Y-118278820D01*
X78362683Y-118302438D01*
X78146559Y-118441510D01*
X78001569Y-118653710D01*
X77950560Y-118905600D01*
X77950560Y-120405600D01*
X77994838Y-120640917D01*
X78133910Y-120857041D01*
X78346110Y-121002031D01*
X78379490Y-121008791D01*
X78238301Y-121067273D01*
X78059673Y-121245902D01*
X77963000Y-121479291D01*
X77963000Y-122069850D01*
X78121750Y-122228600D01*
X79121000Y-122228600D01*
X79121000Y-122208600D01*
X79375000Y-122208600D01*
X79375000Y-122228600D01*
X80374250Y-122228600D01*
X80533000Y-122069850D01*
X80533000Y-121574550D01*
X82585800Y-121574550D01*
X82585800Y-122165109D01*
X82682473Y-122398498D01*
X82861101Y-122577127D01*
X83094490Y-122673800D01*
X83585050Y-122673800D01*
X83743800Y-122515050D01*
X83743800Y-121415800D01*
X83997800Y-121415800D01*
X83997800Y-122515050D01*
X84156550Y-122673800D01*
X84647110Y-122673800D01*
X84880499Y-122577127D01*
X85059127Y-122398498D01*
X85155800Y-122165109D01*
X85155800Y-121574550D01*
X84997050Y-121415800D01*
X83997800Y-121415800D01*
X83743800Y-121415800D01*
X82744550Y-121415800D01*
X82585800Y-121574550D01*
X80533000Y-121574550D01*
X80533000Y-121479291D01*
X80436327Y-121245902D01*
X80257699Y-121067273D01*
X80121713Y-121010946D01*
X80133317Y-121008762D01*
X80349441Y-120869690D01*
X80494431Y-120657490D01*
X80545440Y-120405600D01*
X80545440Y-118905600D01*
X80501162Y-118670283D01*
X80362090Y-118454159D01*
X80149890Y-118309169D01*
X80108200Y-118300727D01*
X80108200Y-117021840D01*
X80173200Y-117021840D01*
X80408517Y-116977562D01*
X80624641Y-116838490D01*
X80769631Y-116626290D01*
X80820640Y-116374400D01*
X80820640Y-114874400D01*
X80798060Y-114754400D01*
X85598000Y-114754400D01*
X85907974Y-114692742D01*
X86170756Y-114517156D01*
X87278713Y-113409200D01*
X87763871Y-113409200D01*
X87782528Y-113437122D01*
X88025096Y-113599200D01*
X87782528Y-113761278D01*
X87525653Y-114145720D01*
X87435450Y-114599200D01*
X87525653Y-115052680D01*
X87782528Y-115437122D01*
X88027972Y-115601122D01*
X87728676Y-115851082D01*
X87513002Y-116263054D01*
X87512597Y-116289456D01*
X87638039Y-116472200D01*
X89179400Y-116472200D01*
X89179400Y-116452200D01*
X89433400Y-116452200D01*
X89433400Y-116472200D01*
X90974761Y-116472200D01*
X91100203Y-116289456D01*
X91099798Y-116263054D01*
X90884124Y-115851082D01*
X90584828Y-115601122D01*
X90830272Y-115437122D01*
X90950098Y-115257789D01*
X91078556Y-115171956D01*
X91254142Y-114909174D01*
X91295560Y-114700952D01*
X92012757Y-113983756D01*
X92188343Y-113720973D01*
X92250000Y-113411000D01*
X92250000Y-106710920D01*
X92296400Y-106720150D01*
X92749880Y-106629947D01*
X93134322Y-106373072D01*
X93296400Y-106130504D01*
X93458478Y-106373072D01*
X93842920Y-106629947D01*
X94296400Y-106720150D01*
X94749880Y-106629947D01*
X95134322Y-106373072D01*
X95296400Y-106130504D01*
X95458478Y-106373072D01*
X95842920Y-106629947D01*
X96296400Y-106720150D01*
X96749880Y-106629947D01*
X97134322Y-106373072D01*
X97296400Y-106130504D01*
X97458478Y-106373072D01*
X97842920Y-106629947D01*
X98296400Y-106720150D01*
X98749880Y-106629947D01*
X99134322Y-106373072D01*
X99296400Y-106130504D01*
X99458478Y-106373072D01*
X99842920Y-106629947D01*
X100296400Y-106720150D01*
X100749880Y-106629947D01*
X101134322Y-106373072D01*
X101296400Y-106130504D01*
X101458478Y-106373072D01*
X101725799Y-106551689D01*
X101281244Y-106996244D01*
X101105658Y-107259026D01*
X101044000Y-107569000D01*
X101044000Y-115443000D01*
X101105658Y-115752974D01*
X101190517Y-115879974D01*
X101281244Y-116015756D01*
X102057487Y-116792000D01*
X100711000Y-116792000D01*
X100401026Y-116853658D01*
X100278772Y-116935346D01*
X100138243Y-117029244D01*
X95930488Y-121237000D01*
X91136060Y-121237000D01*
X91153840Y-121149200D01*
X91153840Y-120049200D01*
X91109562Y-119813883D01*
X90970490Y-119597759D01*
X90782301Y-119469175D01*
X90830272Y-119437122D01*
X91087147Y-119052680D01*
X91177350Y-118599200D01*
X91087147Y-118145720D01*
X90830272Y-117761278D01*
X90584828Y-117597278D01*
X90884124Y-117347318D01*
X91099798Y-116935346D01*
X91100203Y-116908944D01*
X90974761Y-116726200D01*
X89433400Y-116726200D01*
X89433400Y-116746200D01*
X89179400Y-116746200D01*
X89179400Y-116726200D01*
X87638039Y-116726200D01*
X87512597Y-116908944D01*
X87513002Y-116935346D01*
X87728676Y-117347318D01*
X88005847Y-117578800D01*
X85108079Y-117578800D01*
X84984890Y-117387359D01*
X84772690Y-117242369D01*
X84520800Y-117191360D01*
X83220800Y-117191360D01*
X82985483Y-117235638D01*
X82769359Y-117374710D01*
X82624369Y-117586910D01*
X82573360Y-117838800D01*
X82573360Y-119338800D01*
X82617638Y-119574117D01*
X82756710Y-119790241D01*
X82968910Y-119935231D01*
X83002290Y-119941991D01*
X82861101Y-120000473D01*
X82682473Y-120179102D01*
X82585800Y-120412491D01*
X82585800Y-121003050D01*
X82744550Y-121161800D01*
X83743800Y-121161800D01*
X83743800Y-121141800D01*
X83997800Y-121141800D01*
X83997800Y-121161800D01*
X84997050Y-121161800D01*
X85155800Y-121003050D01*
X85155800Y-120412491D01*
X85059127Y-120179102D01*
X84880499Y-120000473D01*
X84744513Y-119944146D01*
X84756117Y-119941962D01*
X84972241Y-119802890D01*
X85111690Y-119598800D01*
X87645605Y-119598800D01*
X87509969Y-119797310D01*
X87458960Y-120049200D01*
X87458960Y-121149200D01*
X87483020Y-121277067D01*
X85364088Y-123396000D01*
X80465031Y-123396000D01*
X80533000Y-123231909D01*
X80533000Y-122641350D01*
X80374250Y-122482600D01*
X79375000Y-122482600D01*
X79375000Y-122502600D01*
X79121000Y-122502600D01*
X79121000Y-122482600D01*
X78121750Y-122482600D01*
X77963000Y-122641350D01*
X77963000Y-123231909D01*
X78030969Y-123396000D01*
X74431690Y-123396000D01*
X74543441Y-123324090D01*
X74688431Y-123111890D01*
X74739440Y-122860000D01*
X74739440Y-121560000D01*
X74695162Y-121324683D01*
X74556090Y-121108559D01*
X74343890Y-120963569D01*
X74092000Y-120912560D01*
X72542000Y-120912560D01*
X72306683Y-120956838D01*
X72090559Y-121095910D01*
X71945569Y-121308110D01*
X71926961Y-121400000D01*
X66759334Y-121400000D01*
X66745162Y-121324683D01*
X66606090Y-121108559D01*
X66393890Y-120963569D01*
X66142000Y-120912560D01*
X64592000Y-120912560D01*
X64356683Y-120956838D01*
X64140559Y-121095910D01*
X63995569Y-121308110D01*
X63976961Y-121400000D01*
X63787334Y-121400000D01*
X63773162Y-121324683D01*
X63634090Y-121108559D01*
X63421890Y-120963569D01*
X63170000Y-120912560D01*
X61620000Y-120912560D01*
X61384683Y-120956838D01*
X61168559Y-121095910D01*
X61023569Y-121308110D01*
X61004961Y-121400000D01*
X55837334Y-121400000D01*
X55823162Y-121324683D01*
X55684090Y-121108559D01*
X55471890Y-120963569D01*
X55220000Y-120912560D01*
X53670000Y-120912560D01*
X53434683Y-120956838D01*
X53218559Y-121095910D01*
X53073569Y-121308110D01*
X53022560Y-121560000D01*
X47879000Y-121560000D01*
X47879000Y-78441300D01*
X51476116Y-78441300D01*
X51562513Y-78875646D01*
X51808550Y-79243866D01*
X51903740Y-79307470D01*
X51903740Y-84575130D01*
X51808550Y-84638734D01*
X51562513Y-85006954D01*
X51476116Y-85441300D01*
X51562513Y-85875646D01*
X51808550Y-86243866D01*
X52176770Y-86489903D01*
X52611116Y-86576300D01*
X53216364Y-86576300D01*
X53650710Y-86489903D01*
X53708483Y-86451300D01*
X54613740Y-86451300D01*
X55000250Y-86374418D01*
X55327918Y-86155478D01*
X55793085Y-85690311D01*
X56038519Y-85641491D01*
X56398629Y-85400874D01*
X56639246Y-85040764D01*
X56723740Y-84615985D01*
X56723740Y-84266615D01*
X56680911Y-84051300D01*
X58795500Y-84051300D01*
X59105474Y-83989642D01*
X59368256Y-83814056D01*
X59620382Y-83561930D01*
X62122050Y-83561930D01*
X62178919Y-83551229D01*
X62218402Y-83551649D01*
X62239157Y-83543142D01*
X62346838Y-83543142D01*
X62188090Y-83701890D01*
X62188090Y-84042829D01*
X62284763Y-84276218D01*
X62463391Y-84454847D01*
X62696780Y-84551520D01*
X63788290Y-84551520D01*
X63947040Y-84392770D01*
X63947040Y-83543140D01*
X64201040Y-83543140D01*
X64201040Y-84392770D01*
X64359790Y-84551520D01*
X65451300Y-84551520D01*
X65684689Y-84454847D01*
X65863317Y-84276218D01*
X65959990Y-84042829D01*
X65959990Y-83701890D01*
X65801240Y-83543140D01*
X64201040Y-83543140D01*
X63947040Y-83543140D01*
X63927040Y-83543140D01*
X63927040Y-83289140D01*
X63947040Y-83289140D01*
X63947040Y-83269140D01*
X64201040Y-83269140D01*
X64201040Y-83289140D01*
X65801240Y-83289140D01*
X65959990Y-83130390D01*
X65959990Y-82925000D01*
X66657644Y-82925000D01*
X66672560Y-82939916D01*
X66672560Y-83534000D01*
X66716838Y-83769317D01*
X66855910Y-83985441D01*
X67068110Y-84130431D01*
X67320000Y-84181440D01*
X68570000Y-84181440D01*
X68805317Y-84137162D01*
X69021441Y-83998090D01*
X69160890Y-83794000D01*
X71299585Y-83794000D01*
X71329638Y-83953717D01*
X71468710Y-84169841D01*
X71680910Y-84314831D01*
X71932800Y-84365840D01*
X73964800Y-84365840D01*
X74200117Y-84321562D01*
X74416241Y-84182490D01*
X74561231Y-83970290D01*
X74612240Y-83718400D01*
X74612240Y-81686400D01*
X74567962Y-81451083D01*
X74428890Y-81234959D01*
X74279963Y-81133202D01*
X74506470Y-80794210D01*
X74632145Y-80162400D01*
X74506470Y-79530590D01*
X74148578Y-78994967D01*
X73612955Y-78637075D01*
X72981145Y-78511400D01*
X72916455Y-78511400D01*
X72284645Y-78637075D01*
X71749022Y-78994967D01*
X71562578Y-79274000D01*
X69157279Y-79274000D01*
X69034090Y-79082559D01*
X68821890Y-78937569D01*
X68570000Y-78886560D01*
X67320000Y-78886560D01*
X67084683Y-78930838D01*
X66868559Y-79069910D01*
X66723569Y-79282110D01*
X66698914Y-79403860D01*
X65703932Y-79403860D01*
X65576880Y-79317049D01*
X65324990Y-79266040D01*
X64071732Y-79266040D01*
X63988936Y-79183244D01*
X63942775Y-79152400D01*
X63726154Y-79007658D01*
X63416180Y-78946000D01*
X58420000Y-78946000D01*
X58110026Y-79007658D01*
X58016860Y-79069910D01*
X57847243Y-79183244D01*
X57199188Y-79831300D01*
X56680911Y-79831300D01*
X56723740Y-79615985D01*
X56723740Y-79266615D01*
X56639246Y-78841836D01*
X56398629Y-78481726D01*
X56038519Y-78241109D01*
X55793085Y-78192289D01*
X55327918Y-77727122D01*
X55000250Y-77508182D01*
X54613740Y-77431300D01*
X53708483Y-77431300D01*
X53650710Y-77392697D01*
X53216364Y-77306300D01*
X52611116Y-77306300D01*
X52176770Y-77392697D01*
X51808550Y-77638734D01*
X51562513Y-78006954D01*
X51476116Y-78441300D01*
X47879000Y-78441300D01*
X47879000Y-74295000D01*
X147193000Y-74295000D01*
X147193000Y-131953000D01*
X147193000Y-131953000D01*
G37*
X147193000Y-131953000D02*
X47879000Y-131953000D01*
X47879000Y-121560000D01*
X53022560Y-121560000D01*
X53022560Y-122860000D01*
X53066838Y-123095317D01*
X53205910Y-123311441D01*
X53418110Y-123456431D01*
X53670000Y-123507440D01*
X55220000Y-123507440D01*
X55455317Y-123463162D01*
X55671441Y-123324090D01*
X55705000Y-123274975D01*
X55705000Y-124480559D01*
X55580162Y-124781201D01*
X55579838Y-125153167D01*
X55721883Y-125496943D01*
X55984673Y-125760192D01*
X56321366Y-125900000D01*
X55837334Y-125900000D01*
X55823162Y-125824683D01*
X55684090Y-125608559D01*
X55471890Y-125463569D01*
X55220000Y-125412560D01*
X53670000Y-125412560D01*
X53434683Y-125456838D01*
X53218559Y-125595910D01*
X53073569Y-125808110D01*
X53022560Y-126060000D01*
X53022560Y-127360000D01*
X53066838Y-127595317D01*
X53205910Y-127811441D01*
X53418110Y-127956431D01*
X53670000Y-128007440D01*
X55220000Y-128007440D01*
X55455317Y-127963162D01*
X55671441Y-127824090D01*
X55816431Y-127611890D01*
X55835039Y-127520000D01*
X61002666Y-127520000D01*
X61016838Y-127595317D01*
X61155910Y-127811441D01*
X61368110Y-127956431D01*
X61620000Y-128007440D01*
X63170000Y-128007440D01*
X63405317Y-127963162D01*
X63621441Y-127824090D01*
X63766431Y-127611890D01*
X63817440Y-127360000D01*
X63817440Y-126060000D01*
X63773162Y-125824683D01*
X63634090Y-125608559D01*
X63421890Y-125463569D01*
X63288047Y-125436465D01*
X63708513Y-125016000D01*
X85166488Y-125016000D01*
X84282488Y-125900000D01*
X74709334Y-125900000D01*
X74695162Y-125824683D01*
X74556090Y-125608559D01*
X74343890Y-125463569D01*
X74092000Y-125412560D01*
X72542000Y-125412560D01*
X72306683Y-125456838D01*
X72090559Y-125595910D01*
X71945569Y-125808110D01*
X71926961Y-125900000D01*
X66759334Y-125900000D01*
X66745162Y-125824683D01*
X66606090Y-125608559D01*
X66393890Y-125463569D01*
X66142000Y-125412560D01*
X64592000Y-125412560D01*
X64356683Y-125456838D01*
X64140559Y-125595910D01*
X63995569Y-125808110D01*
X63944560Y-126060000D01*
X63944560Y-127360000D01*
X63988838Y-127595317D01*
X64127910Y-127811441D01*
X64340110Y-127956431D01*
X64592000Y-128007440D01*
X66142000Y-128007440D01*
X66377317Y-127963162D01*
X66593441Y-127824090D01*
X66738431Y-127611890D01*
X66757039Y-127520000D01*
X71924666Y-127520000D01*
X71938838Y-127595317D01*
X72077910Y-127811441D01*
X72290110Y-127956431D01*
X72542000Y-128007440D01*
X74092000Y-128007440D01*
X74327317Y-127963162D01*
X74543441Y-127824090D01*
X74688431Y-127611890D01*
X74707039Y-127520000D01*
X84618000Y-127520000D01*
X84927974Y-127458342D01*
X85190756Y-127282756D01*
X89616513Y-122857000D01*
X96266000Y-122857000D01*
X96575974Y-122795342D01*
X96838756Y-122619756D01*
X101046513Y-118412000D01*
X103472686Y-118412000D01*
X103435450Y-118599200D01*
X103525653Y-119052680D01*
X103782528Y-119437122D01*
X104025096Y-119599200D01*
X103782528Y-119761278D01*
X103525653Y-120145720D01*
X103435450Y-120599200D01*
X103525653Y-121052680D01*
X103782528Y-121437122D01*
X104166970Y-121693997D01*
X104620450Y-121784200D01*
X105992350Y-121784200D01*
X106445830Y-121693997D01*
X106572738Y-121609200D01*
X109385360Y-121609200D01*
X109385360Y-121920000D01*
X109429638Y-122155317D01*
X109568710Y-122371441D01*
X109780910Y-122516431D01*
X110032800Y-122567440D01*
X112064800Y-122567440D01*
X112300117Y-122523162D01*
X112516241Y-122384090D01*
X112661231Y-122171890D01*
X112712240Y-121920000D01*
X112712240Y-119888000D01*
X112667962Y-119652683D01*
X112528890Y-119436559D01*
X112379963Y-119334802D01*
X112606470Y-118995810D01*
X112732145Y-118364000D01*
X112606470Y-117732190D01*
X112248578Y-117196567D01*
X111712955Y-116838675D01*
X111081145Y-116713000D01*
X111016455Y-116713000D01*
X110384645Y-116838675D01*
X109849022Y-117196567D01*
X109586673Y-117589200D01*
X108151436Y-117589200D01*
X108190342Y-117530974D01*
X108252000Y-117221000D01*
X108252000Y-116459000D01*
X108199916Y-116197156D01*
X108190343Y-116149027D01*
X108014757Y-115886244D01*
X107737713Y-115609200D01*
X110675644Y-115609200D01*
X119021422Y-123954978D01*
X119349090Y-124173918D01*
X119735600Y-124250800D01*
X126276844Y-124250800D01*
X127708222Y-125682178D01*
X128035890Y-125901118D01*
X128422400Y-125978000D01*
X128831699Y-125978000D01*
X128988330Y-126212415D01*
X129474511Y-126537271D01*
X130048000Y-126651345D01*
X130621489Y-126537271D01*
X131107670Y-126212415D01*
X131318000Y-125897634D01*
X131528330Y-126212415D01*
X132014511Y-126537271D01*
X132588000Y-126651345D01*
X133161489Y-126537271D01*
X133647670Y-126212415D01*
X133662500Y-126190220D01*
X133726073Y-126343698D01*
X133904701Y-126522327D01*
X134138090Y-126619000D01*
X134842250Y-126619000D01*
X135001000Y-126460250D01*
X135001000Y-125095000D01*
X135255000Y-125095000D01*
X135255000Y-126460250D01*
X135413750Y-126619000D01*
X136117910Y-126619000D01*
X136351299Y-126522327D01*
X136529927Y-126343698D01*
X136626600Y-126110309D01*
X136626600Y-125253750D01*
X136467850Y-125095000D01*
X135255000Y-125095000D01*
X135001000Y-125095000D01*
X134981000Y-125095000D01*
X134981000Y-124841000D01*
X135001000Y-124841000D01*
X135001000Y-123475750D01*
X135255000Y-123475750D01*
X135255000Y-124841000D01*
X136467850Y-124841000D01*
X136626600Y-124682250D01*
X136626600Y-123825691D01*
X136529927Y-123592302D01*
X136351299Y-123413673D01*
X136117910Y-123317000D01*
X135413750Y-123317000D01*
X135255000Y-123475750D01*
X135001000Y-123475750D01*
X134842250Y-123317000D01*
X134138090Y-123317000D01*
X133904701Y-123413673D01*
X133726073Y-123592302D01*
X133662500Y-123745780D01*
X133647670Y-123723585D01*
X133161489Y-123398729D01*
X132588000Y-123284655D01*
X132014511Y-123398729D01*
X131528330Y-123723585D01*
X131318000Y-124038366D01*
X131107670Y-123723585D01*
X130621489Y-123398729D01*
X130048000Y-123284655D01*
X129474511Y-123398729D01*
X128988330Y-123723585D01*
X128835327Y-123952571D01*
X127409378Y-122526622D01*
X127081710Y-122307682D01*
X126695200Y-122230800D01*
X120153956Y-122230800D01*
X111808178Y-113885022D01*
X111480510Y-113666082D01*
X111384683Y-113647021D01*
X111502431Y-113474690D01*
X111509191Y-113441310D01*
X111567673Y-113582499D01*
X111746302Y-113761127D01*
X111979691Y-113857800D01*
X112570250Y-113857800D01*
X112729000Y-113699050D01*
X112729000Y-112699800D01*
X112983000Y-112699800D01*
X112983000Y-113699050D01*
X113141750Y-113857800D01*
X113732309Y-113857800D01*
X113965698Y-113761127D01*
X114144327Y-113582499D01*
X114241000Y-113349110D01*
X114241000Y-112858550D01*
X114082250Y-112699800D01*
X112983000Y-112699800D01*
X112729000Y-112699800D01*
X112709000Y-112699800D01*
X112709000Y-112445800D01*
X112729000Y-112445800D01*
X112729000Y-111446550D01*
X112983000Y-111446550D01*
X112983000Y-112445800D01*
X114082250Y-112445800D01*
X114241000Y-112287050D01*
X114241000Y-111796490D01*
X114144327Y-111563101D01*
X113965698Y-111384473D01*
X113732309Y-111287800D01*
X113141750Y-111287800D01*
X112983000Y-111446550D01*
X112729000Y-111446550D01*
X112592981Y-111310531D01*
X114491757Y-109411756D01*
X114667343Y-109148973D01*
X114729000Y-108839000D01*
X114729000Y-102087441D01*
X114853838Y-101786799D01*
X114854162Y-101414833D01*
X114712117Y-101071057D01*
X114449327Y-100807808D01*
X114105799Y-100665162D01*
X113733833Y-100664838D01*
X113390057Y-100806883D01*
X113126808Y-101069673D01*
X113078000Y-101187215D01*
X113078000Y-98298000D01*
X113043766Y-98125897D01*
X113016343Y-97988027D01*
X112840757Y-97725244D01*
X105855756Y-90740244D01*
X105792369Y-90697890D01*
X105592974Y-90564658D01*
X105283000Y-90503000D01*
X98760512Y-90503000D01*
X96431756Y-88174244D01*
X96355724Y-88123441D01*
X96168974Y-87998658D01*
X95859000Y-87937000D01*
X95780240Y-87937000D01*
X95780240Y-87872000D01*
X95760733Y-87768329D01*
X95780240Y-87672000D01*
X95780240Y-87222000D01*
X95760733Y-87118329D01*
X95780240Y-87022000D01*
X95780240Y-86572000D01*
X95760733Y-86468329D01*
X95780240Y-86372000D01*
X95780240Y-85922000D01*
X95760733Y-85818329D01*
X95780240Y-85722000D01*
X95780240Y-85272000D01*
X95760733Y-85168329D01*
X95780240Y-85072000D01*
X95780240Y-84622000D01*
X98885360Y-84622000D01*
X98885360Y-85072000D01*
X98904867Y-85175671D01*
X98885360Y-85272000D01*
X98885360Y-85722000D01*
X98904867Y-85825671D01*
X98885360Y-85922000D01*
X98885360Y-86372000D01*
X98904867Y-86475671D01*
X98885360Y-86572000D01*
X98885360Y-87022000D01*
X98904867Y-87125671D01*
X98885360Y-87222000D01*
X98885360Y-87672000D01*
X98904867Y-87775671D01*
X98885360Y-87872000D01*
X98885360Y-88322000D01*
X98898780Y-88393323D01*
X98897800Y-88395690D01*
X98897800Y-88475750D01*
X98918112Y-88496062D01*
X98929638Y-88557317D01*
X99054859Y-88751916D01*
X98994473Y-88812301D01*
X98917203Y-88998847D01*
X98897800Y-89018250D01*
X98897800Y-89125750D01*
X98917203Y-89145153D01*
X98994473Y-89331699D01*
X99172275Y-89509500D01*
X99056550Y-89509500D01*
X98897800Y-89668250D01*
X98897800Y-89748310D01*
X98994473Y-89981699D01*
X99173102Y-90160327D01*
X99406491Y-90257000D01*
X99997050Y-90257000D01*
X100155800Y-90098250D01*
X100155800Y-89509500D01*
X100094550Y-89509500D01*
X100155800Y-89448250D01*
X100155800Y-89250000D01*
X100409800Y-89250000D01*
X100409800Y-89448250D01*
X100471050Y-89509500D01*
X100409800Y-89509500D01*
X100409800Y-90098250D01*
X100568550Y-90257000D01*
X101159109Y-90257000D01*
X101392498Y-90160327D01*
X101571127Y-89981699D01*
X101667800Y-89748310D01*
X101667800Y-89668250D01*
X101509050Y-89509500D01*
X101393325Y-89509500D01*
X101571127Y-89331699D01*
X101648397Y-89145153D01*
X101667800Y-89125750D01*
X101667800Y-89018250D01*
X101648397Y-88998847D01*
X101610353Y-88907000D01*
X109656288Y-88907000D01*
X116995200Y-96245913D01*
X116995200Y-100228400D01*
X117056858Y-100538374D01*
X117172471Y-100711400D01*
X117232444Y-100801156D01*
X117588043Y-101156756D01*
X117719435Y-101244549D01*
X117850826Y-101332342D01*
X118160800Y-101394000D01*
X139568159Y-101394000D01*
X139868801Y-101518838D01*
X140240767Y-101519162D01*
X140584543Y-101377117D01*
X140847792Y-101114327D01*
X140990438Y-100770799D01*
X140990762Y-100398833D01*
X140848717Y-100055057D01*
X140585927Y-99791808D01*
X140242399Y-99649162D01*
X139870433Y-99648838D01*
X139567517Y-99774000D01*
X118615200Y-99774000D01*
X118615200Y-95910400D01*
X118553542Y-95600426D01*
X118404253Y-95377000D01*
X118377956Y-95337643D01*
X111297312Y-88257000D01*
X111749488Y-88257000D01*
X116176571Y-92684084D01*
X116300883Y-92984943D01*
X116563673Y-93248192D01*
X116907201Y-93390838D01*
X117279167Y-93391162D01*
X117622943Y-93249117D01*
X117886192Y-92986327D01*
X118028838Y-92642799D01*
X118029162Y-92270833D01*
X117887117Y-91927057D01*
X117624327Y-91663808D01*
X117321629Y-91538116D01*
X113390512Y-87607000D01*
X114045888Y-87607000D01*
X119326171Y-92887284D01*
X119450483Y-93188143D01*
X119713273Y-93451392D01*
X120056801Y-93594038D01*
X120428767Y-93594362D01*
X120772543Y-93452317D01*
X121035792Y-93189527D01*
X121178438Y-92845999D01*
X121178762Y-92474033D01*
X121036717Y-92130257D01*
X120773927Y-91867008D01*
X120471229Y-91741316D01*
X115686912Y-86957000D01*
X122641488Y-86957000D01*
X126285771Y-90601284D01*
X126410083Y-90902143D01*
X126672873Y-91165392D01*
X127016401Y-91308038D01*
X127388367Y-91308362D01*
X127732143Y-91166317D01*
X127995392Y-90903527D01*
X128138038Y-90559999D01*
X128138362Y-90188033D01*
X127996317Y-89844257D01*
X127733527Y-89581008D01*
X127430829Y-89455316D01*
X127059663Y-89084150D01*
X129902200Y-89084150D01*
X129902200Y-89549710D01*
X129998873Y-89783099D01*
X130177502Y-89961727D01*
X130410891Y-90058400D01*
X131001450Y-90058400D01*
X131160200Y-89899650D01*
X131160200Y-88925400D01*
X130060950Y-88925400D01*
X129902200Y-89084150D01*
X127059663Y-89084150D01*
X126022603Y-88047090D01*
X129902200Y-88047090D01*
X129902200Y-88512650D01*
X130060950Y-88671400D01*
X131160200Y-88671400D01*
X131160200Y-87697150D01*
X131001450Y-87538400D01*
X130410891Y-87538400D01*
X130177502Y-87635073D01*
X129998873Y-87813701D01*
X129902200Y-88047090D01*
X126022603Y-88047090D01*
X123757663Y-85782150D01*
X129851400Y-85782150D01*
X129851400Y-86247710D01*
X129948073Y-86481099D01*
X130126702Y-86659727D01*
X130360091Y-86756400D01*
X130950650Y-86756400D01*
X131109400Y-86597650D01*
X131109400Y-85623400D01*
X130010150Y-85623400D01*
X129851400Y-85782150D01*
X123757663Y-85782150D01*
X123549756Y-85574244D01*
X123473724Y-85523441D01*
X123286974Y-85398658D01*
X122977000Y-85337000D01*
X101680240Y-85337000D01*
X101680240Y-85272000D01*
X101660733Y-85168329D01*
X101680240Y-85072000D01*
X101680240Y-84745090D01*
X129851400Y-84745090D01*
X129851400Y-85210650D01*
X130010150Y-85369400D01*
X131109400Y-85369400D01*
X131109400Y-84395150D01*
X131363400Y-84395150D01*
X131363400Y-85369400D01*
X131383400Y-85369400D01*
X131383400Y-85623400D01*
X131363400Y-85623400D01*
X131363400Y-86597650D01*
X131522150Y-86756400D01*
X132112709Y-86756400D01*
X132346098Y-86659727D01*
X132487336Y-86518490D01*
X132522310Y-86572841D01*
X132734510Y-86717831D01*
X132777200Y-86726476D01*
X132777200Y-87586121D01*
X132585759Y-87709310D01*
X132539231Y-87777406D01*
X132396898Y-87635073D01*
X132163509Y-87538400D01*
X131572950Y-87538400D01*
X131414200Y-87697150D01*
X131414200Y-88671400D01*
X131434200Y-88671400D01*
X131434200Y-88925400D01*
X131414200Y-88925400D01*
X131414200Y-89899650D01*
X131572950Y-90058400D01*
X132163509Y-90058400D01*
X132396898Y-89961727D01*
X132538136Y-89820490D01*
X132573110Y-89874841D01*
X132785310Y-90019831D01*
X133037200Y-90070840D01*
X134537200Y-90070840D01*
X134772517Y-90026562D01*
X134988641Y-89887490D01*
X135042681Y-89808400D01*
X137820400Y-89808400D01*
X138206910Y-89731518D01*
X138534578Y-89512578D01*
X138753518Y-89184910D01*
X138830400Y-88798400D01*
X138753518Y-88411890D01*
X138534578Y-88084222D01*
X138206910Y-87865282D01*
X137820400Y-87788400D01*
X135044044Y-87788400D01*
X135001290Y-87721959D01*
X134797200Y-87582510D01*
X134797200Y-86675990D01*
X134937841Y-86585490D01*
X135082831Y-86373290D01*
X135133840Y-86121400D01*
X135133840Y-84871400D01*
X135089562Y-84636083D01*
X134950490Y-84419959D01*
X134738290Y-84274969D01*
X134486400Y-84223960D01*
X132986400Y-84223960D01*
X132751083Y-84268238D01*
X132534959Y-84407310D01*
X132488431Y-84475406D01*
X132346098Y-84333073D01*
X132112709Y-84236400D01*
X131522150Y-84236400D01*
X131363400Y-84395150D01*
X131109400Y-84395150D01*
X130950650Y-84236400D01*
X130360091Y-84236400D01*
X130126702Y-84333073D01*
X129948073Y-84511701D01*
X129851400Y-84745090D01*
X101680240Y-84745090D01*
X101680240Y-84622000D01*
X101635962Y-84386683D01*
X101496890Y-84170559D01*
X101284690Y-84025569D01*
X101092800Y-83986710D01*
X101092800Y-83010800D01*
X101031142Y-82700826D01*
X100891497Y-82491833D01*
X100872276Y-82463066D01*
X100742117Y-82148057D01*
X100479327Y-81884808D01*
X100135799Y-81742162D01*
X99763833Y-81741838D01*
X99420057Y-81883883D01*
X99156808Y-82146673D01*
X99014162Y-82490201D01*
X99013838Y-82862167D01*
X99155883Y-83205943D01*
X99418673Y-83469192D01*
X99472800Y-83491668D01*
X99472800Y-83985850D01*
X99297483Y-84018838D01*
X99081359Y-84157910D01*
X98936369Y-84370110D01*
X98885360Y-84622000D01*
X95780240Y-84622000D01*
X95735962Y-84386683D01*
X95596890Y-84170559D01*
X95384690Y-84025569D01*
X95132800Y-83974560D01*
X93632800Y-83974560D01*
X93397483Y-84018838D01*
X93369258Y-84037000D01*
X91852332Y-84037000D01*
X91525199Y-83901162D01*
X91153233Y-83900838D01*
X90809457Y-84042883D01*
X90546208Y-84305673D01*
X90403562Y-84649201D01*
X90403238Y-85021167D01*
X90533737Y-85337000D01*
X65033800Y-85337000D01*
X64723826Y-85398658D01*
X64618571Y-85468988D01*
X64461044Y-85574243D01*
X56871118Y-93164170D01*
X56570257Y-93288483D01*
X56307008Y-93551273D01*
X56164362Y-93894801D01*
X56164038Y-94266767D01*
X56306083Y-94610543D01*
X56568873Y-94873792D01*
X56912401Y-95016438D01*
X57284367Y-95016762D01*
X57628143Y-94874717D01*
X57891392Y-94611927D01*
X58017084Y-94309228D01*
X65369313Y-86957000D01*
X74000287Y-86957000D01*
X71806318Y-89150970D01*
X71505457Y-89275283D01*
X71242208Y-89538073D01*
X71099562Y-89881601D01*
X71099238Y-90253567D01*
X71241283Y-90597343D01*
X71504073Y-90860592D01*
X71847601Y-91003238D01*
X72219567Y-91003562D01*
X72563343Y-90861517D01*
X72826592Y-90598727D01*
X72952284Y-90296028D01*
X75641313Y-87607000D01*
X88133087Y-87607000D01*
X84669644Y-91070444D01*
X84494058Y-91333226D01*
X84432400Y-91643200D01*
X84432400Y-101976159D01*
X84307562Y-102276801D01*
X84307238Y-102648767D01*
X84331588Y-102707699D01*
X83767128Y-103272160D01*
X82865200Y-103272160D01*
X82629883Y-103316438D01*
X82413759Y-103455510D01*
X82268769Y-103667710D01*
X82217760Y-103919600D01*
X82217760Y-105419600D01*
X82262038Y-105654917D01*
X82401110Y-105871041D01*
X82613310Y-106016031D01*
X82626397Y-106018681D01*
X82413759Y-106155510D01*
X82268769Y-106367710D01*
X82217760Y-106619600D01*
X82217760Y-108119600D01*
X82255186Y-108318502D01*
X81763117Y-108810570D01*
X81511830Y-108914400D01*
X80809350Y-108914400D01*
X80776362Y-108739083D01*
X80637290Y-108522959D01*
X80425090Y-108377969D01*
X80173200Y-108326960D01*
X80108200Y-108326960D01*
X80108200Y-105136512D01*
X83579956Y-101664757D01*
X83728512Y-101442427D01*
X83755542Y-101401974D01*
X83817200Y-101092000D01*
X83817200Y-92495639D01*
X84066870Y-92328815D01*
X84391726Y-91842634D01*
X84505800Y-91269145D01*
X84505800Y-90899655D01*
X84391726Y-90326166D01*
X84066870Y-89839985D01*
X83580689Y-89515129D01*
X83007200Y-89401055D01*
X82433711Y-89515129D01*
X81947530Y-89839985D01*
X81737200Y-90154766D01*
X81526870Y-89839985D01*
X81040689Y-89515129D01*
X80467200Y-89401055D01*
X79893711Y-89515129D01*
X79407530Y-89839985D01*
X79197200Y-90154766D01*
X78986870Y-89839985D01*
X78500689Y-89515129D01*
X77927200Y-89401055D01*
X77353711Y-89515129D01*
X76867530Y-89839985D01*
X76857957Y-89854313D01*
X76853962Y-89833083D01*
X76714890Y-89616959D01*
X76502690Y-89471969D01*
X76250800Y-89420960D01*
X74523600Y-89420960D01*
X74288283Y-89465238D01*
X74072159Y-89604310D01*
X73927169Y-89816510D01*
X73876160Y-90068400D01*
X73876160Y-91167084D01*
X73724244Y-91319000D01*
X70313931Y-91319000D01*
X70255090Y-91227559D01*
X70042890Y-91082569D01*
X69791000Y-91031560D01*
X68291000Y-91031560D01*
X68055683Y-91075838D01*
X67839559Y-91214910D01*
X67694569Y-91427110D01*
X67691919Y-91440197D01*
X67555090Y-91227559D01*
X67351000Y-91088110D01*
X67351000Y-89201000D01*
X67274118Y-88814490D01*
X67055178Y-88486822D01*
X67008178Y-88439822D01*
X66680510Y-88220882D01*
X66294000Y-88144000D01*
X65907490Y-88220882D01*
X65579822Y-88439822D01*
X65360882Y-88767490D01*
X65284000Y-89154000D01*
X65331000Y-89390284D01*
X65331000Y-91091721D01*
X65139559Y-91214910D01*
X64994569Y-91427110D01*
X64943560Y-91679000D01*
X64943560Y-92979000D01*
X64987838Y-93214317D01*
X65126910Y-93430441D01*
X65339110Y-93575431D01*
X65591000Y-93626440D01*
X67091000Y-93626440D01*
X67326317Y-93582162D01*
X67542441Y-93443090D01*
X67687431Y-93230890D01*
X67690081Y-93217803D01*
X67826910Y-93430441D01*
X68039110Y-93575431D01*
X68291000Y-93626440D01*
X69791000Y-93626440D01*
X70026317Y-93582162D01*
X70242441Y-93443090D01*
X70313563Y-93339000D01*
X74142600Y-93339000D01*
X74529110Y-93262118D01*
X74856778Y-93043178D01*
X75152116Y-92747840D01*
X76250800Y-92747840D01*
X76486117Y-92703562D01*
X76702241Y-92564490D01*
X76847231Y-92352290D01*
X76855600Y-92310961D01*
X76867530Y-92328815D01*
X77188200Y-92543080D01*
X77188200Y-108326960D01*
X77123200Y-108326960D01*
X77019529Y-108346467D01*
X76923200Y-108326960D01*
X76473200Y-108326960D01*
X76369529Y-108346467D01*
X76273200Y-108326960D01*
X75823200Y-108326960D01*
X75719529Y-108346467D01*
X75623200Y-108326960D01*
X75173200Y-108326960D01*
X74937883Y-108371238D01*
X74721759Y-108510310D01*
X74576769Y-108722510D01*
X74525760Y-108974400D01*
X74525760Y-109875727D01*
X66229244Y-118172244D01*
X66053658Y-118435026D01*
X65992000Y-118745000D01*
X65992000Y-119273559D01*
X65867162Y-119574201D01*
X65866838Y-119946167D01*
X66008883Y-120289943D01*
X66271673Y-120553192D01*
X66615201Y-120695838D01*
X66987167Y-120696162D01*
X67330943Y-120554117D01*
X67594192Y-120291327D01*
X67736838Y-119947799D01*
X67737162Y-119575833D01*
X67612000Y-119272917D01*
X67612000Y-119080512D01*
X68278000Y-118414512D01*
X68278000Y-119146559D01*
X68153162Y-119447201D01*
X68152838Y-119819167D01*
X68294883Y-120162943D01*
X68557673Y-120426192D01*
X68901201Y-120568838D01*
X69273167Y-120569162D01*
X69616943Y-120427117D01*
X69880192Y-120164327D01*
X70022838Y-119820799D01*
X70023162Y-119448833D01*
X69898000Y-119145917D01*
X69898000Y-118191512D01*
X70564000Y-117525512D01*
X70564000Y-118892559D01*
X70439162Y-119193201D01*
X70438838Y-119565167D01*
X70580883Y-119908943D01*
X70843673Y-120172192D01*
X71187201Y-120314838D01*
X71559167Y-120315162D01*
X71902943Y-120173117D01*
X72166192Y-119910327D01*
X72308838Y-119566799D01*
X72309162Y-119194833D01*
X72184000Y-118891917D01*
X72184000Y-116921512D01*
X72977000Y-116128512D01*
X72977000Y-118765559D01*
X72852162Y-119066201D01*
X72851838Y-119438167D01*
X72993883Y-119781943D01*
X73256673Y-120045192D01*
X73600201Y-120187838D01*
X73972167Y-120188162D01*
X74315943Y-120046117D01*
X74579192Y-119783327D01*
X74721838Y-119439799D01*
X74722162Y-119067833D01*
X74597000Y-118764917D01*
X74597000Y-116642665D01*
X74634873Y-116734098D01*
X74813501Y-116912727D01*
X75046890Y-117009400D01*
X75126950Y-117009400D01*
X75238200Y-116898150D01*
X75238200Y-118638428D01*
X75153808Y-118722673D01*
X75011162Y-119066201D01*
X75010838Y-119438167D01*
X75152883Y-119781943D01*
X75415673Y-120045192D01*
X75759201Y-120187838D01*
X76131167Y-120188162D01*
X76474943Y-120046117D01*
X76738192Y-119783327D01*
X76880838Y-119439799D01*
X76881162Y-119067833D01*
X76858200Y-119012261D01*
X76858200Y-117021840D01*
X76923200Y-117021840D01*
X77026871Y-117002333D01*
X77123200Y-117021840D01*
X77573200Y-117021840D01*
X77676871Y-117002333D01*
X77773200Y-117021840D01*
X78223200Y-117021840D01*
X78326871Y-117002333D01*
X78423200Y-117021840D01*
X78488200Y-117021840D01*
X78488200Y-118278820D01*
X78362683Y-118302438D01*
X78146559Y-118441510D01*
X78001569Y-118653710D01*
X77950560Y-118905600D01*
X77950560Y-120405600D01*
X77994838Y-120640917D01*
X78133910Y-120857041D01*
X78346110Y-121002031D01*
X78379490Y-121008791D01*
X78238301Y-121067273D01*
X78059673Y-121245902D01*
X77963000Y-121479291D01*
X77963000Y-122069850D01*
X78121750Y-122228600D01*
X79121000Y-122228600D01*
X79121000Y-122208600D01*
X79375000Y-122208600D01*
X79375000Y-122228600D01*
X80374250Y-122228600D01*
X80533000Y-122069850D01*
X80533000Y-121574550D01*
X82585800Y-121574550D01*
X82585800Y-122165109D01*
X82682473Y-122398498D01*
X82861101Y-122577127D01*
X83094490Y-122673800D01*
X83585050Y-122673800D01*
X83743800Y-122515050D01*
X83743800Y-121415800D01*
X83997800Y-121415800D01*
X83997800Y-122515050D01*
X84156550Y-122673800D01*
X84647110Y-122673800D01*
X84880499Y-122577127D01*
X85059127Y-122398498D01*
X85155800Y-122165109D01*
X85155800Y-121574550D01*
X84997050Y-121415800D01*
X83997800Y-121415800D01*
X83743800Y-121415800D01*
X82744550Y-121415800D01*
X82585800Y-121574550D01*
X80533000Y-121574550D01*
X80533000Y-121479291D01*
X80436327Y-121245902D01*
X80257699Y-121067273D01*
X80121713Y-121010946D01*
X80133317Y-121008762D01*
X80349441Y-120869690D01*
X80494431Y-120657490D01*
X80545440Y-120405600D01*
X80545440Y-118905600D01*
X80501162Y-118670283D01*
X80362090Y-118454159D01*
X80149890Y-118309169D01*
X80108200Y-118300727D01*
X80108200Y-117021840D01*
X80173200Y-117021840D01*
X80408517Y-116977562D01*
X80624641Y-116838490D01*
X80769631Y-116626290D01*
X80820640Y-116374400D01*
X80820640Y-114874400D01*
X80798060Y-114754400D01*
X85598000Y-114754400D01*
X85907974Y-114692742D01*
X86170756Y-114517156D01*
X87278713Y-113409200D01*
X87763871Y-113409200D01*
X87782528Y-113437122D01*
X88025096Y-113599200D01*
X87782528Y-113761278D01*
X87525653Y-114145720D01*
X87435450Y-114599200D01*
X87525653Y-115052680D01*
X87782528Y-115437122D01*
X88027972Y-115601122D01*
X87728676Y-115851082D01*
X87513002Y-116263054D01*
X87512597Y-116289456D01*
X87638039Y-116472200D01*
X89179400Y-116472200D01*
X89179400Y-116452200D01*
X89433400Y-116452200D01*
X89433400Y-116472200D01*
X90974761Y-116472200D01*
X91100203Y-116289456D01*
X91099798Y-116263054D01*
X90884124Y-115851082D01*
X90584828Y-115601122D01*
X90830272Y-115437122D01*
X90950098Y-115257789D01*
X91078556Y-115171956D01*
X91254142Y-114909174D01*
X91295560Y-114700952D01*
X92012757Y-113983756D01*
X92188343Y-113720973D01*
X92250000Y-113411000D01*
X92250000Y-106710920D01*
X92296400Y-106720150D01*
X92749880Y-106629947D01*
X93134322Y-106373072D01*
X93296400Y-106130504D01*
X93458478Y-106373072D01*
X93842920Y-106629947D01*
X94296400Y-106720150D01*
X94749880Y-106629947D01*
X95134322Y-106373072D01*
X95296400Y-106130504D01*
X95458478Y-106373072D01*
X95842920Y-106629947D01*
X96296400Y-106720150D01*
X96749880Y-106629947D01*
X97134322Y-106373072D01*
X97296400Y-106130504D01*
X97458478Y-106373072D01*
X97842920Y-106629947D01*
X98296400Y-106720150D01*
X98749880Y-106629947D01*
X99134322Y-106373072D01*
X99296400Y-106130504D01*
X99458478Y-106373072D01*
X99842920Y-106629947D01*
X100296400Y-106720150D01*
X100749880Y-106629947D01*
X101134322Y-106373072D01*
X101296400Y-106130504D01*
X101458478Y-106373072D01*
X101725799Y-106551689D01*
X101281244Y-106996244D01*
X101105658Y-107259026D01*
X101044000Y-107569000D01*
X101044000Y-115443000D01*
X101105658Y-115752974D01*
X101190517Y-115879974D01*
X101281244Y-116015756D01*
X102057487Y-116792000D01*
X100711000Y-116792000D01*
X100401026Y-116853658D01*
X100278772Y-116935346D01*
X100138243Y-117029244D01*
X95930488Y-121237000D01*
X91136060Y-121237000D01*
X91153840Y-121149200D01*
X91153840Y-120049200D01*
X91109562Y-119813883D01*
X90970490Y-119597759D01*
X90782301Y-119469175D01*
X90830272Y-119437122D01*
X91087147Y-119052680D01*
X91177350Y-118599200D01*
X91087147Y-118145720D01*
X90830272Y-117761278D01*
X90584828Y-117597278D01*
X90884124Y-117347318D01*
X91099798Y-116935346D01*
X91100203Y-116908944D01*
X90974761Y-116726200D01*
X89433400Y-116726200D01*
X89433400Y-116746200D01*
X89179400Y-116746200D01*
X89179400Y-116726200D01*
X87638039Y-116726200D01*
X87512597Y-116908944D01*
X87513002Y-116935346D01*
X87728676Y-117347318D01*
X88005847Y-117578800D01*
X85108079Y-117578800D01*
X84984890Y-117387359D01*
X84772690Y-117242369D01*
X84520800Y-117191360D01*
X83220800Y-117191360D01*
X82985483Y-117235638D01*
X82769359Y-117374710D01*
X82624369Y-117586910D01*
X82573360Y-117838800D01*
X82573360Y-119338800D01*
X82617638Y-119574117D01*
X82756710Y-119790241D01*
X82968910Y-119935231D01*
X83002290Y-119941991D01*
X82861101Y-120000473D01*
X82682473Y-120179102D01*
X82585800Y-120412491D01*
X82585800Y-121003050D01*
X82744550Y-121161800D01*
X83743800Y-121161800D01*
X83743800Y-121141800D01*
X83997800Y-121141800D01*
X83997800Y-121161800D01*
X84997050Y-121161800D01*
X85155800Y-121003050D01*
X85155800Y-120412491D01*
X85059127Y-120179102D01*
X84880499Y-120000473D01*
X84744513Y-119944146D01*
X84756117Y-119941962D01*
X84972241Y-119802890D01*
X85111690Y-119598800D01*
X87645605Y-119598800D01*
X87509969Y-119797310D01*
X87458960Y-120049200D01*
X87458960Y-121149200D01*
X87483020Y-121277067D01*
X85364088Y-123396000D01*
X80465031Y-123396000D01*
X80533000Y-123231909D01*
X80533000Y-122641350D01*
X80374250Y-122482600D01*
X79375000Y-122482600D01*
X79375000Y-122502600D01*
X79121000Y-122502600D01*
X79121000Y-122482600D01*
X78121750Y-122482600D01*
X77963000Y-122641350D01*
X77963000Y-123231909D01*
X78030969Y-123396000D01*
X74431690Y-123396000D01*
X74543441Y-123324090D01*
X74688431Y-123111890D01*
X74739440Y-122860000D01*
X74739440Y-121560000D01*
X74695162Y-121324683D01*
X74556090Y-121108559D01*
X74343890Y-120963569D01*
X74092000Y-120912560D01*
X72542000Y-120912560D01*
X72306683Y-120956838D01*
X72090559Y-121095910D01*
X71945569Y-121308110D01*
X71926961Y-121400000D01*
X66759334Y-121400000D01*
X66745162Y-121324683D01*
X66606090Y-121108559D01*
X66393890Y-120963569D01*
X66142000Y-120912560D01*
X64592000Y-120912560D01*
X64356683Y-120956838D01*
X64140559Y-121095910D01*
X63995569Y-121308110D01*
X63976961Y-121400000D01*
X63787334Y-121400000D01*
X63773162Y-121324683D01*
X63634090Y-121108559D01*
X63421890Y-120963569D01*
X63170000Y-120912560D01*
X61620000Y-120912560D01*
X61384683Y-120956838D01*
X61168559Y-121095910D01*
X61023569Y-121308110D01*
X61004961Y-121400000D01*
X55837334Y-121400000D01*
X55823162Y-121324683D01*
X55684090Y-121108559D01*
X55471890Y-120963569D01*
X55220000Y-120912560D01*
X53670000Y-120912560D01*
X53434683Y-120956838D01*
X53218559Y-121095910D01*
X53073569Y-121308110D01*
X53022560Y-121560000D01*
X47879000Y-121560000D01*
X47879000Y-78441300D01*
X51476116Y-78441300D01*
X51562513Y-78875646D01*
X51808550Y-79243866D01*
X51903740Y-79307470D01*
X51903740Y-84575130D01*
X51808550Y-84638734D01*
X51562513Y-85006954D01*
X51476116Y-85441300D01*
X51562513Y-85875646D01*
X51808550Y-86243866D01*
X52176770Y-86489903D01*
X52611116Y-86576300D01*
X53216364Y-86576300D01*
X53650710Y-86489903D01*
X53708483Y-86451300D01*
X54613740Y-86451300D01*
X55000250Y-86374418D01*
X55327918Y-86155478D01*
X55793085Y-85690311D01*
X56038519Y-85641491D01*
X56398629Y-85400874D01*
X56639246Y-85040764D01*
X56723740Y-84615985D01*
X56723740Y-84266615D01*
X56680911Y-84051300D01*
X58795500Y-84051300D01*
X59105474Y-83989642D01*
X59368256Y-83814056D01*
X59620382Y-83561930D01*
X62122050Y-83561930D01*
X62178919Y-83551229D01*
X62218402Y-83551649D01*
X62239157Y-83543142D01*
X62346838Y-83543142D01*
X62188090Y-83701890D01*
X62188090Y-84042829D01*
X62284763Y-84276218D01*
X62463391Y-84454847D01*
X62696780Y-84551520D01*
X63788290Y-84551520D01*
X63947040Y-84392770D01*
X63947040Y-83543140D01*
X64201040Y-83543140D01*
X64201040Y-84392770D01*
X64359790Y-84551520D01*
X65451300Y-84551520D01*
X65684689Y-84454847D01*
X65863317Y-84276218D01*
X65959990Y-84042829D01*
X65959990Y-83701890D01*
X65801240Y-83543140D01*
X64201040Y-83543140D01*
X63947040Y-83543140D01*
X63927040Y-83543140D01*
X63927040Y-83289140D01*
X63947040Y-83289140D01*
X63947040Y-83269140D01*
X64201040Y-83269140D01*
X64201040Y-83289140D01*
X65801240Y-83289140D01*
X65959990Y-83130390D01*
X65959990Y-82925000D01*
X66657644Y-82925000D01*
X66672560Y-82939916D01*
X66672560Y-83534000D01*
X66716838Y-83769317D01*
X66855910Y-83985441D01*
X67068110Y-84130431D01*
X67320000Y-84181440D01*
X68570000Y-84181440D01*
X68805317Y-84137162D01*
X69021441Y-83998090D01*
X69160890Y-83794000D01*
X71299585Y-83794000D01*
X71329638Y-83953717D01*
X71468710Y-84169841D01*
X71680910Y-84314831D01*
X71932800Y-84365840D01*
X73964800Y-84365840D01*
X74200117Y-84321562D01*
X74416241Y-84182490D01*
X74561231Y-83970290D01*
X74612240Y-83718400D01*
X74612240Y-81686400D01*
X74567962Y-81451083D01*
X74428890Y-81234959D01*
X74279963Y-81133202D01*
X74506470Y-80794210D01*
X74632145Y-80162400D01*
X74506470Y-79530590D01*
X74148578Y-78994967D01*
X73612955Y-78637075D01*
X72981145Y-78511400D01*
X72916455Y-78511400D01*
X72284645Y-78637075D01*
X71749022Y-78994967D01*
X71562578Y-79274000D01*
X69157279Y-79274000D01*
X69034090Y-79082559D01*
X68821890Y-78937569D01*
X68570000Y-78886560D01*
X67320000Y-78886560D01*
X67084683Y-78930838D01*
X66868559Y-79069910D01*
X66723569Y-79282110D01*
X66698914Y-79403860D01*
X65703932Y-79403860D01*
X65576880Y-79317049D01*
X65324990Y-79266040D01*
X64071732Y-79266040D01*
X63988936Y-79183244D01*
X63942775Y-79152400D01*
X63726154Y-79007658D01*
X63416180Y-78946000D01*
X58420000Y-78946000D01*
X58110026Y-79007658D01*
X58016860Y-79069910D01*
X57847243Y-79183244D01*
X57199188Y-79831300D01*
X56680911Y-79831300D01*
X56723740Y-79615985D01*
X56723740Y-79266615D01*
X56639246Y-78841836D01*
X56398629Y-78481726D01*
X56038519Y-78241109D01*
X55793085Y-78192289D01*
X55327918Y-77727122D01*
X55000250Y-77508182D01*
X54613740Y-77431300D01*
X53708483Y-77431300D01*
X53650710Y-77392697D01*
X53216364Y-77306300D01*
X52611116Y-77306300D01*
X52176770Y-77392697D01*
X51808550Y-77638734D01*
X51562513Y-78006954D01*
X51476116Y-78441300D01*
X47879000Y-78441300D01*
X47879000Y-74295000D01*
X147193000Y-74295000D01*
X147193000Y-131953000D01*
G36*
X92985360Y-88972000D02*
X93004867Y-89075671D01*
X92985360Y-89172000D01*
X92985360Y-89622000D01*
X93029638Y-89857317D01*
X93168710Y-90073441D01*
X93380910Y-90218431D01*
X93572800Y-90257290D01*
X93572800Y-90318800D01*
X93634458Y-90628774D01*
X93789973Y-90861517D01*
X93810044Y-90891556D01*
X95348571Y-92430084D01*
X95472883Y-92730943D01*
X95543330Y-92801513D01*
X95109964Y-93010268D01*
X94953093Y-93185845D01*
X94938762Y-93109683D01*
X94799690Y-92893559D01*
X94587490Y-92748569D01*
X94335600Y-92697560D01*
X92608400Y-92697560D01*
X92373083Y-92741838D01*
X92156959Y-92880910D01*
X92011969Y-93093110D01*
X91960960Y-93345000D01*
X91960960Y-95377000D01*
X92005238Y-95612317D01*
X92144310Y-95828441D01*
X92356510Y-95973431D01*
X92608400Y-96024440D01*
X94335600Y-96024440D01*
X94570917Y-95980162D01*
X94787041Y-95841090D01*
X94932031Y-95628890D01*
X94951232Y-95534073D01*
X95109964Y-95711732D01*
X95637209Y-95965709D01*
X95652974Y-95968358D01*
X95885000Y-95847217D01*
X95885000Y-94488000D01*
X95865000Y-94488000D01*
X95865000Y-94234000D01*
X95885000Y-94234000D01*
X95885000Y-94214000D01*
X96139000Y-94214000D01*
X96139000Y-94234000D01*
X96159000Y-94234000D01*
X96159000Y-94488000D01*
X96139000Y-94488000D01*
X96139000Y-95847217D01*
X96371026Y-95968358D01*
X96386791Y-95965709D01*
X96914036Y-95711732D01*
X97285539Y-95295931D01*
X97492330Y-95605415D01*
X97978511Y-95930271D01*
X98552000Y-96044345D01*
X99125489Y-95930271D01*
X99611670Y-95605415D01*
X99822000Y-95290634D01*
X100032330Y-95605415D01*
X100282000Y-95772239D01*
X100282000Y-100076000D01*
X100343658Y-100385974D01*
X100519244Y-100648756D01*
X103203000Y-103332513D01*
X103203000Y-103428112D01*
X103134322Y-103325328D01*
X102749880Y-103068453D01*
X102296400Y-102978250D01*
X101842920Y-103068453D01*
X101458478Y-103325328D01*
X101296400Y-103567896D01*
X101134322Y-103325328D01*
X100749880Y-103068453D01*
X100296400Y-102978250D01*
X99842920Y-103068453D01*
X99458478Y-103325328D01*
X99296400Y-103567896D01*
X99134322Y-103325328D01*
X99056400Y-103273262D01*
X99056400Y-101471400D01*
X98998548Y-101180561D01*
X98833801Y-100933999D01*
X97836122Y-99936320D01*
X97836162Y-99890833D01*
X97694117Y-99547057D01*
X97431327Y-99283808D01*
X97087799Y-99141162D01*
X96715833Y-99140838D01*
X96372057Y-99282883D01*
X96108808Y-99545673D01*
X95966162Y-99889201D01*
X95965838Y-100261167D01*
X96107883Y-100604943D01*
X96370673Y-100868192D01*
X96714201Y-101010838D01*
X96761077Y-101010879D01*
X97536400Y-101786202D01*
X97536400Y-103273262D01*
X97458478Y-103325328D01*
X97296400Y-103567896D01*
X97134322Y-103325328D01*
X96749880Y-103068453D01*
X96296400Y-102978250D01*
X95842920Y-103068453D01*
X95458478Y-103325328D01*
X95296400Y-103567896D01*
X95134322Y-103325328D01*
X94749880Y-103068453D01*
X94296400Y-102978250D01*
X93842920Y-103068453D01*
X93458478Y-103325328D01*
X93296400Y-103567896D01*
X93134322Y-103325328D01*
X92749880Y-103068453D01*
X92296400Y-102978250D01*
X91842920Y-103068453D01*
X91488000Y-103305602D01*
X91488000Y-93959441D01*
X91612838Y-93658799D01*
X91613162Y-93286833D01*
X91471117Y-92943057D01*
X91208327Y-92679808D01*
X90864799Y-92537162D01*
X90492833Y-92536838D01*
X90149057Y-92678883D01*
X89885808Y-92941673D01*
X89743162Y-93285201D01*
X89742838Y-93657167D01*
X89868000Y-93960083D01*
X89868000Y-105410000D01*
X89868835Y-105414200D01*
X89433400Y-105414200D01*
X89433400Y-106472200D01*
X89453400Y-106472200D01*
X89453400Y-106726200D01*
X89433400Y-106726200D01*
X89433400Y-106746200D01*
X89179400Y-106746200D01*
X89179400Y-106726200D01*
X87638039Y-106726200D01*
X87512597Y-106908944D01*
X87513002Y-106935346D01*
X87728676Y-107347318D01*
X88027972Y-107597278D01*
X87782528Y-107761278D01*
X87735954Y-107830981D01*
X87636027Y-107850857D01*
X87373244Y-108026443D01*
X83890888Y-111508800D01*
X78994000Y-111508800D01*
X78684026Y-111570458D01*
X78573751Y-111644142D01*
X78421243Y-111746044D01*
X76125444Y-114041844D01*
X76001753Y-114226960D01*
X75823200Y-114226960D01*
X75754655Y-114239858D01*
X77920956Y-112073557D01*
X78046931Y-111885022D01*
X78096542Y-111810774D01*
X78158200Y-111500800D01*
X78158200Y-111121840D01*
X78223200Y-111121840D01*
X78326871Y-111102333D01*
X78423200Y-111121840D01*
X78873200Y-111121840D01*
X78976871Y-111102333D01*
X79073200Y-111121840D01*
X79523200Y-111121840D01*
X79626871Y-111102333D01*
X79723200Y-111121840D01*
X80173200Y-111121840D01*
X80408517Y-111077562D01*
X80624641Y-110938490D01*
X80769631Y-110726290D01*
X80808490Y-110534400D01*
X81495089Y-110534400D01*
X81804401Y-110662838D01*
X82176367Y-110663162D01*
X82520143Y-110521117D01*
X82783392Y-110258327D01*
X82909084Y-109955628D01*
X84087956Y-108776757D01*
X84094449Y-108767040D01*
X84165200Y-108767040D01*
X84400517Y-108722762D01*
X84616641Y-108583690D01*
X84761631Y-108371490D01*
X84812640Y-108119600D01*
X84812640Y-106619600D01*
X84768362Y-106384283D01*
X84707343Y-106289456D01*
X87512597Y-106289456D01*
X87638039Y-106472200D01*
X89179400Y-106472200D01*
X89179400Y-105414200D01*
X88529400Y-105414200D01*
X88085587Y-105553004D01*
X87728676Y-105851082D01*
X87513002Y-106263054D01*
X87512597Y-106289456D01*
X84707343Y-106289456D01*
X84629290Y-106168159D01*
X84417090Y-106023169D01*
X84404003Y-106020519D01*
X84616641Y-105883690D01*
X84761631Y-105671490D01*
X84812640Y-105419600D01*
X84812640Y-104517672D01*
X85499200Y-103831113D01*
X85499200Y-104820959D01*
X85374362Y-105121601D01*
X85374038Y-105493567D01*
X85516083Y-105837343D01*
X85778873Y-106100592D01*
X86122401Y-106243238D01*
X86494367Y-106243562D01*
X86838143Y-106101517D01*
X87101392Y-105838727D01*
X87244038Y-105495199D01*
X87244362Y-105123233D01*
X87119200Y-104820317D01*
X87119200Y-92842312D01*
X91054513Y-88907000D01*
X92985360Y-88907000D01*
X92985360Y-88972000D01*
X92985360Y-88972000D01*
G37*
X92985360Y-88972000D02*
X93004867Y-89075671D01*
X92985360Y-89172000D01*
X92985360Y-89622000D01*
X93029638Y-89857317D01*
X93168710Y-90073441D01*
X93380910Y-90218431D01*
X93572800Y-90257290D01*
X93572800Y-90318800D01*
X93634458Y-90628774D01*
X93789973Y-90861517D01*
X93810044Y-90891556D01*
X95348571Y-92430084D01*
X95472883Y-92730943D01*
X95543330Y-92801513D01*
X95109964Y-93010268D01*
X94953093Y-93185845D01*
X94938762Y-93109683D01*
X94799690Y-92893559D01*
X94587490Y-92748569D01*
X94335600Y-92697560D01*
X92608400Y-92697560D01*
X92373083Y-92741838D01*
X92156959Y-92880910D01*
X92011969Y-93093110D01*
X91960960Y-93345000D01*
X91960960Y-95377000D01*
X92005238Y-95612317D01*
X92144310Y-95828441D01*
X92356510Y-95973431D01*
X92608400Y-96024440D01*
X94335600Y-96024440D01*
X94570917Y-95980162D01*
X94787041Y-95841090D01*
X94932031Y-95628890D01*
X94951232Y-95534073D01*
X95109964Y-95711732D01*
X95637209Y-95965709D01*
X95652974Y-95968358D01*
X95885000Y-95847217D01*
X95885000Y-94488000D01*
X95865000Y-94488000D01*
X95865000Y-94234000D01*
X95885000Y-94234000D01*
X95885000Y-94214000D01*
X96139000Y-94214000D01*
X96139000Y-94234000D01*
X96159000Y-94234000D01*
X96159000Y-94488000D01*
X96139000Y-94488000D01*
X96139000Y-95847217D01*
X96371026Y-95968358D01*
X96386791Y-95965709D01*
X96914036Y-95711732D01*
X97285539Y-95295931D01*
X97492330Y-95605415D01*
X97978511Y-95930271D01*
X98552000Y-96044345D01*
X99125489Y-95930271D01*
X99611670Y-95605415D01*
X99822000Y-95290634D01*
X100032330Y-95605415D01*
X100282000Y-95772239D01*
X100282000Y-100076000D01*
X100343658Y-100385974D01*
X100519244Y-100648756D01*
X103203000Y-103332513D01*
X103203000Y-103428112D01*
X103134322Y-103325328D01*
X102749880Y-103068453D01*
X102296400Y-102978250D01*
X101842920Y-103068453D01*
X101458478Y-103325328D01*
X101296400Y-103567896D01*
X101134322Y-103325328D01*
X100749880Y-103068453D01*
X100296400Y-102978250D01*
X99842920Y-103068453D01*
X99458478Y-103325328D01*
X99296400Y-103567896D01*
X99134322Y-103325328D01*
X99056400Y-103273262D01*
X99056400Y-101471400D01*
X98998548Y-101180561D01*
X98833801Y-100933999D01*
X97836122Y-99936320D01*
X97836162Y-99890833D01*
X97694117Y-99547057D01*
X97431327Y-99283808D01*
X97087799Y-99141162D01*
X96715833Y-99140838D01*
X96372057Y-99282883D01*
X96108808Y-99545673D01*
X95966162Y-99889201D01*
X95965838Y-100261167D01*
X96107883Y-100604943D01*
X96370673Y-100868192D01*
X96714201Y-101010838D01*
X96761077Y-101010879D01*
X97536400Y-101786202D01*
X97536400Y-103273262D01*
X97458478Y-103325328D01*
X97296400Y-103567896D01*
X97134322Y-103325328D01*
X96749880Y-103068453D01*
X96296400Y-102978250D01*
X95842920Y-103068453D01*
X95458478Y-103325328D01*
X95296400Y-103567896D01*
X95134322Y-103325328D01*
X94749880Y-103068453D01*
X94296400Y-102978250D01*
X93842920Y-103068453D01*
X93458478Y-103325328D01*
X93296400Y-103567896D01*
X93134322Y-103325328D01*
X92749880Y-103068453D01*
X92296400Y-102978250D01*
X91842920Y-103068453D01*
X91488000Y-103305602D01*
X91488000Y-93959441D01*
X91612838Y-93658799D01*
X91613162Y-93286833D01*
X91471117Y-92943057D01*
X91208327Y-92679808D01*
X90864799Y-92537162D01*
X90492833Y-92536838D01*
X90149057Y-92678883D01*
X89885808Y-92941673D01*
X89743162Y-93285201D01*
X89742838Y-93657167D01*
X89868000Y-93960083D01*
X89868000Y-105410000D01*
X89868835Y-105414200D01*
X89433400Y-105414200D01*
X89433400Y-106472200D01*
X89453400Y-106472200D01*
X89453400Y-106726200D01*
X89433400Y-106726200D01*
X89433400Y-106746200D01*
X89179400Y-106746200D01*
X89179400Y-106726200D01*
X87638039Y-106726200D01*
X87512597Y-106908944D01*
X87513002Y-106935346D01*
X87728676Y-107347318D01*
X88027972Y-107597278D01*
X87782528Y-107761278D01*
X87735954Y-107830981D01*
X87636027Y-107850857D01*
X87373244Y-108026443D01*
X83890888Y-111508800D01*
X78994000Y-111508800D01*
X78684026Y-111570458D01*
X78573751Y-111644142D01*
X78421243Y-111746044D01*
X76125444Y-114041844D01*
X76001753Y-114226960D01*
X75823200Y-114226960D01*
X75754655Y-114239858D01*
X77920956Y-112073557D01*
X78046931Y-111885022D01*
X78096542Y-111810774D01*
X78158200Y-111500800D01*
X78158200Y-111121840D01*
X78223200Y-111121840D01*
X78326871Y-111102333D01*
X78423200Y-111121840D01*
X78873200Y-111121840D01*
X78976871Y-111102333D01*
X79073200Y-111121840D01*
X79523200Y-111121840D01*
X79626871Y-111102333D01*
X79723200Y-111121840D01*
X80173200Y-111121840D01*
X80408517Y-111077562D01*
X80624641Y-110938490D01*
X80769631Y-110726290D01*
X80808490Y-110534400D01*
X81495089Y-110534400D01*
X81804401Y-110662838D01*
X82176367Y-110663162D01*
X82520143Y-110521117D01*
X82783392Y-110258327D01*
X82909084Y-109955628D01*
X84087956Y-108776757D01*
X84094449Y-108767040D01*
X84165200Y-108767040D01*
X84400517Y-108722762D01*
X84616641Y-108583690D01*
X84761631Y-108371490D01*
X84812640Y-108119600D01*
X84812640Y-106619600D01*
X84768362Y-106384283D01*
X84707343Y-106289456D01*
X87512597Y-106289456D01*
X87638039Y-106472200D01*
X89179400Y-106472200D01*
X89179400Y-105414200D01*
X88529400Y-105414200D01*
X88085587Y-105553004D01*
X87728676Y-105851082D01*
X87513002Y-106263054D01*
X87512597Y-106289456D01*
X84707343Y-106289456D01*
X84629290Y-106168159D01*
X84417090Y-106023169D01*
X84404003Y-106020519D01*
X84616641Y-105883690D01*
X84761631Y-105671490D01*
X84812640Y-105419600D01*
X84812640Y-104517672D01*
X85499200Y-103831113D01*
X85499200Y-104820959D01*
X85374362Y-105121601D01*
X85374038Y-105493567D01*
X85516083Y-105837343D01*
X85778873Y-106100592D01*
X86122401Y-106243238D01*
X86494367Y-106243562D01*
X86838143Y-106101517D01*
X87101392Y-105838727D01*
X87244038Y-105495199D01*
X87244362Y-105123233D01*
X87119200Y-104820317D01*
X87119200Y-92842312D01*
X91054513Y-88907000D01*
X92985360Y-88907000D01*
X92985360Y-88972000D01*
G36*
X97852244Y-91885756D02*
X98115026Y-92061342D01*
X98425000Y-92123000D01*
X104947488Y-92123000D01*
X111458000Y-98633513D01*
X111458000Y-105261850D01*
X111438362Y-105157483D01*
X111299290Y-104941359D01*
X111195200Y-104870237D01*
X111195200Y-102480703D01*
X111219918Y-102443710D01*
X111296800Y-102057200D01*
X111219918Y-101670690D01*
X111000978Y-101343022D01*
X110673310Y-101124082D01*
X110286800Y-101047200D01*
X109900290Y-101124082D01*
X109572622Y-101343022D01*
X109471022Y-101444622D01*
X109252082Y-101772290D01*
X109175200Y-102158800D01*
X109175200Y-104869869D01*
X109083759Y-104928710D01*
X108938769Y-105140910D01*
X108887760Y-105392800D01*
X108887760Y-105589200D01*
X106572738Y-105589200D01*
X106445830Y-105504403D01*
X105992350Y-105414200D01*
X104822165Y-105414200D01*
X104823000Y-105410000D01*
X104823000Y-102997000D01*
X104776136Y-102761400D01*
X104761343Y-102687027D01*
X104585757Y-102424244D01*
X101902000Y-99740488D01*
X101902000Y-95772239D01*
X102151670Y-95605415D01*
X102476526Y-95119234D01*
X102590600Y-94545745D01*
X102590600Y-94176255D01*
X102476526Y-93602766D01*
X102151670Y-93116585D01*
X101665489Y-92791729D01*
X101092000Y-92677655D01*
X100518511Y-92791729D01*
X100032330Y-93116585D01*
X99822000Y-93431366D01*
X99611670Y-93116585D01*
X99125489Y-92791729D01*
X98552000Y-92677655D01*
X97978511Y-92791729D01*
X97492330Y-93116585D01*
X97285539Y-93426069D01*
X96914036Y-93010268D01*
X96823469Y-92966641D01*
X97058192Y-92732327D01*
X97200838Y-92388799D01*
X97201162Y-92016833D01*
X97059117Y-91673057D01*
X96796327Y-91409808D01*
X96493629Y-91284116D01*
X95408615Y-90199102D01*
X95584241Y-90086090D01*
X95729231Y-89873890D01*
X95747948Y-89781460D01*
X97852244Y-91885756D01*
X97852244Y-91885756D01*
G37*
X97852244Y-91885756D02*
X98115026Y-92061342D01*
X98425000Y-92123000D01*
X104947488Y-92123000D01*
X111458000Y-98633513D01*
X111458000Y-105261850D01*
X111438362Y-105157483D01*
X111299290Y-104941359D01*
X111195200Y-104870237D01*
X111195200Y-102480703D01*
X111219918Y-102443710D01*
X111296800Y-102057200D01*
X111219918Y-101670690D01*
X111000978Y-101343022D01*
X110673310Y-101124082D01*
X110286800Y-101047200D01*
X109900290Y-101124082D01*
X109572622Y-101343022D01*
X109471022Y-101444622D01*
X109252082Y-101772290D01*
X109175200Y-102158800D01*
X109175200Y-104869869D01*
X109083759Y-104928710D01*
X108938769Y-105140910D01*
X108887760Y-105392800D01*
X108887760Y-105589200D01*
X106572738Y-105589200D01*
X106445830Y-105504403D01*
X105992350Y-105414200D01*
X104822165Y-105414200D01*
X104823000Y-105410000D01*
X104823000Y-102997000D01*
X104776136Y-102761400D01*
X104761343Y-102687027D01*
X104585757Y-102424244D01*
X101902000Y-99740488D01*
X101902000Y-95772239D01*
X102151670Y-95605415D01*
X102476526Y-95119234D01*
X102590600Y-94545745D01*
X102590600Y-94176255D01*
X102476526Y-93602766D01*
X102151670Y-93116585D01*
X101665489Y-92791729D01*
X101092000Y-92677655D01*
X100518511Y-92791729D01*
X100032330Y-93116585D01*
X99822000Y-93431366D01*
X99611670Y-93116585D01*
X99125489Y-92791729D01*
X98552000Y-92677655D01*
X97978511Y-92791729D01*
X97492330Y-93116585D01*
X97285539Y-93426069D01*
X96914036Y-93010268D01*
X96823469Y-92966641D01*
X97058192Y-92732327D01*
X97200838Y-92388799D01*
X97201162Y-92016833D01*
X97059117Y-91673057D01*
X96796327Y-91409808D01*
X96493629Y-91284116D01*
X95408615Y-90199102D01*
X95584241Y-90086090D01*
X95729231Y-89873890D01*
X95747948Y-89781460D01*
X97852244Y-91885756D01*
M02*
