M48
;DRILL file {KiCad 4.0.2+e4-6225~38~ubuntu15.10.1-stable} date Sun 11 Sep 2016 22:59:28 SAST
;FORMAT={-:-/ absolute / inch / decimal}
FMAT,2
INCH,TZ
T1C0.016
T2C0.020
T3C0.022
T4C0.040
%
G90
G05
M72
T1
X2.225Y-4.92
X2.248Y-3.704
X2.41Y-3.8
X2.61Y-3.51
X2.63Y-4.715
X2.672Y-4.196
X2.72Y-4.71
X2.81Y-4.7
X2.836Y-3.546
X2.905Y-4.695
X2.935Y-4.545
X2.99Y-4.695
X3.228Y-4.32
X3.356Y-4.034
X3.398Y-4.146
X3.4Y-4.775
X3.415Y-5.025
X3.515Y-3.815
X3.57Y-3.68
X3.596Y-3.34
X3.79Y-3.63
X3.795Y-4.69
X3.815Y-3.94
X3.865Y-3.835
X3.935Y-3.255
X4.125Y-3.835
X4.255Y-4.35
X4.342Y-4.018
X4.485Y-4.
X4.61Y-3.64
X4.734Y-3.648
X5.008Y-3.558
X5.164Y-4.21
X5.426Y-3.496
X5.514Y-3.96
X5.606Y-3.334
T4
X2.872Y-3.156
X2.872Y-3.256
X2.968Y-3.586
X3.068Y-3.586
X3.168Y-3.586
X3.268Y-3.586
X3.68Y-3.715
X3.78Y-3.715
X3.88Y-3.715
X3.98Y-3.715
X4.372Y-4.66
X4.372Y-4.76
X5.12Y-4.92
X5.22Y-4.92
X5.32Y-4.92
T2
X2.0704Y-3.0882G85X2.096Y-3.0882
G05
X2.0704Y-3.3638G85X2.096Y-3.3638
G05
T3
X2.1895Y-3.1217G85X2.1895Y-3.1335
G05
X2.1895Y-3.3186G85X2.1895Y-3.3304
G05
T0
M30
