%FSLAX45Y45*%
G04 Gerber Fmt 4.5, Leading zero omitted, Abs format (unit mm)*
G04 Created by KiCad (PCBNEW 4.0.2+e4-6225~38~ubuntu15.10.1-stable) date Tue 11 Oct 2016 16:58:53 SAST*
%MOMM*%
G01*
G04 APERTURE LIST*
%ADD10C,0.127000*%
%ADD11C,0.200000*%
%ADD12C,0.300000*%
G04 APERTURE END LIST*
D10*
D11*
X5689920Y-9388160D02*
X5729920Y-9428160D01*
X5729920Y-9388160D02*
X5689920Y-9428160D01*
X5813110Y-11874820D02*
X5853110Y-11914820D01*
X5853110Y-11874820D02*
X5813110Y-11914820D01*
X6232464Y-9764080D02*
X6272464Y-9804080D01*
X6272464Y-9764080D02*
X6232464Y-9804080D01*
X6609400Y-8895400D02*
X6649400Y-8935400D01*
X6649400Y-8895400D02*
X6609400Y-8935400D01*
X6660200Y-11956100D02*
X6700200Y-11996100D01*
X6700200Y-11956100D02*
X6660200Y-11996100D01*
X6888800Y-11943400D02*
X6928800Y-11983400D01*
X6928800Y-11943400D02*
X6888800Y-11983400D01*
X7117400Y-11918000D02*
X7157400Y-11958000D01*
X7157400Y-11918000D02*
X7117400Y-11958000D01*
X7183440Y-8986840D02*
X7223440Y-9026840D01*
X7223440Y-8986840D02*
X7183440Y-9026840D01*
X7358700Y-11905300D02*
X7398700Y-11945300D01*
X7398700Y-11905300D02*
X7358700Y-11945300D01*
X7434900Y-11524300D02*
X7474900Y-11564300D01*
X7474900Y-11524300D02*
X7434900Y-11564300D01*
X7574600Y-11905300D02*
X7614600Y-11945300D01*
X7614600Y-11905300D02*
X7574600Y-11945300D01*
X7930000Y-12970000D02*
X7970000Y-13010000D01*
X7970000Y-12970000D02*
X7930000Y-13010000D01*
X8179120Y-10952800D02*
X8219120Y-10992800D01*
X8219120Y-10952800D02*
X8179120Y-10992800D01*
X8504240Y-10226360D02*
X8544240Y-10266360D01*
X8544240Y-10226360D02*
X8504240Y-10266360D01*
X8610920Y-10510840D02*
X8650920Y-10550840D01*
X8650920Y-10510840D02*
X8610920Y-10550840D01*
X8669340Y-12436160D02*
X8709340Y-12476160D01*
X8709340Y-12436160D02*
X8669340Y-12476160D01*
X9047800Y-9327200D02*
X9087800Y-9367200D01*
X9087800Y-9327200D02*
X9047800Y-9367200D01*
X9113840Y-8463600D02*
X9153840Y-8503600D01*
X9153840Y-8463600D02*
X9113840Y-8503600D01*
X9638350Y-9149400D02*
X9678350Y-9189400D01*
X9678350Y-9149400D02*
X9638350Y-9189400D01*
X9668068Y-9983536D02*
X9708068Y-10023536D01*
X9708068Y-9983536D02*
X9668068Y-10023536D01*
X9974900Y-8247700D02*
X10014900Y-8287700D01*
X10014900Y-8247700D02*
X9974900Y-8287700D01*
X10580436Y-9988108D02*
X10620436Y-10028108D01*
X10620436Y-9988108D02*
X10580436Y-10028108D01*
X10741980Y-11239920D02*
X10781980Y-11279920D01*
X10781980Y-11239920D02*
X10741980Y-11279920D01*
X10787700Y-11029000D02*
X10827700Y-11069000D01*
X10827700Y-11029000D02*
X10787700Y-11069000D01*
X11365550Y-10127300D02*
X11405550Y-10167300D01*
X11405550Y-10127300D02*
X11365550Y-10167300D01*
X11552240Y-11244900D02*
X11592240Y-11284900D01*
X11592240Y-11244900D02*
X11552240Y-11284900D01*
X11689400Y-9225600D02*
X11729400Y-9265600D01*
X11729400Y-9225600D02*
X11689400Y-9265600D01*
X12004360Y-9245920D02*
X12044360Y-9285920D01*
X12044360Y-9245920D02*
X12004360Y-9285920D01*
X12255000Y-10312180D02*
X12295000Y-10352180D01*
X12295000Y-10312180D02*
X12255000Y-10352180D01*
X12555000Y-9825000D02*
X12595000Y-9865000D01*
X12595000Y-9825000D02*
X12555000Y-9865000D01*
X12605000Y-10312180D02*
X12645000Y-10352180D01*
X12645000Y-10312180D02*
X12605000Y-10352180D01*
X12700320Y-9017320D02*
X12740320Y-9057320D01*
X12740320Y-9017320D02*
X12700320Y-9057320D01*
X12815000Y-12555000D02*
X12855000Y-12595000D01*
X12855000Y-12555000D02*
X12815000Y-12595000D01*
X12905000Y-12415000D02*
X12945000Y-12455000D01*
X12945000Y-12415000D02*
X12905000Y-12455000D01*
X13280000Y-12500000D02*
X13320000Y-12540000D01*
X13320000Y-12500000D02*
X13280000Y-12540000D01*
X13762040Y-8859840D02*
X13802040Y-8899840D01*
X13802040Y-8859840D02*
X13762040Y-8899840D01*
X13840000Y-12220000D02*
X13880000Y-12260000D01*
X13880000Y-12220000D02*
X13840000Y-12260000D01*
X13965240Y-10043480D02*
X14005240Y-10083480D01*
X14005240Y-10043480D02*
X13965240Y-10083480D01*
X14219240Y-8448360D02*
X14259240Y-8488360D01*
X14259240Y-8448360D02*
X14219240Y-8488360D01*
X12710090Y-13058746D02*
G75*
G03X12710090Y-13058746I-25000J0D01*
G01*
X12700090Y-13091246D02*
X12700090Y-13026246D01*
X12670090Y-13091246D02*
X12670090Y-13026246D01*
X12700090Y-13026246D02*
G75*
G03X12670090Y-13026246I-15000J0D01*
G01*
X12670090Y-13091246D02*
G75*
G03X12700090Y-13091246I15000J0D01*
G01*
X13410090Y-13058746D02*
G75*
G03X13410090Y-13058746I-25000J0D01*
G01*
X13400090Y-13091246D02*
X13400090Y-13026246D01*
X13370090Y-13091246D02*
X13370090Y-13026246D01*
X13400090Y-13026246D02*
G75*
G03X13370090Y-13026246I-15000J0D01*
G01*
X13370090Y-13091246D02*
G75*
G03X13400090Y-13091246I15000J0D01*
G01*
X12785090Y-12761246D02*
X12785090Y-12816246D01*
X12757590Y-12788746D02*
X12812590Y-12788746D01*
X12770090Y-12806246D02*
X12800090Y-12806246D01*
X12770090Y-12771246D02*
X12800090Y-12771246D01*
X12800090Y-12806246D02*
G75*
G03X12800090Y-12771246I0J17500D01*
G01*
X12770090Y-12771246D02*
G75*
G03X12770090Y-12806246I0J-17500D01*
G01*
X13285090Y-12761246D02*
X13285090Y-12816246D01*
X13257590Y-12788746D02*
X13312590Y-12788746D01*
X13270090Y-12806246D02*
X13300090Y-12806246D01*
X13270090Y-12771246D02*
X13300090Y-12771246D01*
X13300090Y-12806246D02*
G75*
G03X13300090Y-12771246I0J17500D01*
G01*
X13270090Y-12771246D02*
G75*
G03X13270090Y-12806246I0J-17500D01*
G01*
X7574641Y-9144361D02*
X7574641Y-9072519D01*
X7502799Y-9072519D01*
X7502799Y-9144361D01*
X7574641Y-9144361D01*
X7828641Y-9144361D02*
X7828641Y-9072519D01*
X7756799Y-9072519D01*
X7756799Y-9144361D01*
X7828641Y-9144361D01*
X8082641Y-9144361D02*
X8082641Y-9072519D01*
X8010799Y-9072519D01*
X8010799Y-9144361D01*
X8082641Y-9144361D01*
X8336641Y-9144361D02*
X8336641Y-9072519D01*
X8264799Y-9072519D01*
X8264799Y-9144361D01*
X8336641Y-9144361D01*
X9383121Y-9472021D02*
X9383121Y-9400179D01*
X9311279Y-9400179D01*
X9311279Y-9472021D01*
X9383121Y-9472021D01*
X9637121Y-9472021D02*
X9637121Y-9400179D01*
X9565279Y-9400179D01*
X9565279Y-9472021D01*
X9637121Y-9472021D01*
X9891121Y-9472021D02*
X9891121Y-9400179D01*
X9819279Y-9400179D01*
X9819279Y-9472021D01*
X9891121Y-9472021D01*
X10145121Y-9472021D02*
X10145121Y-9400179D01*
X10073279Y-9400179D01*
X10073279Y-9472021D01*
X10145121Y-9472021D01*
X11156041Y-12624161D02*
X11156041Y-12552319D01*
X11084199Y-12552319D01*
X11084199Y-12624161D01*
X11156041Y-12624161D01*
X11156041Y-12878161D02*
X11156041Y-12806319D01*
X11084199Y-12806319D01*
X11084199Y-12878161D01*
X11156041Y-12878161D01*
X11445601Y-11643721D02*
X11445601Y-11571879D01*
X11373759Y-11571879D01*
X11373759Y-11643721D01*
X11445601Y-11643721D01*
X11445601Y-11897721D02*
X11445601Y-11825879D01*
X11373759Y-11825879D01*
X11373759Y-11897721D01*
X11445601Y-11897721D01*
X11445601Y-12151721D02*
X11445601Y-12079879D01*
X11373759Y-12079879D01*
X11373759Y-12151721D01*
X11445601Y-12151721D01*
X14225921Y-12645921D02*
X14225921Y-12574079D01*
X14154079Y-12574079D01*
X14154079Y-12645921D01*
X14225921Y-12645921D01*
X14479921Y-12645921D02*
X14479921Y-12574079D01*
X14408079Y-12574079D01*
X14408079Y-12645921D01*
X14479921Y-12645921D01*
X7331710Y-8403710D02*
X7641710Y-8093710D01*
X7331710Y-7783710D01*
X7021710Y-8093710D01*
X7331710Y-8403710D01*
X12240260Y-8399900D02*
X12550260Y-8089900D01*
X12240260Y-7779900D01*
X11930260Y-8089900D01*
X12240260Y-8399900D01*
D12*
X271429Y-465714D02*
X271429Y-165714D01*
X342857Y-165714D01*
X385714Y-180000D01*
X414286Y-208571D01*
X428571Y-237143D01*
X442857Y-294286D01*
X442857Y-337143D01*
X428571Y-394286D01*
X414286Y-422857D01*
X385714Y-451429D01*
X342857Y-465714D01*
X271429Y-465714D01*
X571429Y-465714D02*
X571429Y-265714D01*
X571429Y-322857D02*
X585714Y-294286D01*
X600000Y-280000D01*
X628571Y-265714D01*
X657143Y-265714D01*
X757143Y-465714D02*
X757143Y-265714D01*
X757143Y-165714D02*
X742857Y-180000D01*
X757143Y-194286D01*
X771429Y-180000D01*
X757143Y-165714D01*
X757143Y-194286D01*
X942857Y-465714D02*
X914286Y-451429D01*
X900000Y-422857D01*
X900000Y-165714D01*
X1100000Y-465714D02*
X1071429Y-451429D01*
X1057143Y-422857D01*
X1057143Y-165714D01*
X1442857Y-465714D02*
X1442857Y-165714D01*
X1542857Y-380000D01*
X1642857Y-165714D01*
X1642857Y-465714D01*
X1914286Y-465714D02*
X1914286Y-308571D01*
X1900000Y-280000D01*
X1871429Y-265714D01*
X1814286Y-265714D01*
X1785714Y-280000D01*
X1914286Y-451429D02*
X1885714Y-465714D01*
X1814286Y-465714D01*
X1785714Y-451429D01*
X1771429Y-422857D01*
X1771429Y-394286D01*
X1785714Y-365714D01*
X1814286Y-351429D01*
X1885714Y-351429D01*
X1914286Y-337143D01*
X2057143Y-265714D02*
X2057143Y-565714D01*
X2057143Y-280000D02*
X2085714Y-265714D01*
X2142857Y-265714D01*
X2171429Y-280000D01*
X2185714Y-294286D01*
X2200000Y-322857D01*
X2200000Y-408571D01*
X2185714Y-437143D01*
X2171429Y-451429D01*
X2142857Y-465714D01*
X2085714Y-465714D01*
X2057143Y-451429D01*
X2328572Y-437143D02*
X2342857Y-451429D01*
X2328572Y-465714D01*
X2314286Y-451429D01*
X2328572Y-437143D01*
X2328572Y-465714D01*
X2328572Y-280000D02*
X2342857Y-294286D01*
X2328572Y-308571D01*
X2314286Y-294286D01*
X2328572Y-280000D01*
X2328572Y-308571D01*
X-40000Y-940000D02*
X0Y-980000D01*
X0Y-940000D02*
X-40000Y-980000D01*
X328571Y-795714D02*
X357143Y-795714D01*
X385714Y-810000D01*
X400000Y-824286D01*
X414286Y-852857D01*
X428571Y-910000D01*
X428571Y-981429D01*
X414286Y-1038571D01*
X400000Y-1067143D01*
X385714Y-1081429D01*
X357143Y-1095714D01*
X328571Y-1095714D01*
X300000Y-1081429D01*
X285714Y-1067143D01*
X271429Y-1038571D01*
X257143Y-981429D01*
X257143Y-910000D01*
X271429Y-852857D01*
X285714Y-824286D01*
X300000Y-810000D01*
X328571Y-795714D01*
X557143Y-1067143D02*
X571429Y-1081429D01*
X557143Y-1095714D01*
X542857Y-1081429D01*
X557143Y-1067143D01*
X557143Y-1095714D01*
X828571Y-895714D02*
X828571Y-1095714D01*
X757143Y-781429D02*
X685714Y-995714D01*
X871428Y-995714D01*
X1042857Y-795714D02*
X1071429Y-795714D01*
X1100000Y-810000D01*
X1114286Y-824286D01*
X1128571Y-852857D01*
X1142857Y-910000D01*
X1142857Y-981429D01*
X1128571Y-1038571D01*
X1114286Y-1067143D01*
X1100000Y-1081429D01*
X1071429Y-1095714D01*
X1042857Y-1095714D01*
X1014286Y-1081429D01*
X1000000Y-1067143D01*
X985714Y-1038571D01*
X971429Y-981429D01*
X971429Y-910000D01*
X985714Y-852857D01*
X1000000Y-824286D01*
X1014286Y-810000D01*
X1042857Y-795714D01*
X1271429Y-1095714D02*
X1271429Y-895714D01*
X1271429Y-924286D02*
X1285714Y-910000D01*
X1314286Y-895714D01*
X1357143Y-895714D01*
X1385714Y-910000D01*
X1400000Y-938571D01*
X1400000Y-1095714D01*
X1400000Y-938571D02*
X1414286Y-910000D01*
X1442857Y-895714D01*
X1485714Y-895714D01*
X1514286Y-910000D01*
X1528571Y-938571D01*
X1528571Y-1095714D01*
X1671429Y-1095714D02*
X1671429Y-895714D01*
X1671429Y-924286D02*
X1685714Y-910000D01*
X1714286Y-895714D01*
X1757143Y-895714D01*
X1785714Y-910000D01*
X1800000Y-938571D01*
X1800000Y-1095714D01*
X1800000Y-938571D02*
X1814286Y-910000D01*
X1842857Y-895714D01*
X1885714Y-895714D01*
X1914286Y-910000D01*
X1928571Y-938571D01*
X1928571Y-1095714D01*
X2514286Y-781429D02*
X2257143Y-1167143D01*
X2900000Y-795714D02*
X2928571Y-795714D01*
X2957143Y-810000D01*
X2971428Y-824286D01*
X2985714Y-852857D01*
X3000000Y-910000D01*
X3000000Y-981429D01*
X2985714Y-1038571D01*
X2971428Y-1067143D01*
X2957143Y-1081429D01*
X2928571Y-1095714D01*
X2900000Y-1095714D01*
X2871428Y-1081429D01*
X2857143Y-1067143D01*
X2842857Y-1038571D01*
X2828571Y-981429D01*
X2828571Y-910000D01*
X2842857Y-852857D01*
X2857143Y-824286D01*
X2871428Y-810000D01*
X2900000Y-795714D01*
X3128571Y-1067143D02*
X3142857Y-1081429D01*
X3128571Y-1095714D01*
X3114286Y-1081429D01*
X3128571Y-1067143D01*
X3128571Y-1095714D01*
X3328571Y-795714D02*
X3357143Y-795714D01*
X3385714Y-810000D01*
X3400000Y-824286D01*
X3414286Y-852857D01*
X3428571Y-910000D01*
X3428571Y-981429D01*
X3414286Y-1038571D01*
X3400000Y-1067143D01*
X3385714Y-1081429D01*
X3357143Y-1095714D01*
X3328571Y-1095714D01*
X3300000Y-1081429D01*
X3285714Y-1067143D01*
X3271428Y-1038571D01*
X3257143Y-981429D01*
X3257143Y-910000D01*
X3271428Y-852857D01*
X3285714Y-824286D01*
X3300000Y-810000D01*
X3328571Y-795714D01*
X3714286Y-1095714D02*
X3542857Y-1095714D01*
X3628571Y-1095714D02*
X3628571Y-795714D01*
X3600000Y-838571D01*
X3571428Y-867143D01*
X3542857Y-881429D01*
X3971428Y-795714D02*
X3914286Y-795714D01*
X3885714Y-810000D01*
X3871428Y-824286D01*
X3842857Y-867143D01*
X3828571Y-924286D01*
X3828571Y-1038571D01*
X3842857Y-1067143D01*
X3857143Y-1081429D01*
X3885714Y-1095714D01*
X3942857Y-1095714D01*
X3971428Y-1081429D01*
X3985714Y-1067143D01*
X4000000Y-1038571D01*
X4000000Y-967143D01*
X3985714Y-938571D01*
X3971428Y-924286D01*
X3942857Y-910000D01*
X3885714Y-910000D01*
X3857143Y-924286D01*
X3842857Y-938571D01*
X3828571Y-967143D01*
X4114286Y-795714D02*
X4114286Y-852857D01*
X4228571Y-795714D02*
X4228571Y-852857D01*
X4671429Y-1210000D02*
X4657143Y-1195714D01*
X4628571Y-1152857D01*
X4614286Y-1124286D01*
X4600000Y-1081429D01*
X4585714Y-1010000D01*
X4585714Y-952857D01*
X4600000Y-881429D01*
X4614286Y-838571D01*
X4628571Y-810000D01*
X4657143Y-767143D01*
X4671429Y-752857D01*
X4757143Y-795714D02*
X4942857Y-795714D01*
X4842857Y-910000D01*
X4885714Y-910000D01*
X4914286Y-924286D01*
X4928571Y-938571D01*
X4942857Y-967143D01*
X4942857Y-1038571D01*
X4928571Y-1067143D01*
X4914286Y-1081429D01*
X4885714Y-1095714D01*
X4800000Y-1095714D01*
X4771429Y-1081429D01*
X4757143Y-1067143D01*
X5085714Y-1095714D02*
X5142857Y-1095714D01*
X5171429Y-1081429D01*
X5185714Y-1067143D01*
X5214286Y-1024286D01*
X5228571Y-967143D01*
X5228571Y-852857D01*
X5214286Y-824286D01*
X5200000Y-810000D01*
X5171429Y-795714D01*
X5114286Y-795714D01*
X5085714Y-810000D01*
X5071429Y-824286D01*
X5057143Y-852857D01*
X5057143Y-924286D01*
X5071429Y-952857D01*
X5085714Y-967143D01*
X5114286Y-981429D01*
X5171429Y-981429D01*
X5200000Y-967143D01*
X5214286Y-952857D01*
X5228571Y-924286D01*
X5585714Y-1095714D02*
X5585714Y-795714D01*
X5714286Y-1095714D02*
X5714286Y-938571D01*
X5700000Y-910000D01*
X5671428Y-895714D01*
X5628571Y-895714D01*
X5600000Y-910000D01*
X5585714Y-924286D01*
X5900000Y-1095714D02*
X5871428Y-1081429D01*
X5857143Y-1067143D01*
X5842857Y-1038571D01*
X5842857Y-952857D01*
X5857143Y-924286D01*
X5871428Y-910000D01*
X5900000Y-895714D01*
X5942857Y-895714D01*
X5971428Y-910000D01*
X5985714Y-924286D01*
X6000000Y-952857D01*
X6000000Y-1038571D01*
X5985714Y-1067143D01*
X5971428Y-1081429D01*
X5942857Y-1095714D01*
X5900000Y-1095714D01*
X6171428Y-1095714D02*
X6142857Y-1081429D01*
X6128571Y-1052857D01*
X6128571Y-795714D01*
X6400000Y-1081429D02*
X6371429Y-1095714D01*
X6314286Y-1095714D01*
X6285714Y-1081429D01*
X6271429Y-1052857D01*
X6271429Y-938571D01*
X6285714Y-910000D01*
X6314286Y-895714D01*
X6371429Y-895714D01*
X6400000Y-910000D01*
X6414286Y-938571D01*
X6414286Y-967143D01*
X6271429Y-995714D01*
X6528571Y-1081429D02*
X6557143Y-1095714D01*
X6614286Y-1095714D01*
X6642857Y-1081429D01*
X6657143Y-1052857D01*
X6657143Y-1038571D01*
X6642857Y-1010000D01*
X6614286Y-995714D01*
X6571429Y-995714D01*
X6542857Y-981429D01*
X6528571Y-952857D01*
X6528571Y-938571D01*
X6542857Y-910000D01*
X6571429Y-895714D01*
X6614286Y-895714D01*
X6642857Y-910000D01*
X6757143Y-1210000D02*
X6771429Y-1195714D01*
X6800000Y-1152857D01*
X6814286Y-1124286D01*
X6828571Y-1081429D01*
X6842857Y-1010000D01*
X6842857Y-952857D01*
X6828571Y-881429D01*
X6814286Y-838571D01*
X6800000Y-810000D01*
X6771429Y-767143D01*
X6757143Y-752857D01*
X0Y-1356000D02*
G75*
G03X0Y-1356000I-25000J0D01*
G01*
X328571Y-1191714D02*
X357143Y-1191714D01*
X385714Y-1206000D01*
X400000Y-1220286D01*
X414286Y-1248857D01*
X428571Y-1306000D01*
X428571Y-1377429D01*
X414286Y-1434571D01*
X400000Y-1463143D01*
X385714Y-1477429D01*
X357143Y-1491714D01*
X328571Y-1491714D01*
X300000Y-1477429D01*
X285714Y-1463143D01*
X271429Y-1434571D01*
X257143Y-1377429D01*
X257143Y-1306000D01*
X271429Y-1248857D01*
X285714Y-1220286D01*
X300000Y-1206000D01*
X328571Y-1191714D01*
X557143Y-1463143D02*
X571429Y-1477429D01*
X557143Y-1491714D01*
X542857Y-1477429D01*
X557143Y-1463143D01*
X557143Y-1491714D01*
X842857Y-1191714D02*
X700000Y-1191714D01*
X685714Y-1334571D01*
X700000Y-1320286D01*
X728571Y-1306000D01*
X800000Y-1306000D01*
X828571Y-1320286D01*
X842857Y-1334571D01*
X857143Y-1363143D01*
X857143Y-1434571D01*
X842857Y-1463143D01*
X828571Y-1477429D01*
X800000Y-1491714D01*
X728571Y-1491714D01*
X700000Y-1477429D01*
X685714Y-1463143D01*
X1042857Y-1191714D02*
X1071429Y-1191714D01*
X1100000Y-1206000D01*
X1114286Y-1220286D01*
X1128571Y-1248857D01*
X1142857Y-1306000D01*
X1142857Y-1377429D01*
X1128571Y-1434571D01*
X1114286Y-1463143D01*
X1100000Y-1477429D01*
X1071429Y-1491714D01*
X1042857Y-1491714D01*
X1014286Y-1477429D01*
X1000000Y-1463143D01*
X985714Y-1434571D01*
X971429Y-1377429D01*
X971429Y-1306000D01*
X985714Y-1248857D01*
X1000000Y-1220286D01*
X1014286Y-1206000D01*
X1042857Y-1191714D01*
X1271429Y-1491714D02*
X1271429Y-1291714D01*
X1271429Y-1320286D02*
X1285714Y-1306000D01*
X1314286Y-1291714D01*
X1357143Y-1291714D01*
X1385714Y-1306000D01*
X1400000Y-1334571D01*
X1400000Y-1491714D01*
X1400000Y-1334571D02*
X1414286Y-1306000D01*
X1442857Y-1291714D01*
X1485714Y-1291714D01*
X1514286Y-1306000D01*
X1528571Y-1334571D01*
X1528571Y-1491714D01*
X1671429Y-1491714D02*
X1671429Y-1291714D01*
X1671429Y-1320286D02*
X1685714Y-1306000D01*
X1714286Y-1291714D01*
X1757143Y-1291714D01*
X1785714Y-1306000D01*
X1800000Y-1334571D01*
X1800000Y-1491714D01*
X1800000Y-1334571D02*
X1814286Y-1306000D01*
X1842857Y-1291714D01*
X1885714Y-1291714D01*
X1914286Y-1306000D01*
X1928571Y-1334571D01*
X1928571Y-1491714D01*
X2514286Y-1177429D02*
X2257143Y-1563143D01*
X2900000Y-1191714D02*
X2928571Y-1191714D01*
X2957143Y-1206000D01*
X2971428Y-1220286D01*
X2985714Y-1248857D01*
X3000000Y-1306000D01*
X3000000Y-1377429D01*
X2985714Y-1434571D01*
X2971428Y-1463143D01*
X2957143Y-1477429D01*
X2928571Y-1491714D01*
X2900000Y-1491714D01*
X2871428Y-1477429D01*
X2857143Y-1463143D01*
X2842857Y-1434571D01*
X2828571Y-1377429D01*
X2828571Y-1306000D01*
X2842857Y-1248857D01*
X2857143Y-1220286D01*
X2871428Y-1206000D01*
X2900000Y-1191714D01*
X3128571Y-1463143D02*
X3142857Y-1477429D01*
X3128571Y-1491714D01*
X3114286Y-1477429D01*
X3128571Y-1463143D01*
X3128571Y-1491714D01*
X3328571Y-1191714D02*
X3357143Y-1191714D01*
X3385714Y-1206000D01*
X3400000Y-1220286D01*
X3414286Y-1248857D01*
X3428571Y-1306000D01*
X3428571Y-1377429D01*
X3414286Y-1434571D01*
X3400000Y-1463143D01*
X3385714Y-1477429D01*
X3357143Y-1491714D01*
X3328571Y-1491714D01*
X3300000Y-1477429D01*
X3285714Y-1463143D01*
X3271428Y-1434571D01*
X3257143Y-1377429D01*
X3257143Y-1306000D01*
X3271428Y-1248857D01*
X3285714Y-1220286D01*
X3300000Y-1206000D01*
X3328571Y-1191714D01*
X3542857Y-1220286D02*
X3557143Y-1206000D01*
X3585714Y-1191714D01*
X3657143Y-1191714D01*
X3685714Y-1206000D01*
X3700000Y-1220286D01*
X3714286Y-1248857D01*
X3714286Y-1277429D01*
X3700000Y-1320286D01*
X3528571Y-1491714D01*
X3714286Y-1491714D01*
X3900000Y-1191714D02*
X3928571Y-1191714D01*
X3957143Y-1206000D01*
X3971428Y-1220286D01*
X3985714Y-1248857D01*
X4000000Y-1306000D01*
X4000000Y-1377429D01*
X3985714Y-1434571D01*
X3971428Y-1463143D01*
X3957143Y-1477429D01*
X3928571Y-1491714D01*
X3900000Y-1491714D01*
X3871428Y-1477429D01*
X3857143Y-1463143D01*
X3842857Y-1434571D01*
X3828571Y-1377429D01*
X3828571Y-1306000D01*
X3842857Y-1248857D01*
X3857143Y-1220286D01*
X3871428Y-1206000D01*
X3900000Y-1191714D01*
X4114286Y-1191714D02*
X4114286Y-1248857D01*
X4228571Y-1191714D02*
X4228571Y-1248857D01*
X4671429Y-1606000D02*
X4657143Y-1591714D01*
X4628571Y-1548857D01*
X4614286Y-1520286D01*
X4600000Y-1477429D01*
X4585714Y-1406000D01*
X4585714Y-1348857D01*
X4600000Y-1277429D01*
X4614286Y-1234571D01*
X4628571Y-1206000D01*
X4657143Y-1163143D01*
X4671429Y-1148857D01*
X4842857Y-1191714D02*
X4871429Y-1191714D01*
X4900000Y-1206000D01*
X4914286Y-1220286D01*
X4928571Y-1248857D01*
X4942857Y-1306000D01*
X4942857Y-1377429D01*
X4928571Y-1434571D01*
X4914286Y-1463143D01*
X4900000Y-1477429D01*
X4871429Y-1491714D01*
X4842857Y-1491714D01*
X4814286Y-1477429D01*
X4800000Y-1463143D01*
X4785714Y-1434571D01*
X4771429Y-1377429D01*
X4771429Y-1306000D01*
X4785714Y-1248857D01*
X4800000Y-1220286D01*
X4814286Y-1206000D01*
X4842857Y-1191714D01*
X5300000Y-1491714D02*
X5300000Y-1191714D01*
X5428571Y-1491714D02*
X5428571Y-1334571D01*
X5414286Y-1306000D01*
X5385714Y-1291714D01*
X5342857Y-1291714D01*
X5314286Y-1306000D01*
X5300000Y-1320286D01*
X5614286Y-1491714D02*
X5585714Y-1477429D01*
X5571429Y-1463143D01*
X5557143Y-1434571D01*
X5557143Y-1348857D01*
X5571429Y-1320286D01*
X5585714Y-1306000D01*
X5614286Y-1291714D01*
X5657143Y-1291714D01*
X5685714Y-1306000D01*
X5700000Y-1320286D01*
X5714286Y-1348857D01*
X5714286Y-1434571D01*
X5700000Y-1463143D01*
X5685714Y-1477429D01*
X5657143Y-1491714D01*
X5614286Y-1491714D01*
X5885714Y-1491714D02*
X5857143Y-1477429D01*
X5842857Y-1448857D01*
X5842857Y-1191714D01*
X6114286Y-1477429D02*
X6085714Y-1491714D01*
X6028571Y-1491714D01*
X6000000Y-1477429D01*
X5985714Y-1448857D01*
X5985714Y-1334571D01*
X6000000Y-1306000D01*
X6028571Y-1291714D01*
X6085714Y-1291714D01*
X6114286Y-1306000D01*
X6128571Y-1334571D01*
X6128571Y-1363143D01*
X5985714Y-1391714D01*
X6242857Y-1477429D02*
X6271429Y-1491714D01*
X6328571Y-1491714D01*
X6357143Y-1477429D01*
X6371429Y-1448857D01*
X6371429Y-1434571D01*
X6357143Y-1406000D01*
X6328571Y-1391714D01*
X6285714Y-1391714D01*
X6257143Y-1377429D01*
X6242857Y-1348857D01*
X6242857Y-1334571D01*
X6257143Y-1306000D01*
X6285714Y-1291714D01*
X6328571Y-1291714D01*
X6357143Y-1306000D01*
X6728571Y-1377429D02*
X6957143Y-1377429D01*
X6842857Y-1491714D02*
X6842857Y-1263143D01*
X7314286Y-1220286D02*
X7328571Y-1206000D01*
X7357143Y-1191714D01*
X7428571Y-1191714D01*
X7457143Y-1206000D01*
X7471428Y-1220286D01*
X7485714Y-1248857D01*
X7485714Y-1277429D01*
X7471428Y-1320286D01*
X7300000Y-1491714D01*
X7485714Y-1491714D01*
X7828571Y-1477429D02*
X7857143Y-1491714D01*
X7914286Y-1491714D01*
X7942857Y-1477429D01*
X7957143Y-1448857D01*
X7957143Y-1434571D01*
X7942857Y-1406000D01*
X7914286Y-1391714D01*
X7871428Y-1391714D01*
X7842857Y-1377429D01*
X7828571Y-1348857D01*
X7828571Y-1334571D01*
X7842857Y-1306000D01*
X7871428Y-1291714D01*
X7914286Y-1291714D01*
X7942857Y-1306000D01*
X8128571Y-1491714D02*
X8100000Y-1477429D01*
X8085714Y-1448857D01*
X8085714Y-1191714D01*
X8285714Y-1491714D02*
X8257143Y-1477429D01*
X8242857Y-1463143D01*
X8228571Y-1434571D01*
X8228571Y-1348857D01*
X8242857Y-1320286D01*
X8257143Y-1306000D01*
X8285714Y-1291714D01*
X8328571Y-1291714D01*
X8357143Y-1306000D01*
X8371428Y-1320286D01*
X8385714Y-1348857D01*
X8385714Y-1434571D01*
X8371428Y-1463143D01*
X8357143Y-1477429D01*
X8328571Y-1491714D01*
X8285714Y-1491714D01*
X8471429Y-1291714D02*
X8585714Y-1291714D01*
X8514286Y-1191714D02*
X8514286Y-1448857D01*
X8528571Y-1477429D01*
X8557143Y-1491714D01*
X8585714Y-1491714D01*
X8671429Y-1477429D02*
X8700000Y-1491714D01*
X8757143Y-1491714D01*
X8785714Y-1477429D01*
X8800000Y-1448857D01*
X8800000Y-1434571D01*
X8785714Y-1406000D01*
X8757143Y-1391714D01*
X8714286Y-1391714D01*
X8685714Y-1377429D01*
X8671429Y-1348857D01*
X8671429Y-1334571D01*
X8685714Y-1306000D01*
X8714286Y-1291714D01*
X8757143Y-1291714D01*
X8785714Y-1306000D01*
X8900000Y-1606000D02*
X8914286Y-1591714D01*
X8942857Y-1548857D01*
X8957143Y-1520286D01*
X8971429Y-1477429D01*
X8985714Y-1406000D01*
X8985714Y-1348857D01*
X8971429Y-1277429D01*
X8957143Y-1234571D01*
X8942857Y-1206000D01*
X8914286Y-1163143D01*
X8900000Y-1148857D01*
X-27500Y-1724500D02*
X-27500Y-1779500D01*
X-55000Y-1752000D02*
X0Y-1752000D01*
X328571Y-1587714D02*
X357143Y-1587714D01*
X385714Y-1602000D01*
X400000Y-1616286D01*
X414286Y-1644857D01*
X428571Y-1702000D01*
X428571Y-1773429D01*
X414286Y-1830571D01*
X400000Y-1859143D01*
X385714Y-1873429D01*
X357143Y-1887714D01*
X328571Y-1887714D01*
X300000Y-1873429D01*
X285714Y-1859143D01*
X271429Y-1830571D01*
X257143Y-1773429D01*
X257143Y-1702000D01*
X271429Y-1644857D01*
X285714Y-1616286D01*
X300000Y-1602000D01*
X328571Y-1587714D01*
X557143Y-1859143D02*
X571429Y-1873429D01*
X557143Y-1887714D01*
X542857Y-1873429D01*
X557143Y-1859143D01*
X557143Y-1887714D01*
X842857Y-1587714D02*
X700000Y-1587714D01*
X685714Y-1730571D01*
X700000Y-1716286D01*
X728571Y-1702000D01*
X800000Y-1702000D01*
X828571Y-1716286D01*
X842857Y-1730571D01*
X857143Y-1759143D01*
X857143Y-1830571D01*
X842857Y-1859143D01*
X828571Y-1873429D01*
X800000Y-1887714D01*
X728571Y-1887714D01*
X700000Y-1873429D01*
X685714Y-1859143D01*
X1128571Y-1587714D02*
X985714Y-1587714D01*
X971429Y-1730571D01*
X985714Y-1716286D01*
X1014286Y-1702000D01*
X1085714Y-1702000D01*
X1114286Y-1716286D01*
X1128571Y-1730571D01*
X1142857Y-1759143D01*
X1142857Y-1830571D01*
X1128571Y-1859143D01*
X1114286Y-1873429D01*
X1085714Y-1887714D01*
X1014286Y-1887714D01*
X985714Y-1873429D01*
X971429Y-1859143D01*
X1271429Y-1887714D02*
X1271429Y-1687714D01*
X1271429Y-1716286D02*
X1285714Y-1702000D01*
X1314286Y-1687714D01*
X1357143Y-1687714D01*
X1385714Y-1702000D01*
X1400000Y-1730571D01*
X1400000Y-1887714D01*
X1400000Y-1730571D02*
X1414286Y-1702000D01*
X1442857Y-1687714D01*
X1485714Y-1687714D01*
X1514286Y-1702000D01*
X1528571Y-1730571D01*
X1528571Y-1887714D01*
X1671429Y-1887714D02*
X1671429Y-1687714D01*
X1671429Y-1716286D02*
X1685714Y-1702000D01*
X1714286Y-1687714D01*
X1757143Y-1687714D01*
X1785714Y-1702000D01*
X1800000Y-1730571D01*
X1800000Y-1887714D01*
X1800000Y-1730571D02*
X1814286Y-1702000D01*
X1842857Y-1687714D01*
X1885714Y-1687714D01*
X1914286Y-1702000D01*
X1928571Y-1730571D01*
X1928571Y-1887714D01*
X2514286Y-1573429D02*
X2257143Y-1959143D01*
X2900000Y-1587714D02*
X2928571Y-1587714D01*
X2957143Y-1602000D01*
X2971428Y-1616286D01*
X2985714Y-1644857D01*
X3000000Y-1702000D01*
X3000000Y-1773429D01*
X2985714Y-1830571D01*
X2971428Y-1859143D01*
X2957143Y-1873429D01*
X2928571Y-1887714D01*
X2900000Y-1887714D01*
X2871428Y-1873429D01*
X2857143Y-1859143D01*
X2842857Y-1830571D01*
X2828571Y-1773429D01*
X2828571Y-1702000D01*
X2842857Y-1644857D01*
X2857143Y-1616286D01*
X2871428Y-1602000D01*
X2900000Y-1587714D01*
X3128571Y-1859143D02*
X3142857Y-1873429D01*
X3128571Y-1887714D01*
X3114286Y-1873429D01*
X3128571Y-1859143D01*
X3128571Y-1887714D01*
X3328571Y-1587714D02*
X3357143Y-1587714D01*
X3385714Y-1602000D01*
X3400000Y-1616286D01*
X3414286Y-1644857D01*
X3428571Y-1702000D01*
X3428571Y-1773429D01*
X3414286Y-1830571D01*
X3400000Y-1859143D01*
X3385714Y-1873429D01*
X3357143Y-1887714D01*
X3328571Y-1887714D01*
X3300000Y-1873429D01*
X3285714Y-1859143D01*
X3271428Y-1830571D01*
X3257143Y-1773429D01*
X3257143Y-1702000D01*
X3271428Y-1644857D01*
X3285714Y-1616286D01*
X3300000Y-1602000D01*
X3328571Y-1587714D01*
X3542857Y-1616286D02*
X3557143Y-1602000D01*
X3585714Y-1587714D01*
X3657143Y-1587714D01*
X3685714Y-1602000D01*
X3700000Y-1616286D01*
X3714286Y-1644857D01*
X3714286Y-1673429D01*
X3700000Y-1716286D01*
X3528571Y-1887714D01*
X3714286Y-1887714D01*
X3828571Y-1616286D02*
X3842857Y-1602000D01*
X3871428Y-1587714D01*
X3942857Y-1587714D01*
X3971428Y-1602000D01*
X3985714Y-1616286D01*
X4000000Y-1644857D01*
X4000000Y-1673429D01*
X3985714Y-1716286D01*
X3814286Y-1887714D01*
X4000000Y-1887714D01*
X4114286Y-1587714D02*
X4114286Y-1644857D01*
X4228571Y-1587714D02*
X4228571Y-1644857D01*
X4671429Y-2002000D02*
X4657143Y-1987714D01*
X4628571Y-1944857D01*
X4614286Y-1916286D01*
X4600000Y-1873429D01*
X4585714Y-1802000D01*
X4585714Y-1744857D01*
X4600000Y-1673429D01*
X4614286Y-1630571D01*
X4628571Y-1602000D01*
X4657143Y-1559143D01*
X4671429Y-1544857D01*
X4842857Y-1587714D02*
X4871429Y-1587714D01*
X4900000Y-1602000D01*
X4914286Y-1616286D01*
X4928571Y-1644857D01*
X4942857Y-1702000D01*
X4942857Y-1773429D01*
X4928571Y-1830571D01*
X4914286Y-1859143D01*
X4900000Y-1873429D01*
X4871429Y-1887714D01*
X4842857Y-1887714D01*
X4814286Y-1873429D01*
X4800000Y-1859143D01*
X4785714Y-1830571D01*
X4771429Y-1773429D01*
X4771429Y-1702000D01*
X4785714Y-1644857D01*
X4800000Y-1616286D01*
X4814286Y-1602000D01*
X4842857Y-1587714D01*
X5300000Y-1887714D02*
X5300000Y-1587714D01*
X5428571Y-1887714D02*
X5428571Y-1730571D01*
X5414286Y-1702000D01*
X5385714Y-1687714D01*
X5342857Y-1687714D01*
X5314286Y-1702000D01*
X5300000Y-1716286D01*
X5614286Y-1887714D02*
X5585714Y-1873429D01*
X5571429Y-1859143D01*
X5557143Y-1830571D01*
X5557143Y-1744857D01*
X5571429Y-1716286D01*
X5585714Y-1702000D01*
X5614286Y-1687714D01*
X5657143Y-1687714D01*
X5685714Y-1702000D01*
X5700000Y-1716286D01*
X5714286Y-1744857D01*
X5714286Y-1830571D01*
X5700000Y-1859143D01*
X5685714Y-1873429D01*
X5657143Y-1887714D01*
X5614286Y-1887714D01*
X5885714Y-1887714D02*
X5857143Y-1873429D01*
X5842857Y-1844857D01*
X5842857Y-1587714D01*
X6114286Y-1873429D02*
X6085714Y-1887714D01*
X6028571Y-1887714D01*
X6000000Y-1873429D01*
X5985714Y-1844857D01*
X5985714Y-1730571D01*
X6000000Y-1702000D01*
X6028571Y-1687714D01*
X6085714Y-1687714D01*
X6114286Y-1702000D01*
X6128571Y-1730571D01*
X6128571Y-1759143D01*
X5985714Y-1787714D01*
X6242857Y-1873429D02*
X6271429Y-1887714D01*
X6328571Y-1887714D01*
X6357143Y-1873429D01*
X6371429Y-1844857D01*
X6371429Y-1830571D01*
X6357143Y-1802000D01*
X6328571Y-1787714D01*
X6285714Y-1787714D01*
X6257143Y-1773429D01*
X6242857Y-1744857D01*
X6242857Y-1730571D01*
X6257143Y-1702000D01*
X6285714Y-1687714D01*
X6328571Y-1687714D01*
X6357143Y-1702000D01*
X6728571Y-1773429D02*
X6957143Y-1773429D01*
X6842857Y-1887714D02*
X6842857Y-1659143D01*
X7314286Y-1616286D02*
X7328571Y-1602000D01*
X7357143Y-1587714D01*
X7428571Y-1587714D01*
X7457143Y-1602000D01*
X7471428Y-1616286D01*
X7485714Y-1644857D01*
X7485714Y-1673429D01*
X7471428Y-1716286D01*
X7300000Y-1887714D01*
X7485714Y-1887714D01*
X7828571Y-1873429D02*
X7857143Y-1887714D01*
X7914286Y-1887714D01*
X7942857Y-1873429D01*
X7957143Y-1844857D01*
X7957143Y-1830571D01*
X7942857Y-1802000D01*
X7914286Y-1787714D01*
X7871428Y-1787714D01*
X7842857Y-1773429D01*
X7828571Y-1744857D01*
X7828571Y-1730571D01*
X7842857Y-1702000D01*
X7871428Y-1687714D01*
X7914286Y-1687714D01*
X7942857Y-1702000D01*
X8128571Y-1887714D02*
X8100000Y-1873429D01*
X8085714Y-1844857D01*
X8085714Y-1587714D01*
X8285714Y-1887714D02*
X8257143Y-1873429D01*
X8242857Y-1859143D01*
X8228571Y-1830571D01*
X8228571Y-1744857D01*
X8242857Y-1716286D01*
X8257143Y-1702000D01*
X8285714Y-1687714D01*
X8328571Y-1687714D01*
X8357143Y-1702000D01*
X8371428Y-1716286D01*
X8385714Y-1744857D01*
X8385714Y-1830571D01*
X8371428Y-1859143D01*
X8357143Y-1873429D01*
X8328571Y-1887714D01*
X8285714Y-1887714D01*
X8471429Y-1687714D02*
X8585714Y-1687714D01*
X8514286Y-1587714D02*
X8514286Y-1844857D01*
X8528571Y-1873429D01*
X8557143Y-1887714D01*
X8585714Y-1887714D01*
X8671429Y-1873429D02*
X8700000Y-1887714D01*
X8757143Y-1887714D01*
X8785714Y-1873429D01*
X8800000Y-1844857D01*
X8800000Y-1830571D01*
X8785714Y-1802000D01*
X8757143Y-1787714D01*
X8714286Y-1787714D01*
X8685714Y-1773429D01*
X8671429Y-1744857D01*
X8671429Y-1730571D01*
X8685714Y-1702000D01*
X8714286Y-1687714D01*
X8757143Y-1687714D01*
X8785714Y-1702000D01*
X8900000Y-2002000D02*
X8914286Y-1987714D01*
X8942857Y-1944857D01*
X8957143Y-1916286D01*
X8971429Y-1873429D01*
X8985714Y-1802000D01*
X8985714Y-1744857D01*
X8971429Y-1673429D01*
X8957143Y-1630571D01*
X8942857Y-1602000D01*
X8914286Y-1559143D01*
X8900000Y-1544857D01*
X-14879Y-2183921D02*
X-14879Y-2112079D01*
X-86721Y-2112079D01*
X-86721Y-2183921D01*
X-14879Y-2183921D01*
X428571Y-2283714D02*
X257143Y-2283714D01*
X342857Y-2283714D02*
X342857Y-1983714D01*
X314286Y-2026571D01*
X285714Y-2055143D01*
X257143Y-2069429D01*
X557143Y-2255143D02*
X571429Y-2269429D01*
X557143Y-2283714D01*
X542857Y-2269429D01*
X557143Y-2255143D01*
X557143Y-2283714D01*
X757143Y-1983714D02*
X785714Y-1983714D01*
X814286Y-1998000D01*
X828571Y-2012286D01*
X842857Y-2040857D01*
X857143Y-2098000D01*
X857143Y-2169429D01*
X842857Y-2226571D01*
X828571Y-2255143D01*
X814286Y-2269429D01*
X785714Y-2283714D01*
X757143Y-2283714D01*
X728571Y-2269429D01*
X714286Y-2255143D01*
X700000Y-2226571D01*
X685714Y-2169429D01*
X685714Y-2098000D01*
X700000Y-2040857D01*
X714286Y-2012286D01*
X728571Y-1998000D01*
X757143Y-1983714D01*
X971429Y-2012286D02*
X985714Y-1998000D01*
X1014286Y-1983714D01*
X1085714Y-1983714D01*
X1114286Y-1998000D01*
X1128571Y-2012286D01*
X1142857Y-2040857D01*
X1142857Y-2069429D01*
X1128571Y-2112286D01*
X957143Y-2283714D01*
X1142857Y-2283714D01*
X1271429Y-2283714D02*
X1271429Y-2083714D01*
X1271429Y-2112286D02*
X1285714Y-2098000D01*
X1314286Y-2083714D01*
X1357143Y-2083714D01*
X1385714Y-2098000D01*
X1400000Y-2126571D01*
X1400000Y-2283714D01*
X1400000Y-2126571D02*
X1414286Y-2098000D01*
X1442857Y-2083714D01*
X1485714Y-2083714D01*
X1514286Y-2098000D01*
X1528571Y-2126571D01*
X1528571Y-2283714D01*
X1671429Y-2283714D02*
X1671429Y-2083714D01*
X1671429Y-2112286D02*
X1685714Y-2098000D01*
X1714286Y-2083714D01*
X1757143Y-2083714D01*
X1785714Y-2098000D01*
X1800000Y-2126571D01*
X1800000Y-2283714D01*
X1800000Y-2126571D02*
X1814286Y-2098000D01*
X1842857Y-2083714D01*
X1885714Y-2083714D01*
X1914286Y-2098000D01*
X1928571Y-2126571D01*
X1928571Y-2283714D01*
X2514286Y-1969429D02*
X2257143Y-2355143D01*
X2900000Y-1983714D02*
X2928571Y-1983714D01*
X2957143Y-1998000D01*
X2971428Y-2012286D01*
X2985714Y-2040857D01*
X3000000Y-2098000D01*
X3000000Y-2169429D01*
X2985714Y-2226571D01*
X2971428Y-2255143D01*
X2957143Y-2269429D01*
X2928571Y-2283714D01*
X2900000Y-2283714D01*
X2871428Y-2269429D01*
X2857143Y-2255143D01*
X2842857Y-2226571D01*
X2828571Y-2169429D01*
X2828571Y-2098000D01*
X2842857Y-2040857D01*
X2857143Y-2012286D01*
X2871428Y-1998000D01*
X2900000Y-1983714D01*
X3128571Y-2255143D02*
X3142857Y-2269429D01*
X3128571Y-2283714D01*
X3114286Y-2269429D01*
X3128571Y-2255143D01*
X3128571Y-2283714D01*
X3328571Y-1983714D02*
X3357143Y-1983714D01*
X3385714Y-1998000D01*
X3400000Y-2012286D01*
X3414286Y-2040857D01*
X3428571Y-2098000D01*
X3428571Y-2169429D01*
X3414286Y-2226571D01*
X3400000Y-2255143D01*
X3385714Y-2269429D01*
X3357143Y-2283714D01*
X3328571Y-2283714D01*
X3300000Y-2269429D01*
X3285714Y-2255143D01*
X3271428Y-2226571D01*
X3257143Y-2169429D01*
X3257143Y-2098000D01*
X3271428Y-2040857D01*
X3285714Y-2012286D01*
X3300000Y-1998000D01*
X3328571Y-1983714D01*
X3685714Y-2083714D02*
X3685714Y-2283714D01*
X3614286Y-1969429D02*
X3542857Y-2183714D01*
X3728571Y-2183714D01*
X3900000Y-1983714D02*
X3928571Y-1983714D01*
X3957143Y-1998000D01*
X3971428Y-2012286D01*
X3985714Y-2040857D01*
X4000000Y-2098000D01*
X4000000Y-2169429D01*
X3985714Y-2226571D01*
X3971428Y-2255143D01*
X3957143Y-2269429D01*
X3928571Y-2283714D01*
X3900000Y-2283714D01*
X3871428Y-2269429D01*
X3857143Y-2255143D01*
X3842857Y-2226571D01*
X3828571Y-2169429D01*
X3828571Y-2098000D01*
X3842857Y-2040857D01*
X3857143Y-2012286D01*
X3871428Y-1998000D01*
X3900000Y-1983714D01*
X4114286Y-1983714D02*
X4114286Y-2040857D01*
X4228571Y-1983714D02*
X4228571Y-2040857D01*
X4671429Y-2398000D02*
X4657143Y-2383714D01*
X4628571Y-2340857D01*
X4614286Y-2312286D01*
X4600000Y-2269429D01*
X4585714Y-2198000D01*
X4585714Y-2140857D01*
X4600000Y-2069429D01*
X4614286Y-2026571D01*
X4628571Y-1998000D01*
X4657143Y-1955143D01*
X4671429Y-1940857D01*
X4942857Y-2283714D02*
X4771429Y-2283714D01*
X4857143Y-2283714D02*
X4857143Y-1983714D01*
X4828571Y-2026571D01*
X4800000Y-2055143D01*
X4771429Y-2069429D01*
X5214286Y-1983714D02*
X5071429Y-1983714D01*
X5057143Y-2126571D01*
X5071429Y-2112286D01*
X5100000Y-2098000D01*
X5171429Y-2098000D01*
X5200000Y-2112286D01*
X5214286Y-2126571D01*
X5228571Y-2155143D01*
X5228571Y-2226571D01*
X5214286Y-2255143D01*
X5200000Y-2269429D01*
X5171429Y-2283714D01*
X5100000Y-2283714D01*
X5071429Y-2269429D01*
X5057143Y-2255143D01*
X5585714Y-2283714D02*
X5585714Y-1983714D01*
X5714286Y-2283714D02*
X5714286Y-2126571D01*
X5700000Y-2098000D01*
X5671428Y-2083714D01*
X5628571Y-2083714D01*
X5600000Y-2098000D01*
X5585714Y-2112286D01*
X5900000Y-2283714D02*
X5871428Y-2269429D01*
X5857143Y-2255143D01*
X5842857Y-2226571D01*
X5842857Y-2140857D01*
X5857143Y-2112286D01*
X5871428Y-2098000D01*
X5900000Y-2083714D01*
X5942857Y-2083714D01*
X5971428Y-2098000D01*
X5985714Y-2112286D01*
X6000000Y-2140857D01*
X6000000Y-2226571D01*
X5985714Y-2255143D01*
X5971428Y-2269429D01*
X5942857Y-2283714D01*
X5900000Y-2283714D01*
X6171428Y-2283714D02*
X6142857Y-2269429D01*
X6128571Y-2240857D01*
X6128571Y-1983714D01*
X6400000Y-2269429D02*
X6371429Y-2283714D01*
X6314286Y-2283714D01*
X6285714Y-2269429D01*
X6271429Y-2240857D01*
X6271429Y-2126571D01*
X6285714Y-2098000D01*
X6314286Y-2083714D01*
X6371429Y-2083714D01*
X6400000Y-2098000D01*
X6414286Y-2126571D01*
X6414286Y-2155143D01*
X6271429Y-2183714D01*
X6528571Y-2269429D02*
X6557143Y-2283714D01*
X6614286Y-2283714D01*
X6642857Y-2269429D01*
X6657143Y-2240857D01*
X6657143Y-2226571D01*
X6642857Y-2198000D01*
X6614286Y-2183714D01*
X6571429Y-2183714D01*
X6542857Y-2169429D01*
X6528571Y-2140857D01*
X6528571Y-2126571D01*
X6542857Y-2098000D01*
X6571429Y-2083714D01*
X6614286Y-2083714D01*
X6642857Y-2098000D01*
X6757143Y-2398000D02*
X6771429Y-2383714D01*
X6800000Y-2340857D01*
X6814286Y-2312286D01*
X6828571Y-2269429D01*
X6842857Y-2198000D01*
X6842857Y-2140857D01*
X6828571Y-2069429D01*
X6814286Y-2026571D01*
X6800000Y-1998000D01*
X6771429Y-1955143D01*
X6757143Y-1940857D01*
X-310000Y-2854000D02*
X0Y-2544000D01*
X-310000Y-2234000D01*
X-620000Y-2544000D01*
X-310000Y-2854000D01*
X400000Y-2379714D02*
X342857Y-2379714D01*
X314286Y-2394000D01*
X300000Y-2408286D01*
X271429Y-2451143D01*
X257143Y-2508286D01*
X257143Y-2622571D01*
X271429Y-2651143D01*
X285714Y-2665429D01*
X314286Y-2679714D01*
X371429Y-2679714D01*
X400000Y-2665429D01*
X414286Y-2651143D01*
X428571Y-2622571D01*
X428571Y-2551143D01*
X414286Y-2522571D01*
X400000Y-2508286D01*
X371429Y-2494000D01*
X314286Y-2494000D01*
X285714Y-2508286D01*
X271429Y-2522571D01*
X257143Y-2551143D01*
X557143Y-2651143D02*
X571429Y-2665429D01*
X557143Y-2679714D01*
X542857Y-2665429D01*
X557143Y-2651143D01*
X557143Y-2679714D01*
X685714Y-2408286D02*
X700000Y-2394000D01*
X728571Y-2379714D01*
X800000Y-2379714D01*
X828571Y-2394000D01*
X842857Y-2408286D01*
X857143Y-2436857D01*
X857143Y-2465429D01*
X842857Y-2508286D01*
X671429Y-2679714D01*
X857143Y-2679714D01*
X1042857Y-2379714D02*
X1071429Y-2379714D01*
X1100000Y-2394000D01*
X1114286Y-2408286D01*
X1128571Y-2436857D01*
X1142857Y-2494000D01*
X1142857Y-2565429D01*
X1128571Y-2622571D01*
X1114286Y-2651143D01*
X1100000Y-2665429D01*
X1071429Y-2679714D01*
X1042857Y-2679714D01*
X1014286Y-2665429D01*
X1000000Y-2651143D01*
X985714Y-2622571D01*
X971429Y-2565429D01*
X971429Y-2494000D01*
X985714Y-2436857D01*
X1000000Y-2408286D01*
X1014286Y-2394000D01*
X1042857Y-2379714D01*
X1271429Y-2679714D02*
X1271429Y-2479714D01*
X1271429Y-2508286D02*
X1285714Y-2494000D01*
X1314286Y-2479714D01*
X1357143Y-2479714D01*
X1385714Y-2494000D01*
X1400000Y-2522571D01*
X1400000Y-2679714D01*
X1400000Y-2522571D02*
X1414286Y-2494000D01*
X1442857Y-2479714D01*
X1485714Y-2479714D01*
X1514286Y-2494000D01*
X1528571Y-2522571D01*
X1528571Y-2679714D01*
X1671429Y-2679714D02*
X1671429Y-2479714D01*
X1671429Y-2508286D02*
X1685714Y-2494000D01*
X1714286Y-2479714D01*
X1757143Y-2479714D01*
X1785714Y-2494000D01*
X1800000Y-2522571D01*
X1800000Y-2679714D01*
X1800000Y-2522571D02*
X1814286Y-2494000D01*
X1842857Y-2479714D01*
X1885714Y-2479714D01*
X1914286Y-2494000D01*
X1928571Y-2522571D01*
X1928571Y-2679714D01*
X2514286Y-2365429D02*
X2257143Y-2751143D01*
X2900000Y-2379714D02*
X2928571Y-2379714D01*
X2957143Y-2394000D01*
X2971428Y-2408286D01*
X2985714Y-2436857D01*
X3000000Y-2494000D01*
X3000000Y-2565429D01*
X2985714Y-2622571D01*
X2971428Y-2651143D01*
X2957143Y-2665429D01*
X2928571Y-2679714D01*
X2900000Y-2679714D01*
X2871428Y-2665429D01*
X2857143Y-2651143D01*
X2842857Y-2622571D01*
X2828571Y-2565429D01*
X2828571Y-2494000D01*
X2842857Y-2436857D01*
X2857143Y-2408286D01*
X2871428Y-2394000D01*
X2900000Y-2379714D01*
X3128571Y-2651143D02*
X3142857Y-2665429D01*
X3128571Y-2679714D01*
X3114286Y-2665429D01*
X3128571Y-2651143D01*
X3128571Y-2679714D01*
X3257143Y-2408286D02*
X3271428Y-2394000D01*
X3300000Y-2379714D01*
X3371428Y-2379714D01*
X3400000Y-2394000D01*
X3414286Y-2408286D01*
X3428571Y-2436857D01*
X3428571Y-2465429D01*
X3414286Y-2508286D01*
X3242857Y-2679714D01*
X3428571Y-2679714D01*
X3685714Y-2479714D02*
X3685714Y-2679714D01*
X3614286Y-2365429D02*
X3542857Y-2579714D01*
X3728571Y-2579714D01*
X3971428Y-2479714D02*
X3971428Y-2679714D01*
X3900000Y-2365429D02*
X3828571Y-2579714D01*
X4014286Y-2579714D01*
X4114286Y-2379714D02*
X4114286Y-2436857D01*
X4228571Y-2379714D02*
X4228571Y-2436857D01*
X4671429Y-2794000D02*
X4657143Y-2779714D01*
X4628571Y-2736857D01*
X4614286Y-2708286D01*
X4600000Y-2665429D01*
X4585714Y-2594000D01*
X4585714Y-2536857D01*
X4600000Y-2465429D01*
X4614286Y-2422571D01*
X4628571Y-2394000D01*
X4657143Y-2351143D01*
X4671429Y-2336857D01*
X4771429Y-2408286D02*
X4785714Y-2394000D01*
X4814286Y-2379714D01*
X4885714Y-2379714D01*
X4914286Y-2394000D01*
X4928571Y-2408286D01*
X4942857Y-2436857D01*
X4942857Y-2465429D01*
X4928571Y-2508286D01*
X4757143Y-2679714D01*
X4942857Y-2679714D01*
X5300000Y-2679714D02*
X5300000Y-2379714D01*
X5428571Y-2679714D02*
X5428571Y-2522571D01*
X5414286Y-2494000D01*
X5385714Y-2479714D01*
X5342857Y-2479714D01*
X5314286Y-2494000D01*
X5300000Y-2508286D01*
X5614286Y-2679714D02*
X5585714Y-2665429D01*
X5571429Y-2651143D01*
X5557143Y-2622571D01*
X5557143Y-2536857D01*
X5571429Y-2508286D01*
X5585714Y-2494000D01*
X5614286Y-2479714D01*
X5657143Y-2479714D01*
X5685714Y-2494000D01*
X5700000Y-2508286D01*
X5714286Y-2536857D01*
X5714286Y-2622571D01*
X5700000Y-2651143D01*
X5685714Y-2665429D01*
X5657143Y-2679714D01*
X5614286Y-2679714D01*
X5885714Y-2679714D02*
X5857143Y-2665429D01*
X5842857Y-2636857D01*
X5842857Y-2379714D01*
X6114286Y-2665429D02*
X6085714Y-2679714D01*
X6028571Y-2679714D01*
X6000000Y-2665429D01*
X5985714Y-2636857D01*
X5985714Y-2522571D01*
X6000000Y-2494000D01*
X6028571Y-2479714D01*
X6085714Y-2479714D01*
X6114286Y-2494000D01*
X6128571Y-2522571D01*
X6128571Y-2551143D01*
X5985714Y-2579714D01*
X6242857Y-2665429D02*
X6271429Y-2679714D01*
X6328571Y-2679714D01*
X6357143Y-2665429D01*
X6371429Y-2636857D01*
X6371429Y-2622571D01*
X6357143Y-2594000D01*
X6328571Y-2579714D01*
X6285714Y-2579714D01*
X6257143Y-2565429D01*
X6242857Y-2536857D01*
X6242857Y-2522571D01*
X6257143Y-2494000D01*
X6285714Y-2479714D01*
X6328571Y-2479714D01*
X6357143Y-2494000D01*
X6471428Y-2794000D02*
X6485714Y-2779714D01*
X6514286Y-2736857D01*
X6528571Y-2708286D01*
X6542857Y-2665429D01*
X6557143Y-2594000D01*
X6557143Y-2536857D01*
X6542857Y-2465429D01*
X6528571Y-2422571D01*
X6514286Y-2394000D01*
X6485714Y-2351143D01*
X6471428Y-2336857D01*
M02*
