G04 #@! TF.FileFunction,Soldermask,Bot*
%FSLAX46Y46*%
G04 Gerber Fmt 4.6, Leading zero omitted, Abs format (unit mm)*
G04 Created by KiCad (PCBNEW 4.0.2+e4-6225~38~ubuntu15.10.1-stable) date Thu 13 Oct 2016 11:17:32 SAST*
%MOMM*%
G01*
G04 APERTURE LIST*
%ADD10C,0.100000*%
%ADD11R,1.598880X1.598880*%
%ADD12C,7.900000*%
%ADD13R,1.900000X1.650000*%
%ADD14R,2.127200X2.432000*%
%ADD15O,2.127200X2.432000*%
%ADD16R,0.800000X1.750000*%
%ADD17O,1.650000X1.350000*%
%ADD18O,1.400000X1.950000*%
%ADD19R,2.432000X2.432000*%
%ADD20O,2.432000X2.432000*%
%ADD21R,1.700000X1.900000*%
%ADD22R,1.900000X1.700000*%
%ADD23O,1.500000X2.800000*%
%ADD24R,2.800000X1.500000*%
%ADD25O,2.800000X1.500000*%
%ADD26R,2.432000X2.127200*%
%ADD27O,2.432000X2.127200*%
%ADD28R,1.400760X2.901900*%
%ADD29R,2.398980X4.400500*%
%ADD30R,0.850000X1.900000*%
%ADD31R,1.900000X0.850000*%
%ADD32R,1.950000X1.700000*%
%ADD33R,1.650000X1.900000*%
%ADD34R,1.371600X0.482600*%
%ADD35R,2.400000X2.800000*%
%ADD36R,1.460000X1.050000*%
G04 APERTURE END LIST*
D10*
D11*
X139050000Y-118549020D03*
X139050000Y-116450980D03*
D12*
X122402600Y-80899000D03*
D13*
X131287200Y-88798400D03*
X133787200Y-88798400D03*
X141950000Y-123100000D03*
X144450000Y-123100000D03*
X131236400Y-85496400D03*
X133736400Y-85496400D03*
D14*
X75387200Y-91084400D03*
D15*
X77927200Y-91084400D03*
X80467200Y-91084400D03*
X83007200Y-91084400D03*
D16*
X131650900Y-127887460D03*
X131000900Y-127887460D03*
X130350900Y-127887460D03*
X129700900Y-127887460D03*
X129050900Y-127887460D03*
D17*
X132850900Y-127887460D03*
X127850900Y-127887460D03*
D18*
X133850900Y-130587460D03*
X126850900Y-130587460D03*
D14*
X93472000Y-94361000D03*
D15*
X96012000Y-94361000D03*
X98552000Y-94361000D03*
X101092000Y-94361000D03*
D19*
X141900000Y-126100000D03*
D20*
X144440000Y-126100000D03*
D19*
X111201200Y-128422400D03*
D20*
X111201200Y-125882400D03*
D21*
X79248000Y-119655600D03*
X79248000Y-122355600D03*
D22*
X69041000Y-92329000D03*
X66341000Y-92329000D03*
D21*
X110185200Y-108842800D03*
X110185200Y-106142800D03*
D22*
X112856000Y-112572800D03*
X110156000Y-112572800D03*
D21*
X83515200Y-107369600D03*
X83515200Y-104669600D03*
X83870800Y-121288800D03*
X83870800Y-118588800D03*
D23*
X92296400Y-104849200D03*
X94296400Y-104849200D03*
X96296400Y-104849200D03*
X98296400Y-104849200D03*
X100296400Y-104849200D03*
X102296400Y-104849200D03*
D24*
X89306400Y-120599200D03*
D25*
X89306400Y-118599200D03*
X89306400Y-116599200D03*
X89306400Y-114599200D03*
X89306400Y-112599200D03*
X89306400Y-110599200D03*
X89306400Y-108599200D03*
X89306400Y-106599200D03*
X105306400Y-106599200D03*
X105306400Y-108599200D03*
X105306400Y-110599200D03*
X105306400Y-112599200D03*
X105306400Y-114599200D03*
X105306400Y-116599200D03*
X105306400Y-118599200D03*
X105306400Y-120599200D03*
D26*
X114096800Y-121158000D03*
D27*
X114096800Y-118618000D03*
X114096800Y-116078000D03*
D28*
X144801140Y-116552040D03*
X143300000Y-116552040D03*
X141798860Y-116552040D03*
D29*
X143300000Y-112599800D03*
D10*
G36*
X142599620Y-115523950D02*
X142099240Y-114374650D01*
X144500760Y-114374650D01*
X144000380Y-115523950D01*
X142599620Y-115523950D01*
X142599620Y-115523950D01*
G37*
D30*
X75398200Y-109724400D03*
X76048200Y-109724400D03*
X76698200Y-109724400D03*
X77348200Y-109724400D03*
X77998200Y-109724400D03*
X78648200Y-109724400D03*
X79298200Y-109724400D03*
X79948200Y-109724400D03*
X79948200Y-115624400D03*
X79298200Y-115624400D03*
X78648200Y-115624400D03*
X77998200Y-115624400D03*
X77348200Y-115624400D03*
X76698200Y-115624400D03*
X76048200Y-115624400D03*
X75398200Y-115624400D03*
D31*
X94382800Y-89397000D03*
X94382800Y-88747000D03*
X94382800Y-88097000D03*
X94382800Y-87447000D03*
X94382800Y-86797000D03*
X94382800Y-86147000D03*
X94382800Y-85497000D03*
X94382800Y-84847000D03*
X100282800Y-84847000D03*
X100282800Y-85497000D03*
X100282800Y-86147000D03*
X100282800Y-86797000D03*
X100282800Y-87447000D03*
X100282800Y-88097000D03*
X100282800Y-88747000D03*
X100282800Y-89397000D03*
D32*
X65367000Y-126710000D03*
X73317000Y-126710000D03*
X65367000Y-122210000D03*
X73317000Y-122210000D03*
X62395000Y-122210000D03*
X54445000Y-122210000D03*
X62395000Y-126710000D03*
X54445000Y-126710000D03*
D33*
X120700800Y-103321800D03*
X120700800Y-105821800D03*
X120218200Y-116794600D03*
X120218200Y-114294600D03*
X136900000Y-126650000D03*
X136900000Y-129150000D03*
D34*
X126466600Y-119126000D03*
X126466600Y-118491000D03*
X126466600Y-117830600D03*
X126466600Y-117170200D03*
X126466600Y-116535200D03*
X126466600Y-115874800D03*
X126466600Y-115214400D03*
X126466600Y-114579400D03*
X126466600Y-113919000D03*
X126466600Y-113284000D03*
X133705600Y-113284000D03*
X133705600Y-113919000D03*
X133705600Y-114579400D03*
X133705600Y-115214400D03*
X133705600Y-115874800D03*
X133705600Y-116535200D03*
X133705600Y-117170200D03*
X133705600Y-117830600D03*
X133705600Y-118491000D03*
X133705600Y-119126000D03*
D35*
X120708200Y-109067600D03*
X124808200Y-109067600D03*
D33*
X124790200Y-103321800D03*
X124790200Y-105821800D03*
D12*
X73317100Y-80937100D03*
D13*
X144450000Y-129300000D03*
X141950000Y-129300000D03*
X144350000Y-120300000D03*
X141850000Y-120300000D03*
D21*
X139050000Y-113950000D03*
X139050000Y-111250000D03*
D22*
X130600000Y-105850000D03*
X127900000Y-105850000D03*
D36*
X136700000Y-121450000D03*
X136700000Y-122400000D03*
X136700000Y-123350000D03*
X134500000Y-123350000D03*
X134500000Y-121450000D03*
D13*
X84150000Y-129900000D03*
X81650000Y-129900000D03*
X74950000Y-129900000D03*
X77450000Y-129900000D03*
D11*
X136850000Y-116450980D03*
X136850000Y-118549020D03*
D22*
X130600000Y-103350000D03*
X127900000Y-103350000D03*
M02*
