G04 #@! TF.FileFunction,Legend,Top*
%FSLAX46Y46*%
G04 Gerber Fmt 4.6, Leading zero omitted, Abs format (unit mm)*
G04 Created by KiCad (PCBNEW 4.0.2+e4-6225~38~ubuntu15.10.1-stable) date Thu 13 Oct 2016 11:17:32 SAST*
%MOMM*%
G01*
G04 APERTURE LIST*
%ADD10C,0.100000*%
%ADD11C,0.150000*%
G04 APERTURE END LIST*
D10*
D11*
X126402600Y-80899000D02*
G75*
G03X126402600Y-80899000I-4000000J0D01*
G01*
X128079100Y-94882100D02*
X128079100Y-94632100D01*
X128079100Y-94632100D02*
X134379100Y-94632100D01*
X134379100Y-94632100D02*
X134379100Y-94882100D01*
X128079100Y-99382100D02*
X128079100Y-96782100D01*
X134379100Y-101282100D02*
X134379100Y-101532100D01*
X134379100Y-101532100D02*
X128079100Y-101532100D01*
X128079100Y-101532100D02*
X128079100Y-101282100D01*
X134379100Y-96782100D02*
X134379100Y-99382100D01*
X132879100Y-98082100D02*
G75*
G03X132879100Y-98082100I-1650000J0D01*
G01*
X119329600Y-109931600D02*
X119079600Y-109931600D01*
X119079600Y-109931600D02*
X119079600Y-103631600D01*
X119079600Y-103631600D02*
X119329600Y-103631600D01*
X123829600Y-109931600D02*
X121229600Y-109931600D01*
X125729600Y-103631600D02*
X125979600Y-103631600D01*
X125979600Y-103631600D02*
X125979600Y-109931600D01*
X125979600Y-109931600D02*
X125729600Y-109931600D01*
X121229600Y-103631600D02*
X123829600Y-103631600D01*
X124179600Y-106781600D02*
G75*
G03X124179600Y-106781600I-1650000J0D01*
G01*
X134366400Y-118668400D02*
X134366400Y-118918400D01*
X134366400Y-118918400D02*
X128066400Y-118918400D01*
X128066400Y-118918400D02*
X128066400Y-118668400D01*
X134366400Y-114168400D02*
X134366400Y-116768400D01*
X128066400Y-112268400D02*
X128066400Y-112018400D01*
X128066400Y-112018400D02*
X134366400Y-112018400D01*
X134366400Y-112018400D02*
X134366400Y-112268400D01*
X128066400Y-116768400D02*
X128066400Y-114168400D01*
X132866400Y-115468400D02*
G75*
G03X132866400Y-115468400I-1650000J0D01*
G01*
X143103200Y-103631600D02*
X143353200Y-103631600D01*
X143353200Y-103631600D02*
X143353200Y-109931600D01*
X143353200Y-109931600D02*
X143103200Y-109931600D01*
X138603200Y-103631600D02*
X141203200Y-103631600D01*
X136703200Y-109931600D02*
X136453200Y-109931600D01*
X136453200Y-109931600D02*
X136453200Y-103631600D01*
X136453200Y-103631600D02*
X136703200Y-103631600D01*
X141203200Y-109931600D02*
X138603200Y-109931600D01*
X141553200Y-106781600D02*
G75*
G03X141553200Y-106781600I-1650000J0D01*
G01*
X64922000Y-111912800D02*
X64922000Y-111662800D01*
X64922000Y-111662800D02*
X71222000Y-111662800D01*
X71222000Y-111662800D02*
X71222000Y-111912800D01*
X64922000Y-116412800D02*
X64922000Y-113812800D01*
X71222000Y-118312800D02*
X71222000Y-118562800D01*
X71222000Y-118562800D02*
X64922000Y-118562800D01*
X64922000Y-118562800D02*
X64922000Y-118312800D01*
X71222000Y-113812800D02*
X71222000Y-116412800D01*
X69722000Y-115112800D02*
G75*
G03X69722000Y-115112800I-1650000J0D01*
G01*
X73558800Y-109576000D02*
X73308800Y-109576000D01*
X73308800Y-109576000D02*
X73308800Y-103276000D01*
X73308800Y-103276000D02*
X73558800Y-103276000D01*
X78058800Y-109576000D02*
X75458800Y-109576000D01*
X79958800Y-103276000D02*
X80208800Y-103276000D01*
X80208800Y-103276000D02*
X80208800Y-109576000D01*
X80208800Y-109576000D02*
X79958800Y-109576000D01*
X75458800Y-103276000D02*
X78058800Y-103276000D01*
X78408800Y-106426000D02*
G75*
G03X78408800Y-106426000I-1650000J0D01*
G01*
X71222000Y-100939200D02*
X71222000Y-101189200D01*
X71222000Y-101189200D02*
X64922000Y-101189200D01*
X64922000Y-101189200D02*
X64922000Y-100939200D01*
X71222000Y-96439200D02*
X71222000Y-99039200D01*
X64922000Y-94539200D02*
X64922000Y-94289200D01*
X64922000Y-94289200D02*
X71222000Y-94289200D01*
X71222000Y-94289200D02*
X71222000Y-94539200D01*
X64922000Y-99039200D02*
X64922000Y-96439200D01*
X69722000Y-97739200D02*
G75*
G03X69722000Y-97739200I-1650000J0D01*
G01*
X62585200Y-103276000D02*
X62835200Y-103276000D01*
X62835200Y-103276000D02*
X62835200Y-109576000D01*
X62835200Y-109576000D02*
X62585200Y-109576000D01*
X58085200Y-103276000D02*
X60685200Y-103276000D01*
X56185200Y-109576000D02*
X55935200Y-109576000D01*
X55935200Y-109576000D02*
X55935200Y-103276000D01*
X55935200Y-103276000D02*
X56185200Y-103276000D01*
X60685200Y-109576000D02*
X58085200Y-109576000D01*
X61035200Y-106426000D02*
G75*
G03X61035200Y-106426000I-1650000J0D01*
G01*
X76657200Y-92354400D02*
X84277200Y-92354400D01*
X76657200Y-89814400D02*
X84277200Y-89814400D01*
X73837200Y-89534400D02*
X75387200Y-89534400D01*
X84277200Y-92354400D02*
X84277200Y-89814400D01*
X76657200Y-89814400D02*
X76657200Y-92354400D01*
X75387200Y-92634400D02*
X73837200Y-92634400D01*
X73837200Y-92634400D02*
X73837200Y-89534400D01*
X78447200Y-93802400D02*
X78447200Y-96502400D01*
X79947200Y-93802400D02*
X79947200Y-96502400D01*
X79047200Y-95302400D02*
X79297200Y-95302400D01*
X79297200Y-95302400D02*
X79147200Y-95152400D01*
X79547200Y-95052400D02*
X78847200Y-95052400D01*
X79197200Y-95402400D02*
X79197200Y-95752400D01*
X79197200Y-95052400D02*
X79547200Y-95402400D01*
X79547200Y-95402400D02*
X78847200Y-95402400D01*
X78847200Y-95402400D02*
X79197200Y-95052400D01*
X72910000Y-121844000D02*
X72910000Y-124544000D01*
X74410000Y-121844000D02*
X74410000Y-124544000D01*
X73510000Y-123344000D02*
X73760000Y-123344000D01*
X73760000Y-123344000D02*
X73610000Y-123194000D01*
X74010000Y-123094000D02*
X73310000Y-123094000D01*
X73660000Y-123444000D02*
X73660000Y-123794000D01*
X73660000Y-123094000D02*
X74010000Y-123444000D01*
X74010000Y-123444000D02*
X73310000Y-123444000D01*
X73310000Y-123444000D02*
X73660000Y-123094000D01*
X70624000Y-121844000D02*
X70624000Y-124544000D01*
X72124000Y-121844000D02*
X72124000Y-124544000D01*
X71224000Y-123344000D02*
X71474000Y-123344000D01*
X71474000Y-123344000D02*
X71324000Y-123194000D01*
X71724000Y-123094000D02*
X71024000Y-123094000D01*
X71374000Y-123444000D02*
X71374000Y-123794000D01*
X71374000Y-123094000D02*
X71724000Y-123444000D01*
X71724000Y-123444000D02*
X71024000Y-123444000D01*
X71024000Y-123444000D02*
X71374000Y-123094000D01*
X68338000Y-121844000D02*
X68338000Y-124544000D01*
X69838000Y-121844000D02*
X69838000Y-124544000D01*
X68938000Y-123344000D02*
X69188000Y-123344000D01*
X69188000Y-123344000D02*
X69038000Y-123194000D01*
X69438000Y-123094000D02*
X68738000Y-123094000D01*
X69088000Y-123444000D02*
X69088000Y-123794000D01*
X69088000Y-123094000D02*
X69438000Y-123444000D01*
X69438000Y-123444000D02*
X68738000Y-123444000D01*
X68738000Y-123444000D02*
X69088000Y-123094000D01*
X66052000Y-121844000D02*
X66052000Y-124544000D01*
X67552000Y-121844000D02*
X67552000Y-124544000D01*
X66652000Y-123344000D02*
X66902000Y-123344000D01*
X66902000Y-123344000D02*
X66752000Y-123194000D01*
X67152000Y-123094000D02*
X66452000Y-123094000D01*
X66802000Y-123444000D02*
X66802000Y-123794000D01*
X66802000Y-123094000D02*
X67152000Y-123444000D01*
X67152000Y-123444000D02*
X66452000Y-123444000D01*
X66452000Y-123444000D02*
X66802000Y-123094000D01*
X75196000Y-121844000D02*
X75196000Y-124544000D01*
X76696000Y-121844000D02*
X76696000Y-124544000D01*
X75796000Y-123344000D02*
X76046000Y-123344000D01*
X76046000Y-123344000D02*
X75896000Y-123194000D01*
X76296000Y-123094000D02*
X75596000Y-123094000D01*
X75946000Y-123444000D02*
X75946000Y-123794000D01*
X75946000Y-123094000D02*
X76296000Y-123444000D01*
X76296000Y-123444000D02*
X75596000Y-123444000D01*
X75596000Y-123444000D02*
X75946000Y-123094000D01*
X94742000Y-95631000D02*
X102362000Y-95631000D01*
X94742000Y-93091000D02*
X102362000Y-93091000D01*
X91922000Y-92811000D02*
X93472000Y-92811000D01*
X102362000Y-95631000D02*
X102362000Y-93091000D01*
X94742000Y-93091000D02*
X94742000Y-95631000D01*
X93472000Y-95911000D02*
X91922000Y-95911000D01*
X91922000Y-95911000D02*
X91922000Y-92811000D01*
X141591600Y-87503200D02*
X141591600Y-90203200D01*
X143091600Y-87503200D02*
X143091600Y-90203200D01*
X142191600Y-89003200D02*
X142441600Y-89003200D01*
X142441600Y-89003200D02*
X142291600Y-88853200D01*
X142691600Y-88753200D02*
X141991600Y-88753200D01*
X142341600Y-89103200D02*
X142341600Y-89453200D01*
X142341600Y-88753200D02*
X142691600Y-89103200D01*
X142691600Y-89103200D02*
X141991600Y-89103200D01*
X141991600Y-89103200D02*
X142341600Y-88753200D01*
X143170000Y-124830000D02*
X145710000Y-124830000D01*
X140350000Y-124550000D02*
X141900000Y-124550000D01*
X143170000Y-124830000D02*
X143170000Y-127370000D01*
X141900000Y-127650000D02*
X140350000Y-127650000D01*
X140350000Y-127650000D02*
X140350000Y-124550000D01*
X143170000Y-127370000D02*
X145710000Y-127370000D01*
X145710000Y-127370000D02*
X145710000Y-124830000D01*
X109931200Y-127152400D02*
X109931200Y-124612400D01*
X109651200Y-129972400D02*
X109651200Y-128422400D01*
X109931200Y-127152400D02*
X112471200Y-127152400D01*
X112751200Y-128422400D02*
X112751200Y-129972400D01*
X112751200Y-129972400D02*
X109651200Y-129972400D01*
X112471200Y-127152400D02*
X112471200Y-124612400D01*
X112471200Y-124612400D02*
X109931200Y-124612400D01*
X143115000Y-96631200D02*
X143115000Y-97831200D01*
X141365000Y-97831200D02*
X141365000Y-96631200D01*
X83577400Y-94599200D02*
X83577400Y-95799200D01*
X81827400Y-95799200D02*
X81827400Y-94599200D01*
X81245000Y-125335000D02*
X80045000Y-125335000D01*
X80045000Y-123585000D02*
X81245000Y-123585000D01*
X59344000Y-121426000D02*
X60544000Y-121426000D01*
X60544000Y-123176000D02*
X59344000Y-123176000D01*
X59344000Y-123966000D02*
X60544000Y-123966000D01*
X60544000Y-125716000D02*
X59344000Y-125716000D01*
X59344000Y-126506000D02*
X60544000Y-126506000D01*
X60544000Y-128256000D02*
X59344000Y-128256000D01*
X75657000Y-128129000D02*
X74457000Y-128129000D01*
X74457000Y-126379000D02*
X75657000Y-126379000D01*
X137707400Y-97780400D02*
X137707400Y-96580400D01*
X139457400Y-96580400D02*
X139457400Y-97780400D01*
X122240600Y-99909600D02*
X121040600Y-99909600D01*
X121040600Y-98159600D02*
X122240600Y-98159600D01*
X124471400Y-115732000D02*
X124471400Y-116932000D01*
X122721400Y-116932000D02*
X122721400Y-115732000D01*
X140166800Y-113221800D02*
X141366800Y-113221800D01*
X141366800Y-114971800D02*
X140166800Y-114971800D01*
X59627800Y-116678000D02*
X59627800Y-115478000D01*
X61377800Y-115478000D02*
X61377800Y-116678000D01*
X76211400Y-96224800D02*
X76211400Y-97424800D01*
X74461400Y-97424800D02*
X74461400Y-96224800D01*
X57870800Y-98337400D02*
X59070800Y-98337400D01*
X59070800Y-100087400D02*
X57870800Y-100087400D01*
X115366800Y-119888000D02*
X115366800Y-114808000D01*
X115366800Y-114808000D02*
X112826800Y-114808000D01*
X112826800Y-114808000D02*
X112826800Y-119888000D01*
X112546800Y-122708000D02*
X112546800Y-121158000D01*
X112826800Y-119888000D02*
X115366800Y-119888000D01*
X115646800Y-121158000D02*
X115646800Y-122708000D01*
X115646800Y-122708000D02*
X112546800Y-122708000D01*
X77317100Y-80937100D02*
G75*
G03X77317100Y-80937100I-4000000J0D01*
G01*
D10*
X126102600Y-80899000D02*
G75*
G03X126102600Y-80899000I-3700000J0D01*
G01*
X78740800Y-91236800D02*
X78740800Y-90932000D01*
X77113600Y-91236800D02*
X77113600Y-90932000D01*
X78740800Y-90932000D02*
G75*
G03X77113600Y-90932000I-813600J0D01*
G01*
X77113600Y-91236800D02*
G75*
G03X78740800Y-91236800I813600J0D01*
G01*
X81280800Y-91236800D02*
X81280800Y-90932000D01*
X79653600Y-91236800D02*
X79653600Y-90932000D01*
X81280800Y-90932000D02*
G75*
G03X79653600Y-90932000I-813600J0D01*
G01*
X79653600Y-91236800D02*
G75*
G03X81280800Y-91236800I813600J0D01*
G01*
X83820800Y-91236800D02*
X83820800Y-90932000D01*
X82193600Y-91236800D02*
X82193600Y-90932000D01*
X83820800Y-90932000D02*
G75*
G03X82193600Y-90932000I-813600J0D01*
G01*
X82193600Y-91236800D02*
G75*
G03X83820800Y-91236800I813600J0D01*
G01*
X96825600Y-94513400D02*
X96825600Y-94208600D01*
X95198400Y-94513400D02*
X95198400Y-94208600D01*
X96825600Y-94208600D02*
G75*
G03X95198400Y-94208600I-813600J0D01*
G01*
X95198400Y-94513400D02*
G75*
G03X96825600Y-94513400I813600J0D01*
G01*
X99365600Y-94513400D02*
X99365600Y-94208600D01*
X97738400Y-94513400D02*
X97738400Y-94208600D01*
X99365600Y-94208600D02*
G75*
G03X97738400Y-94208600I-813600J0D01*
G01*
X97738400Y-94513400D02*
G75*
G03X99365600Y-94513400I813600J0D01*
G01*
X101905600Y-94513400D02*
X101905600Y-94208600D01*
X100278400Y-94513400D02*
X100278400Y-94208600D01*
X101905600Y-94208600D02*
G75*
G03X100278400Y-94208600I-813600J0D01*
G01*
X100278400Y-94513400D02*
G75*
G03X101905600Y-94513400I813600J0D01*
G01*
X144440000Y-127066000D02*
X144440000Y-127066000D01*
X144440000Y-125134000D02*
X144440000Y-125134000D01*
X144440000Y-127066000D02*
G75*
G03X144440000Y-125134000I0J966000D01*
G01*
X144440000Y-125134000D02*
G75*
G03X144440000Y-127066000I0J-966000D01*
G01*
X112167200Y-125882400D02*
X112167200Y-125882400D01*
X110235200Y-125882400D02*
X110235200Y-125882400D01*
X112167200Y-125882400D02*
G75*
G03X110235200Y-125882400I-966000J0D01*
G01*
X110235200Y-125882400D02*
G75*
G03X112167200Y-125882400I966000J0D01*
G01*
X114249200Y-117804400D02*
X113944400Y-117804400D01*
X114249200Y-119431600D02*
X113944400Y-119431600D01*
X113944400Y-117804400D02*
G75*
G03X113944400Y-119431600I0J-813600D01*
G01*
X114249200Y-119431600D02*
G75*
G03X114249200Y-117804400I0J813600D01*
G01*
X114249200Y-115264400D02*
X113944400Y-115264400D01*
X114249200Y-116891600D02*
X113944400Y-116891600D01*
X113944400Y-115264400D02*
G75*
G03X113944400Y-116891600I0J-813600D01*
G01*
X114249200Y-116891600D02*
G75*
G03X114249200Y-115264400I0J813600D01*
G01*
X77017100Y-80937100D02*
G75*
G03X77017100Y-80937100I-3700000J0D01*
G01*
D11*
X121069267Y-76303381D02*
X120735933Y-75827190D01*
X120497838Y-76303381D02*
X120497838Y-75303381D01*
X120878791Y-75303381D01*
X120974029Y-75351000D01*
X121021648Y-75398619D01*
X121069267Y-75493857D01*
X121069267Y-75636714D01*
X121021648Y-75731952D01*
X120974029Y-75779571D01*
X120878791Y-75827190D01*
X120497838Y-75827190D01*
X121497838Y-75779571D02*
X121831172Y-75779571D01*
X121974029Y-76303381D02*
X121497838Y-76303381D01*
X121497838Y-75303381D01*
X121974029Y-75303381D01*
X122735934Y-75779571D02*
X122402600Y-75779571D01*
X122402600Y-76303381D02*
X122402600Y-75303381D01*
X122878791Y-75303381D01*
X123402600Y-75303381D02*
X123402600Y-75541476D01*
X123164505Y-75446238D02*
X123402600Y-75541476D01*
X123640696Y-75446238D01*
X123259743Y-75731952D02*
X123402600Y-75541476D01*
X123545458Y-75731952D01*
X124164505Y-75303381D02*
X124164505Y-75541476D01*
X123926410Y-75446238D02*
X124164505Y-75541476D01*
X124402601Y-75446238D01*
X124021648Y-75731952D02*
X124164505Y-75541476D01*
X124307363Y-75731952D01*
X127705291Y-93510671D02*
X127848148Y-93558290D01*
X127895767Y-93605910D01*
X127943386Y-93701148D01*
X127943386Y-93844005D01*
X127895767Y-93939243D01*
X127848148Y-93986862D01*
X127752910Y-94034481D01*
X127371957Y-94034481D01*
X127371957Y-93034481D01*
X127705291Y-93034481D01*
X127800529Y-93082100D01*
X127848148Y-93129719D01*
X127895767Y-93224957D01*
X127895767Y-93320195D01*
X127848148Y-93415433D01*
X127800529Y-93463052D01*
X127705291Y-93510671D01*
X127371957Y-93510671D01*
X128371957Y-93034481D02*
X128371957Y-93844005D01*
X128419576Y-93939243D01*
X128467195Y-93986862D01*
X128562433Y-94034481D01*
X128752910Y-94034481D01*
X128848148Y-93986862D01*
X128895767Y-93939243D01*
X128943386Y-93844005D01*
X128943386Y-93034481D01*
X129276719Y-93034481D02*
X129848148Y-93034481D01*
X129562433Y-94034481D02*
X129562433Y-93034481D01*
X130038624Y-93034481D02*
X130610053Y-93034481D01*
X130324338Y-94034481D02*
X130324338Y-93034481D01*
X131133862Y-93034481D02*
X131324339Y-93034481D01*
X131419577Y-93082100D01*
X131514815Y-93177338D01*
X131562434Y-93367814D01*
X131562434Y-93701148D01*
X131514815Y-93891624D01*
X131419577Y-93986862D01*
X131324339Y-94034481D01*
X131133862Y-94034481D01*
X131038624Y-93986862D01*
X130943386Y-93891624D01*
X130895767Y-93701148D01*
X130895767Y-93367814D01*
X130943386Y-93177338D01*
X131038624Y-93082100D01*
X131133862Y-93034481D01*
X131991005Y-94034481D02*
X131991005Y-93034481D01*
X132562434Y-94034481D01*
X132562434Y-93034481D01*
X132800529Y-94129719D02*
X133562434Y-94129719D01*
X134276720Y-94034481D02*
X133800529Y-94034481D01*
X133800529Y-93034481D01*
X135133863Y-94034481D02*
X134562434Y-94034481D01*
X134848148Y-94034481D02*
X134848148Y-93034481D01*
X134752910Y-93177338D01*
X134657672Y-93272576D01*
X134562434Y-93320195D01*
X117958171Y-110305409D02*
X118005790Y-110162552D01*
X118053410Y-110114933D01*
X118148648Y-110067314D01*
X118291505Y-110067314D01*
X118386743Y-110114933D01*
X118434362Y-110162552D01*
X118481981Y-110257790D01*
X118481981Y-110638743D01*
X117481981Y-110638743D01*
X117481981Y-110305409D01*
X117529600Y-110210171D01*
X117577219Y-110162552D01*
X117672457Y-110114933D01*
X117767695Y-110114933D01*
X117862933Y-110162552D01*
X117910552Y-110210171D01*
X117958171Y-110305409D01*
X117958171Y-110638743D01*
X117481981Y-109638743D02*
X118291505Y-109638743D01*
X118386743Y-109591124D01*
X118434362Y-109543505D01*
X118481981Y-109448267D01*
X118481981Y-109257790D01*
X118434362Y-109162552D01*
X118386743Y-109114933D01*
X118291505Y-109067314D01*
X117481981Y-109067314D01*
X117481981Y-108733981D02*
X117481981Y-108162552D01*
X118481981Y-108448267D02*
X117481981Y-108448267D01*
X117481981Y-107972076D02*
X117481981Y-107400647D01*
X118481981Y-107686362D02*
X117481981Y-107686362D01*
X117481981Y-106876838D02*
X117481981Y-106686361D01*
X117529600Y-106591123D01*
X117624838Y-106495885D01*
X117815314Y-106448266D01*
X118148648Y-106448266D01*
X118339124Y-106495885D01*
X118434362Y-106591123D01*
X118481981Y-106686361D01*
X118481981Y-106876838D01*
X118434362Y-106972076D01*
X118339124Y-107067314D01*
X118148648Y-107114933D01*
X117815314Y-107114933D01*
X117624838Y-107067314D01*
X117529600Y-106972076D01*
X117481981Y-106876838D01*
X118481981Y-106019695D02*
X117481981Y-106019695D01*
X118481981Y-105448266D01*
X117481981Y-105448266D01*
X118577219Y-105210171D02*
X118577219Y-104448266D01*
X118481981Y-103733980D02*
X118481981Y-104210171D01*
X117481981Y-104210171D01*
X117577219Y-103448266D02*
X117529600Y-103400647D01*
X117481981Y-103305409D01*
X117481981Y-103067313D01*
X117529600Y-102972075D01*
X117577219Y-102924456D01*
X117672457Y-102876837D01*
X117767695Y-102876837D01*
X117910552Y-102924456D01*
X118481981Y-103495885D01*
X118481981Y-102876837D01*
X127692591Y-119896971D02*
X127835448Y-119944590D01*
X127883067Y-119992210D01*
X127930686Y-120087448D01*
X127930686Y-120230305D01*
X127883067Y-120325543D01*
X127835448Y-120373162D01*
X127740210Y-120420781D01*
X127359257Y-120420781D01*
X127359257Y-119420781D01*
X127692591Y-119420781D01*
X127787829Y-119468400D01*
X127835448Y-119516019D01*
X127883067Y-119611257D01*
X127883067Y-119706495D01*
X127835448Y-119801733D01*
X127787829Y-119849352D01*
X127692591Y-119896971D01*
X127359257Y-119896971D01*
X128359257Y-119420781D02*
X128359257Y-120230305D01*
X128406876Y-120325543D01*
X128454495Y-120373162D01*
X128549733Y-120420781D01*
X128740210Y-120420781D01*
X128835448Y-120373162D01*
X128883067Y-120325543D01*
X128930686Y-120230305D01*
X128930686Y-119420781D01*
X129264019Y-119420781D02*
X129835448Y-119420781D01*
X129549733Y-120420781D02*
X129549733Y-119420781D01*
X130025924Y-119420781D02*
X130597353Y-119420781D01*
X130311638Y-120420781D02*
X130311638Y-119420781D01*
X131121162Y-119420781D02*
X131311639Y-119420781D01*
X131406877Y-119468400D01*
X131502115Y-119563638D01*
X131549734Y-119754114D01*
X131549734Y-120087448D01*
X131502115Y-120277924D01*
X131406877Y-120373162D01*
X131311639Y-120420781D01*
X131121162Y-120420781D01*
X131025924Y-120373162D01*
X130930686Y-120277924D01*
X130883067Y-120087448D01*
X130883067Y-119754114D01*
X130930686Y-119563638D01*
X131025924Y-119468400D01*
X131121162Y-119420781D01*
X131978305Y-120420781D02*
X131978305Y-119420781D01*
X132549734Y-120420781D01*
X132549734Y-119420781D01*
X132787829Y-120516019D02*
X133549734Y-120516019D01*
X134264020Y-120420781D02*
X133787829Y-120420781D01*
X133787829Y-119420781D01*
X134502115Y-119420781D02*
X135121163Y-119420781D01*
X134787829Y-119801733D01*
X134930687Y-119801733D01*
X135025925Y-119849352D01*
X135073544Y-119896971D01*
X135121163Y-119992210D01*
X135121163Y-120230305D01*
X135073544Y-120325543D01*
X135025925Y-120373162D01*
X134930687Y-120420781D01*
X134644972Y-120420781D01*
X134549734Y-120373162D01*
X134502115Y-120325543D01*
X144331771Y-110305409D02*
X144379390Y-110162552D01*
X144427010Y-110114933D01*
X144522248Y-110067314D01*
X144665105Y-110067314D01*
X144760343Y-110114933D01*
X144807962Y-110162552D01*
X144855581Y-110257790D01*
X144855581Y-110638743D01*
X143855581Y-110638743D01*
X143855581Y-110305409D01*
X143903200Y-110210171D01*
X143950819Y-110162552D01*
X144046057Y-110114933D01*
X144141295Y-110114933D01*
X144236533Y-110162552D01*
X144284152Y-110210171D01*
X144331771Y-110305409D01*
X144331771Y-110638743D01*
X143855581Y-109638743D02*
X144665105Y-109638743D01*
X144760343Y-109591124D01*
X144807962Y-109543505D01*
X144855581Y-109448267D01*
X144855581Y-109257790D01*
X144807962Y-109162552D01*
X144760343Y-109114933D01*
X144665105Y-109067314D01*
X143855581Y-109067314D01*
X143855581Y-108733981D02*
X143855581Y-108162552D01*
X144855581Y-108448267D02*
X143855581Y-108448267D01*
X143855581Y-107972076D02*
X143855581Y-107400647D01*
X144855581Y-107686362D02*
X143855581Y-107686362D01*
X143855581Y-106876838D02*
X143855581Y-106686361D01*
X143903200Y-106591123D01*
X143998438Y-106495885D01*
X144188914Y-106448266D01*
X144522248Y-106448266D01*
X144712724Y-106495885D01*
X144807962Y-106591123D01*
X144855581Y-106686361D01*
X144855581Y-106876838D01*
X144807962Y-106972076D01*
X144712724Y-107067314D01*
X144522248Y-107114933D01*
X144188914Y-107114933D01*
X143998438Y-107067314D01*
X143903200Y-106972076D01*
X143855581Y-106876838D01*
X144855581Y-106019695D02*
X143855581Y-106019695D01*
X144855581Y-105448266D01*
X143855581Y-105448266D01*
X144950819Y-105210171D02*
X144950819Y-104448266D01*
X144855581Y-103733980D02*
X144855581Y-104210171D01*
X143855581Y-104210171D01*
X144188914Y-102972075D02*
X144855581Y-102972075D01*
X143807962Y-103210171D02*
X144522248Y-103448266D01*
X144522248Y-102829218D01*
X64548191Y-110541371D02*
X64691048Y-110588990D01*
X64738667Y-110636610D01*
X64786286Y-110731848D01*
X64786286Y-110874705D01*
X64738667Y-110969943D01*
X64691048Y-111017562D01*
X64595810Y-111065181D01*
X64214857Y-111065181D01*
X64214857Y-110065181D01*
X64548191Y-110065181D01*
X64643429Y-110112800D01*
X64691048Y-110160419D01*
X64738667Y-110255657D01*
X64738667Y-110350895D01*
X64691048Y-110446133D01*
X64643429Y-110493752D01*
X64548191Y-110541371D01*
X64214857Y-110541371D01*
X65214857Y-110065181D02*
X65214857Y-110874705D01*
X65262476Y-110969943D01*
X65310095Y-111017562D01*
X65405333Y-111065181D01*
X65595810Y-111065181D01*
X65691048Y-111017562D01*
X65738667Y-110969943D01*
X65786286Y-110874705D01*
X65786286Y-110065181D01*
X66119619Y-110065181D02*
X66691048Y-110065181D01*
X66405333Y-111065181D02*
X66405333Y-110065181D01*
X66881524Y-110065181D02*
X67452953Y-110065181D01*
X67167238Y-111065181D02*
X67167238Y-110065181D01*
X67976762Y-110065181D02*
X68167239Y-110065181D01*
X68262477Y-110112800D01*
X68357715Y-110208038D01*
X68405334Y-110398514D01*
X68405334Y-110731848D01*
X68357715Y-110922324D01*
X68262477Y-111017562D01*
X68167239Y-111065181D01*
X67976762Y-111065181D01*
X67881524Y-111017562D01*
X67786286Y-110922324D01*
X67738667Y-110731848D01*
X67738667Y-110398514D01*
X67786286Y-110208038D01*
X67881524Y-110112800D01*
X67976762Y-110065181D01*
X68833905Y-111065181D02*
X68833905Y-110065181D01*
X69405334Y-111065181D01*
X69405334Y-110065181D01*
X69643429Y-111160419D02*
X70405334Y-111160419D01*
X71119620Y-111065181D02*
X70643429Y-111065181D01*
X70643429Y-110065181D01*
X71929144Y-110065181D02*
X71452953Y-110065181D01*
X71405334Y-110541371D01*
X71452953Y-110493752D01*
X71548191Y-110446133D01*
X71786287Y-110446133D01*
X71881525Y-110493752D01*
X71929144Y-110541371D01*
X71976763Y-110636610D01*
X71976763Y-110874705D01*
X71929144Y-110969943D01*
X71881525Y-111017562D01*
X71786287Y-111065181D01*
X71548191Y-111065181D01*
X71452953Y-111017562D01*
X71405334Y-110969943D01*
X72187371Y-109949809D02*
X72234990Y-109806952D01*
X72282610Y-109759333D01*
X72377848Y-109711714D01*
X72520705Y-109711714D01*
X72615943Y-109759333D01*
X72663562Y-109806952D01*
X72711181Y-109902190D01*
X72711181Y-110283143D01*
X71711181Y-110283143D01*
X71711181Y-109949809D01*
X71758800Y-109854571D01*
X71806419Y-109806952D01*
X71901657Y-109759333D01*
X71996895Y-109759333D01*
X72092133Y-109806952D01*
X72139752Y-109854571D01*
X72187371Y-109949809D01*
X72187371Y-110283143D01*
X71711181Y-109283143D02*
X72520705Y-109283143D01*
X72615943Y-109235524D01*
X72663562Y-109187905D01*
X72711181Y-109092667D01*
X72711181Y-108902190D01*
X72663562Y-108806952D01*
X72615943Y-108759333D01*
X72520705Y-108711714D01*
X71711181Y-108711714D01*
X71711181Y-108378381D02*
X71711181Y-107806952D01*
X72711181Y-108092667D02*
X71711181Y-108092667D01*
X71711181Y-107616476D02*
X71711181Y-107045047D01*
X72711181Y-107330762D02*
X71711181Y-107330762D01*
X71711181Y-106521238D02*
X71711181Y-106330761D01*
X71758800Y-106235523D01*
X71854038Y-106140285D01*
X72044514Y-106092666D01*
X72377848Y-106092666D01*
X72568324Y-106140285D01*
X72663562Y-106235523D01*
X72711181Y-106330761D01*
X72711181Y-106521238D01*
X72663562Y-106616476D01*
X72568324Y-106711714D01*
X72377848Y-106759333D01*
X72044514Y-106759333D01*
X71854038Y-106711714D01*
X71758800Y-106616476D01*
X71711181Y-106521238D01*
X72711181Y-105664095D02*
X71711181Y-105664095D01*
X72711181Y-105092666D01*
X71711181Y-105092666D01*
X72806419Y-104854571D02*
X72806419Y-104092666D01*
X72711181Y-103378380D02*
X72711181Y-103854571D01*
X71711181Y-103854571D01*
X71711181Y-102616475D02*
X71711181Y-102806952D01*
X71758800Y-102902190D01*
X71806419Y-102949809D01*
X71949276Y-103045047D01*
X72139752Y-103092666D01*
X72520705Y-103092666D01*
X72615943Y-103045047D01*
X72663562Y-102997428D01*
X72711181Y-102902190D01*
X72711181Y-102711713D01*
X72663562Y-102616475D01*
X72615943Y-102568856D01*
X72520705Y-102521237D01*
X72282610Y-102521237D01*
X72187371Y-102568856D01*
X72139752Y-102616475D01*
X72092133Y-102711713D01*
X72092133Y-102902190D01*
X72139752Y-102997428D01*
X72187371Y-103045047D01*
X72282610Y-103092666D01*
X64548191Y-102167771D02*
X64691048Y-102215390D01*
X64738667Y-102263010D01*
X64786286Y-102358248D01*
X64786286Y-102501105D01*
X64738667Y-102596343D01*
X64691048Y-102643962D01*
X64595810Y-102691581D01*
X64214857Y-102691581D01*
X64214857Y-101691581D01*
X64548191Y-101691581D01*
X64643429Y-101739200D01*
X64691048Y-101786819D01*
X64738667Y-101882057D01*
X64738667Y-101977295D01*
X64691048Y-102072533D01*
X64643429Y-102120152D01*
X64548191Y-102167771D01*
X64214857Y-102167771D01*
X65214857Y-101691581D02*
X65214857Y-102501105D01*
X65262476Y-102596343D01*
X65310095Y-102643962D01*
X65405333Y-102691581D01*
X65595810Y-102691581D01*
X65691048Y-102643962D01*
X65738667Y-102596343D01*
X65786286Y-102501105D01*
X65786286Y-101691581D01*
X66119619Y-101691581D02*
X66691048Y-101691581D01*
X66405333Y-102691581D02*
X66405333Y-101691581D01*
X66881524Y-101691581D02*
X67452953Y-101691581D01*
X67167238Y-102691581D02*
X67167238Y-101691581D01*
X67976762Y-101691581D02*
X68167239Y-101691581D01*
X68262477Y-101739200D01*
X68357715Y-101834438D01*
X68405334Y-102024914D01*
X68405334Y-102358248D01*
X68357715Y-102548724D01*
X68262477Y-102643962D01*
X68167239Y-102691581D01*
X67976762Y-102691581D01*
X67881524Y-102643962D01*
X67786286Y-102548724D01*
X67738667Y-102358248D01*
X67738667Y-102024914D01*
X67786286Y-101834438D01*
X67881524Y-101739200D01*
X67976762Y-101691581D01*
X68833905Y-102691581D02*
X68833905Y-101691581D01*
X69405334Y-102691581D01*
X69405334Y-101691581D01*
X69643429Y-102786819D02*
X70405334Y-102786819D01*
X71119620Y-102691581D02*
X70643429Y-102691581D01*
X70643429Y-101691581D01*
X71357715Y-101691581D02*
X72024382Y-101691581D01*
X71595810Y-102691581D01*
X63813771Y-109949809D02*
X63861390Y-109806952D01*
X63909010Y-109759333D01*
X64004248Y-109711714D01*
X64147105Y-109711714D01*
X64242343Y-109759333D01*
X64289962Y-109806952D01*
X64337581Y-109902190D01*
X64337581Y-110283143D01*
X63337581Y-110283143D01*
X63337581Y-109949809D01*
X63385200Y-109854571D01*
X63432819Y-109806952D01*
X63528057Y-109759333D01*
X63623295Y-109759333D01*
X63718533Y-109806952D01*
X63766152Y-109854571D01*
X63813771Y-109949809D01*
X63813771Y-110283143D01*
X63337581Y-109283143D02*
X64147105Y-109283143D01*
X64242343Y-109235524D01*
X64289962Y-109187905D01*
X64337581Y-109092667D01*
X64337581Y-108902190D01*
X64289962Y-108806952D01*
X64242343Y-108759333D01*
X64147105Y-108711714D01*
X63337581Y-108711714D01*
X63337581Y-108378381D02*
X63337581Y-107806952D01*
X64337581Y-108092667D02*
X63337581Y-108092667D01*
X63337581Y-107616476D02*
X63337581Y-107045047D01*
X64337581Y-107330762D02*
X63337581Y-107330762D01*
X63337581Y-106521238D02*
X63337581Y-106330761D01*
X63385200Y-106235523D01*
X63480438Y-106140285D01*
X63670914Y-106092666D01*
X64004248Y-106092666D01*
X64194724Y-106140285D01*
X64289962Y-106235523D01*
X64337581Y-106330761D01*
X64337581Y-106521238D01*
X64289962Y-106616476D01*
X64194724Y-106711714D01*
X64004248Y-106759333D01*
X63670914Y-106759333D01*
X63480438Y-106711714D01*
X63385200Y-106616476D01*
X63337581Y-106521238D01*
X64337581Y-105664095D02*
X63337581Y-105664095D01*
X64337581Y-105092666D01*
X63337581Y-105092666D01*
X64432819Y-104854571D02*
X64432819Y-104092666D01*
X64337581Y-103378380D02*
X64337581Y-103854571D01*
X63337581Y-103854571D01*
X63766152Y-102902190D02*
X63718533Y-102997428D01*
X63670914Y-103045047D01*
X63575676Y-103092666D01*
X63528057Y-103092666D01*
X63432819Y-103045047D01*
X63385200Y-102997428D01*
X63337581Y-102902190D01*
X63337581Y-102711713D01*
X63385200Y-102616475D01*
X63432819Y-102568856D01*
X63528057Y-102521237D01*
X63575676Y-102521237D01*
X63670914Y-102568856D01*
X63718533Y-102616475D01*
X63766152Y-102711713D01*
X63766152Y-102902190D01*
X63813771Y-102997428D01*
X63861390Y-103045047D01*
X63956629Y-103092666D01*
X64147105Y-103092666D01*
X64242343Y-103045047D01*
X64289962Y-102997428D01*
X64337581Y-102902190D01*
X64337581Y-102711713D01*
X64289962Y-102616475D01*
X64242343Y-102568856D01*
X64147105Y-102521237D01*
X63956629Y-102521237D01*
X63861390Y-102568856D01*
X63813771Y-102616475D01*
X63766152Y-102711713D01*
X70739581Y-91822495D02*
X69739581Y-91822495D01*
X69739581Y-91584400D01*
X69787200Y-91441542D01*
X69882438Y-91346304D01*
X69977676Y-91298685D01*
X70168152Y-91251066D01*
X70311010Y-91251066D01*
X70501486Y-91298685D01*
X70596724Y-91346304D01*
X70691962Y-91441542D01*
X70739581Y-91584400D01*
X70739581Y-91822495D01*
X70739581Y-90298685D02*
X70739581Y-90870114D01*
X70739581Y-90584400D02*
X69739581Y-90584400D01*
X69882438Y-90679638D01*
X69977676Y-90774876D01*
X70025295Y-90870114D01*
X81399581Y-98569067D02*
X80399581Y-98569067D01*
X80732914Y-98092877D02*
X81399581Y-98092877D01*
X80828152Y-98092877D02*
X80780533Y-98045258D01*
X80732914Y-97950020D01*
X80732914Y-97807162D01*
X80780533Y-97711924D01*
X80875771Y-97664305D01*
X81399581Y-97664305D01*
X80732914Y-97330972D02*
X80732914Y-96950020D01*
X81399581Y-97188115D02*
X80542438Y-97188115D01*
X80447200Y-97140496D01*
X80399581Y-97045258D01*
X80399581Y-96950020D01*
X81399581Y-96616686D02*
X80732914Y-96616686D01*
X80923390Y-96616686D02*
X80828152Y-96569067D01*
X80780533Y-96521448D01*
X80732914Y-96426210D01*
X80732914Y-96330971D01*
X81399581Y-95569066D02*
X80875771Y-95569066D01*
X80780533Y-95616685D01*
X80732914Y-95711923D01*
X80732914Y-95902400D01*
X80780533Y-95997638D01*
X81351962Y-95569066D02*
X81399581Y-95664304D01*
X81399581Y-95902400D01*
X81351962Y-95997638D01*
X81256724Y-96045257D01*
X81161486Y-96045257D01*
X81066248Y-95997638D01*
X81018629Y-95902400D01*
X81018629Y-95664304D01*
X80971010Y-95569066D01*
X81399581Y-95092876D02*
X80732914Y-95092876D01*
X80923390Y-95092876D02*
X80828152Y-95045257D01*
X80780533Y-94997638D01*
X80732914Y-94902400D01*
X80732914Y-94807161D01*
X81351962Y-94092875D02*
X81399581Y-94188113D01*
X81399581Y-94378590D01*
X81351962Y-94473828D01*
X81256724Y-94521447D01*
X80875771Y-94521447D01*
X80780533Y-94473828D01*
X80732914Y-94378590D01*
X80732914Y-94188113D01*
X80780533Y-94092875D01*
X80875771Y-94045256D01*
X80971010Y-94045256D01*
X81066248Y-94521447D01*
X81399581Y-93188113D02*
X80399581Y-93188113D01*
X81351962Y-93188113D02*
X81399581Y-93283351D01*
X81399581Y-93473828D01*
X81351962Y-93569066D01*
X81304343Y-93616685D01*
X81209105Y-93664304D01*
X80923390Y-93664304D01*
X80828152Y-93616685D01*
X80780533Y-93569066D01*
X80732914Y-93473828D01*
X80732914Y-93283351D01*
X80780533Y-93188113D01*
X81399581Y-92188113D02*
X81399581Y-92759542D01*
X81399581Y-92473828D02*
X80399581Y-92473828D01*
X80542438Y-92569066D01*
X80637676Y-92664304D01*
X80685295Y-92759542D01*
X75862381Y-123610666D02*
X75862381Y-124086857D01*
X74862381Y-124086857D01*
X75862381Y-122753523D02*
X75862381Y-123324952D01*
X75862381Y-123039238D02*
X74862381Y-123039238D01*
X75005238Y-123134476D01*
X75100476Y-123229714D01*
X75148095Y-123324952D01*
X73576381Y-123610666D02*
X73576381Y-124086857D01*
X72576381Y-124086857D01*
X72671619Y-123324952D02*
X72624000Y-123277333D01*
X72576381Y-123182095D01*
X72576381Y-122943999D01*
X72624000Y-122848761D01*
X72671619Y-122801142D01*
X72766857Y-122753523D01*
X72862095Y-122753523D01*
X73004952Y-122801142D01*
X73576381Y-123372571D01*
X73576381Y-122753523D01*
X71290381Y-123610666D02*
X71290381Y-124086857D01*
X70290381Y-124086857D01*
X70290381Y-123372571D02*
X70290381Y-122753523D01*
X70671333Y-123086857D01*
X70671333Y-122943999D01*
X70718952Y-122848761D01*
X70766571Y-122801142D01*
X70861810Y-122753523D01*
X71099905Y-122753523D01*
X71195143Y-122801142D01*
X71242762Y-122848761D01*
X71290381Y-122943999D01*
X71290381Y-123229714D01*
X71242762Y-123324952D01*
X71195143Y-123372571D01*
X69004381Y-123610666D02*
X69004381Y-124086857D01*
X68004381Y-124086857D01*
X68337714Y-122848761D02*
X69004381Y-122848761D01*
X67956762Y-123086857D02*
X68671048Y-123324952D01*
X68671048Y-122705904D01*
X78148381Y-123610666D02*
X78148381Y-124086857D01*
X77148381Y-124086857D01*
X77148381Y-122801142D02*
X77148381Y-123277333D01*
X77624571Y-123324952D01*
X77576952Y-123277333D01*
X77529333Y-123182095D01*
X77529333Y-122943999D01*
X77576952Y-122848761D01*
X77624571Y-122801142D01*
X77719810Y-122753523D01*
X77957905Y-122753523D01*
X78053143Y-122801142D01*
X78100762Y-122848761D01*
X78148381Y-122943999D01*
X78148381Y-123182095D01*
X78100762Y-123277333D01*
X78053143Y-123324952D01*
X88824381Y-95099095D02*
X87824381Y-95099095D01*
X87824381Y-94718142D01*
X87872000Y-94622904D01*
X87919619Y-94575285D01*
X88014857Y-94527666D01*
X88157714Y-94527666D01*
X88252952Y-94575285D01*
X88300571Y-94622904D01*
X88348190Y-94718142D01*
X88348190Y-95099095D01*
X87919619Y-94146714D02*
X87872000Y-94099095D01*
X87824381Y-94003857D01*
X87824381Y-93765761D01*
X87872000Y-93670523D01*
X87919619Y-93622904D01*
X88014857Y-93575285D01*
X88110095Y-93575285D01*
X88252952Y-93622904D01*
X88824381Y-94194333D01*
X88824381Y-93575285D01*
X144543981Y-91555581D02*
X143543981Y-91555581D01*
X143543981Y-91174628D01*
X143591600Y-91079390D01*
X143639219Y-91031771D01*
X143734457Y-90984152D01*
X143877314Y-90984152D01*
X143972552Y-91031771D01*
X144020171Y-91079390D01*
X144067790Y-91174628D01*
X144067790Y-91555581D01*
X144543981Y-90412724D02*
X144496362Y-90507962D01*
X144448743Y-90555581D01*
X144353505Y-90603200D01*
X144067790Y-90603200D01*
X143972552Y-90555581D01*
X143924933Y-90507962D01*
X143877314Y-90412724D01*
X143877314Y-90269866D01*
X143924933Y-90174628D01*
X143972552Y-90127009D01*
X144067790Y-90079390D01*
X144353505Y-90079390D01*
X144448743Y-90127009D01*
X144496362Y-90174628D01*
X144543981Y-90269866D01*
X144543981Y-90412724D01*
X143877314Y-89746057D02*
X144543981Y-89555581D01*
X144067790Y-89365104D01*
X144543981Y-89174628D01*
X143877314Y-88984152D01*
X144496362Y-88222247D02*
X144543981Y-88317485D01*
X144543981Y-88507962D01*
X144496362Y-88603200D01*
X144401124Y-88650819D01*
X144020171Y-88650819D01*
X143924933Y-88603200D01*
X143877314Y-88507962D01*
X143877314Y-88317485D01*
X143924933Y-88222247D01*
X144020171Y-88174628D01*
X144115410Y-88174628D01*
X144210648Y-88650819D01*
X144543981Y-87746057D02*
X143877314Y-87746057D01*
X144067790Y-87746057D02*
X143972552Y-87698438D01*
X143924933Y-87650819D01*
X143877314Y-87555581D01*
X143877314Y-87460342D01*
X144543981Y-86603199D02*
X144543981Y-87174628D01*
X144543981Y-86888914D02*
X143543981Y-86888914D01*
X143686838Y-86984152D01*
X143782076Y-87079390D01*
X143829695Y-87174628D01*
X137252381Y-128552381D02*
X136252381Y-128552381D01*
X136252381Y-128171428D01*
X136300000Y-128076190D01*
X136347619Y-128028571D01*
X136442857Y-127980952D01*
X136585714Y-127980952D01*
X136680952Y-128028571D01*
X136728571Y-128076190D01*
X136776190Y-128171428D01*
X136776190Y-128552381D01*
X137252381Y-127409524D02*
X137204762Y-127504762D01*
X137157143Y-127552381D01*
X137061905Y-127600000D01*
X136776190Y-127600000D01*
X136680952Y-127552381D01*
X136633333Y-127504762D01*
X136585714Y-127409524D01*
X136585714Y-127266666D01*
X136633333Y-127171428D01*
X136680952Y-127123809D01*
X136776190Y-127076190D01*
X137061905Y-127076190D01*
X137157143Y-127123809D01*
X137204762Y-127171428D01*
X137252381Y-127266666D01*
X137252381Y-127409524D01*
X136585714Y-126742857D02*
X137252381Y-126552381D01*
X136776190Y-126361904D01*
X137252381Y-126171428D01*
X136585714Y-125980952D01*
X137204762Y-125219047D02*
X137252381Y-125314285D01*
X137252381Y-125504762D01*
X137204762Y-125600000D01*
X137109524Y-125647619D01*
X136728571Y-125647619D01*
X136633333Y-125600000D01*
X136585714Y-125504762D01*
X136585714Y-125314285D01*
X136633333Y-125219047D01*
X136728571Y-125171428D01*
X136823810Y-125171428D01*
X136919048Y-125647619D01*
X137252381Y-124742857D02*
X136585714Y-124742857D01*
X136776190Y-124742857D02*
X136680952Y-124695238D01*
X136633333Y-124647619D01*
X136585714Y-124552381D01*
X136585714Y-124457142D01*
X136347619Y-124171428D02*
X136300000Y-124123809D01*
X136252381Y-124028571D01*
X136252381Y-123790475D01*
X136300000Y-123695237D01*
X136347619Y-123647618D01*
X136442857Y-123599999D01*
X136538095Y-123599999D01*
X136680952Y-123647618D01*
X137252381Y-124219047D01*
X137252381Y-123599999D01*
X108752381Y-130080953D02*
X107752381Y-130080953D01*
X107752381Y-129700000D01*
X107800000Y-129604762D01*
X107847619Y-129557143D01*
X107942857Y-129509524D01*
X108085714Y-129509524D01*
X108180952Y-129557143D01*
X108228571Y-129604762D01*
X108276190Y-129700000D01*
X108276190Y-130080953D01*
X108752381Y-129080953D02*
X108085714Y-129080953D01*
X108276190Y-129080953D02*
X108180952Y-129033334D01*
X108133333Y-128985715D01*
X108085714Y-128890477D01*
X108085714Y-128795238D01*
X108752381Y-128319048D02*
X108704762Y-128414286D01*
X108657143Y-128461905D01*
X108561905Y-128509524D01*
X108276190Y-128509524D01*
X108180952Y-128461905D01*
X108133333Y-128414286D01*
X108085714Y-128319048D01*
X108085714Y-128176190D01*
X108133333Y-128080952D01*
X108180952Y-128033333D01*
X108276190Y-127985714D01*
X108561905Y-127985714D01*
X108657143Y-128033333D01*
X108704762Y-128080952D01*
X108752381Y-128176190D01*
X108752381Y-128319048D01*
X108085714Y-127128571D02*
X108895238Y-127128571D01*
X108990476Y-127176190D01*
X109038095Y-127223809D01*
X109085714Y-127319048D01*
X109085714Y-127461905D01*
X109038095Y-127557143D01*
X108704762Y-127128571D02*
X108752381Y-127223809D01*
X108752381Y-127414286D01*
X108704762Y-127509524D01*
X108657143Y-127557143D01*
X108561905Y-127604762D01*
X108276190Y-127604762D01*
X108180952Y-127557143D01*
X108133333Y-127509524D01*
X108085714Y-127414286D01*
X108085714Y-127223809D01*
X108133333Y-127128571D01*
X108752381Y-126652381D02*
X108085714Y-126652381D01*
X108276190Y-126652381D02*
X108180952Y-126604762D01*
X108133333Y-126557143D01*
X108085714Y-126461905D01*
X108085714Y-126366666D01*
X108752381Y-125604761D02*
X108228571Y-125604761D01*
X108133333Y-125652380D01*
X108085714Y-125747618D01*
X108085714Y-125938095D01*
X108133333Y-126033333D01*
X108704762Y-125604761D02*
X108752381Y-125699999D01*
X108752381Y-125938095D01*
X108704762Y-126033333D01*
X108609524Y-126080952D01*
X108514286Y-126080952D01*
X108419048Y-126033333D01*
X108371429Y-125938095D01*
X108371429Y-125699999D01*
X108323810Y-125604761D01*
X108752381Y-125128571D02*
X108085714Y-125128571D01*
X108180952Y-125128571D02*
X108133333Y-125080952D01*
X108085714Y-124985714D01*
X108085714Y-124842856D01*
X108133333Y-124747618D01*
X108228571Y-124699999D01*
X108752381Y-124699999D01*
X108228571Y-124699999D02*
X108133333Y-124652380D01*
X108085714Y-124557142D01*
X108085714Y-124414285D01*
X108133333Y-124319047D01*
X108228571Y-124271428D01*
X108752381Y-124271428D01*
X108752381Y-123271428D02*
X108752381Y-123842857D01*
X108752381Y-123557143D02*
X107752381Y-123557143D01*
X107895238Y-123652381D01*
X107990476Y-123747619D01*
X108038095Y-123842857D01*
X140592381Y-97397866D02*
X140116190Y-97731200D01*
X140592381Y-97969295D02*
X139592381Y-97969295D01*
X139592381Y-97588342D01*
X139640000Y-97493104D01*
X139687619Y-97445485D01*
X139782857Y-97397866D01*
X139925714Y-97397866D01*
X140020952Y-97445485D01*
X140068571Y-97493104D01*
X140116190Y-97588342D01*
X140116190Y-97969295D01*
X140592381Y-96445485D02*
X140592381Y-97016914D01*
X140592381Y-96731200D02*
X139592381Y-96731200D01*
X139735238Y-96826438D01*
X139830476Y-96921676D01*
X139878095Y-97016914D01*
X81054781Y-95365866D02*
X80578590Y-95699200D01*
X81054781Y-95937295D02*
X80054781Y-95937295D01*
X80054781Y-95556342D01*
X80102400Y-95461104D01*
X80150019Y-95413485D01*
X80245257Y-95365866D01*
X80388114Y-95365866D01*
X80483352Y-95413485D01*
X80530971Y-95461104D01*
X80578590Y-95556342D01*
X80578590Y-95937295D01*
X80150019Y-94984914D02*
X80102400Y-94937295D01*
X80054781Y-94842057D01*
X80054781Y-94603961D01*
X80102400Y-94508723D01*
X80150019Y-94461104D01*
X80245257Y-94413485D01*
X80340495Y-94413485D01*
X80483352Y-94461104D01*
X81054781Y-95032533D01*
X81054781Y-94413485D01*
X80478334Y-122812381D02*
X80145000Y-122336190D01*
X79906905Y-122812381D02*
X79906905Y-121812381D01*
X80287858Y-121812381D01*
X80383096Y-121860000D01*
X80430715Y-121907619D01*
X80478334Y-122002857D01*
X80478334Y-122145714D01*
X80430715Y-122240952D01*
X80383096Y-122288571D01*
X80287858Y-122336190D01*
X79906905Y-122336190D01*
X80811667Y-121812381D02*
X81430715Y-121812381D01*
X81097381Y-122193333D01*
X81240239Y-122193333D01*
X81335477Y-122240952D01*
X81383096Y-122288571D01*
X81430715Y-122383810D01*
X81430715Y-122621905D01*
X81383096Y-122717143D01*
X81335477Y-122764762D01*
X81240239Y-122812381D01*
X80954524Y-122812381D01*
X80859286Y-122764762D01*
X80811667Y-122717143D01*
X59777334Y-124853381D02*
X59444000Y-124377190D01*
X59205905Y-124853381D02*
X59205905Y-123853381D01*
X59586858Y-123853381D01*
X59682096Y-123901000D01*
X59729715Y-123948619D01*
X59777334Y-124043857D01*
X59777334Y-124186714D01*
X59729715Y-124281952D01*
X59682096Y-124329571D01*
X59586858Y-124377190D01*
X59205905Y-124377190D01*
X60634477Y-124186714D02*
X60634477Y-124853381D01*
X60396381Y-123805762D02*
X60158286Y-124520048D01*
X60777334Y-124520048D01*
X59777334Y-127393381D02*
X59444000Y-126917190D01*
X59205905Y-127393381D02*
X59205905Y-126393381D01*
X59586858Y-126393381D01*
X59682096Y-126441000D01*
X59729715Y-126488619D01*
X59777334Y-126583857D01*
X59777334Y-126726714D01*
X59729715Y-126821952D01*
X59682096Y-126869571D01*
X59586858Y-126917190D01*
X59205905Y-126917190D01*
X60682096Y-126393381D02*
X60205905Y-126393381D01*
X60158286Y-126869571D01*
X60205905Y-126821952D01*
X60301143Y-126774333D01*
X60539239Y-126774333D01*
X60634477Y-126821952D01*
X60682096Y-126869571D01*
X60729715Y-126964810D01*
X60729715Y-127202905D01*
X60682096Y-127298143D01*
X60634477Y-127345762D01*
X60539239Y-127393381D01*
X60301143Y-127393381D01*
X60205905Y-127345762D01*
X60158286Y-127298143D01*
X59777334Y-129933381D02*
X59444000Y-129457190D01*
X59205905Y-129933381D02*
X59205905Y-128933381D01*
X59586858Y-128933381D01*
X59682096Y-128981000D01*
X59729715Y-129028619D01*
X59777334Y-129123857D01*
X59777334Y-129266714D01*
X59729715Y-129361952D01*
X59682096Y-129409571D01*
X59586858Y-129457190D01*
X59205905Y-129457190D01*
X60634477Y-128933381D02*
X60444000Y-128933381D01*
X60348762Y-128981000D01*
X60301143Y-129028619D01*
X60205905Y-129171476D01*
X60158286Y-129361952D01*
X60158286Y-129742905D01*
X60205905Y-129838143D01*
X60253524Y-129885762D01*
X60348762Y-129933381D01*
X60539239Y-129933381D01*
X60634477Y-129885762D01*
X60682096Y-129838143D01*
X60729715Y-129742905D01*
X60729715Y-129504810D01*
X60682096Y-129409571D01*
X60634477Y-129361952D01*
X60539239Y-129314333D01*
X60348762Y-129314333D01*
X60253524Y-129361952D01*
X60205905Y-129409571D01*
X60158286Y-129504810D01*
X74890334Y-125606381D02*
X74557000Y-125130190D01*
X74318905Y-125606381D02*
X74318905Y-124606381D01*
X74699858Y-124606381D01*
X74795096Y-124654000D01*
X74842715Y-124701619D01*
X74890334Y-124796857D01*
X74890334Y-124939714D01*
X74842715Y-125034952D01*
X74795096Y-125082571D01*
X74699858Y-125130190D01*
X74318905Y-125130190D01*
X75223667Y-124606381D02*
X75890334Y-124606381D01*
X75461762Y-125606381D01*
X141134781Y-97347066D02*
X140658590Y-97680400D01*
X141134781Y-97918495D02*
X140134781Y-97918495D01*
X140134781Y-97537542D01*
X140182400Y-97442304D01*
X140230019Y-97394685D01*
X140325257Y-97347066D01*
X140468114Y-97347066D01*
X140563352Y-97394685D01*
X140610971Y-97442304D01*
X140658590Y-97537542D01*
X140658590Y-97918495D01*
X140563352Y-96775638D02*
X140515733Y-96870876D01*
X140468114Y-96918495D01*
X140372876Y-96966114D01*
X140325257Y-96966114D01*
X140230019Y-96918495D01*
X140182400Y-96870876D01*
X140134781Y-96775638D01*
X140134781Y-96585161D01*
X140182400Y-96489923D01*
X140230019Y-96442304D01*
X140325257Y-96394685D01*
X140372876Y-96394685D01*
X140468114Y-96442304D01*
X140515733Y-96489923D01*
X140563352Y-96585161D01*
X140563352Y-96775638D01*
X140610971Y-96870876D01*
X140658590Y-96918495D01*
X140753829Y-96966114D01*
X140944305Y-96966114D01*
X141039543Y-96918495D01*
X141087162Y-96870876D01*
X141134781Y-96775638D01*
X141134781Y-96585161D01*
X141087162Y-96489923D01*
X141039543Y-96442304D01*
X140944305Y-96394685D01*
X140753829Y-96394685D01*
X140658590Y-96442304D01*
X140610971Y-96489923D01*
X140563352Y-96585161D01*
X120997743Y-97386981D02*
X120664409Y-96910790D01*
X120426314Y-97386981D02*
X120426314Y-96386981D01*
X120807267Y-96386981D01*
X120902505Y-96434600D01*
X120950124Y-96482219D01*
X120997743Y-96577457D01*
X120997743Y-96720314D01*
X120950124Y-96815552D01*
X120902505Y-96863171D01*
X120807267Y-96910790D01*
X120426314Y-96910790D01*
X121950124Y-97386981D02*
X121378695Y-97386981D01*
X121664409Y-97386981D02*
X121664409Y-96386981D01*
X121569171Y-96529838D01*
X121473933Y-96625076D01*
X121378695Y-96672695D01*
X122902505Y-97386981D02*
X122331076Y-97386981D01*
X122616790Y-97386981D02*
X122616790Y-96386981D01*
X122521552Y-96529838D01*
X122426314Y-96625076D01*
X122331076Y-96672695D01*
X121948781Y-116974857D02*
X121472590Y-117308191D01*
X121948781Y-117546286D02*
X120948781Y-117546286D01*
X120948781Y-117165333D01*
X120996400Y-117070095D01*
X121044019Y-117022476D01*
X121139257Y-116974857D01*
X121282114Y-116974857D01*
X121377352Y-117022476D01*
X121424971Y-117070095D01*
X121472590Y-117165333D01*
X121472590Y-117546286D01*
X121948781Y-116022476D02*
X121948781Y-116593905D01*
X121948781Y-116308191D02*
X120948781Y-116308191D01*
X121091638Y-116403429D01*
X121186876Y-116498667D01*
X121234495Y-116593905D01*
X121044019Y-115641524D02*
X120996400Y-115593905D01*
X120948781Y-115498667D01*
X120948781Y-115260571D01*
X120996400Y-115165333D01*
X121044019Y-115117714D01*
X121139257Y-115070095D01*
X121234495Y-115070095D01*
X121377352Y-115117714D01*
X121948781Y-115689143D01*
X121948781Y-115070095D01*
X140123943Y-116649181D02*
X139790609Y-116172990D01*
X139552514Y-116649181D02*
X139552514Y-115649181D01*
X139933467Y-115649181D01*
X140028705Y-115696800D01*
X140076324Y-115744419D01*
X140123943Y-115839657D01*
X140123943Y-115982514D01*
X140076324Y-116077752D01*
X140028705Y-116125371D01*
X139933467Y-116172990D01*
X139552514Y-116172990D01*
X141076324Y-116649181D02*
X140504895Y-116649181D01*
X140790609Y-116649181D02*
X140790609Y-115649181D01*
X140695371Y-115792038D01*
X140600133Y-115887276D01*
X140504895Y-115934895D01*
X141409657Y-115649181D02*
X142028705Y-115649181D01*
X141695371Y-116030133D01*
X141838229Y-116030133D01*
X141933467Y-116077752D01*
X141981086Y-116125371D01*
X142028705Y-116220610D01*
X142028705Y-116458705D01*
X141981086Y-116553943D01*
X141933467Y-116601562D01*
X141838229Y-116649181D01*
X141552514Y-116649181D01*
X141457276Y-116601562D01*
X141409657Y-116553943D01*
X63055181Y-116720857D02*
X62578990Y-117054191D01*
X63055181Y-117292286D02*
X62055181Y-117292286D01*
X62055181Y-116911333D01*
X62102800Y-116816095D01*
X62150419Y-116768476D01*
X62245657Y-116720857D01*
X62388514Y-116720857D01*
X62483752Y-116768476D01*
X62531371Y-116816095D01*
X62578990Y-116911333D01*
X62578990Y-117292286D01*
X63055181Y-115768476D02*
X63055181Y-116339905D01*
X63055181Y-116054191D02*
X62055181Y-116054191D01*
X62198038Y-116149429D01*
X62293276Y-116244667D01*
X62340895Y-116339905D01*
X62055181Y-114911333D02*
X62055181Y-115101810D01*
X62102800Y-115197048D01*
X62150419Y-115244667D01*
X62293276Y-115339905D01*
X62483752Y-115387524D01*
X62864705Y-115387524D01*
X62959943Y-115339905D01*
X63007562Y-115292286D01*
X63055181Y-115197048D01*
X63055181Y-115006571D01*
X63007562Y-114911333D01*
X62959943Y-114863714D01*
X62864705Y-114816095D01*
X62626610Y-114816095D01*
X62531371Y-114863714D01*
X62483752Y-114911333D01*
X62436133Y-115006571D01*
X62436133Y-115197048D01*
X62483752Y-115292286D01*
X62531371Y-115339905D01*
X62626610Y-115387524D01*
X73688781Y-97467657D02*
X73212590Y-97800991D01*
X73688781Y-98039086D02*
X72688781Y-98039086D01*
X72688781Y-97658133D01*
X72736400Y-97562895D01*
X72784019Y-97515276D01*
X72879257Y-97467657D01*
X73022114Y-97467657D01*
X73117352Y-97515276D01*
X73164971Y-97562895D01*
X73212590Y-97658133D01*
X73212590Y-98039086D01*
X73688781Y-96515276D02*
X73688781Y-97086705D01*
X73688781Y-96800991D02*
X72688781Y-96800991D01*
X72831638Y-96896229D01*
X72926876Y-96991467D01*
X72974495Y-97086705D01*
X73117352Y-95943848D02*
X73069733Y-96039086D01*
X73022114Y-96086705D01*
X72926876Y-96134324D01*
X72879257Y-96134324D01*
X72784019Y-96086705D01*
X72736400Y-96039086D01*
X72688781Y-95943848D01*
X72688781Y-95753371D01*
X72736400Y-95658133D01*
X72784019Y-95610514D01*
X72879257Y-95562895D01*
X72926876Y-95562895D01*
X73022114Y-95610514D01*
X73069733Y-95658133D01*
X73117352Y-95753371D01*
X73117352Y-95943848D01*
X73164971Y-96039086D01*
X73212590Y-96086705D01*
X73307829Y-96134324D01*
X73498305Y-96134324D01*
X73593543Y-96086705D01*
X73641162Y-96039086D01*
X73688781Y-95943848D01*
X73688781Y-95753371D01*
X73641162Y-95658133D01*
X73593543Y-95610514D01*
X73498305Y-95562895D01*
X73307829Y-95562895D01*
X73212590Y-95610514D01*
X73164971Y-95658133D01*
X73117352Y-95753371D01*
X57827943Y-101764781D02*
X57494609Y-101288590D01*
X57256514Y-101764781D02*
X57256514Y-100764781D01*
X57637467Y-100764781D01*
X57732705Y-100812400D01*
X57780324Y-100860019D01*
X57827943Y-100955257D01*
X57827943Y-101098114D01*
X57780324Y-101193352D01*
X57732705Y-101240971D01*
X57637467Y-101288590D01*
X57256514Y-101288590D01*
X58780324Y-101764781D02*
X58208895Y-101764781D01*
X58494609Y-101764781D02*
X58494609Y-100764781D01*
X58399371Y-100907638D01*
X58304133Y-101002876D01*
X58208895Y-101050495D01*
X59256514Y-101764781D02*
X59446990Y-101764781D01*
X59542229Y-101717162D01*
X59589848Y-101669543D01*
X59685086Y-101526686D01*
X59732705Y-101336210D01*
X59732705Y-100955257D01*
X59685086Y-100860019D01*
X59637467Y-100812400D01*
X59542229Y-100764781D01*
X59351752Y-100764781D01*
X59256514Y-100812400D01*
X59208895Y-100860019D01*
X59161276Y-100955257D01*
X59161276Y-101193352D01*
X59208895Y-101288590D01*
X59256514Y-101336210D01*
X59351752Y-101383829D01*
X59542229Y-101383829D01*
X59637467Y-101336210D01*
X59685086Y-101288590D01*
X59732705Y-101193352D01*
X113334895Y-125710381D02*
X113334895Y-126519905D01*
X113382514Y-126615143D01*
X113430133Y-126662762D01*
X113525371Y-126710381D01*
X113715848Y-126710381D01*
X113811086Y-126662762D01*
X113858705Y-126615143D01*
X113906324Y-126519905D01*
X113906324Y-125710381D01*
X114334895Y-125805619D02*
X114382514Y-125758000D01*
X114477752Y-125710381D01*
X114715848Y-125710381D01*
X114811086Y-125758000D01*
X114858705Y-125805619D01*
X114906324Y-125900857D01*
X114906324Y-125996095D01*
X114858705Y-126138952D01*
X114287276Y-126710381D01*
X114906324Y-126710381D01*
X71983767Y-76341481D02*
X71650433Y-75865290D01*
X71412338Y-76341481D02*
X71412338Y-75341481D01*
X71793291Y-75341481D01*
X71888529Y-75389100D01*
X71936148Y-75436719D01*
X71983767Y-75531957D01*
X71983767Y-75674814D01*
X71936148Y-75770052D01*
X71888529Y-75817671D01*
X71793291Y-75865290D01*
X71412338Y-75865290D01*
X72412338Y-75817671D02*
X72745672Y-75817671D01*
X72888529Y-76341481D02*
X72412338Y-76341481D01*
X72412338Y-75341481D01*
X72888529Y-75341481D01*
X73650434Y-75817671D02*
X73317100Y-75817671D01*
X73317100Y-76341481D02*
X73317100Y-75341481D01*
X73793291Y-75341481D01*
X74317100Y-75341481D02*
X74317100Y-75579576D01*
X74079005Y-75484338D02*
X74317100Y-75579576D01*
X74555196Y-75484338D01*
X74174243Y-75770052D02*
X74317100Y-75579576D01*
X74459958Y-75770052D01*
X75079005Y-75341481D02*
X75079005Y-75579576D01*
X74840910Y-75484338D02*
X75079005Y-75579576D01*
X75317101Y-75484338D01*
X74936148Y-75770052D02*
X75079005Y-75579576D01*
X75221863Y-75770052D01*
M02*
