M48
METRIC,TZ
T1C0.400
T2C0.500
T3C0.550
T4C1.016
T5C6.200
%
G90
G05
T1
X57099Y-94082
X58331Y-118948
X62525Y-97841
X66294Y-89154
X66802Y-119761
X69088Y-119634
X71374Y-119380
X72034Y-90068
X73787Y-119253
X74549Y-115443
X75946Y-119253
X79500Y-129900
X81991Y-109728
X85242Y-102464
X86309Y-105308
X86893Y-124562
X90678Y-93472
X91338Y-84836
X96584Y-91694
X96881Y-100035
X99949Y-82677
X106004Y-100081
X107620Y-112599
X108077Y-110490
X113856Y-101473
X115722Y-112649
X117094Y-92456
X120244Y-92659
X122750Y-103322
X125750Y-98450
X126250Y-103322
X127203Y-90373
X128350Y-125750
X129250Y-124350
X133000Y-125200
X137820Y-88798
X138600Y-122400
X139852Y-100635
X142392Y-84684
T4
X75387Y-91084
X77927Y-91084
X80467Y-91084
X83007Y-91084
X93472Y-94361
X96012Y-94361
X98552Y-94361
X101092Y-94361
X111201Y-125882
X111201Y-128422
X114097Y-116078
X114097Y-118618
X114097Y-121158
X141900Y-126100
X144440Y-126100
T5
X73317Y-80937
X122403Y-80899
T2
X126851Y-130912G85X126851Y-130262
G05
X133851Y-130912G85X133851Y-130262
G05
T3
X127701Y-127887G85X128001Y-127887
G05
X132701Y-127887G85X133001Y-127887
G05
T0
M30
