M48
;DRILL file {KiCad 4.0.2+e4-6225~38~ubuntu15.10.1-stable} date Tue 11 Oct 2016 16:58:53 SAST
;FORMAT={-:-/ absolute / metric / decimal}
FMAT,2
METRIC,TZ
T1C0.400
T2C0.500
T3C0.550
T4C1.016
T5C6.200
%
G90
G05
M71
T1
X57.099Y-94.082
X58.331Y-118.948
X62.525Y-97.841
X66.294Y-89.154
X66.802Y-119.761
X69.088Y-119.634
X71.374Y-119.38
X72.034Y-90.068
X73.787Y-119.253
X74.549Y-115.443
X75.946Y-119.253
X79.5Y-129.9
X81.991Y-109.728
X85.242Y-102.464
X86.309Y-105.308
X86.893Y-124.562
X90.678Y-93.472
X91.338Y-84.836
X96.584Y-91.694
X96.881Y-100.035
X99.949Y-82.677
X106.004Y-100.081
X107.62Y-112.599
X108.077Y-110.49
X113.855Y-101.473
X115.722Y-112.649
X117.094Y-92.456
X120.244Y-92.659
X122.75Y-103.322
X125.75Y-98.45
X126.25Y-103.322
X127.203Y-90.373
X128.35Y-125.75
X129.25Y-124.35
X133.Y-125.2
X137.82Y-88.798
X138.6Y-122.4
X139.852Y-100.635
X142.392Y-84.684
T4
X75.387Y-91.084
X77.927Y-91.084
X80.467Y-91.084
X83.007Y-91.084
X93.472Y-94.361
X96.012Y-94.361
X98.552Y-94.361
X101.092Y-94.361
X111.201Y-125.882
X111.201Y-128.422
X114.097Y-116.078
X114.097Y-118.618
X114.097Y-121.158
X141.9Y-126.1
X144.44Y-126.1
T5
X73.317Y-80.937
X122.403Y-80.899
T2
X126.851Y-130.912G85X126.851Y-130.262
G05
X133.851Y-130.912G85X133.851Y-130.262
G05
T3
X127.701Y-127.887G85X128.001Y-127.887
G05
X132.701Y-127.887G85X133.001Y-127.887
G05
T0
M30
