G04 #@! TF.FileFunction,Legend,Top*
%FSLAX46Y46*%
G04 Gerber Fmt 4.6, Leading zero omitted, Abs format (unit mm)*
G04 Created by KiCad (PCBNEW 4.0.2+e4-6225~38~ubuntu15.10.1-stable) date Tue 11 Oct 2016 16:58:14 SAST*
%MOMM*%
G01*
G04 APERTURE LIST*
%ADD10C,0.100000*%
%ADD11C,0.300000*%
%ADD12C,0.150000*%
G04 APERTURE END LIST*
D10*
D11*
X71132429Y-70107873D02*
X71132429Y-71036444D01*
X70561000Y-70536444D01*
X70561000Y-70750730D01*
X70489571Y-70893587D01*
X70418143Y-70965016D01*
X70275286Y-71036444D01*
X69918143Y-71036444D01*
X69775286Y-70965016D01*
X69703857Y-70893587D01*
X69632429Y-70750730D01*
X69632429Y-70322158D01*
X69703857Y-70179301D01*
X69775286Y-70107873D01*
X69775286Y-71679301D02*
X69703857Y-71750729D01*
X69632429Y-71679301D01*
X69703857Y-71607872D01*
X69775286Y-71679301D01*
X69632429Y-71679301D01*
X71132429Y-72679301D02*
X71132429Y-72822158D01*
X71061000Y-72965015D01*
X70989571Y-73036444D01*
X70846714Y-73107873D01*
X70561000Y-73179301D01*
X70203857Y-73179301D01*
X69918143Y-73107873D01*
X69775286Y-73036444D01*
X69703857Y-72965015D01*
X69632429Y-72822158D01*
X69632429Y-72679301D01*
X69703857Y-72536444D01*
X69775286Y-72465015D01*
X69918143Y-72393587D01*
X70203857Y-72322158D01*
X70561000Y-72322158D01*
X70846714Y-72393587D01*
X70989571Y-72465015D01*
X71061000Y-72536444D01*
X71132429Y-72679301D01*
X70989571Y-73750729D02*
X71061000Y-73822158D01*
X71132429Y-73965015D01*
X71132429Y-74322158D01*
X71061000Y-74465015D01*
X70989571Y-74536444D01*
X70846714Y-74607872D01*
X70703857Y-74607872D01*
X70489571Y-74536444D01*
X69632429Y-73679301D01*
X69632429Y-74607872D01*
X71132429Y-75107872D02*
X71132429Y-76036443D01*
X70561000Y-75536443D01*
X70561000Y-75750729D01*
X70489571Y-75893586D01*
X70418143Y-75965015D01*
X70275286Y-76036443D01*
X69918143Y-76036443D01*
X69775286Y-75965015D01*
X69703857Y-75893586D01*
X69632429Y-75750729D01*
X69632429Y-75322157D01*
X69703857Y-75179300D01*
X69775286Y-75107872D01*
X69632429Y-77822157D02*
X70632429Y-77822157D01*
X70489571Y-77822157D02*
X70561000Y-77893585D01*
X70632429Y-78036443D01*
X70632429Y-78250728D01*
X70561000Y-78393585D01*
X70418143Y-78465014D01*
X69632429Y-78465014D01*
X70418143Y-78465014D02*
X70561000Y-78536443D01*
X70632429Y-78679300D01*
X70632429Y-78893585D01*
X70561000Y-79036443D01*
X70418143Y-79107871D01*
X69632429Y-79107871D01*
X69632429Y-79822157D02*
X70632429Y-79822157D01*
X70489571Y-79822157D02*
X70561000Y-79893585D01*
X70632429Y-80036443D01*
X70632429Y-80250728D01*
X70561000Y-80393585D01*
X70418143Y-80465014D01*
X69632429Y-80465014D01*
X70418143Y-80465014D02*
X70561000Y-80536443D01*
X70632429Y-80679300D01*
X70632429Y-80893585D01*
X70561000Y-81036443D01*
X70418143Y-81107871D01*
X69632429Y-81107871D01*
X68961000Y-74168000D02*
X68961000Y-77190600D01*
X68618100Y-74168000D02*
X71661000Y-74168000D01*
X68618100Y-77190600D02*
X71661000Y-77190600D01*
X68961000Y-77190600D02*
X68374579Y-76064096D01*
X68961000Y-77190600D02*
X69547421Y-76064096D01*
X68961000Y-74168000D02*
X68374579Y-75294504D01*
X68961000Y-74168000D02*
X69547421Y-75294504D01*
X119791005Y-70092176D02*
X119798711Y-71020715D01*
X119223153Y-70525474D01*
X119224931Y-70739753D01*
X119154690Y-70883198D01*
X119083857Y-70955217D01*
X118941598Y-71027828D01*
X118584467Y-71030792D01*
X118441022Y-70960552D01*
X118369003Y-70889718D01*
X118296392Y-70747459D01*
X118292835Y-70318902D01*
X118363075Y-70175457D01*
X118433909Y-70103438D01*
X118446950Y-71674812D02*
X118376116Y-71746831D01*
X118304097Y-71675998D01*
X118374930Y-71603979D01*
X118446950Y-71674812D01*
X118304097Y-71675998D01*
X119812344Y-72663516D02*
X119813530Y-72806368D01*
X119743289Y-72949813D01*
X119672455Y-73021832D01*
X119530196Y-73094444D01*
X119245084Y-73168240D01*
X118887954Y-73171204D01*
X118601657Y-73102150D01*
X118458212Y-73031909D01*
X118386192Y-72961075D01*
X118313581Y-72818815D01*
X118312396Y-72675963D01*
X118382636Y-72532519D01*
X118453470Y-72460499D01*
X118595729Y-72387888D01*
X118880841Y-72314091D01*
X119237971Y-72311127D01*
X119524268Y-72380183D01*
X119667713Y-72450423D01*
X119739732Y-72521256D01*
X119812344Y-72663516D01*
X119827163Y-74449168D02*
X119824792Y-74163464D01*
X119752180Y-74021205D01*
X119680161Y-73950371D01*
X119464698Y-73809297D01*
X119178400Y-73740242D01*
X118606991Y-73744984D01*
X118464732Y-73817596D01*
X118393898Y-73889614D01*
X118323658Y-74033060D01*
X118326029Y-74318764D01*
X118398640Y-74461023D01*
X118470659Y-74531857D01*
X118614104Y-74602097D01*
X118971235Y-74599133D01*
X119113494Y-74526522D01*
X119184327Y-74454503D01*
X119254568Y-74311058D01*
X119252197Y-74025354D01*
X119179585Y-73883094D01*
X119107567Y-73812261D01*
X118964122Y-73742020D01*
X118340255Y-76032990D02*
X118333142Y-75175876D01*
X118336699Y-75604434D02*
X119836647Y-75591986D01*
X119621183Y-75450912D01*
X119477145Y-75309244D01*
X119404533Y-75166985D01*
X118355074Y-77818642D02*
X119355039Y-77810344D01*
X119212186Y-77811529D02*
X119284206Y-77882362D01*
X119356818Y-78024622D01*
X119358596Y-78238900D01*
X119288355Y-78382345D01*
X119146095Y-78454957D01*
X118360409Y-78461477D01*
X119146095Y-78454957D02*
X119289540Y-78525198D01*
X119362152Y-78667457D01*
X119363931Y-78881735D01*
X119293690Y-79025181D01*
X119151430Y-79097792D01*
X118365743Y-79104312D01*
X118371671Y-79818573D02*
X119371636Y-79810275D01*
X119228783Y-79811460D02*
X119300803Y-79882293D01*
X119373415Y-80024554D01*
X119375193Y-80238831D01*
X119304952Y-80382276D01*
X119162692Y-80454888D01*
X118377005Y-80461408D01*
X119162692Y-80454888D02*
X119306137Y-80525129D01*
X119378749Y-80667388D01*
X119380528Y-80881666D01*
X119310286Y-81025112D01*
X119168027Y-81097723D01*
X118382340Y-81104243D01*
X117653186Y-74151081D02*
X117678586Y-77211781D01*
X117144800Y-74155300D02*
X120353093Y-74128675D01*
X117170200Y-77216000D02*
X120378493Y-77189375D01*
X117678586Y-77211781D02*
X117082837Y-76090182D01*
X117678586Y-77211781D02*
X118255638Y-76080450D01*
X117653186Y-74151081D02*
X117076134Y-75282412D01*
X117653186Y-74151081D02*
X118248935Y-75272680D01*
X75341323Y-72092837D02*
X75344947Y-73092831D01*
X73842627Y-72455413D01*
X73989883Y-73669172D02*
X73918713Y-73740859D01*
X73847027Y-73669690D01*
X73918196Y-73598003D01*
X73989883Y-73669172D01*
X73847027Y-73669690D01*
X75350640Y-74664249D02*
X75351158Y-74807105D01*
X75280247Y-74950219D01*
X75209077Y-75021907D01*
X75066480Y-75093853D01*
X74781026Y-75166316D01*
X74423886Y-75167610D01*
X74137915Y-75097217D01*
X73994800Y-75026306D01*
X73923113Y-74955137D01*
X73851168Y-74812539D01*
X73850650Y-74669683D01*
X73921560Y-74526568D01*
X73992730Y-74454881D01*
X74135327Y-74382936D01*
X74420780Y-74310472D01*
X74777921Y-74309178D01*
X75063892Y-74379572D01*
X75207007Y-74450482D01*
X75278694Y-74521651D01*
X75350640Y-74664249D01*
X73857637Y-76598242D02*
X73854532Y-75741104D01*
X73856085Y-76169673D02*
X75356075Y-76164239D01*
X75141273Y-76022159D01*
X74997899Y-75879820D01*
X74925953Y-75737222D01*
X75360992Y-77521372D02*
X75361510Y-77664228D01*
X75290599Y-77807343D01*
X75219429Y-77879030D01*
X75076832Y-77950976D01*
X74791378Y-78023439D01*
X74434238Y-78024733D01*
X74148267Y-77954341D01*
X74005152Y-77883430D01*
X73933465Y-77812260D01*
X73861519Y-77669663D01*
X73861002Y-77526807D01*
X73931912Y-77383692D01*
X74003082Y-77312004D01*
X74145679Y-77240059D01*
X74431132Y-77167595D01*
X74788273Y-77166301D01*
X75074244Y-77236695D01*
X75217359Y-77307605D01*
X75289046Y-77378775D01*
X75360992Y-77521372D01*
X73869283Y-79812506D02*
X74869277Y-79808882D01*
X74726420Y-79809400D02*
X74798107Y-79880569D01*
X74870053Y-80023167D01*
X74870830Y-80237451D01*
X74799919Y-80380565D01*
X74657321Y-80452512D01*
X73871613Y-80455358D01*
X74657321Y-80452512D02*
X74800436Y-80523422D01*
X74872382Y-80666020D01*
X74873159Y-80880303D01*
X74802248Y-81023419D01*
X74659651Y-81095364D01*
X73873942Y-81098211D01*
X73876530Y-81812492D02*
X74876523Y-81808869D01*
X74733666Y-81809387D02*
X74805353Y-81880556D01*
X74877300Y-82023154D01*
X74878076Y-82237437D01*
X74807165Y-82380552D01*
X74664568Y-82452498D01*
X73878859Y-82455345D01*
X74664568Y-82452498D02*
X74807683Y-82523409D01*
X74879629Y-82666007D01*
X74880405Y-82880290D01*
X74809494Y-83023406D01*
X74666897Y-83095351D01*
X73881188Y-83098198D01*
X73177395Y-74166896D02*
X73202795Y-81177296D01*
X72872600Y-74168000D02*
X75877377Y-74157113D01*
X72898000Y-81178400D02*
X75902777Y-81167513D01*
X73202795Y-81177296D02*
X72612297Y-80052924D01*
X73202795Y-81177296D02*
X73785130Y-80048675D01*
X73177395Y-74166896D02*
X72595060Y-75295517D01*
X73177395Y-74166896D02*
X73767893Y-75291268D01*
X128634315Y-75394429D02*
X128705744Y-75323000D01*
X128848601Y-75251571D01*
X129205744Y-75251571D01*
X129348601Y-75323000D01*
X129420030Y-75394429D01*
X129491458Y-75537286D01*
X129491458Y-75680143D01*
X129420030Y-75894429D01*
X128562887Y-76751571D01*
X129491458Y-76751571D01*
X130848601Y-75251571D02*
X130134315Y-75251571D01*
X130062886Y-75965857D01*
X130134315Y-75894429D01*
X130277172Y-75823000D01*
X130634315Y-75823000D01*
X130777172Y-75894429D01*
X130848601Y-75965857D01*
X130920029Y-76108714D01*
X130920029Y-76465857D01*
X130848601Y-76608714D01*
X130777172Y-76680143D01*
X130634315Y-76751571D01*
X130277172Y-76751571D01*
X130134315Y-76680143D01*
X130062886Y-76608714D01*
X131562886Y-76608714D02*
X131634314Y-76680143D01*
X131562886Y-76751571D01*
X131491457Y-76680143D01*
X131562886Y-76608714D01*
X131562886Y-76751571D01*
X132562886Y-75251571D02*
X132705743Y-75251571D01*
X132848600Y-75323000D01*
X132920029Y-75394429D01*
X132991458Y-75537286D01*
X133062886Y-75823000D01*
X133062886Y-76180143D01*
X132991458Y-76465857D01*
X132920029Y-76608714D01*
X132848600Y-76680143D01*
X132705743Y-76751571D01*
X132562886Y-76751571D01*
X132420029Y-76680143D01*
X132348600Y-76608714D01*
X132277172Y-76465857D01*
X132205743Y-76180143D01*
X132205743Y-75823000D01*
X132277172Y-75537286D01*
X132348600Y-75394429D01*
X132420029Y-75323000D01*
X132562886Y-75251571D01*
X134491457Y-76751571D02*
X133634314Y-76751571D01*
X134062886Y-76751571D02*
X134062886Y-75251571D01*
X133920029Y-75465857D01*
X133777171Y-75608714D01*
X133634314Y-75680143D01*
X135205742Y-76751571D02*
X135491457Y-76751571D01*
X135634314Y-76680143D01*
X135705742Y-76608714D01*
X135848600Y-76394429D01*
X135920028Y-76108714D01*
X135920028Y-75537286D01*
X135848600Y-75394429D01*
X135777171Y-75323000D01*
X135634314Y-75251571D01*
X135348600Y-75251571D01*
X135205742Y-75323000D01*
X135134314Y-75394429D01*
X135062885Y-75537286D01*
X135062885Y-75894429D01*
X135134314Y-76037286D01*
X135205742Y-76108714D01*
X135348600Y-76180143D01*
X135634314Y-76180143D01*
X135777171Y-76108714D01*
X135848600Y-76037286D01*
X135920028Y-75894429D01*
X137705742Y-76751571D02*
X137705742Y-75751571D01*
X137705742Y-75894429D02*
X137777170Y-75823000D01*
X137920028Y-75751571D01*
X138134313Y-75751571D01*
X138277170Y-75823000D01*
X138348599Y-75965857D01*
X138348599Y-76751571D01*
X138348599Y-75965857D02*
X138420028Y-75823000D01*
X138562885Y-75751571D01*
X138777170Y-75751571D01*
X138920028Y-75823000D01*
X138991456Y-75965857D01*
X138991456Y-76751571D01*
X139705742Y-76751571D02*
X139705742Y-75751571D01*
X139705742Y-75894429D02*
X139777170Y-75823000D01*
X139920028Y-75751571D01*
X140134313Y-75751571D01*
X140277170Y-75823000D01*
X140348599Y-75965857D01*
X140348599Y-76751571D01*
X140348599Y-75965857D02*
X140420028Y-75823000D01*
X140562885Y-75751571D01*
X140777170Y-75751571D01*
X140920028Y-75823000D01*
X140991456Y-75965857D01*
X140991456Y-76751571D01*
X147345400Y-78155800D02*
X122326400Y-78155800D01*
X147345400Y-78181200D02*
X147345400Y-75455800D01*
X122326400Y-78181200D02*
X122326400Y-75455800D01*
X122326400Y-78155800D02*
X123452904Y-77569379D01*
X122326400Y-78155800D02*
X123452904Y-78742221D01*
X147345400Y-78155800D02*
X146218896Y-77569379D01*
X147345400Y-78155800D02*
X146218896Y-78742221D01*
X54071162Y-78459061D02*
X54142736Y-78387777D01*
X54285737Y-78316638D01*
X54642880Y-78317363D01*
X54785591Y-78389082D01*
X54856875Y-78460656D01*
X54928013Y-78603658D01*
X54927723Y-78746514D01*
X54855860Y-78960655D01*
X53996978Y-79816055D01*
X54925547Y-79817940D01*
X56285733Y-78320699D02*
X55571449Y-78319249D01*
X55498569Y-79033388D01*
X55570143Y-78962105D01*
X55713145Y-78890966D01*
X56070287Y-78891692D01*
X56212999Y-78963411D01*
X56284283Y-79034983D01*
X56355421Y-79177985D01*
X56354695Y-79535127D01*
X56282978Y-79677839D01*
X56211404Y-79749123D01*
X56068402Y-79820261D01*
X55711260Y-79819536D01*
X55568548Y-79747818D01*
X55497264Y-79676244D01*
X56997261Y-79679289D02*
X57068544Y-79750863D01*
X56996971Y-79822146D01*
X56925687Y-79750573D01*
X56997261Y-79679289D01*
X56996971Y-79822146D01*
X58000015Y-78324180D02*
X58142871Y-78324470D01*
X58285583Y-78396189D01*
X58356867Y-78467763D01*
X58428006Y-78610764D01*
X58498853Y-78896623D01*
X58498128Y-79253765D01*
X58426120Y-79539333D01*
X58354401Y-79682045D01*
X58282827Y-79753329D01*
X58139826Y-79824467D01*
X57996969Y-79824177D01*
X57854257Y-79752459D01*
X57782973Y-79680885D01*
X57711836Y-79537883D01*
X57640987Y-79252025D01*
X57641712Y-78894882D01*
X57713721Y-78609314D01*
X57785439Y-78466602D01*
X57857013Y-78395318D01*
X58000015Y-78324180D01*
X59925536Y-79828092D02*
X59068395Y-79826352D01*
X59496966Y-79827222D02*
X59500011Y-78327225D01*
X59356720Y-78541221D01*
X59213572Y-78683787D01*
X59070570Y-78754926D01*
X60639819Y-79829543D02*
X60925534Y-79830123D01*
X61068536Y-79758985D01*
X61140108Y-79687701D01*
X61283401Y-79473707D01*
X61355409Y-79188137D01*
X61356570Y-78616711D01*
X61285432Y-78473709D01*
X61214148Y-78402135D01*
X61071436Y-78330416D01*
X60785723Y-78329836D01*
X60642720Y-78400975D01*
X60571147Y-78472259D01*
X60499428Y-78614970D01*
X60498703Y-78972112D01*
X60569842Y-79115114D01*
X60641125Y-79186687D01*
X60783837Y-79258406D01*
X61069551Y-79258986D01*
X61212553Y-79187847D01*
X61284126Y-79116565D01*
X61355844Y-78973853D01*
X63139814Y-79834619D02*
X63141845Y-78834621D01*
X63141555Y-78977479D02*
X63213128Y-78906195D01*
X63356130Y-78835056D01*
X63570415Y-78835491D01*
X63713127Y-78907210D01*
X63784265Y-79050212D01*
X63782670Y-79835924D01*
X63784265Y-79050212D02*
X63855984Y-78907500D01*
X63998986Y-78836361D01*
X64213271Y-78836796D01*
X64355983Y-78908515D01*
X64427121Y-79051517D01*
X64425526Y-79837229D01*
X65139810Y-79838680D02*
X65141841Y-78838682D01*
X65141551Y-78981540D02*
X65213123Y-78910256D01*
X65356126Y-78839117D01*
X65570411Y-78839552D01*
X65713122Y-78911271D01*
X65784261Y-79054273D01*
X65782666Y-79839985D01*
X65784261Y-79054273D02*
X65855980Y-78911561D01*
X65998982Y-78840422D01*
X66213266Y-78840857D01*
X66355979Y-78912576D01*
X66427117Y-79055578D01*
X66425522Y-79841290D01*
X47777297Y-77774851D02*
X72796297Y-77825651D01*
X47777400Y-77724000D02*
X47771815Y-80474845D01*
X72796400Y-77774800D02*
X72790815Y-80525645D01*
X72796297Y-77825651D02*
X71668605Y-78409783D01*
X72796297Y-77825651D02*
X71670986Y-77236944D01*
X47777297Y-77774851D02*
X48902608Y-78363558D01*
X47777297Y-77774851D02*
X48904989Y-77190719D01*
X66979895Y-79999422D02*
X66979379Y-80999421D01*
X66623046Y-79427809D02*
X66265351Y-80499053D01*
X67193923Y-80499532D01*
X67836521Y-80999863D02*
X68122236Y-81000011D01*
X68265129Y-80928656D01*
X68336594Y-80857264D01*
X68479563Y-80643053D01*
X68551138Y-80357375D01*
X68551433Y-79785947D01*
X68480078Y-79643053D01*
X68408686Y-79571587D01*
X68265866Y-79500085D01*
X67980152Y-79499937D01*
X67837257Y-79571293D01*
X67765793Y-79642685D01*
X67694290Y-79785505D01*
X67694106Y-80142648D01*
X67765461Y-80285542D01*
X67836852Y-80357007D01*
X67979673Y-80428509D01*
X68265387Y-80428657D01*
X68408281Y-80357301D01*
X68479747Y-80285910D01*
X68551249Y-80143090D01*
X69193737Y-80857706D02*
X69265128Y-80929172D01*
X69193663Y-81000563D01*
X69122271Y-80929099D01*
X69193737Y-80857706D01*
X69193663Y-81000563D01*
X69837220Y-79643753D02*
X69908686Y-79572361D01*
X70051580Y-79501006D01*
X70408723Y-79501190D01*
X70551543Y-79572692D01*
X70622935Y-79644158D01*
X70694290Y-79787052D01*
X70694216Y-79929909D01*
X70622677Y-80144158D01*
X69765092Y-81000858D01*
X70693663Y-81001337D01*
X72051580Y-79502037D02*
X71337294Y-79501669D01*
X71265496Y-80215918D01*
X71336962Y-80144527D01*
X71479856Y-80073171D01*
X71836999Y-80073355D01*
X71979819Y-80144858D01*
X72051211Y-80216323D01*
X72122566Y-80359217D01*
X72122381Y-80716360D01*
X72050880Y-80859180D01*
X71979414Y-80930572D01*
X71836520Y-81001926D01*
X71479377Y-81001742D01*
X71336557Y-80930241D01*
X71265165Y-80858775D01*
X73550805Y-81002810D02*
X72693662Y-81002368D01*
X73122234Y-81002589D02*
X73123008Y-79502590D01*
X72980040Y-79716802D01*
X72837108Y-79859585D01*
X72694215Y-79930941D01*
X75336519Y-81003731D02*
X75337034Y-80003732D01*
X75336961Y-80146590D02*
X75408426Y-80075197D01*
X75551320Y-80003842D01*
X75765605Y-80003953D01*
X75908425Y-80075455D01*
X75979781Y-80218349D01*
X75979376Y-81004063D01*
X75979781Y-80218349D02*
X76051283Y-80075529D01*
X76194177Y-80004174D01*
X76408462Y-80004284D01*
X76551283Y-80075787D01*
X76622638Y-80218681D01*
X76622232Y-81004395D01*
X77336518Y-81004763D02*
X77337034Y-80004763D01*
X77336960Y-80147621D02*
X77408425Y-80076229D01*
X77551320Y-80004874D01*
X77765605Y-80004984D01*
X77908425Y-80076487D01*
X77979781Y-80219381D01*
X77979375Y-81005094D01*
X77979781Y-80219381D02*
X78051283Y-80076560D01*
X78194177Y-80005205D01*
X78408462Y-80005316D01*
X78551283Y-80076818D01*
X78622637Y-80219712D01*
X78622232Y-81005426D01*
X47853731Y-81660987D02*
X97104331Y-81686387D01*
X47853600Y-81915000D02*
X47855123Y-78960987D01*
X97104200Y-81940400D02*
X97105723Y-78986387D01*
X97104331Y-81686387D02*
X95977525Y-82272227D01*
X97104331Y-81686387D02*
X95978130Y-81099385D01*
X47853731Y-81660987D02*
X48979932Y-82247989D01*
X47853731Y-81660987D02*
X48980537Y-81075147D01*
X91464572Y-76196571D02*
X91750287Y-76196571D01*
X91893144Y-76125143D01*
X91964572Y-76053714D01*
X92107430Y-75839429D01*
X92178858Y-75553714D01*
X92178858Y-74982286D01*
X92107430Y-74839429D01*
X92036001Y-74768000D01*
X91893144Y-74696571D01*
X91607430Y-74696571D01*
X91464572Y-74768000D01*
X91393144Y-74839429D01*
X91321715Y-74982286D01*
X91321715Y-75339429D01*
X91393144Y-75482286D01*
X91464572Y-75553714D01*
X91607430Y-75625143D01*
X91893144Y-75625143D01*
X92036001Y-75553714D01*
X92107430Y-75482286D01*
X92178858Y-75339429D01*
X92893143Y-76196571D02*
X93178858Y-76196571D01*
X93321715Y-76125143D01*
X93393143Y-76053714D01*
X93536001Y-75839429D01*
X93607429Y-75553714D01*
X93607429Y-74982286D01*
X93536001Y-74839429D01*
X93464572Y-74768000D01*
X93321715Y-74696571D01*
X93036001Y-74696571D01*
X92893143Y-74768000D01*
X92821715Y-74839429D01*
X92750286Y-74982286D01*
X92750286Y-75339429D01*
X92821715Y-75482286D01*
X92893143Y-75553714D01*
X93036001Y-75625143D01*
X93321715Y-75625143D01*
X93464572Y-75553714D01*
X93536001Y-75482286D01*
X93607429Y-75339429D01*
X94250286Y-76053714D02*
X94321714Y-76125143D01*
X94250286Y-76196571D01*
X94178857Y-76125143D01*
X94250286Y-76053714D01*
X94250286Y-76196571D01*
X95678858Y-74696571D02*
X94964572Y-74696571D01*
X94893143Y-75410857D01*
X94964572Y-75339429D01*
X95107429Y-75268000D01*
X95464572Y-75268000D01*
X95607429Y-75339429D01*
X95678858Y-75410857D01*
X95750286Y-75553714D01*
X95750286Y-75910857D01*
X95678858Y-76053714D01*
X95607429Y-76125143D01*
X95464572Y-76196571D01*
X95107429Y-76196571D01*
X94964572Y-76125143D01*
X94893143Y-76053714D01*
X97036000Y-74696571D02*
X96750286Y-74696571D01*
X96607429Y-74768000D01*
X96536000Y-74839429D01*
X96393143Y-75053714D01*
X96321714Y-75339429D01*
X96321714Y-75910857D01*
X96393143Y-76053714D01*
X96464571Y-76125143D01*
X96607429Y-76196571D01*
X96893143Y-76196571D01*
X97036000Y-76125143D01*
X97107429Y-76053714D01*
X97178857Y-75910857D01*
X97178857Y-75553714D01*
X97107429Y-75410857D01*
X97036000Y-75339429D01*
X96893143Y-75268000D01*
X96607429Y-75268000D01*
X96464571Y-75339429D01*
X96393143Y-75410857D01*
X96321714Y-75553714D01*
X98036000Y-75339429D02*
X97893142Y-75268000D01*
X97821714Y-75196571D01*
X97750285Y-75053714D01*
X97750285Y-74982286D01*
X97821714Y-74839429D01*
X97893142Y-74768000D01*
X98036000Y-74696571D01*
X98321714Y-74696571D01*
X98464571Y-74768000D01*
X98536000Y-74839429D01*
X98607428Y-74982286D01*
X98607428Y-75053714D01*
X98536000Y-75196571D01*
X98464571Y-75268000D01*
X98321714Y-75339429D01*
X98036000Y-75339429D01*
X97893142Y-75410857D01*
X97821714Y-75482286D01*
X97750285Y-75625143D01*
X97750285Y-75910857D01*
X97821714Y-76053714D01*
X97893142Y-76125143D01*
X98036000Y-76196571D01*
X98321714Y-76196571D01*
X98464571Y-76125143D01*
X98536000Y-76053714D01*
X98607428Y-75910857D01*
X98607428Y-75625143D01*
X98536000Y-75482286D01*
X98464571Y-75410857D01*
X98321714Y-75339429D01*
X100393142Y-76196571D02*
X100393142Y-75196571D01*
X100393142Y-75339429D02*
X100464570Y-75268000D01*
X100607428Y-75196571D01*
X100821713Y-75196571D01*
X100964570Y-75268000D01*
X101035999Y-75410857D01*
X101035999Y-76196571D01*
X101035999Y-75410857D02*
X101107428Y-75268000D01*
X101250285Y-75196571D01*
X101464570Y-75196571D01*
X101607428Y-75268000D01*
X101678856Y-75410857D01*
X101678856Y-76196571D01*
X102393142Y-76196571D02*
X102393142Y-75196571D01*
X102393142Y-75339429D02*
X102464570Y-75268000D01*
X102607428Y-75196571D01*
X102821713Y-75196571D01*
X102964570Y-75268000D01*
X103035999Y-75410857D01*
X103035999Y-76196571D01*
X103035999Y-75410857D02*
X103107428Y-75268000D01*
X103250285Y-75196571D01*
X103464570Y-75196571D01*
X103607428Y-75268000D01*
X103678856Y-75410857D01*
X103678856Y-76196571D01*
X47752000Y-74168000D02*
X147320000Y-74168000D01*
X47752000Y-74168000D02*
X47752000Y-76868000D01*
X147320000Y-74168000D02*
X147320000Y-76868000D01*
X147320000Y-74168000D02*
X146193496Y-74754421D01*
X147320000Y-74168000D02*
X146193496Y-73581579D01*
X47752000Y-74168000D02*
X48878504Y-74754421D01*
X47752000Y-74168000D02*
X48878504Y-73581579D01*
D12*
X126402600Y-80899000D02*
G75*
G03X126402600Y-80899000I-4000000J0D01*
G01*
X128079100Y-94882100D02*
X128079100Y-94632100D01*
X128079100Y-94632100D02*
X134379100Y-94632100D01*
X134379100Y-94632100D02*
X134379100Y-94882100D01*
X128079100Y-99382100D02*
X128079100Y-96782100D01*
X134379100Y-101282100D02*
X134379100Y-101532100D01*
X134379100Y-101532100D02*
X128079100Y-101532100D01*
X128079100Y-101532100D02*
X128079100Y-101282100D01*
X134379100Y-96782100D02*
X134379100Y-99382100D01*
X132879100Y-98082100D02*
G75*
G03X132879100Y-98082100I-1650000J0D01*
G01*
X119329600Y-109931600D02*
X119079600Y-109931600D01*
X119079600Y-109931600D02*
X119079600Y-103631600D01*
X119079600Y-103631600D02*
X119329600Y-103631600D01*
X123829600Y-109931600D02*
X121229600Y-109931600D01*
X125729600Y-103631600D02*
X125979600Y-103631600D01*
X125979600Y-103631600D02*
X125979600Y-109931600D01*
X125979600Y-109931600D02*
X125729600Y-109931600D01*
X121229600Y-103631600D02*
X123829600Y-103631600D01*
X124179600Y-106781600D02*
G75*
G03X124179600Y-106781600I-1650000J0D01*
G01*
X134366400Y-118668400D02*
X134366400Y-118918400D01*
X134366400Y-118918400D02*
X128066400Y-118918400D01*
X128066400Y-118918400D02*
X128066400Y-118668400D01*
X134366400Y-114168400D02*
X134366400Y-116768400D01*
X128066400Y-112268400D02*
X128066400Y-112018400D01*
X128066400Y-112018400D02*
X134366400Y-112018400D01*
X134366400Y-112018400D02*
X134366400Y-112268400D01*
X128066400Y-116768400D02*
X128066400Y-114168400D01*
X132866400Y-115468400D02*
G75*
G03X132866400Y-115468400I-1650000J0D01*
G01*
X143103200Y-103631600D02*
X143353200Y-103631600D01*
X143353200Y-103631600D02*
X143353200Y-109931600D01*
X143353200Y-109931600D02*
X143103200Y-109931600D01*
X138603200Y-103631600D02*
X141203200Y-103631600D01*
X136703200Y-109931600D02*
X136453200Y-109931600D01*
X136453200Y-109931600D02*
X136453200Y-103631600D01*
X136453200Y-103631600D02*
X136703200Y-103631600D01*
X141203200Y-109931600D02*
X138603200Y-109931600D01*
X141553200Y-106781600D02*
G75*
G03X141553200Y-106781600I-1650000J0D01*
G01*
X64922000Y-111912800D02*
X64922000Y-111662800D01*
X64922000Y-111662800D02*
X71222000Y-111662800D01*
X71222000Y-111662800D02*
X71222000Y-111912800D01*
X64922000Y-116412800D02*
X64922000Y-113812800D01*
X71222000Y-118312800D02*
X71222000Y-118562800D01*
X71222000Y-118562800D02*
X64922000Y-118562800D01*
X64922000Y-118562800D02*
X64922000Y-118312800D01*
X71222000Y-113812800D02*
X71222000Y-116412800D01*
X69722000Y-115112800D02*
G75*
G03X69722000Y-115112800I-1650000J0D01*
G01*
X73558800Y-109576000D02*
X73308800Y-109576000D01*
X73308800Y-109576000D02*
X73308800Y-103276000D01*
X73308800Y-103276000D02*
X73558800Y-103276000D01*
X78058800Y-109576000D02*
X75458800Y-109576000D01*
X79958800Y-103276000D02*
X80208800Y-103276000D01*
X80208800Y-103276000D02*
X80208800Y-109576000D01*
X80208800Y-109576000D02*
X79958800Y-109576000D01*
X75458800Y-103276000D02*
X78058800Y-103276000D01*
X78408800Y-106426000D02*
G75*
G03X78408800Y-106426000I-1650000J0D01*
G01*
X71222000Y-100939200D02*
X71222000Y-101189200D01*
X71222000Y-101189200D02*
X64922000Y-101189200D01*
X64922000Y-101189200D02*
X64922000Y-100939200D01*
X71222000Y-96439200D02*
X71222000Y-99039200D01*
X64922000Y-94539200D02*
X64922000Y-94289200D01*
X64922000Y-94289200D02*
X71222000Y-94289200D01*
X71222000Y-94289200D02*
X71222000Y-94539200D01*
X64922000Y-99039200D02*
X64922000Y-96439200D01*
X69722000Y-97739200D02*
G75*
G03X69722000Y-97739200I-1650000J0D01*
G01*
X62585200Y-103276000D02*
X62835200Y-103276000D01*
X62835200Y-103276000D02*
X62835200Y-109576000D01*
X62835200Y-109576000D02*
X62585200Y-109576000D01*
X58085200Y-103276000D02*
X60685200Y-103276000D01*
X56185200Y-109576000D02*
X55935200Y-109576000D01*
X55935200Y-109576000D02*
X55935200Y-103276000D01*
X55935200Y-103276000D02*
X56185200Y-103276000D01*
X60685200Y-109576000D02*
X58085200Y-109576000D01*
X61035200Y-106426000D02*
G75*
G03X61035200Y-106426000I-1650000J0D01*
G01*
X76657200Y-92354400D02*
X84277200Y-92354400D01*
X76657200Y-89814400D02*
X84277200Y-89814400D01*
X73837200Y-89534400D02*
X75387200Y-89534400D01*
X84277200Y-92354400D02*
X84277200Y-89814400D01*
X76657200Y-89814400D02*
X76657200Y-92354400D01*
X75387200Y-92634400D02*
X73837200Y-92634400D01*
X73837200Y-92634400D02*
X73837200Y-89534400D01*
X78447200Y-93802400D02*
X78447200Y-96502400D01*
X79947200Y-93802400D02*
X79947200Y-96502400D01*
X79047200Y-95302400D02*
X79297200Y-95302400D01*
X79297200Y-95302400D02*
X79147200Y-95152400D01*
X79547200Y-95052400D02*
X78847200Y-95052400D01*
X79197200Y-95402400D02*
X79197200Y-95752400D01*
X79197200Y-95052400D02*
X79547200Y-95402400D01*
X79547200Y-95402400D02*
X78847200Y-95402400D01*
X78847200Y-95402400D02*
X79197200Y-95052400D01*
X72910000Y-121844000D02*
X72910000Y-124544000D01*
X74410000Y-121844000D02*
X74410000Y-124544000D01*
X73510000Y-123344000D02*
X73760000Y-123344000D01*
X73760000Y-123344000D02*
X73610000Y-123194000D01*
X74010000Y-123094000D02*
X73310000Y-123094000D01*
X73660000Y-123444000D02*
X73660000Y-123794000D01*
X73660000Y-123094000D02*
X74010000Y-123444000D01*
X74010000Y-123444000D02*
X73310000Y-123444000D01*
X73310000Y-123444000D02*
X73660000Y-123094000D01*
X70624000Y-121844000D02*
X70624000Y-124544000D01*
X72124000Y-121844000D02*
X72124000Y-124544000D01*
X71224000Y-123344000D02*
X71474000Y-123344000D01*
X71474000Y-123344000D02*
X71324000Y-123194000D01*
X71724000Y-123094000D02*
X71024000Y-123094000D01*
X71374000Y-123444000D02*
X71374000Y-123794000D01*
X71374000Y-123094000D02*
X71724000Y-123444000D01*
X71724000Y-123444000D02*
X71024000Y-123444000D01*
X71024000Y-123444000D02*
X71374000Y-123094000D01*
X68338000Y-121844000D02*
X68338000Y-124544000D01*
X69838000Y-121844000D02*
X69838000Y-124544000D01*
X68938000Y-123344000D02*
X69188000Y-123344000D01*
X69188000Y-123344000D02*
X69038000Y-123194000D01*
X69438000Y-123094000D02*
X68738000Y-123094000D01*
X69088000Y-123444000D02*
X69088000Y-123794000D01*
X69088000Y-123094000D02*
X69438000Y-123444000D01*
X69438000Y-123444000D02*
X68738000Y-123444000D01*
X68738000Y-123444000D02*
X69088000Y-123094000D01*
X66052000Y-121844000D02*
X66052000Y-124544000D01*
X67552000Y-121844000D02*
X67552000Y-124544000D01*
X66652000Y-123344000D02*
X66902000Y-123344000D01*
X66902000Y-123344000D02*
X66752000Y-123194000D01*
X67152000Y-123094000D02*
X66452000Y-123094000D01*
X66802000Y-123444000D02*
X66802000Y-123794000D01*
X66802000Y-123094000D02*
X67152000Y-123444000D01*
X67152000Y-123444000D02*
X66452000Y-123444000D01*
X66452000Y-123444000D02*
X66802000Y-123094000D01*
X75196000Y-121844000D02*
X75196000Y-124544000D01*
X76696000Y-121844000D02*
X76696000Y-124544000D01*
X75796000Y-123344000D02*
X76046000Y-123344000D01*
X76046000Y-123344000D02*
X75896000Y-123194000D01*
X76296000Y-123094000D02*
X75596000Y-123094000D01*
X75946000Y-123444000D02*
X75946000Y-123794000D01*
X75946000Y-123094000D02*
X76296000Y-123444000D01*
X76296000Y-123444000D02*
X75596000Y-123444000D01*
X75596000Y-123444000D02*
X75946000Y-123094000D01*
X94742000Y-95631000D02*
X102362000Y-95631000D01*
X94742000Y-93091000D02*
X102362000Y-93091000D01*
X91922000Y-92811000D02*
X93472000Y-92811000D01*
X102362000Y-95631000D02*
X102362000Y-93091000D01*
X94742000Y-93091000D02*
X94742000Y-95631000D01*
X93472000Y-95911000D02*
X91922000Y-95911000D01*
X91922000Y-95911000D02*
X91922000Y-92811000D01*
X141591600Y-87503200D02*
X141591600Y-90203200D01*
X143091600Y-87503200D02*
X143091600Y-90203200D01*
X142191600Y-89003200D02*
X142441600Y-89003200D01*
X142441600Y-89003200D02*
X142291600Y-88853200D01*
X142691600Y-88753200D02*
X141991600Y-88753200D01*
X142341600Y-89103200D02*
X142341600Y-89453200D01*
X142341600Y-88753200D02*
X142691600Y-89103200D01*
X142691600Y-89103200D02*
X141991600Y-89103200D01*
X141991600Y-89103200D02*
X142341600Y-88753200D01*
X143170000Y-124830000D02*
X145710000Y-124830000D01*
X140350000Y-124550000D02*
X141900000Y-124550000D01*
X143170000Y-124830000D02*
X143170000Y-127370000D01*
X141900000Y-127650000D02*
X140350000Y-127650000D01*
X140350000Y-127650000D02*
X140350000Y-124550000D01*
X143170000Y-127370000D02*
X145710000Y-127370000D01*
X145710000Y-127370000D02*
X145710000Y-124830000D01*
X109931200Y-127152400D02*
X109931200Y-124612400D01*
X109651200Y-129972400D02*
X109651200Y-128422400D01*
X109931200Y-127152400D02*
X112471200Y-127152400D01*
X112751200Y-128422400D02*
X112751200Y-129972400D01*
X112751200Y-129972400D02*
X109651200Y-129972400D01*
X112471200Y-127152400D02*
X112471200Y-124612400D01*
X112471200Y-124612400D02*
X109931200Y-124612400D01*
X143115000Y-96631200D02*
X143115000Y-97831200D01*
X141365000Y-97831200D02*
X141365000Y-96631200D01*
X83577400Y-94599200D02*
X83577400Y-95799200D01*
X81827400Y-95799200D02*
X81827400Y-94599200D01*
X81245000Y-125335000D02*
X80045000Y-125335000D01*
X80045000Y-123585000D02*
X81245000Y-123585000D01*
X59344000Y-121426000D02*
X60544000Y-121426000D01*
X60544000Y-123176000D02*
X59344000Y-123176000D01*
X59344000Y-123966000D02*
X60544000Y-123966000D01*
X60544000Y-125716000D02*
X59344000Y-125716000D01*
X59344000Y-126506000D02*
X60544000Y-126506000D01*
X60544000Y-128256000D02*
X59344000Y-128256000D01*
X75657000Y-128129000D02*
X74457000Y-128129000D01*
X74457000Y-126379000D02*
X75657000Y-126379000D01*
X137707400Y-97780400D02*
X137707400Y-96580400D01*
X139457400Y-96580400D02*
X139457400Y-97780400D01*
X122240600Y-99909600D02*
X121040600Y-99909600D01*
X121040600Y-98159600D02*
X122240600Y-98159600D01*
X124471400Y-115732000D02*
X124471400Y-116932000D01*
X122721400Y-116932000D02*
X122721400Y-115732000D01*
X140166800Y-113221800D02*
X141366800Y-113221800D01*
X141366800Y-114971800D02*
X140166800Y-114971800D01*
X59627800Y-116678000D02*
X59627800Y-115478000D01*
X61377800Y-115478000D02*
X61377800Y-116678000D01*
X76211400Y-96224800D02*
X76211400Y-97424800D01*
X74461400Y-97424800D02*
X74461400Y-96224800D01*
X57870800Y-98337400D02*
X59070800Y-98337400D01*
X59070800Y-100087400D02*
X57870800Y-100087400D01*
X115366800Y-119888000D02*
X115366800Y-114808000D01*
X115366800Y-114808000D02*
X112826800Y-114808000D01*
X112826800Y-114808000D02*
X112826800Y-119888000D01*
X112546800Y-122708000D02*
X112546800Y-121158000D01*
X112826800Y-119888000D02*
X115366800Y-119888000D01*
X115646800Y-121158000D02*
X115646800Y-122708000D01*
X115646800Y-122708000D02*
X112546800Y-122708000D01*
X77317100Y-80937100D02*
G75*
G03X77317100Y-80937100I-4000000J0D01*
G01*
X121069267Y-76303381D02*
X120735933Y-75827190D01*
X120497838Y-76303381D02*
X120497838Y-75303381D01*
X120878791Y-75303381D01*
X120974029Y-75351000D01*
X121021648Y-75398619D01*
X121069267Y-75493857D01*
X121069267Y-75636714D01*
X121021648Y-75731952D01*
X120974029Y-75779571D01*
X120878791Y-75827190D01*
X120497838Y-75827190D01*
X121497838Y-75779571D02*
X121831172Y-75779571D01*
X121974029Y-76303381D02*
X121497838Y-76303381D01*
X121497838Y-75303381D01*
X121974029Y-75303381D01*
X122735934Y-75779571D02*
X122402600Y-75779571D01*
X122402600Y-76303381D02*
X122402600Y-75303381D01*
X122878791Y-75303381D01*
X123402600Y-75303381D02*
X123402600Y-75541476D01*
X123164505Y-75446238D02*
X123402600Y-75541476D01*
X123640696Y-75446238D01*
X123259743Y-75731952D02*
X123402600Y-75541476D01*
X123545458Y-75731952D01*
X124164505Y-75303381D02*
X124164505Y-75541476D01*
X123926410Y-75446238D02*
X124164505Y-75541476D01*
X124402601Y-75446238D01*
X124021648Y-75731952D02*
X124164505Y-75541476D01*
X124307363Y-75731952D01*
X127705291Y-93510671D02*
X127848148Y-93558290D01*
X127895767Y-93605910D01*
X127943386Y-93701148D01*
X127943386Y-93844005D01*
X127895767Y-93939243D01*
X127848148Y-93986862D01*
X127752910Y-94034481D01*
X127371957Y-94034481D01*
X127371957Y-93034481D01*
X127705291Y-93034481D01*
X127800529Y-93082100D01*
X127848148Y-93129719D01*
X127895767Y-93224957D01*
X127895767Y-93320195D01*
X127848148Y-93415433D01*
X127800529Y-93463052D01*
X127705291Y-93510671D01*
X127371957Y-93510671D01*
X128371957Y-93034481D02*
X128371957Y-93844005D01*
X128419576Y-93939243D01*
X128467195Y-93986862D01*
X128562433Y-94034481D01*
X128752910Y-94034481D01*
X128848148Y-93986862D01*
X128895767Y-93939243D01*
X128943386Y-93844005D01*
X128943386Y-93034481D01*
X129276719Y-93034481D02*
X129848148Y-93034481D01*
X129562433Y-94034481D02*
X129562433Y-93034481D01*
X130038624Y-93034481D02*
X130610053Y-93034481D01*
X130324338Y-94034481D02*
X130324338Y-93034481D01*
X131133862Y-93034481D02*
X131324339Y-93034481D01*
X131419577Y-93082100D01*
X131514815Y-93177338D01*
X131562434Y-93367814D01*
X131562434Y-93701148D01*
X131514815Y-93891624D01*
X131419577Y-93986862D01*
X131324339Y-94034481D01*
X131133862Y-94034481D01*
X131038624Y-93986862D01*
X130943386Y-93891624D01*
X130895767Y-93701148D01*
X130895767Y-93367814D01*
X130943386Y-93177338D01*
X131038624Y-93082100D01*
X131133862Y-93034481D01*
X131991005Y-94034481D02*
X131991005Y-93034481D01*
X132562434Y-94034481D01*
X132562434Y-93034481D01*
X132800529Y-94129719D02*
X133562434Y-94129719D01*
X134276720Y-94034481D02*
X133800529Y-94034481D01*
X133800529Y-93034481D01*
X135133863Y-94034481D02*
X134562434Y-94034481D01*
X134848148Y-94034481D02*
X134848148Y-93034481D01*
X134752910Y-93177338D01*
X134657672Y-93272576D01*
X134562434Y-93320195D01*
X117958171Y-110305409D02*
X118005790Y-110162552D01*
X118053410Y-110114933D01*
X118148648Y-110067314D01*
X118291505Y-110067314D01*
X118386743Y-110114933D01*
X118434362Y-110162552D01*
X118481981Y-110257790D01*
X118481981Y-110638743D01*
X117481981Y-110638743D01*
X117481981Y-110305409D01*
X117529600Y-110210171D01*
X117577219Y-110162552D01*
X117672457Y-110114933D01*
X117767695Y-110114933D01*
X117862933Y-110162552D01*
X117910552Y-110210171D01*
X117958171Y-110305409D01*
X117958171Y-110638743D01*
X117481981Y-109638743D02*
X118291505Y-109638743D01*
X118386743Y-109591124D01*
X118434362Y-109543505D01*
X118481981Y-109448267D01*
X118481981Y-109257790D01*
X118434362Y-109162552D01*
X118386743Y-109114933D01*
X118291505Y-109067314D01*
X117481981Y-109067314D01*
X117481981Y-108733981D02*
X117481981Y-108162552D01*
X118481981Y-108448267D02*
X117481981Y-108448267D01*
X117481981Y-107972076D02*
X117481981Y-107400647D01*
X118481981Y-107686362D02*
X117481981Y-107686362D01*
X117481981Y-106876838D02*
X117481981Y-106686361D01*
X117529600Y-106591123D01*
X117624838Y-106495885D01*
X117815314Y-106448266D01*
X118148648Y-106448266D01*
X118339124Y-106495885D01*
X118434362Y-106591123D01*
X118481981Y-106686361D01*
X118481981Y-106876838D01*
X118434362Y-106972076D01*
X118339124Y-107067314D01*
X118148648Y-107114933D01*
X117815314Y-107114933D01*
X117624838Y-107067314D01*
X117529600Y-106972076D01*
X117481981Y-106876838D01*
X118481981Y-106019695D02*
X117481981Y-106019695D01*
X118481981Y-105448266D01*
X117481981Y-105448266D01*
X118577219Y-105210171D02*
X118577219Y-104448266D01*
X118481981Y-103733980D02*
X118481981Y-104210171D01*
X117481981Y-104210171D01*
X117577219Y-103448266D02*
X117529600Y-103400647D01*
X117481981Y-103305409D01*
X117481981Y-103067313D01*
X117529600Y-102972075D01*
X117577219Y-102924456D01*
X117672457Y-102876837D01*
X117767695Y-102876837D01*
X117910552Y-102924456D01*
X118481981Y-103495885D01*
X118481981Y-102876837D01*
X127692591Y-119896971D02*
X127835448Y-119944590D01*
X127883067Y-119992210D01*
X127930686Y-120087448D01*
X127930686Y-120230305D01*
X127883067Y-120325543D01*
X127835448Y-120373162D01*
X127740210Y-120420781D01*
X127359257Y-120420781D01*
X127359257Y-119420781D01*
X127692591Y-119420781D01*
X127787829Y-119468400D01*
X127835448Y-119516019D01*
X127883067Y-119611257D01*
X127883067Y-119706495D01*
X127835448Y-119801733D01*
X127787829Y-119849352D01*
X127692591Y-119896971D01*
X127359257Y-119896971D01*
X128359257Y-119420781D02*
X128359257Y-120230305D01*
X128406876Y-120325543D01*
X128454495Y-120373162D01*
X128549733Y-120420781D01*
X128740210Y-120420781D01*
X128835448Y-120373162D01*
X128883067Y-120325543D01*
X128930686Y-120230305D01*
X128930686Y-119420781D01*
X129264019Y-119420781D02*
X129835448Y-119420781D01*
X129549733Y-120420781D02*
X129549733Y-119420781D01*
X130025924Y-119420781D02*
X130597353Y-119420781D01*
X130311638Y-120420781D02*
X130311638Y-119420781D01*
X131121162Y-119420781D02*
X131311639Y-119420781D01*
X131406877Y-119468400D01*
X131502115Y-119563638D01*
X131549734Y-119754114D01*
X131549734Y-120087448D01*
X131502115Y-120277924D01*
X131406877Y-120373162D01*
X131311639Y-120420781D01*
X131121162Y-120420781D01*
X131025924Y-120373162D01*
X130930686Y-120277924D01*
X130883067Y-120087448D01*
X130883067Y-119754114D01*
X130930686Y-119563638D01*
X131025924Y-119468400D01*
X131121162Y-119420781D01*
X131978305Y-120420781D02*
X131978305Y-119420781D01*
X132549734Y-120420781D01*
X132549734Y-119420781D01*
X132787829Y-120516019D02*
X133549734Y-120516019D01*
X134264020Y-120420781D02*
X133787829Y-120420781D01*
X133787829Y-119420781D01*
X134502115Y-119420781D02*
X135121163Y-119420781D01*
X134787829Y-119801733D01*
X134930687Y-119801733D01*
X135025925Y-119849352D01*
X135073544Y-119896971D01*
X135121163Y-119992210D01*
X135121163Y-120230305D01*
X135073544Y-120325543D01*
X135025925Y-120373162D01*
X134930687Y-120420781D01*
X134644972Y-120420781D01*
X134549734Y-120373162D01*
X134502115Y-120325543D01*
X144331771Y-110305409D02*
X144379390Y-110162552D01*
X144427010Y-110114933D01*
X144522248Y-110067314D01*
X144665105Y-110067314D01*
X144760343Y-110114933D01*
X144807962Y-110162552D01*
X144855581Y-110257790D01*
X144855581Y-110638743D01*
X143855581Y-110638743D01*
X143855581Y-110305409D01*
X143903200Y-110210171D01*
X143950819Y-110162552D01*
X144046057Y-110114933D01*
X144141295Y-110114933D01*
X144236533Y-110162552D01*
X144284152Y-110210171D01*
X144331771Y-110305409D01*
X144331771Y-110638743D01*
X143855581Y-109638743D02*
X144665105Y-109638743D01*
X144760343Y-109591124D01*
X144807962Y-109543505D01*
X144855581Y-109448267D01*
X144855581Y-109257790D01*
X144807962Y-109162552D01*
X144760343Y-109114933D01*
X144665105Y-109067314D01*
X143855581Y-109067314D01*
X143855581Y-108733981D02*
X143855581Y-108162552D01*
X144855581Y-108448267D02*
X143855581Y-108448267D01*
X143855581Y-107972076D02*
X143855581Y-107400647D01*
X144855581Y-107686362D02*
X143855581Y-107686362D01*
X143855581Y-106876838D02*
X143855581Y-106686361D01*
X143903200Y-106591123D01*
X143998438Y-106495885D01*
X144188914Y-106448266D01*
X144522248Y-106448266D01*
X144712724Y-106495885D01*
X144807962Y-106591123D01*
X144855581Y-106686361D01*
X144855581Y-106876838D01*
X144807962Y-106972076D01*
X144712724Y-107067314D01*
X144522248Y-107114933D01*
X144188914Y-107114933D01*
X143998438Y-107067314D01*
X143903200Y-106972076D01*
X143855581Y-106876838D01*
X144855581Y-106019695D02*
X143855581Y-106019695D01*
X144855581Y-105448266D01*
X143855581Y-105448266D01*
X144950819Y-105210171D02*
X144950819Y-104448266D01*
X144855581Y-103733980D02*
X144855581Y-104210171D01*
X143855581Y-104210171D01*
X144188914Y-102972075D02*
X144855581Y-102972075D01*
X143807962Y-103210171D02*
X144522248Y-103448266D01*
X144522248Y-102829218D01*
X64548191Y-110541371D02*
X64691048Y-110588990D01*
X64738667Y-110636610D01*
X64786286Y-110731848D01*
X64786286Y-110874705D01*
X64738667Y-110969943D01*
X64691048Y-111017562D01*
X64595810Y-111065181D01*
X64214857Y-111065181D01*
X64214857Y-110065181D01*
X64548191Y-110065181D01*
X64643429Y-110112800D01*
X64691048Y-110160419D01*
X64738667Y-110255657D01*
X64738667Y-110350895D01*
X64691048Y-110446133D01*
X64643429Y-110493752D01*
X64548191Y-110541371D01*
X64214857Y-110541371D01*
X65214857Y-110065181D02*
X65214857Y-110874705D01*
X65262476Y-110969943D01*
X65310095Y-111017562D01*
X65405333Y-111065181D01*
X65595810Y-111065181D01*
X65691048Y-111017562D01*
X65738667Y-110969943D01*
X65786286Y-110874705D01*
X65786286Y-110065181D01*
X66119619Y-110065181D02*
X66691048Y-110065181D01*
X66405333Y-111065181D02*
X66405333Y-110065181D01*
X66881524Y-110065181D02*
X67452953Y-110065181D01*
X67167238Y-111065181D02*
X67167238Y-110065181D01*
X67976762Y-110065181D02*
X68167239Y-110065181D01*
X68262477Y-110112800D01*
X68357715Y-110208038D01*
X68405334Y-110398514D01*
X68405334Y-110731848D01*
X68357715Y-110922324D01*
X68262477Y-111017562D01*
X68167239Y-111065181D01*
X67976762Y-111065181D01*
X67881524Y-111017562D01*
X67786286Y-110922324D01*
X67738667Y-110731848D01*
X67738667Y-110398514D01*
X67786286Y-110208038D01*
X67881524Y-110112800D01*
X67976762Y-110065181D01*
X68833905Y-111065181D02*
X68833905Y-110065181D01*
X69405334Y-111065181D01*
X69405334Y-110065181D01*
X69643429Y-111160419D02*
X70405334Y-111160419D01*
X71119620Y-111065181D02*
X70643429Y-111065181D01*
X70643429Y-110065181D01*
X71929144Y-110065181D02*
X71452953Y-110065181D01*
X71405334Y-110541371D01*
X71452953Y-110493752D01*
X71548191Y-110446133D01*
X71786287Y-110446133D01*
X71881525Y-110493752D01*
X71929144Y-110541371D01*
X71976763Y-110636610D01*
X71976763Y-110874705D01*
X71929144Y-110969943D01*
X71881525Y-111017562D01*
X71786287Y-111065181D01*
X71548191Y-111065181D01*
X71452953Y-111017562D01*
X71405334Y-110969943D01*
X72187371Y-109949809D02*
X72234990Y-109806952D01*
X72282610Y-109759333D01*
X72377848Y-109711714D01*
X72520705Y-109711714D01*
X72615943Y-109759333D01*
X72663562Y-109806952D01*
X72711181Y-109902190D01*
X72711181Y-110283143D01*
X71711181Y-110283143D01*
X71711181Y-109949809D01*
X71758800Y-109854571D01*
X71806419Y-109806952D01*
X71901657Y-109759333D01*
X71996895Y-109759333D01*
X72092133Y-109806952D01*
X72139752Y-109854571D01*
X72187371Y-109949809D01*
X72187371Y-110283143D01*
X71711181Y-109283143D02*
X72520705Y-109283143D01*
X72615943Y-109235524D01*
X72663562Y-109187905D01*
X72711181Y-109092667D01*
X72711181Y-108902190D01*
X72663562Y-108806952D01*
X72615943Y-108759333D01*
X72520705Y-108711714D01*
X71711181Y-108711714D01*
X71711181Y-108378381D02*
X71711181Y-107806952D01*
X72711181Y-108092667D02*
X71711181Y-108092667D01*
X71711181Y-107616476D02*
X71711181Y-107045047D01*
X72711181Y-107330762D02*
X71711181Y-107330762D01*
X71711181Y-106521238D02*
X71711181Y-106330761D01*
X71758800Y-106235523D01*
X71854038Y-106140285D01*
X72044514Y-106092666D01*
X72377848Y-106092666D01*
X72568324Y-106140285D01*
X72663562Y-106235523D01*
X72711181Y-106330761D01*
X72711181Y-106521238D01*
X72663562Y-106616476D01*
X72568324Y-106711714D01*
X72377848Y-106759333D01*
X72044514Y-106759333D01*
X71854038Y-106711714D01*
X71758800Y-106616476D01*
X71711181Y-106521238D01*
X72711181Y-105664095D02*
X71711181Y-105664095D01*
X72711181Y-105092666D01*
X71711181Y-105092666D01*
X72806419Y-104854571D02*
X72806419Y-104092666D01*
X72711181Y-103378380D02*
X72711181Y-103854571D01*
X71711181Y-103854571D01*
X71711181Y-102616475D02*
X71711181Y-102806952D01*
X71758800Y-102902190D01*
X71806419Y-102949809D01*
X71949276Y-103045047D01*
X72139752Y-103092666D01*
X72520705Y-103092666D01*
X72615943Y-103045047D01*
X72663562Y-102997428D01*
X72711181Y-102902190D01*
X72711181Y-102711713D01*
X72663562Y-102616475D01*
X72615943Y-102568856D01*
X72520705Y-102521237D01*
X72282610Y-102521237D01*
X72187371Y-102568856D01*
X72139752Y-102616475D01*
X72092133Y-102711713D01*
X72092133Y-102902190D01*
X72139752Y-102997428D01*
X72187371Y-103045047D01*
X72282610Y-103092666D01*
X64548191Y-102167771D02*
X64691048Y-102215390D01*
X64738667Y-102263010D01*
X64786286Y-102358248D01*
X64786286Y-102501105D01*
X64738667Y-102596343D01*
X64691048Y-102643962D01*
X64595810Y-102691581D01*
X64214857Y-102691581D01*
X64214857Y-101691581D01*
X64548191Y-101691581D01*
X64643429Y-101739200D01*
X64691048Y-101786819D01*
X64738667Y-101882057D01*
X64738667Y-101977295D01*
X64691048Y-102072533D01*
X64643429Y-102120152D01*
X64548191Y-102167771D01*
X64214857Y-102167771D01*
X65214857Y-101691581D02*
X65214857Y-102501105D01*
X65262476Y-102596343D01*
X65310095Y-102643962D01*
X65405333Y-102691581D01*
X65595810Y-102691581D01*
X65691048Y-102643962D01*
X65738667Y-102596343D01*
X65786286Y-102501105D01*
X65786286Y-101691581D01*
X66119619Y-101691581D02*
X66691048Y-101691581D01*
X66405333Y-102691581D02*
X66405333Y-101691581D01*
X66881524Y-101691581D02*
X67452953Y-101691581D01*
X67167238Y-102691581D02*
X67167238Y-101691581D01*
X67976762Y-101691581D02*
X68167239Y-101691581D01*
X68262477Y-101739200D01*
X68357715Y-101834438D01*
X68405334Y-102024914D01*
X68405334Y-102358248D01*
X68357715Y-102548724D01*
X68262477Y-102643962D01*
X68167239Y-102691581D01*
X67976762Y-102691581D01*
X67881524Y-102643962D01*
X67786286Y-102548724D01*
X67738667Y-102358248D01*
X67738667Y-102024914D01*
X67786286Y-101834438D01*
X67881524Y-101739200D01*
X67976762Y-101691581D01*
X68833905Y-102691581D02*
X68833905Y-101691581D01*
X69405334Y-102691581D01*
X69405334Y-101691581D01*
X69643429Y-102786819D02*
X70405334Y-102786819D01*
X71119620Y-102691581D02*
X70643429Y-102691581D01*
X70643429Y-101691581D01*
X71357715Y-101691581D02*
X72024382Y-101691581D01*
X71595810Y-102691581D01*
X63813771Y-109949809D02*
X63861390Y-109806952D01*
X63909010Y-109759333D01*
X64004248Y-109711714D01*
X64147105Y-109711714D01*
X64242343Y-109759333D01*
X64289962Y-109806952D01*
X64337581Y-109902190D01*
X64337581Y-110283143D01*
X63337581Y-110283143D01*
X63337581Y-109949809D01*
X63385200Y-109854571D01*
X63432819Y-109806952D01*
X63528057Y-109759333D01*
X63623295Y-109759333D01*
X63718533Y-109806952D01*
X63766152Y-109854571D01*
X63813771Y-109949809D01*
X63813771Y-110283143D01*
X63337581Y-109283143D02*
X64147105Y-109283143D01*
X64242343Y-109235524D01*
X64289962Y-109187905D01*
X64337581Y-109092667D01*
X64337581Y-108902190D01*
X64289962Y-108806952D01*
X64242343Y-108759333D01*
X64147105Y-108711714D01*
X63337581Y-108711714D01*
X63337581Y-108378381D02*
X63337581Y-107806952D01*
X64337581Y-108092667D02*
X63337581Y-108092667D01*
X63337581Y-107616476D02*
X63337581Y-107045047D01*
X64337581Y-107330762D02*
X63337581Y-107330762D01*
X63337581Y-106521238D02*
X63337581Y-106330761D01*
X63385200Y-106235523D01*
X63480438Y-106140285D01*
X63670914Y-106092666D01*
X64004248Y-106092666D01*
X64194724Y-106140285D01*
X64289962Y-106235523D01*
X64337581Y-106330761D01*
X64337581Y-106521238D01*
X64289962Y-106616476D01*
X64194724Y-106711714D01*
X64004248Y-106759333D01*
X63670914Y-106759333D01*
X63480438Y-106711714D01*
X63385200Y-106616476D01*
X63337581Y-106521238D01*
X64337581Y-105664095D02*
X63337581Y-105664095D01*
X64337581Y-105092666D01*
X63337581Y-105092666D01*
X64432819Y-104854571D02*
X64432819Y-104092666D01*
X64337581Y-103378380D02*
X64337581Y-103854571D01*
X63337581Y-103854571D01*
X63766152Y-102902190D02*
X63718533Y-102997428D01*
X63670914Y-103045047D01*
X63575676Y-103092666D01*
X63528057Y-103092666D01*
X63432819Y-103045047D01*
X63385200Y-102997428D01*
X63337581Y-102902190D01*
X63337581Y-102711713D01*
X63385200Y-102616475D01*
X63432819Y-102568856D01*
X63528057Y-102521237D01*
X63575676Y-102521237D01*
X63670914Y-102568856D01*
X63718533Y-102616475D01*
X63766152Y-102711713D01*
X63766152Y-102902190D01*
X63813771Y-102997428D01*
X63861390Y-103045047D01*
X63956629Y-103092666D01*
X64147105Y-103092666D01*
X64242343Y-103045047D01*
X64289962Y-102997428D01*
X64337581Y-102902190D01*
X64337581Y-102711713D01*
X64289962Y-102616475D01*
X64242343Y-102568856D01*
X64147105Y-102521237D01*
X63956629Y-102521237D01*
X63861390Y-102568856D01*
X63813771Y-102616475D01*
X63766152Y-102711713D01*
X70739581Y-91822495D02*
X69739581Y-91822495D01*
X69739581Y-91584400D01*
X69787200Y-91441542D01*
X69882438Y-91346304D01*
X69977676Y-91298685D01*
X70168152Y-91251066D01*
X70311010Y-91251066D01*
X70501486Y-91298685D01*
X70596724Y-91346304D01*
X70691962Y-91441542D01*
X70739581Y-91584400D01*
X70739581Y-91822495D01*
X70739581Y-90298685D02*
X70739581Y-90870114D01*
X70739581Y-90584400D02*
X69739581Y-90584400D01*
X69882438Y-90679638D01*
X69977676Y-90774876D01*
X70025295Y-90870114D01*
X81399581Y-98569067D02*
X80399581Y-98569067D01*
X80732914Y-98092877D02*
X81399581Y-98092877D01*
X80828152Y-98092877D02*
X80780533Y-98045258D01*
X80732914Y-97950020D01*
X80732914Y-97807162D01*
X80780533Y-97711924D01*
X80875771Y-97664305D01*
X81399581Y-97664305D01*
X80732914Y-97330972D02*
X80732914Y-96950020D01*
X81399581Y-97188115D02*
X80542438Y-97188115D01*
X80447200Y-97140496D01*
X80399581Y-97045258D01*
X80399581Y-96950020D01*
X81399581Y-96616686D02*
X80732914Y-96616686D01*
X80923390Y-96616686D02*
X80828152Y-96569067D01*
X80780533Y-96521448D01*
X80732914Y-96426210D01*
X80732914Y-96330971D01*
X81399581Y-95569066D02*
X80875771Y-95569066D01*
X80780533Y-95616685D01*
X80732914Y-95711923D01*
X80732914Y-95902400D01*
X80780533Y-95997638D01*
X81351962Y-95569066D02*
X81399581Y-95664304D01*
X81399581Y-95902400D01*
X81351962Y-95997638D01*
X81256724Y-96045257D01*
X81161486Y-96045257D01*
X81066248Y-95997638D01*
X81018629Y-95902400D01*
X81018629Y-95664304D01*
X80971010Y-95569066D01*
X81399581Y-95092876D02*
X80732914Y-95092876D01*
X80923390Y-95092876D02*
X80828152Y-95045257D01*
X80780533Y-94997638D01*
X80732914Y-94902400D01*
X80732914Y-94807161D01*
X81351962Y-94092875D02*
X81399581Y-94188113D01*
X81399581Y-94378590D01*
X81351962Y-94473828D01*
X81256724Y-94521447D01*
X80875771Y-94521447D01*
X80780533Y-94473828D01*
X80732914Y-94378590D01*
X80732914Y-94188113D01*
X80780533Y-94092875D01*
X80875771Y-94045256D01*
X80971010Y-94045256D01*
X81066248Y-94521447D01*
X81399581Y-93188113D02*
X80399581Y-93188113D01*
X81351962Y-93188113D02*
X81399581Y-93283351D01*
X81399581Y-93473828D01*
X81351962Y-93569066D01*
X81304343Y-93616685D01*
X81209105Y-93664304D01*
X80923390Y-93664304D01*
X80828152Y-93616685D01*
X80780533Y-93569066D01*
X80732914Y-93473828D01*
X80732914Y-93283351D01*
X80780533Y-93188113D01*
X81399581Y-92188113D02*
X81399581Y-92759542D01*
X81399581Y-92473828D02*
X80399581Y-92473828D01*
X80542438Y-92569066D01*
X80637676Y-92664304D01*
X80685295Y-92759542D01*
X75862381Y-123610666D02*
X75862381Y-124086857D01*
X74862381Y-124086857D01*
X75862381Y-122753523D02*
X75862381Y-123324952D01*
X75862381Y-123039238D02*
X74862381Y-123039238D01*
X75005238Y-123134476D01*
X75100476Y-123229714D01*
X75148095Y-123324952D01*
X73576381Y-123610666D02*
X73576381Y-124086857D01*
X72576381Y-124086857D01*
X72671619Y-123324952D02*
X72624000Y-123277333D01*
X72576381Y-123182095D01*
X72576381Y-122943999D01*
X72624000Y-122848761D01*
X72671619Y-122801142D01*
X72766857Y-122753523D01*
X72862095Y-122753523D01*
X73004952Y-122801142D01*
X73576381Y-123372571D01*
X73576381Y-122753523D01*
X71290381Y-123610666D02*
X71290381Y-124086857D01*
X70290381Y-124086857D01*
X70290381Y-123372571D02*
X70290381Y-122753523D01*
X70671333Y-123086857D01*
X70671333Y-122943999D01*
X70718952Y-122848761D01*
X70766571Y-122801142D01*
X70861810Y-122753523D01*
X71099905Y-122753523D01*
X71195143Y-122801142D01*
X71242762Y-122848761D01*
X71290381Y-122943999D01*
X71290381Y-123229714D01*
X71242762Y-123324952D01*
X71195143Y-123372571D01*
X69004381Y-123610666D02*
X69004381Y-124086857D01*
X68004381Y-124086857D01*
X68337714Y-122848761D02*
X69004381Y-122848761D01*
X67956762Y-123086857D02*
X68671048Y-123324952D01*
X68671048Y-122705904D01*
X78148381Y-123610666D02*
X78148381Y-124086857D01*
X77148381Y-124086857D01*
X77148381Y-122801142D02*
X77148381Y-123277333D01*
X77624571Y-123324952D01*
X77576952Y-123277333D01*
X77529333Y-123182095D01*
X77529333Y-122943999D01*
X77576952Y-122848761D01*
X77624571Y-122801142D01*
X77719810Y-122753523D01*
X77957905Y-122753523D01*
X78053143Y-122801142D01*
X78100762Y-122848761D01*
X78148381Y-122943999D01*
X78148381Y-123182095D01*
X78100762Y-123277333D01*
X78053143Y-123324952D01*
X88824381Y-95099095D02*
X87824381Y-95099095D01*
X87824381Y-94718142D01*
X87872000Y-94622904D01*
X87919619Y-94575285D01*
X88014857Y-94527666D01*
X88157714Y-94527666D01*
X88252952Y-94575285D01*
X88300571Y-94622904D01*
X88348190Y-94718142D01*
X88348190Y-95099095D01*
X87919619Y-94146714D02*
X87872000Y-94099095D01*
X87824381Y-94003857D01*
X87824381Y-93765761D01*
X87872000Y-93670523D01*
X87919619Y-93622904D01*
X88014857Y-93575285D01*
X88110095Y-93575285D01*
X88252952Y-93622904D01*
X88824381Y-94194333D01*
X88824381Y-93575285D01*
X144543981Y-91555581D02*
X143543981Y-91555581D01*
X143543981Y-91174628D01*
X143591600Y-91079390D01*
X143639219Y-91031771D01*
X143734457Y-90984152D01*
X143877314Y-90984152D01*
X143972552Y-91031771D01*
X144020171Y-91079390D01*
X144067790Y-91174628D01*
X144067790Y-91555581D01*
X144543981Y-90412724D02*
X144496362Y-90507962D01*
X144448743Y-90555581D01*
X144353505Y-90603200D01*
X144067790Y-90603200D01*
X143972552Y-90555581D01*
X143924933Y-90507962D01*
X143877314Y-90412724D01*
X143877314Y-90269866D01*
X143924933Y-90174628D01*
X143972552Y-90127009D01*
X144067790Y-90079390D01*
X144353505Y-90079390D01*
X144448743Y-90127009D01*
X144496362Y-90174628D01*
X144543981Y-90269866D01*
X144543981Y-90412724D01*
X143877314Y-89746057D02*
X144543981Y-89555581D01*
X144067790Y-89365104D01*
X144543981Y-89174628D01*
X143877314Y-88984152D01*
X144496362Y-88222247D02*
X144543981Y-88317485D01*
X144543981Y-88507962D01*
X144496362Y-88603200D01*
X144401124Y-88650819D01*
X144020171Y-88650819D01*
X143924933Y-88603200D01*
X143877314Y-88507962D01*
X143877314Y-88317485D01*
X143924933Y-88222247D01*
X144020171Y-88174628D01*
X144115410Y-88174628D01*
X144210648Y-88650819D01*
X144543981Y-87746057D02*
X143877314Y-87746057D01*
X144067790Y-87746057D02*
X143972552Y-87698438D01*
X143924933Y-87650819D01*
X143877314Y-87555581D01*
X143877314Y-87460342D01*
X144543981Y-86603199D02*
X144543981Y-87174628D01*
X144543981Y-86888914D02*
X143543981Y-86888914D01*
X143686838Y-86984152D01*
X143782076Y-87079390D01*
X143829695Y-87174628D01*
X137252381Y-128552381D02*
X136252381Y-128552381D01*
X136252381Y-128171428D01*
X136300000Y-128076190D01*
X136347619Y-128028571D01*
X136442857Y-127980952D01*
X136585714Y-127980952D01*
X136680952Y-128028571D01*
X136728571Y-128076190D01*
X136776190Y-128171428D01*
X136776190Y-128552381D01*
X137252381Y-127409524D02*
X137204762Y-127504762D01*
X137157143Y-127552381D01*
X137061905Y-127600000D01*
X136776190Y-127600000D01*
X136680952Y-127552381D01*
X136633333Y-127504762D01*
X136585714Y-127409524D01*
X136585714Y-127266666D01*
X136633333Y-127171428D01*
X136680952Y-127123809D01*
X136776190Y-127076190D01*
X137061905Y-127076190D01*
X137157143Y-127123809D01*
X137204762Y-127171428D01*
X137252381Y-127266666D01*
X137252381Y-127409524D01*
X136585714Y-126742857D02*
X137252381Y-126552381D01*
X136776190Y-126361904D01*
X137252381Y-126171428D01*
X136585714Y-125980952D01*
X137204762Y-125219047D02*
X137252381Y-125314285D01*
X137252381Y-125504762D01*
X137204762Y-125600000D01*
X137109524Y-125647619D01*
X136728571Y-125647619D01*
X136633333Y-125600000D01*
X136585714Y-125504762D01*
X136585714Y-125314285D01*
X136633333Y-125219047D01*
X136728571Y-125171428D01*
X136823810Y-125171428D01*
X136919048Y-125647619D01*
X137252381Y-124742857D02*
X136585714Y-124742857D01*
X136776190Y-124742857D02*
X136680952Y-124695238D01*
X136633333Y-124647619D01*
X136585714Y-124552381D01*
X136585714Y-124457142D01*
X136347619Y-124171428D02*
X136300000Y-124123809D01*
X136252381Y-124028571D01*
X136252381Y-123790475D01*
X136300000Y-123695237D01*
X136347619Y-123647618D01*
X136442857Y-123599999D01*
X136538095Y-123599999D01*
X136680952Y-123647618D01*
X137252381Y-124219047D01*
X137252381Y-123599999D01*
X107820247Y-133974781D02*
X107820247Y-132974781D01*
X108201200Y-132974781D01*
X108296438Y-133022400D01*
X108344057Y-133070019D01*
X108391676Y-133165257D01*
X108391676Y-133308114D01*
X108344057Y-133403352D01*
X108296438Y-133450971D01*
X108201200Y-133498590D01*
X107820247Y-133498590D01*
X108820247Y-133974781D02*
X108820247Y-133308114D01*
X108820247Y-133498590D02*
X108867866Y-133403352D01*
X108915485Y-133355733D01*
X109010723Y-133308114D01*
X109105962Y-133308114D01*
X109582152Y-133974781D02*
X109486914Y-133927162D01*
X109439295Y-133879543D01*
X109391676Y-133784305D01*
X109391676Y-133498590D01*
X109439295Y-133403352D01*
X109486914Y-133355733D01*
X109582152Y-133308114D01*
X109725010Y-133308114D01*
X109820248Y-133355733D01*
X109867867Y-133403352D01*
X109915486Y-133498590D01*
X109915486Y-133784305D01*
X109867867Y-133879543D01*
X109820248Y-133927162D01*
X109725010Y-133974781D01*
X109582152Y-133974781D01*
X110772629Y-133308114D02*
X110772629Y-134117638D01*
X110725010Y-134212876D01*
X110677391Y-134260495D01*
X110582152Y-134308114D01*
X110439295Y-134308114D01*
X110344057Y-134260495D01*
X110772629Y-133927162D02*
X110677391Y-133974781D01*
X110486914Y-133974781D01*
X110391676Y-133927162D01*
X110344057Y-133879543D01*
X110296438Y-133784305D01*
X110296438Y-133498590D01*
X110344057Y-133403352D01*
X110391676Y-133355733D01*
X110486914Y-133308114D01*
X110677391Y-133308114D01*
X110772629Y-133355733D01*
X111248819Y-133974781D02*
X111248819Y-133308114D01*
X111248819Y-133498590D02*
X111296438Y-133403352D01*
X111344057Y-133355733D01*
X111439295Y-133308114D01*
X111534534Y-133308114D01*
X112296439Y-133974781D02*
X112296439Y-133450971D01*
X112248820Y-133355733D01*
X112153582Y-133308114D01*
X111963105Y-133308114D01*
X111867867Y-133355733D01*
X112296439Y-133927162D02*
X112201201Y-133974781D01*
X111963105Y-133974781D01*
X111867867Y-133927162D01*
X111820248Y-133831924D01*
X111820248Y-133736686D01*
X111867867Y-133641448D01*
X111963105Y-133593829D01*
X112201201Y-133593829D01*
X112296439Y-133546210D01*
X112772629Y-133974781D02*
X112772629Y-133308114D01*
X112772629Y-133403352D02*
X112820248Y-133355733D01*
X112915486Y-133308114D01*
X113058344Y-133308114D01*
X113153582Y-133355733D01*
X113201201Y-133450971D01*
X113201201Y-133974781D01*
X113201201Y-133450971D02*
X113248820Y-133355733D01*
X113344058Y-133308114D01*
X113486915Y-133308114D01*
X113582153Y-133355733D01*
X113629772Y-133450971D01*
X113629772Y-133974781D01*
X114629772Y-133974781D02*
X114058343Y-133974781D01*
X114344057Y-133974781D02*
X114344057Y-132974781D01*
X114248819Y-133117638D01*
X114153581Y-133212876D01*
X114058343Y-133260495D01*
X140592381Y-97397866D02*
X140116190Y-97731200D01*
X140592381Y-97969295D02*
X139592381Y-97969295D01*
X139592381Y-97588342D01*
X139640000Y-97493104D01*
X139687619Y-97445485D01*
X139782857Y-97397866D01*
X139925714Y-97397866D01*
X140020952Y-97445485D01*
X140068571Y-97493104D01*
X140116190Y-97588342D01*
X140116190Y-97969295D01*
X140592381Y-96445485D02*
X140592381Y-97016914D01*
X140592381Y-96731200D02*
X139592381Y-96731200D01*
X139735238Y-96826438D01*
X139830476Y-96921676D01*
X139878095Y-97016914D01*
X81054781Y-95365866D02*
X80578590Y-95699200D01*
X81054781Y-95937295D02*
X80054781Y-95937295D01*
X80054781Y-95556342D01*
X80102400Y-95461104D01*
X80150019Y-95413485D01*
X80245257Y-95365866D01*
X80388114Y-95365866D01*
X80483352Y-95413485D01*
X80530971Y-95461104D01*
X80578590Y-95556342D01*
X80578590Y-95937295D01*
X80150019Y-94984914D02*
X80102400Y-94937295D01*
X80054781Y-94842057D01*
X80054781Y-94603961D01*
X80102400Y-94508723D01*
X80150019Y-94461104D01*
X80245257Y-94413485D01*
X80340495Y-94413485D01*
X80483352Y-94461104D01*
X81054781Y-95032533D01*
X81054781Y-94413485D01*
X80478334Y-122812381D02*
X80145000Y-122336190D01*
X79906905Y-122812381D02*
X79906905Y-121812381D01*
X80287858Y-121812381D01*
X80383096Y-121860000D01*
X80430715Y-121907619D01*
X80478334Y-122002857D01*
X80478334Y-122145714D01*
X80430715Y-122240952D01*
X80383096Y-122288571D01*
X80287858Y-122336190D01*
X79906905Y-122336190D01*
X80811667Y-121812381D02*
X81430715Y-121812381D01*
X81097381Y-122193333D01*
X81240239Y-122193333D01*
X81335477Y-122240952D01*
X81383096Y-122288571D01*
X81430715Y-122383810D01*
X81430715Y-122621905D01*
X81383096Y-122717143D01*
X81335477Y-122764762D01*
X81240239Y-122812381D01*
X80954524Y-122812381D01*
X80859286Y-122764762D01*
X80811667Y-122717143D01*
X59777334Y-124853381D02*
X59444000Y-124377190D01*
X59205905Y-124853381D02*
X59205905Y-123853381D01*
X59586858Y-123853381D01*
X59682096Y-123901000D01*
X59729715Y-123948619D01*
X59777334Y-124043857D01*
X59777334Y-124186714D01*
X59729715Y-124281952D01*
X59682096Y-124329571D01*
X59586858Y-124377190D01*
X59205905Y-124377190D01*
X60634477Y-124186714D02*
X60634477Y-124853381D01*
X60396381Y-123805762D02*
X60158286Y-124520048D01*
X60777334Y-124520048D01*
X59777334Y-127393381D02*
X59444000Y-126917190D01*
X59205905Y-127393381D02*
X59205905Y-126393381D01*
X59586858Y-126393381D01*
X59682096Y-126441000D01*
X59729715Y-126488619D01*
X59777334Y-126583857D01*
X59777334Y-126726714D01*
X59729715Y-126821952D01*
X59682096Y-126869571D01*
X59586858Y-126917190D01*
X59205905Y-126917190D01*
X60682096Y-126393381D02*
X60205905Y-126393381D01*
X60158286Y-126869571D01*
X60205905Y-126821952D01*
X60301143Y-126774333D01*
X60539239Y-126774333D01*
X60634477Y-126821952D01*
X60682096Y-126869571D01*
X60729715Y-126964810D01*
X60729715Y-127202905D01*
X60682096Y-127298143D01*
X60634477Y-127345762D01*
X60539239Y-127393381D01*
X60301143Y-127393381D01*
X60205905Y-127345762D01*
X60158286Y-127298143D01*
X59777334Y-129933381D02*
X59444000Y-129457190D01*
X59205905Y-129933381D02*
X59205905Y-128933381D01*
X59586858Y-128933381D01*
X59682096Y-128981000D01*
X59729715Y-129028619D01*
X59777334Y-129123857D01*
X59777334Y-129266714D01*
X59729715Y-129361952D01*
X59682096Y-129409571D01*
X59586858Y-129457190D01*
X59205905Y-129457190D01*
X60634477Y-128933381D02*
X60444000Y-128933381D01*
X60348762Y-128981000D01*
X60301143Y-129028619D01*
X60205905Y-129171476D01*
X60158286Y-129361952D01*
X60158286Y-129742905D01*
X60205905Y-129838143D01*
X60253524Y-129885762D01*
X60348762Y-129933381D01*
X60539239Y-129933381D01*
X60634477Y-129885762D01*
X60682096Y-129838143D01*
X60729715Y-129742905D01*
X60729715Y-129504810D01*
X60682096Y-129409571D01*
X60634477Y-129361952D01*
X60539239Y-129314333D01*
X60348762Y-129314333D01*
X60253524Y-129361952D01*
X60205905Y-129409571D01*
X60158286Y-129504810D01*
X74890334Y-125606381D02*
X74557000Y-125130190D01*
X74318905Y-125606381D02*
X74318905Y-124606381D01*
X74699858Y-124606381D01*
X74795096Y-124654000D01*
X74842715Y-124701619D01*
X74890334Y-124796857D01*
X74890334Y-124939714D01*
X74842715Y-125034952D01*
X74795096Y-125082571D01*
X74699858Y-125130190D01*
X74318905Y-125130190D01*
X75223667Y-124606381D02*
X75890334Y-124606381D01*
X75461762Y-125606381D01*
X141134781Y-97347066D02*
X140658590Y-97680400D01*
X141134781Y-97918495D02*
X140134781Y-97918495D01*
X140134781Y-97537542D01*
X140182400Y-97442304D01*
X140230019Y-97394685D01*
X140325257Y-97347066D01*
X140468114Y-97347066D01*
X140563352Y-97394685D01*
X140610971Y-97442304D01*
X140658590Y-97537542D01*
X140658590Y-97918495D01*
X140563352Y-96775638D02*
X140515733Y-96870876D01*
X140468114Y-96918495D01*
X140372876Y-96966114D01*
X140325257Y-96966114D01*
X140230019Y-96918495D01*
X140182400Y-96870876D01*
X140134781Y-96775638D01*
X140134781Y-96585161D01*
X140182400Y-96489923D01*
X140230019Y-96442304D01*
X140325257Y-96394685D01*
X140372876Y-96394685D01*
X140468114Y-96442304D01*
X140515733Y-96489923D01*
X140563352Y-96585161D01*
X140563352Y-96775638D01*
X140610971Y-96870876D01*
X140658590Y-96918495D01*
X140753829Y-96966114D01*
X140944305Y-96966114D01*
X141039543Y-96918495D01*
X141087162Y-96870876D01*
X141134781Y-96775638D01*
X141134781Y-96585161D01*
X141087162Y-96489923D01*
X141039543Y-96442304D01*
X140944305Y-96394685D01*
X140753829Y-96394685D01*
X140658590Y-96442304D01*
X140610971Y-96489923D01*
X140563352Y-96585161D01*
X120997743Y-97386981D02*
X120664409Y-96910790D01*
X120426314Y-97386981D02*
X120426314Y-96386981D01*
X120807267Y-96386981D01*
X120902505Y-96434600D01*
X120950124Y-96482219D01*
X120997743Y-96577457D01*
X120997743Y-96720314D01*
X120950124Y-96815552D01*
X120902505Y-96863171D01*
X120807267Y-96910790D01*
X120426314Y-96910790D01*
X121950124Y-97386981D02*
X121378695Y-97386981D01*
X121664409Y-97386981D02*
X121664409Y-96386981D01*
X121569171Y-96529838D01*
X121473933Y-96625076D01*
X121378695Y-96672695D01*
X122902505Y-97386981D02*
X122331076Y-97386981D01*
X122616790Y-97386981D02*
X122616790Y-96386981D01*
X122521552Y-96529838D01*
X122426314Y-96625076D01*
X122331076Y-96672695D01*
X121948781Y-116974857D02*
X121472590Y-117308191D01*
X121948781Y-117546286D02*
X120948781Y-117546286D01*
X120948781Y-117165333D01*
X120996400Y-117070095D01*
X121044019Y-117022476D01*
X121139257Y-116974857D01*
X121282114Y-116974857D01*
X121377352Y-117022476D01*
X121424971Y-117070095D01*
X121472590Y-117165333D01*
X121472590Y-117546286D01*
X121948781Y-116022476D02*
X121948781Y-116593905D01*
X121948781Y-116308191D02*
X120948781Y-116308191D01*
X121091638Y-116403429D01*
X121186876Y-116498667D01*
X121234495Y-116593905D01*
X121044019Y-115641524D02*
X120996400Y-115593905D01*
X120948781Y-115498667D01*
X120948781Y-115260571D01*
X120996400Y-115165333D01*
X121044019Y-115117714D01*
X121139257Y-115070095D01*
X121234495Y-115070095D01*
X121377352Y-115117714D01*
X121948781Y-115689143D01*
X121948781Y-115070095D01*
X140123943Y-116649181D02*
X139790609Y-116172990D01*
X139552514Y-116649181D02*
X139552514Y-115649181D01*
X139933467Y-115649181D01*
X140028705Y-115696800D01*
X140076324Y-115744419D01*
X140123943Y-115839657D01*
X140123943Y-115982514D01*
X140076324Y-116077752D01*
X140028705Y-116125371D01*
X139933467Y-116172990D01*
X139552514Y-116172990D01*
X141076324Y-116649181D02*
X140504895Y-116649181D01*
X140790609Y-116649181D02*
X140790609Y-115649181D01*
X140695371Y-115792038D01*
X140600133Y-115887276D01*
X140504895Y-115934895D01*
X141409657Y-115649181D02*
X142028705Y-115649181D01*
X141695371Y-116030133D01*
X141838229Y-116030133D01*
X141933467Y-116077752D01*
X141981086Y-116125371D01*
X142028705Y-116220610D01*
X142028705Y-116458705D01*
X141981086Y-116553943D01*
X141933467Y-116601562D01*
X141838229Y-116649181D01*
X141552514Y-116649181D01*
X141457276Y-116601562D01*
X141409657Y-116553943D01*
X63055181Y-116720857D02*
X62578990Y-117054191D01*
X63055181Y-117292286D02*
X62055181Y-117292286D01*
X62055181Y-116911333D01*
X62102800Y-116816095D01*
X62150419Y-116768476D01*
X62245657Y-116720857D01*
X62388514Y-116720857D01*
X62483752Y-116768476D01*
X62531371Y-116816095D01*
X62578990Y-116911333D01*
X62578990Y-117292286D01*
X63055181Y-115768476D02*
X63055181Y-116339905D01*
X63055181Y-116054191D02*
X62055181Y-116054191D01*
X62198038Y-116149429D01*
X62293276Y-116244667D01*
X62340895Y-116339905D01*
X62055181Y-114911333D02*
X62055181Y-115101810D01*
X62102800Y-115197048D01*
X62150419Y-115244667D01*
X62293276Y-115339905D01*
X62483752Y-115387524D01*
X62864705Y-115387524D01*
X62959943Y-115339905D01*
X63007562Y-115292286D01*
X63055181Y-115197048D01*
X63055181Y-115006571D01*
X63007562Y-114911333D01*
X62959943Y-114863714D01*
X62864705Y-114816095D01*
X62626610Y-114816095D01*
X62531371Y-114863714D01*
X62483752Y-114911333D01*
X62436133Y-115006571D01*
X62436133Y-115197048D01*
X62483752Y-115292286D01*
X62531371Y-115339905D01*
X62626610Y-115387524D01*
X73688781Y-97467657D02*
X73212590Y-97800991D01*
X73688781Y-98039086D02*
X72688781Y-98039086D01*
X72688781Y-97658133D01*
X72736400Y-97562895D01*
X72784019Y-97515276D01*
X72879257Y-97467657D01*
X73022114Y-97467657D01*
X73117352Y-97515276D01*
X73164971Y-97562895D01*
X73212590Y-97658133D01*
X73212590Y-98039086D01*
X73688781Y-96515276D02*
X73688781Y-97086705D01*
X73688781Y-96800991D02*
X72688781Y-96800991D01*
X72831638Y-96896229D01*
X72926876Y-96991467D01*
X72974495Y-97086705D01*
X73117352Y-95943848D02*
X73069733Y-96039086D01*
X73022114Y-96086705D01*
X72926876Y-96134324D01*
X72879257Y-96134324D01*
X72784019Y-96086705D01*
X72736400Y-96039086D01*
X72688781Y-95943848D01*
X72688781Y-95753371D01*
X72736400Y-95658133D01*
X72784019Y-95610514D01*
X72879257Y-95562895D01*
X72926876Y-95562895D01*
X73022114Y-95610514D01*
X73069733Y-95658133D01*
X73117352Y-95753371D01*
X73117352Y-95943848D01*
X73164971Y-96039086D01*
X73212590Y-96086705D01*
X73307829Y-96134324D01*
X73498305Y-96134324D01*
X73593543Y-96086705D01*
X73641162Y-96039086D01*
X73688781Y-95943848D01*
X73688781Y-95753371D01*
X73641162Y-95658133D01*
X73593543Y-95610514D01*
X73498305Y-95562895D01*
X73307829Y-95562895D01*
X73212590Y-95610514D01*
X73164971Y-95658133D01*
X73117352Y-95753371D01*
X57827943Y-101764781D02*
X57494609Y-101288590D01*
X57256514Y-101764781D02*
X57256514Y-100764781D01*
X57637467Y-100764781D01*
X57732705Y-100812400D01*
X57780324Y-100860019D01*
X57827943Y-100955257D01*
X57827943Y-101098114D01*
X57780324Y-101193352D01*
X57732705Y-101240971D01*
X57637467Y-101288590D01*
X57256514Y-101288590D01*
X58780324Y-101764781D02*
X58208895Y-101764781D01*
X58494609Y-101764781D02*
X58494609Y-100764781D01*
X58399371Y-100907638D01*
X58304133Y-101002876D01*
X58208895Y-101050495D01*
X59256514Y-101764781D02*
X59446990Y-101764781D01*
X59542229Y-101717162D01*
X59589848Y-101669543D01*
X59685086Y-101526686D01*
X59732705Y-101336210D01*
X59732705Y-100955257D01*
X59685086Y-100860019D01*
X59637467Y-100812400D01*
X59542229Y-100764781D01*
X59351752Y-100764781D01*
X59256514Y-100812400D01*
X59208895Y-100860019D01*
X59161276Y-100955257D01*
X59161276Y-101193352D01*
X59208895Y-101288590D01*
X59256514Y-101336210D01*
X59351752Y-101383829D01*
X59542229Y-101383829D01*
X59637467Y-101336210D01*
X59685086Y-101288590D01*
X59732705Y-101193352D01*
X113334895Y-125710381D02*
X113334895Y-126519905D01*
X113382514Y-126615143D01*
X113430133Y-126662762D01*
X113525371Y-126710381D01*
X113715848Y-126710381D01*
X113811086Y-126662762D01*
X113858705Y-126615143D01*
X113906324Y-126519905D01*
X113906324Y-125710381D01*
X114334895Y-125805619D02*
X114382514Y-125758000D01*
X114477752Y-125710381D01*
X114715848Y-125710381D01*
X114811086Y-125758000D01*
X114858705Y-125805619D01*
X114906324Y-125900857D01*
X114906324Y-125996095D01*
X114858705Y-126138952D01*
X114287276Y-126710381D01*
X114906324Y-126710381D01*
X71983767Y-76341481D02*
X71650433Y-75865290D01*
X71412338Y-76341481D02*
X71412338Y-75341481D01*
X71793291Y-75341481D01*
X71888529Y-75389100D01*
X71936148Y-75436719D01*
X71983767Y-75531957D01*
X71983767Y-75674814D01*
X71936148Y-75770052D01*
X71888529Y-75817671D01*
X71793291Y-75865290D01*
X71412338Y-75865290D01*
X72412338Y-75817671D02*
X72745672Y-75817671D01*
X72888529Y-76341481D02*
X72412338Y-76341481D01*
X72412338Y-75341481D01*
X72888529Y-75341481D01*
X73650434Y-75817671D02*
X73317100Y-75817671D01*
X73317100Y-76341481D02*
X73317100Y-75341481D01*
X73793291Y-75341481D01*
X74317100Y-75341481D02*
X74317100Y-75579576D01*
X74079005Y-75484338D02*
X74317100Y-75579576D01*
X74555196Y-75484338D01*
X74174243Y-75770052D02*
X74317100Y-75579576D01*
X74459958Y-75770052D01*
X75079005Y-75341481D02*
X75079005Y-75579576D01*
X74840910Y-75484338D02*
X75079005Y-75579576D01*
X75317101Y-75484338D01*
X74936148Y-75770052D02*
X75079005Y-75579576D01*
X75221863Y-75770052D01*
M02*
